<?xml version="1.0" encoding="UTF-8" standalone="no"?>
<!DOCTYPE svg PUBLIC "-//W3C//DTD SVG 1.1//EN" "http://www.w3.org/Graphics/SVG/1.1/DTD/svg11.dtd">
<svg width="20px" height="20px" version="1.1" xmlns="http://www.w3.org/2000/svg" xmlns:xlink="http://www.w3.org/1999/xlink" xml:space="preserve" xmlns:serif="http://www.serif.com/" style="fill-rule:evenodd;clip-rule:evenodd;stroke-linejoin:round;stroke-miterlimit:2;">
    <g transform="matrix(1,0,0,1,-155,-56)">
        <g transform="matrix(0.975,0,0,1.26667,-97.5,-126.667)">
            <g id="button-off" transform="matrix(1.02564,0,0,0.789474,220.437,6.26613)">
                <g id="Ellipse" transform="matrix(0.518653,0,0,0.602934,18.0861,69.3793)">
                    <ellipse cx="56.855" cy="191.315" rx="19.281" ry="16.586" style="fill:rgb(42,42,42);"/>
                    <path d="M57.104,174.731l0.248,0.004l0.248,0.007l0.246,0.009l0.246,0.012l0.245,0.015l0.244,0.017l0.244,0.02l0.242,0.023l0.242,0.025l0.241,0.028l0.239,0.03l0.239,0.033l0.238,0.035l0.237,0.038l0.235,0.04l0.235,0.042l0.234,0.046l0.232,0.047l0.232,0.05l0.23,0.052l0.229,0.055l0.229,0.057l0.227,0.06l0.225,0.062l0.225,0.064l0.223,0.066l0.222,0.069l0.221,0.071l0.219,0.073l0.219,0.075l0.217,0.078l0.215,0.08l0.214,0.082l0.213,0.084l0.212,0.086l0.21,0.089l0.208,0.09l0.207,0.093l0.206,0.095l0.204,0.096l0.203,0.099l0.201,0.101l0.199,0.103l0.198,0.105l0.197,0.107l0.194,0.109l0.194,0.111l0.191,0.113l0.19,0.114l0.188,0.117l0.187,0.118l0.184,0.121l0.183,0.122l0.182,0.124l0.179,0.126l0.178,0.128l0.176,0.129l0.174,0.131l0.172,0.133l0.17,0.135l0.168,0.137l0.167,0.138l0.165,0.14l0.162,0.141l0.161,0.143l0.158,0.145l0.157,0.147l0.155,0.148l0.152,0.15l0.151,0.151l0.148,0.153l0.147,0.154l0.144,0.156l0.142,0.157l0.14,0.159l0.138,0.161l0.135,0.162l0.134,0.163l0.131,0.165l0.129,0.166l0.126,0.167l0.124,0.169l0.122,0.171l0.12,0.171l0.117,0.173l0.115,0.175l0.113,0.175l0.11,0.177l0.108,0.178l0.105,0.18l0.103,0.18l0.1,0.182l0.098,0.183l0.095,0.184l0.093,0.186l0.09,0.186l0.088,0.188l0.085,0.189l0.083,0.19l0.079,0.191l0.078,0.192l0.074,0.193l0.072,0.194l0.069,0.196l0.066,0.196l0.064,0.197l0.061,0.198l0.058,0.199l0.055,0.2l0.053,0.201l0.049,0.202l0.047,0.203l0.044,0.204l0.041,0.204l0.038,0.206l0.035,0.206l0.032,0.207l0.03,0.208l0.026,0.208l0.023,0.21l0.02,0.21l0.017,0.211l0.014,0.211l0.011,0.212l0.008,0.213l0.005,0.214l0.001,0.214l-0.001,0.214l-0.005,0.214l-0.008,0.213l-0.011,0.212l-0.014,0.212l-0.017,0.21l-0.02,0.211l-0.023,0.209l-0.026,0.209l-0.03,0.207l-0.032,0.207l-0.035,0.207l-0.038,0.205l-0.041,0.204l-0.044,0.204l-0.047,0.203l-0.049,0.202l-0.053,0.201l-0.055,0.2l-0.058,0.199l-0.061,0.198l-0.064,0.197l-0.066,0.197l-0.069,0.195l-0.072,0.194l-0.074,0.193l-0.078,0.192l-0.079,0.191l-0.083,0.19l-0.085,0.189l-0.088,0.188l-0.09,0.186l-0.093,0.186l-0.095,0.184l-0.098,0.183l-0.1,0.182l-0.103,0.181l-0.105,0.179l-0.108,0.178l-0.11,0.177l-0.113,0.176l-0.115,0.174l-0.117,0.173l-0.12,0.172l-0.122,0.17l-0.124,0.169l-0.126,0.167l-0.129,0.167l-0.131,0.164l-0.134,0.164l-0.135,0.162l-0.138,0.16l-0.14,0.159l-0.142,0.157l-0.144,0.156l-0.147,0.155l-0.148,0.152l-0.151,0.152l-0.152,0.149l-0.155,0.148l-0.157,0.147l-0.158,0.145l-0.161,0.143l-0.162,0.142l-0.165,0.14l-0.167,0.138l-0.168,0.136l-0.17,0.135l-0.172,0.133l-0.174,0.131l-0.176,0.13l-0.178,0.127l-0.179,0.126l-0.182,0.124l-0.183,0.123l-0.184,0.12l-0.187,0.118l-0.188,0.117l-0.19,0.115l-0.191,0.113l-0.194,0.11l-0.194,0.109l-0.197,0.107l-0.198,0.105l-0.199,0.103l-0.201,0.101l-0.203,0.099l-0.204,0.097l-0.206,0.094l-0.207,0.093l-0.208,0.091l-0.21,0.088l-0.212,0.086l-0.213,0.085l-0.214,0.082l-0.215,0.079l-0.217,0.078l-0.219,0.076l-0.219,0.073l-0.221,0.071l-0.222,0.068l-0.223,0.067l-0.225,0.064l-0.225,0.062l-0.227,0.059l-0.229,0.057l-0.229,0.055l-0.23,0.052l-0.232,0.05l-0.232,0.048l-0.234,0.045l-0.235,0.043l-0.235,0.04l-0.237,0.037l-0.238,0.036l-0.239,0.032l-0.239,0.031l-0.241,0.027l-0.242,0.025l-0.242,0.023l-0.244,0.02l-0.244,0.017l-0.245,0.015l-0.246,0.012l-0.246,0.01l-0.248,0.006l-0.248,0.004l-0.249,0.002l-0.249,-0.002l-0.249,-0.004l-0.247,-0.006l-0.247,-0.01l-0.246,-0.012l-0.245,-0.015l-0.244,-0.017l-0.243,-0.02l-0.243,-0.023l-0.242,-0.025l-0.24,-0.027l-0.24,-0.031l-0.239,-0.032l-0.237,-0.036l-0.237,-0.037l-0.236,-0.04l-0.235,-0.043l-0.233,-0.045l-0.233,-0.048l-0.232,-0.05l-0.23,-0.052l-0.229,-0.055l-0.228,-0.057l-0.227,-0.059l-0.226,-0.062l-0.224,-0.064l-0.224,-0.067l-0.222,-0.068l-0.221,-0.071l-0.219,-0.073l-0.218,-0.076l-0.217,-0.078l-0.216,-0.079l-0.214,-0.082l-0.213,-0.085l-0.211,-0.086l-0.21,-0.088l-0.209,-0.091l-0.207,-0.093l-0.206,-0.094l-0.204,-0.097l-0.202,-0.099l-0.201,-0.101l-0.2,-0.103l-0.198,-0.105l-0.196,-0.107l-0.195,-0.109l-0.193,-0.11l-0.192,-0.113l-0.19,-0.115l-0.188,-0.117l-0.186,-0.118l-0.185,-0.12l-0.183,-0.123l-0.181,-0.124l-0.18,-0.126l-0.177,-0.127l-0.176,-0.13l-0.174,-0.131l-0.172,-0.133l-0.171,-0.135l-0.168,-0.136l-0.167,-0.138l-0.164,-0.14l-0.163,-0.142l-0.16,-0.143l-0.159,-0.145l-0.157,-0.147l-0.154,-0.148l-0.153,-0.149l-0.151,-0.152l-0.148,-0.152l-0.146,-0.155l-0.145,-0.156l-0.142,-0.157l-0.14,-0.159l-0.137,-0.16l-0.136,-0.162l-0.133,-0.164l-0.131,-0.164l-0.129,-0.167l-0.127,-0.167l-0.124,-0.169l-0.122,-0.17l-0.12,-0.172l-0.117,-0.173l-0.115,-0.174l-0.113,-0.176l-0.11,-0.177l-0.107,-0.178l-0.106,-0.179l-0.103,-0.181l-0.1,-0.182l-0.098,-0.183l-0.095,-0.184l-0.093,-0.186l-0.09,-0.186l-0.088,-0.188l-0.085,-0.189l-0.082,-0.19l-0.08,-0.191l-0.077,-0.192l-0.075,-0.193l-0.072,-0.194l-0.069,-0.195l-0.066,-0.197l-0.064,-0.197l-0.061,-0.198l-0.058,-0.199l-0.055,-0.2l-0.052,-0.201l-0.05,-0.202l-0.047,-0.203l-0.044,-0.204l-0.041,-0.204l-0.038,-0.205l-0.035,-0.207l-0.032,-0.207l-0.029,-0.207l-0.026,-0.209l-0.024,-0.209l-0.02,-0.211l-0.017,-0.21l-0.014,-0.212l-0.011,-0.212l-0.008,-0.213l-0.004,-0.214l-0.002,-0.214l0.002,-0.214l0.004,-0.214l0.008,-0.213l0.011,-0.212l0.014,-0.211l0.017,-0.211l0.02,-0.21l0.024,-0.21l0.026,-0.208l0.029,-0.208l0.032,-0.207l0.035,-0.206l0.038,-0.206l0.041,-0.204l0.044,-0.204l0.047,-0.203l0.05,-0.202l0.052,-0.201l0.055,-0.2l0.058,-0.199l0.061,-0.198l0.064,-0.197l0.066,-0.196l0.069,-0.196l0.072,-0.194l0.075,-0.193l0.077,-0.192l0.08,-0.191l0.082,-0.19l0.085,-0.189l0.088,-0.188l0.09,-0.186l0.093,-0.186l0.095,-0.184l0.098,-0.183l0.1,-0.182l0.103,-0.18l0.106,-0.18l0.107,-0.178l0.11,-0.177l0.113,-0.175l0.115,-0.175l0.117,-0.173l0.12,-0.171l0.122,-0.171l0.124,-0.169l0.127,-0.167l0.129,-0.166l0.131,-0.165l0.133,-0.163l0.136,-0.162l0.137,-0.161l0.14,-0.159l0.142,-0.157l0.145,-0.156l0.146,-0.154l0.148,-0.153l0.151,-0.151l0.153,-0.15l0.154,-0.148l0.157,-0.147l0.159,-0.145l0.16,-0.143l0.163,-0.141l0.164,-0.14l0.167,-0.138l0.168,-0.137l0.171,-0.135l0.172,-0.133l0.174,-0.131l0.176,-0.129l0.177,-0.128l0.18,-0.126l0.181,-0.124l0.183,-0.122l0.185,-0.121l0.186,-0.118l0.188,-0.117l0.19,-0.114l0.192,-0.113l0.193,-0.111l0.195,-0.109l0.196,-0.107l0.198,-0.105l0.2,-0.103l0.201,-0.101l0.202,-0.099l0.204,-0.096l0.206,-0.095l0.207,-0.093l0.209,-0.09l0.21,-0.089l0.211,-0.086l0.213,-0.084l0.214,-0.082l0.216,-0.08l0.217,-0.078l0.218,-0.075l0.219,-0.073l0.221,-0.071l0.222,-0.069l0.224,-0.066l0.224,-0.064l0.226,-0.062l0.227,-0.06l0.228,-0.057l0.229,-0.055l0.23,-0.052l0.232,-0.05l0.233,-0.047l0.233,-0.046l0.235,-0.042l0.236,-0.04l0.237,-0.038l0.237,-0.035l0.239,-0.033l0.24,-0.03l0.24,-0.028l0.242,-0.025l0.243,-0.023l0.243,-0.02l0.244,-0.017l0.245,-0.015l0.246,-0.012l0.247,-0.009l0.247,-0.007l0.249,-0.004l0.249,-0.001l0.249,0.001Zm-0.33,10.796l-0.082,0.002l-0.082,0.002l-0.082,0.003l-0.083,0.004l-0.084,0.005l-0.084,0.006l-0.083,0.007l-0.084,0.008l-0.085,0.009l-0.084,0.009l-0.085,0.011l-0.084,0.012l-0.084,0.012l-0.085,0.014l-0.084,0.014l-0.084,0.015l-0.084,0.017l-0.084,0.017l-0.083,0.018l-0.083,0.018l-0.082,0.02l-0.083,0.021l-0.081,0.021l-0.082,0.022l-0.081,0.023l-0.08,0.024l-0.08,0.025l-0.08,0.026l-0.078,0.026l-0.077,0.026l-0.079,0.028l-0.077,0.029l-0.076,0.029l-0.076,0.03l-0.074,0.031l-0.074,0.031l-0.075,0.032l-0.072,0.033l-0.073,0.033l-0.072,0.034l-0.07,0.035l-0.07,0.035l-0.069,0.035l-0.069,0.037l-0.07,0.038l-0.067,0.037l-0.066,0.038l-0.066,0.039l-0.065,0.04l-0.065,0.04l-0.064,0.04l-0.063,0.041l-0.063,0.042l-0.062,0.043l-0.061,0.043l-0.06,0.043l-0.06,0.044l-0.059,0.044l-0.059,0.046l-0.058,0.046l-0.056,0.045l-0.056,0.047l-0.057,0.048l-0.055,0.048l-0.054,0.048l-0.054,0.05l-0.054,0.05l-0.052,0.05l-0.052,0.051l-0.051,0.051l-0.051,0.052l-0.049,0.053l-0.05,0.053l-0.048,0.054l-0.048,0.054l-0.048,0.055l-0.046,0.056l-0.045,0.055l-0.046,0.058l-0.044,0.057l-0.044,0.058l-0.044,0.059l-0.042,0.059l-0.041,0.059l-0.042,0.062l-0.04,0.06l-0.039,0.062l-0.039,0.062l-0.038,0.063l-0.037,0.062l-0.036,0.064l-0.036,0.066l-0.035,0.065l-0.034,0.066l-0.033,0.065l-0.032,0.066l-0.032,0.069l-0.031,0.068l-0.029,0.067l-0.028,0.068l-0.028,0.07l-0.027,0.069l-0.026,0.071l-0.025,0.07l-0.024,0.07l-0.023,0.072l-0.022,0.072l-0.02,0.071l-0.02,0.071l-0.019,0.072l-0.018,0.073l-0.017,0.073l-0.015,0.072l-0.015,0.072l-0.013,0.074l-0.013,0.072l-0.011,0.073l-0.01,0.072l-0.009,0.072l-0.008,0.073l-0.007,0.072l-0.006,0.07l-0.005,0.073l-0.003,0.071l-0.003,0.07l-0.002,0.071l0,0.069l0,0.069l0.002,0.072l0.003,0.069l0.003,0.072l0.005,0.072l0.006,0.07l0.007,0.072l0.008,0.073l0.009,0.072l0.01,0.072l0.011,0.073l0.013,0.072l0.013,0.074l0.015,0.073l0.015,0.071l0.017,0.073l0.018,0.074l0.019,0.072l0.02,0.071l0.02,0.071l0.022,0.071l0.023,0.072l0.024,0.07l0.025,0.07l0.026,0.071l0.027,0.07l0.028,0.069l0.028,0.068l0.029,0.067l0.031,0.068l0.032,0.069l0.032,0.066l0.033,0.065l0.034,0.066l0.035,0.066l0.036,0.065l0.036,0.064l0.037,0.062l0.038,0.063l0.039,0.063l0.039,0.061l0.04,0.061l0.041,0.061l0.042,0.059l0.043,0.06l0.043,0.058l0.043,0.058l0.045,0.057l0.046,0.058l0.045,0.056l0.046,0.055l0.048,0.056l0.048,0.053l0.048,0.054l0.049,0.053l0.05,0.053l0.051,0.052l0.051,0.051l0.052,0.052l0.053,0.05l0.053,0.05l0.054,0.049l0.054,0.048l0.055,0.048l0.057,0.048l0.056,0.047l0.056,0.045l0.058,0.046l0.059,0.046l0.059,0.044l0.06,0.044l0.06,0.044l0.061,0.042l0.062,0.043l0.063,0.042l0.063,0.041l0.064,0.041l0.065,0.04l0.065,0.039l0.066,0.039l0.066,0.038l0.068,0.038l0.069,0.037l0.068,0.037l0.07,0.036l0.07,0.035l0.071,0.034l0.072,0.034l0.071,0.033l0.073,0.033l0.075,0.032l0.074,0.032l0.074,0.03l0.076,0.03l0.077,0.03l0.076,0.028l0.078,0.028l0.078,0.027l0.078,0.026l0.08,0.025l0.08,0.025l0.08,0.024l0.081,0.023l0.081,0.022l0.083,0.022l0.082,0.02l0.082,0.02l0.083,0.019l0.083,0.018l0.084,0.017l0.084,0.016l0.084,0.015l0.084,0.015l0.084,0.013l0.085,0.013l0.084,0.011l0.085,0.011l0.085,0.01l0.083,0.008l0.085,0.008l0.084,0.007l0.083,0.006l0.084,0.005l0.083,0.004l0.082,0.003l0.083,0.003l0.081,0.001l0.081,0l0.081,0l0.081,-0.001l0.082,-0.003l0.082,-0.003l0.084,-0.004l0.083,-0.005l0.083,-0.006l0.085,-0.007l0.084,-0.008l0.084,-0.008l0.085,-0.01l0.084,-0.011l0.085,-0.011l0.084,-0.013l0.084,-0.013l0.085,-0.015l0.083,-0.015l0.084,-0.016l0.084,-0.017l0.084,-0.018l0.082,-0.019l0.082,-0.02l0.083,-0.02l0.082,-0.022l0.081,-0.022l0.081,-0.023l0.08,-0.024l0.08,-0.025l0.08,-0.025l0.078,-0.026l0.078,-0.027l0.078,-0.028l0.076,-0.028l0.077,-0.03l0.076,-0.03l0.075,-0.03l0.074,-0.032l0.074,-0.032l0.073,-0.033l0.072,-0.033l0.072,-0.034l0.071,-0.034l0.07,-0.035l0.069,-0.036l0.069,-0.037l0.069,-0.037l0.067,-0.038l0.066,-0.038l0.066,-0.039l0.066,-0.039l0.064,-0.04l0.064,-0.041l0.064,-0.041l0.062,-0.042l0.062,-0.043l0.061,-0.042l0.061,-0.044l0.06,-0.044l0.058,-0.044l0.06,-0.046l0.058,-0.046l0.056,-0.045l0.056,-0.047l0.057,-0.048l0.055,-0.048l0.053,-0.048l0.054,-0.049l0.054,-0.05l0.052,-0.05l0.053,-0.052l0.05,-0.051l0.051,-0.052l0.05,-0.053l0.049,-0.053l0.049,-0.054l0.047,-0.053l0.048,-0.056l0.046,-0.055l0.046,-0.056l0.046,-0.058l0.044,-0.057l0.044,-0.058l0.043,-0.058l0.042,-0.06l0.042,-0.059l0.041,-0.061l0.04,-0.061l0.039,-0.061l0.04,-0.063l0.037,-0.063l0.037,-0.062l0.036,-0.064l0.036,-0.065l0.036,-0.066l0.034,-0.066l0.032,-0.065l0.032,-0.066l0.032,-0.069l0.031,-0.068l0.029,-0.067l0.028,-0.068l0.028,-0.069l0.027,-0.07l0.027,-0.071l0.024,-0.07l0.024,-0.07l0.023,-0.072l0.022,-0.071l0.021,-0.071l0.019,-0.071l0.019,-0.072l0.018,-0.074l0.017,-0.073l0.016,-0.071l0.014,-0.073l0.014,-0.074l0.012,-0.072l0.011,-0.073l0.01,-0.072l0.01,-0.072l0.008,-0.073l0.007,-0.072l0.005,-0.07l0.005,-0.072l0.004,-0.072l0.002,-0.069l0.002,-0.072l0,-0.069l0,-0.069l-0.002,-0.071l-0.002,-0.07l-0.004,-0.071l-0.005,-0.073l-0.005,-0.07l-0.007,-0.072l-0.008,-0.073l-0.01,-0.072l-0.01,-0.072l-0.011,-0.073l-0.012,-0.072l-0.014,-0.074l-0.014,-0.072l-0.016,-0.072l-0.017,-0.073l-0.018,-0.073l-0.019,-0.072l-0.019,-0.071l-0.021,-0.071l-0.022,-0.072l-0.023,-0.072l-0.024,-0.07l-0.024,-0.07l-0.027,-0.071l-0.027,-0.069l-0.028,-0.07l-0.028,-0.068l-0.029,-0.067l-0.031,-0.068l-0.032,-0.069l-0.032,-0.066l-0.032,-0.065l-0.035,-0.066l-0.034,-0.065l-0.037,-0.066l-0.036,-0.064l-0.037,-0.062l-0.037,-0.063l-0.04,-0.062l-0.039,-0.062l-0.04,-0.06l-0.041,-0.062l-0.042,-0.059l-0.042,-0.059l-0.044,-0.059l-0.043,-0.058l-0.045,-0.057l-0.045,-0.058l-0.046,-0.055l-0.046,-0.056l-0.048,-0.055l-0.047,-0.054l-0.049,-0.054l-0.049,-0.053l-0.05,-0.053l-0.051,-0.052l-0.051,-0.051l-0.052,-0.051l-0.052,-0.05l-0.054,-0.05l-0.054,-0.05l-0.053,-0.048l-0.055,-0.048l-0.057,-0.048l-0.057,-0.047l-0.056,-0.045l-0.057,-0.046l-0.06,-0.046l-0.059,-0.044l-0.059,-0.044l-0.061,-0.043l-0.06,-0.043l-0.063,-0.043l-0.063,-0.042l-0.063,-0.041l-0.064,-0.04l-0.064,-0.04l-0.066,-0.04l-0.066,-0.039l-0.066,-0.038l-0.067,-0.037l-0.069,-0.038l-0.069,-0.037l-0.069,-0.035l-0.07,-0.035l-0.071,-0.035l-0.072,-0.034l-0.072,-0.033l-0.073,-0.033l-0.075,-0.032l-0.074,-0.031l-0.074,-0.031l-0.076,-0.03l-0.076,-0.029l-0.077,-0.029l-0.078,-0.028l-0.077,-0.026l-0.079,-0.026l-0.08,-0.026l-0.08,-0.025l-0.08,-0.024l-0.081,-0.023l-0.081,-0.022l-0.082,-0.021l-0.083,-0.021l-0.082,-0.02l-0.082,-0.018l-0.084,-0.018l-0.083,-0.017l-0.084,-0.017l-0.084,-0.015l-0.085,-0.014l-0.085,-0.014l-0.084,-0.012l-0.084,-0.012l-0.084,-0.011l-0.084,-0.009l-0.085,-0.009l-0.085,-0.008l-0.083,-0.007l-0.084,-0.006l-0.084,-0.005l-0.083,-0.004l-0.082,-0.003l-0.082,-0.002l-0.082,-0.002l-0.08,0l-0.081,0Z" style="fill-opacity:0.5;"/>
                </g>
                <g id="Ellipse1" serif:id="Ellipse" transform="matrix(0.4386,0,0,0.509872,22.6375,86.7485)">
                    <ellipse cx="56.855" cy="191.315" rx="19.281" ry="16.586" style="fill:rgb(84,103,117);"/>
                </g>
                <g id="Ellipse2" serif:id="Ellipse" transform="matrix(0.4386,0,0,0.509872,22.6375,87.1833)">
                    <ellipse cx="56.855" cy="191.315" rx="19.281" ry="16.586" style="fill:rgb(36,44,50);"/>
                </g>
            </g>
        </g>
    </g>
</svg>
