<?xml version="1.0" encoding="UTF-8" standalone="no"?>
<!DOCTYPE svg PUBLIC "-//W3C//DTD SVG 1.1//EN" "http://www.w3.org/Graphics/SVG/1.1/DTD/svg11.dtd">
<svg width="20px" height="20px" version="1.1" xmlns="http://www.w3.org/2000/svg" xmlns:xlink="http://www.w3.org/1999/xlink" xml:space="preserve" xmlns:serif="http://www.serif.com/" style="fill-rule:evenodd;clip-rule:evenodd;stroke-linejoin:round;stroke-miterlimit:2;">
    <g transform="matrix(1,0,0,1,-65,-35)">
        <g id="button_on" transform="matrix(0.666667,0,0,0.666667,55,-105)">
            <g id="Ellipse">
                <circle cx="30" cy="225" r="15" style="fill:rgb(0,209,112);"/>
                <path d="M30.194,210.001l0.193,0.004l0.192,0.006l0.192,0.009l0.192,0.01l0.19,0.014l0.19,0.015l0.19,0.019l0.188,0.02l0.188,0.023l0.188,0.025l0.186,0.027l0.186,0.03l0.185,0.031l0.184,0.035l0.183,0.036l0.183,0.039l0.182,0.04l0.181,0.043l0.18,0.046l0.179,0.047l0.178,0.049l0.178,0.052l0.176,0.054l0.176,0.056l0.175,0.058l0.174,0.06l0.172,0.062l0.172,0.064l0.171,0.066l0.17,0.068l0.168,0.071l0.168,0.072l0.167,0.074l0.165,0.076l0.165,0.078l0.163,0.08l0.162,0.082l0.161,0.084l0.16,0.086l0.159,0.087l0.158,0.09l0.156,0.091l0.156,0.093l0.154,0.095l0.152,0.096l0.152,0.099l0.15,0.1l0.149,0.102l0.148,0.104l0.146,0.105l0.145,0.108l0.144,0.108l0.142,0.111l0.141,0.112l0.14,0.114l0.138,0.116l0.137,0.117l0.136,0.118l0.133,0.121l0.133,0.122l0.131,0.123l0.129,0.125l0.129,0.126l0.126,0.129l0.125,0.129l0.123,0.131l0.122,0.133l0.121,0.133l0.118,0.136l0.117,0.137l0.116,0.138l0.114,0.14l0.112,0.141l0.111,0.142l0.108,0.144l0.108,0.145l0.105,0.146l0.104,0.148l0.102,0.149l0.1,0.15l0.099,0.152l0.096,0.152l0.095,0.154l0.093,0.156l0.091,0.156l0.09,0.158l0.087,0.159l0.086,0.16l0.084,0.161l0.082,0.162l0.08,0.163l0.078,0.165l0.076,0.165l0.074,0.167l0.072,0.168l0.071,0.168l0.068,0.17l0.066,0.171l0.064,0.172l0.062,0.172l0.06,0.174l0.058,0.175l0.056,0.176l0.054,0.176l0.052,0.178l0.049,0.178l0.047,0.179l0.046,0.18l0.043,0.181l0.04,0.182l0.039,0.183l0.036,0.183l0.035,0.184l0.031,0.185l0.03,0.186l0.027,0.186l0.025,0.188l0.023,0.188l0.02,0.188l0.019,0.19l0.015,0.19l0.014,0.19l0.01,0.192l0.009,0.192l0.006,0.192l0.004,0.193l0.001,0.194l-0.001,0.194l-0.004,0.193l-0.006,0.192l-0.009,0.192l-0.01,0.192l-0.014,0.19l-0.015,0.19l-0.019,0.19l-0.02,0.188l-0.023,0.188l-0.025,0.188l-0.027,0.186l-0.03,0.186l-0.031,0.185l-0.035,0.184l-0.036,0.183l-0.039,0.183l-0.04,0.182l-0.043,0.181l-0.046,0.18l-0.047,0.179l-0.049,0.178l-0.052,0.178l-0.054,0.176l-0.056,0.176l-0.058,0.175l-0.06,0.174l-0.062,0.172l-0.064,0.172l-0.066,0.171l-0.068,0.17l-0.071,0.168l-0.072,0.168l-0.074,0.167l-0.076,0.165l-0.078,0.165l-0.08,0.163l-0.082,0.162l-0.084,0.161l-0.086,0.16l-0.087,0.159l-0.09,0.158l-0.091,0.156l-0.093,0.156l-0.095,0.154l-0.096,0.152l-0.099,0.152l-0.1,0.15l-0.102,0.149l-0.104,0.148l-0.105,0.146l-0.108,0.145l-0.108,0.144l-0.111,0.142l-0.112,0.141l-0.114,0.14l-0.116,0.138l-0.117,0.137l-0.118,0.136l-0.121,0.133l-0.122,0.133l-0.123,0.131l-0.125,0.129l-0.126,0.129l-0.129,0.126l-0.129,0.125l-0.131,0.123l-0.133,0.122l-0.133,0.121l-0.136,0.118l-0.137,0.117l-0.138,0.116l-0.14,0.114l-0.141,0.112l-0.142,0.111l-0.144,0.108l-0.145,0.108l-0.146,0.105l-0.148,0.104l-0.149,0.102l-0.15,0.1l-0.152,0.099l-0.152,0.096l-0.154,0.095l-0.156,0.093l-0.156,0.091l-0.158,0.09l-0.159,0.087l-0.16,0.086l-0.161,0.084l-0.162,0.082l-0.163,0.08l-0.165,0.078l-0.165,0.076l-0.167,0.074l-0.168,0.072l-0.168,0.071l-0.17,0.068l-0.171,0.066l-0.172,0.064l-0.172,0.062l-0.174,0.06l-0.175,0.058l-0.176,0.056l-0.176,0.054l-0.178,0.052l-0.178,0.049l-0.179,0.047l-0.18,0.046l-0.181,0.043l-0.182,0.04l-0.183,0.039l-0.183,0.036l-0.184,0.035l-0.185,0.031l-0.186,0.03l-0.186,0.027l-0.188,0.025l-0.188,0.023l-0.188,0.02l-0.19,0.019l-0.19,0.015l-0.19,0.014l-0.192,0.01l-0.192,0.009l-0.192,0.006l-0.193,0.004l-0.194,0.001l-0.194,-0.001l-0.193,-0.004l-0.192,-0.006l-0.192,-0.009l-0.192,-0.01l-0.19,-0.014l-0.19,-0.015l-0.19,-0.019l-0.188,-0.02l-0.188,-0.023l-0.188,-0.025l-0.186,-0.027l-0.186,-0.03l-0.185,-0.031l-0.184,-0.035l-0.183,-0.036l-0.183,-0.039l-0.182,-0.04l-0.181,-0.043l-0.18,-0.046l-0.179,-0.047l-0.178,-0.049l-0.178,-0.052l-0.176,-0.054l-0.176,-0.056l-0.175,-0.058l-0.174,-0.06l-0.172,-0.062l-0.172,-0.064l-0.171,-0.066l-0.17,-0.068l-0.168,-0.071l-0.168,-0.072l-0.167,-0.074l-0.165,-0.076l-0.165,-0.078l-0.163,-0.08l-0.162,-0.082l-0.161,-0.084l-0.16,-0.086l-0.159,-0.087l-0.158,-0.09l-0.156,-0.091l-0.156,-0.093l-0.154,-0.095l-0.152,-0.096l-0.152,-0.099l-0.15,-0.1l-0.149,-0.102l-0.148,-0.104l-0.146,-0.105l-0.145,-0.108l-0.144,-0.108l-0.142,-0.111l-0.141,-0.112l-0.14,-0.114l-0.138,-0.116l-0.137,-0.117l-0.136,-0.118l-0.133,-0.121l-0.133,-0.122l-0.131,-0.123l-0.129,-0.125l-0.129,-0.126l-0.126,-0.129l-0.125,-0.129l-0.123,-0.131l-0.122,-0.133l-0.121,-0.133l-0.118,-0.136l-0.117,-0.137l-0.116,-0.138l-0.114,-0.14l-0.112,-0.141l-0.111,-0.142l-0.108,-0.144l-0.108,-0.145l-0.105,-0.146l-0.104,-0.148l-0.102,-0.149l-0.1,-0.15l-0.099,-0.152l-0.096,-0.152l-0.095,-0.154l-0.093,-0.156l-0.091,-0.156l-0.09,-0.158l-0.087,-0.159l-0.086,-0.16l-0.084,-0.161l-0.082,-0.162l-0.08,-0.163l-0.078,-0.165l-0.076,-0.165l-0.074,-0.167l-0.072,-0.168l-0.071,-0.168l-0.068,-0.17l-0.066,-0.171l-0.064,-0.172l-0.062,-0.172l-0.06,-0.174l-0.058,-0.175l-0.056,-0.176l-0.054,-0.176l-0.052,-0.178l-0.049,-0.178l-0.047,-0.179l-0.046,-0.18l-0.043,-0.181l-0.04,-0.182l-0.039,-0.183l-0.036,-0.183l-0.035,-0.184l-0.031,-0.185l-0.03,-0.186l-0.027,-0.186l-0.025,-0.188l-0.023,-0.188l-0.02,-0.188l-0.019,-0.19l-0.015,-0.19l-0.014,-0.19l-0.01,-0.192l-0.009,-0.192l-0.006,-0.192l-0.004,-0.193l-0.001,-0.194l0.001,-0.194l0.004,-0.193l0.006,-0.192l0.009,-0.192l0.01,-0.192l0.014,-0.19l0.015,-0.19l0.019,-0.19l0.02,-0.188l0.023,-0.188l0.025,-0.188l0.027,-0.186l0.03,-0.186l0.031,-0.185l0.035,-0.184l0.036,-0.183l0.039,-0.183l0.04,-0.182l0.043,-0.181l0.046,-0.18l0.047,-0.179l0.049,-0.178l0.052,-0.178l0.054,-0.176l0.056,-0.176l0.058,-0.175l0.06,-0.174l0.062,-0.172l0.064,-0.172l0.066,-0.171l0.068,-0.17l0.071,-0.168l0.072,-0.168l0.074,-0.167l0.076,-0.165l0.078,-0.165l0.08,-0.163l0.082,-0.162l0.084,-0.161l0.086,-0.16l0.087,-0.159l0.09,-0.158l0.091,-0.156l0.093,-0.156l0.095,-0.154l0.096,-0.152l0.099,-0.152l0.1,-0.15l0.102,-0.149l0.104,-0.148l0.105,-0.146l0.108,-0.145l0.108,-0.144l0.111,-0.142l0.112,-0.141l0.114,-0.14l0.116,-0.138l0.117,-0.137l0.118,-0.136l0.121,-0.133l0.122,-0.133l0.123,-0.131l0.125,-0.129l0.126,-0.129l0.129,-0.126l0.129,-0.125l0.131,-0.123l0.133,-0.122l0.133,-0.121l0.136,-0.118l0.137,-0.117l0.138,-0.116l0.14,-0.114l0.141,-0.112l0.142,-0.111l0.144,-0.108l0.145,-0.108l0.146,-0.105l0.148,-0.104l0.149,-0.102l0.15,-0.1l0.152,-0.099l0.152,-0.096l0.154,-0.095l0.156,-0.093l0.156,-0.091l0.158,-0.09l0.159,-0.087l0.16,-0.086l0.161,-0.084l0.162,-0.082l0.163,-0.08l0.165,-0.078l0.165,-0.076l0.167,-0.074l0.168,-0.072l0.168,-0.071l0.17,-0.068l0.171,-0.066l0.172,-0.064l0.172,-0.062l0.174,-0.06l0.175,-0.058l0.176,-0.056l0.176,-0.054l0.178,-0.052l0.178,-0.049l0.179,-0.047l0.18,-0.046l0.181,-0.043l0.182,-0.04l0.183,-0.039l0.183,-0.036l0.184,-0.035l0.185,-0.031l0.186,-0.03l0.186,-0.027l0.188,-0.025l0.188,-0.023l0.188,-0.02l0.19,-0.019l0.19,-0.015l0.19,-0.014l0.192,-0.01l0.192,-0.009l0.192,-0.006l0.193,-0.004l0.194,-0.001l0.194,0.001Zm-0.372,1.225l-0.178,0.003l-0.177,0.006l-0.176,0.008l-0.176,0.01l-0.175,0.012l-0.175,0.014l-0.174,0.017l-0.173,0.019l-0.173,0.02l-0.172,0.023l-0.171,0.026l-0.17,0.027l-0.17,0.029l-0.169,0.031l-0.169,0.034l-0.167,0.035l-0.167,0.038l-0.166,0.039l-0.165,0.042l-0.165,0.043l-0.164,0.045l-0.162,0.048l-0.162,0.049l-0.162,0.051l-0.16,0.054l-0.159,0.055l-0.159,0.057l-0.158,0.059l-0.156,0.06l-0.156,0.063l-0.155,0.064l-0.154,0.067l-0.153,0.068l-0.152,0.07l-0.151,0.071l-0.15,0.074l-0.149,0.075l-0.148,0.077l-0.147,0.079l-0.145,0.08l-0.145,0.082l-0.144,0.084l-0.142,0.085l-0.142,0.088l-0.14,0.088l-0.139,0.091l-0.138,0.092l-0.137,0.094l-0.136,0.095l-0.135,0.097l-0.133,0.098l-0.132,0.1l-0.131,0.102l-0.129,0.103l-0.129,0.105l-0.127,0.106l-0.125,0.107l-0.125,0.109l-0.123,0.111l-0.121,0.112l-0.121,0.113l-0.119,0.115l-0.118,0.116l-0.116,0.118l-0.115,0.119l-0.113,0.12l-0.112,0.122l-0.111,0.123l-0.109,0.125l-0.107,0.125l-0.106,0.127l-0.105,0.129l-0.103,0.129l-0.102,0.131l-0.1,0.132l-0.098,0.133l-0.097,0.135l-0.095,0.136l-0.094,0.137l-0.092,0.138l-0.091,0.139l-0.088,0.14l-0.088,0.142l-0.085,0.142l-0.084,0.144l-0.082,0.145l-0.081,0.145l-0.078,0.147l-0.077,0.148l-0.075,0.149l-0.074,0.15l-0.071,0.151l-0.07,0.152l-0.068,0.153l-0.067,0.154l-0.064,0.155l-0.063,0.156l-0.06,0.156l-0.059,0.158l-0.057,0.159l-0.055,0.159l-0.054,0.16l-0.051,0.162l-0.049,0.162l-0.048,0.162l-0.045,0.164l-0.043,0.165l-0.042,0.165l-0.039,0.166l-0.038,0.167l-0.035,0.167l-0.034,0.169l-0.031,0.169l-0.029,0.17l-0.027,0.17l-0.026,0.171l-0.023,0.172l-0.02,0.173l-0.019,0.173l-0.017,0.174l-0.014,0.175l-0.012,0.175l-0.01,0.176l-0.008,0.176l-0.006,0.177l-0.003,0.178l-0.001,0.178l0.001,0.178l0.003,0.178l0.006,0.177l0.008,0.176l0.01,0.176l0.012,0.175l0.014,0.175l0.017,0.174l0.019,0.173l0.02,0.173l0.023,0.172l0.026,0.171l0.027,0.17l0.029,0.17l0.031,0.169l0.034,0.169l0.035,0.167l0.038,0.167l0.039,0.166l0.042,0.165l0.043,0.165l0.045,0.164l0.048,0.162l0.049,0.162l0.051,0.162l0.054,0.16l0.055,0.159l0.057,0.159l0.059,0.158l0.06,0.156l0.063,0.156l0.064,0.155l0.067,0.154l0.068,0.153l0.07,0.152l0.071,0.151l0.074,0.15l0.075,0.149l0.077,0.148l0.078,0.147l0.081,0.145l0.082,0.145l0.084,0.144l0.085,0.142l0.088,0.142l0.088,0.14l0.091,0.139l0.092,0.138l0.094,0.137l0.095,0.136l0.097,0.135l0.098,0.133l0.1,0.132l0.102,0.131l0.103,0.129l0.105,0.129l0.106,0.127l0.107,0.125l0.109,0.125l0.111,0.123l0.112,0.122l0.113,0.12l0.115,0.119l0.116,0.118l0.118,0.116l0.119,0.115l0.121,0.113l0.121,0.112l0.123,0.111l0.125,0.109l0.125,0.107l0.127,0.106l0.129,0.105l0.129,0.103l0.131,0.102l0.132,0.1l0.133,0.098l0.135,0.097l0.136,0.095l0.137,0.094l0.138,0.092l0.139,0.091l0.14,0.088l0.142,0.088l0.142,0.085l0.144,0.084l0.145,0.082l0.145,0.08l0.147,0.079l0.148,0.077l0.149,0.075l0.15,0.074l0.151,0.071l0.152,0.07l0.153,0.068l0.154,0.067l0.155,0.064l0.156,0.063l0.156,0.06l0.158,0.059l0.159,0.057l0.159,0.055l0.16,0.054l0.162,0.051l0.162,0.049l0.162,0.048l0.164,0.045l0.165,0.043l0.165,0.042l0.166,0.039l0.167,0.038l0.167,0.035l0.169,0.034l0.169,0.031l0.17,0.029l0.17,0.027l0.171,0.026l0.172,0.023l0.173,0.02l0.173,0.019l0.174,0.017l0.175,0.014l0.175,0.012l0.176,0.01l0.176,0.008l0.177,0.006l0.178,0.003l0.178,0.001l0.178,-0.001l0.178,-0.003l0.177,-0.006l0.176,-0.008l0.176,-0.01l0.175,-0.012l0.175,-0.014l0.174,-0.017l0.173,-0.019l0.173,-0.02l0.172,-0.023l0.171,-0.026l0.17,-0.027l0.17,-0.029l0.169,-0.031l0.169,-0.034l0.167,-0.035l0.167,-0.038l0.166,-0.039l0.165,-0.042l0.165,-0.043l0.164,-0.045l0.162,-0.048l0.162,-0.049l0.162,-0.051l0.16,-0.054l0.159,-0.055l0.159,-0.057l0.158,-0.059l0.156,-0.06l0.156,-0.063l0.155,-0.064l0.154,-0.067l0.153,-0.068l0.152,-0.07l0.151,-0.071l0.15,-0.074l0.149,-0.075l0.148,-0.077l0.147,-0.079l0.145,-0.08l0.145,-0.082l0.144,-0.084l0.142,-0.085l0.142,-0.088l0.14,-0.088l0.139,-0.091l0.138,-0.092l0.137,-0.094l0.136,-0.095l0.135,-0.097l0.133,-0.098l0.132,-0.1l0.131,-0.102l0.129,-0.103l0.129,-0.105l0.127,-0.106l0.125,-0.107l0.125,-0.109l0.123,-0.111l0.121,-0.112l0.121,-0.113l0.119,-0.115l0.118,-0.116l0.116,-0.118l0.115,-0.119l0.113,-0.12l0.112,-0.122l0.111,-0.123l0.109,-0.125l0.107,-0.125l0.106,-0.127l0.105,-0.129l0.103,-0.129l0.102,-0.131l0.1,-0.132l0.098,-0.133l0.097,-0.135l0.095,-0.136l0.094,-0.137l0.092,-0.138l0.091,-0.139l0.088,-0.14l0.088,-0.142l0.085,-0.142l0.084,-0.144l0.082,-0.145l0.081,-0.145l0.078,-0.147l0.077,-0.148l0.075,-0.149l0.074,-0.15l0.071,-0.151l0.07,-0.152l0.068,-0.153l0.067,-0.154l0.064,-0.155l0.063,-0.156l0.06,-0.156l0.059,-0.158l0.057,-0.159l0.055,-0.159l0.054,-0.16l0.051,-0.162l0.049,-0.162l0.048,-0.162l0.045,-0.164l0.043,-0.165l0.042,-0.165l0.039,-0.166l0.038,-0.167l0.035,-0.167l0.034,-0.169l0.031,-0.169l0.029,-0.17l0.027,-0.17l0.026,-0.171l0.023,-0.172l0.02,-0.173l0.019,-0.173l0.017,-0.174l0.014,-0.175l0.012,-0.175l0.01,-0.176l0.008,-0.176l0.006,-0.177l0.003,-0.178l0.001,-0.178l-0.001,-0.178l-0.003,-0.178l-0.006,-0.177l-0.008,-0.176l-0.01,-0.176l-0.012,-0.175l-0.014,-0.175l-0.017,-0.174l-0.019,-0.173l-0.02,-0.173l-0.023,-0.172l-0.026,-0.171l-0.027,-0.17l-0.029,-0.17l-0.031,-0.169l-0.034,-0.169l-0.035,-0.167l-0.038,-0.167l-0.039,-0.166l-0.042,-0.165l-0.043,-0.165l-0.045,-0.164l-0.048,-0.162l-0.049,-0.162l-0.051,-0.162l-0.054,-0.16l-0.055,-0.159l-0.057,-0.159l-0.059,-0.158l-0.06,-0.156l-0.063,-0.156l-0.064,-0.155l-0.067,-0.154l-0.068,-0.153l-0.07,-0.152l-0.071,-0.151l-0.074,-0.15l-0.075,-0.149l-0.077,-0.148l-0.078,-0.147l-0.081,-0.145l-0.082,-0.145l-0.084,-0.144l-0.085,-0.142l-0.088,-0.142l-0.088,-0.14l-0.091,-0.139l-0.092,-0.138l-0.094,-0.137l-0.095,-0.136l-0.097,-0.135l-0.098,-0.133l-0.1,-0.132l-0.102,-0.131l-0.103,-0.129l-0.105,-0.129l-0.106,-0.127l-0.107,-0.125l-0.109,-0.125l-0.111,-0.123l-0.112,-0.122l-0.113,-0.12l-0.115,-0.119l-0.116,-0.118l-0.118,-0.116l-0.119,-0.115l-0.121,-0.113l-0.121,-0.112l-0.123,-0.111l-0.125,-0.109l-0.125,-0.107l-0.127,-0.106l-0.129,-0.105l-0.129,-0.103l-0.131,-0.102l-0.132,-0.1l-0.133,-0.098l-0.135,-0.097l-0.136,-0.095l-0.137,-0.094l-0.138,-0.092l-0.139,-0.091l-0.14,-0.088l-0.142,-0.088l-0.142,-0.085l-0.144,-0.084l-0.145,-0.082l-0.145,-0.08l-0.147,-0.079l-0.148,-0.077l-0.149,-0.075l-0.15,-0.074l-0.151,-0.071l-0.152,-0.07l-0.153,-0.068l-0.154,-0.067l-0.155,-0.064l-0.156,-0.063l-0.156,-0.06l-0.158,-0.059l-0.159,-0.057l-0.159,-0.055l-0.16,-0.054l-0.162,-0.051l-0.162,-0.049l-0.162,-0.048l-0.164,-0.045l-0.165,-0.043l-0.165,-0.042l-0.166,-0.039l-0.167,-0.038l-0.167,-0.035l-0.169,-0.034l-0.169,-0.031l-0.17,-0.029l-0.17,-0.027l-0.171,-0.026l-0.172,-0.023l-0.173,-0.02l-0.173,-0.019l-0.174,-0.017l-0.175,-0.014l-0.175,-0.012l-0.176,-0.01l-0.176,-0.008l-0.177,-0.006l-0.178,-0.003l-0.178,-0.001l-0.178,0.001Z"/>
            </g>
        </g>
    </g>
</svg>
