<?xml version="1.0" encoding="UTF-8" standalone="no"?>
<!DOCTYPE svg PUBLIC "-//W3C//DTD SVG 1.1//EN" "http://www.w3.org/Graphics/SVG/1.1/DTD/svg11.dtd">
<svg width="26px" height="26px" version="1.1" xmlns="http://www.w3.org/2000/svg" xmlns:xlink="http://www.w3.org/1999/xlink" xml:space="preserve" xmlns:serif="http://www.serif.com/" style="fill-rule:evenodd;clip-rule:evenodd;stroke-linecap:round;stroke-linejoin:round;stroke-miterlimit:1.5;">
    <g transform="matrix(1,0,0,1,-152,-185)">
        <g id="input" transform="matrix(0.8,0,0,0.8,105,42)">
            <path d="M75,180c8.279,0 15,6.721 15,15c0,8.279 -6.721,15 -15,15c-8.279,0 -15,-6.721 -15,-15c0,-8.279 6.721,-15 15,-15Zm0,4.05c6.043,0 10.95,4.907 10.95,10.95c0,6.043 -4.907,10.95 -10.95,10.95c-6.043,0 -10.95,-4.907 -10.95,-10.95c0,-6.043 4.907,-10.95 10.95,-10.95Z" style="fill:rgb(230,230,230);stroke:rgb(49,49,49);stroke-width:0.23px;"/>
            <path id="Curves" d="M64.389,192.288c-0.221,0.867 -0.339,1.776 -0.339,2.712c0,0.936 0.118,1.845 0.339,2.712l-4.144,0c-0.161,-0.88 -0.245,-1.786 -0.245,-2.712c0,-0.926 0.084,-1.832 0.245,-2.712l4.144,0Zm25.366,0c0.161,0.88 0.245,1.786 0.245,2.712c0,0.926 -0.084,1.832 -0.245,2.712l-4.144,0c0.221,-0.867 0.339,-1.776 0.339,-2.712c0,-0.936 -0.118,-1.845 -0.339,-2.712l4.144,0Z" style="fill:rgb(26,26,26);stroke:rgb(38,38,38);stroke-width:0.23px;"/>
            <g id="Ellipse" transform="matrix(2.7857,0,0,2.7857,-133.189,-348.211)">
                <circle cx="74.735" cy="195" r="2.712" style="fill:rgb(14,14,14);"/>
            </g>
            <rect id="Rectangle" x="73.474" y="195" width="2.965" height="10.95" style="fill:rgb(42,42,42);"/>
            <g id="Donut" transform="matrix(2.75558,0,0,2.75558,-135.283,-341.99)">
                <path d="M76.312,190.9c2.193,0 3.973,1.781 3.973,3.974c0,2.193 -1.78,3.974 -3.973,3.974c-2.193,0 -3.974,-1.781 -3.974,-3.974c0,-2.193 1.781,-3.974 3.974,-3.974Zm0,1.232c1.513,0 2.742,1.229 2.742,2.742c0,1.513 -1.229,2.742 -2.742,2.742c-1.514,0 -2.742,-1.229 -2.742,-2.742c0,-1.513 1.228,-2.742 2.742,-2.742Z" style="fill:rgb(60,60,60);stroke:rgb(26,26,26);stroke-width:0.44px;"/>
            </g>
        </g>
    </g>
</svg>
