<?xml version="1.0" encoding="UTF-8" standalone="no"?>
<!DOCTYPE svg PUBLIC "-//W3C//DTD SVG 1.1//EN" "http://www.w3.org/Graphics/SVG/1.1/DTD/svg11.dtd">
<svg width="38px" height="38px" version="1.1" xmlns="http://www.w3.org/2000/svg" xmlns:xlink="http://www.w3.org/1999/xlink" xml:space="preserve" xmlns:serif="http://www.serif.com/" style="fill-rule:evenodd;clip-rule:evenodd;stroke-linecap:round;stroke-linejoin:bevel;stroke-miterlimit:1.5;">
    <g transform="matrix(1,0,0,1,-244,-138)">
        <g transform="matrix(0.994047,0,0,1,5.75872,0)">
            <g id="knob-green-big" transform="matrix(1.27425,0,0,1.26667,201.44,41.7783)">
                <g id="Ellipse" transform="matrix(0.734375,0,0,0.789474,7.96876,16)">
                    <ellipse cx="50.426" cy="95" rx="20.426" ry="19" style="fill:rgb(29,29,29);"/>
                    <path d="M50.558,76l0.131,0.002l0.132,0.001l0.131,0.003l0.132,0.004l0.131,0.004l0.13,0.005l0.131,0.006l0.13,0.006l0.13,0.008l0.13,0.008l0.13,0.008l0.13,0.01l0.129,0.01l0.129,0.011l0.129,0.012l0.128,0.013l0.129,0.013l0.128,0.014l0.128,0.015l0.127,0.015l0.127,0.016l0.128,0.017l0.126,0.018l0.127,0.018l0.126,0.02l0.252,0.04l0.251,0.043l0.25,0.046l0.248,0.049l0.248,0.052l0.246,0.054l0.246,0.058l0.244,0.06l0.243,0.062l0.241,0.066l0.241,0.068l0.239,0.071l0.238,0.073l0.236,0.076l0.236,0.079l0.233,0.081l0.233,0.084l0.231,0.086l0.23,0.089l0.228,0.092l0.227,0.093l0.226,0.097l0.224,0.099l0.222,0.101l0.221,0.104l0.219,0.106l0.218,0.109l0.216,0.111l0.215,0.113l0.213,0.115l0.212,0.118l0.209,0.121l0.208,0.122l0.207,0.125l0.204,0.127l0.203,0.129l0.201,0.131l0.2,0.134l0.197,0.136l0.196,0.138l0.194,0.14l0.192,0.142l0.19,0.144l0.188,0.146l0.186,0.149l0.185,0.15l0.182,0.152l0.181,0.155l0.178,0.156l0.176,0.158l0.175,0.161l0.172,0.162l0.17,0.164l0.168,0.166l0.166,0.168l0.164,0.169l0.162,0.172l0.159,0.173l0.157,0.175l0.155,0.177l0.153,0.179l0.151,0.18l0.148,0.182l0.146,0.184l0.144,0.185l0.141,0.187l0.139,0.189l0.136,0.19l0.134,0.192l0.132,0.194l0.129,0.195l0.127,0.197l0.124,0.198l0.122,0.199l0.119,0.202l0.117,0.202l0.114,0.204l0.112,0.206l0.109,0.207l0.106,0.208l0.104,0.21l0.101,0.211l0.098,0.212l0.095,0.214l0.093,0.215l0.09,0.216l0.088,0.218l0.084,0.219l0.082,0.22l0.079,0.221l0.076,0.223l0.073,0.223l0.071,0.225l0.067,0.226l0.065,0.227l0.061,0.228l0.059,0.229l0.055,0.231l0.053,0.231l0.049,0.232l0.047,0.234l0.043,0.234l0.021,0.117l0.02,0.118l0.019,0.118l0.018,0.118l0.017,0.119l0.017,0.118l0.016,0.119l0.015,0.12l0.014,0.119l0.014,0.12l0.012,0.119l0.012,0.12l0.011,0.121l0.01,0.12l0.01,0.121l0.009,0.121l0.007,0.121l0.007,0.121l0.007,0.121l0.005,0.122l0.005,0.122l0.003,0.122l0.003,0.122l0.002,0.123l0.002,0.122l0,0.123l0,0.123l-0.002,0.122l-0.002,0.123l-0.003,0.122l-0.003,0.122l-0.005,0.122l-0.005,0.122l-0.007,0.121l-0.007,0.121l-0.007,0.121l-0.009,0.121l-0.01,0.121l-0.01,0.12l-0.011,0.121l-0.012,0.12l-0.012,0.119l-0.014,0.12l-0.014,0.119l-0.015,0.12l-0.016,0.119l-0.017,0.118l-0.017,0.119l-0.018,0.118l-0.019,0.118l-0.02,0.118l-0.021,0.117l-0.043,0.234l-0.047,0.234l-0.049,0.232l-0.053,0.231l-0.055,0.231l-0.059,0.229l-0.061,0.228l-0.065,0.227l-0.067,0.226l-0.071,0.225l-0.073,0.223l-0.076,0.223l-0.079,0.221l-0.082,0.22l-0.084,0.219l-0.088,0.218l-0.09,0.216l-0.093,0.215l-0.095,0.214l-0.098,0.212l-0.101,0.211l-0.104,0.21l-0.106,0.208l-0.109,0.207l-0.112,0.206l-0.114,0.204l-0.117,0.202l-0.119,0.202l-0.122,0.199l-0.124,0.198l-0.127,0.197l-0.129,0.195l-0.132,0.194l-0.134,0.192l-0.136,0.19l-0.139,0.189l-0.141,0.187l-0.144,0.185l-0.146,0.184l-0.148,0.182l-0.151,0.18l-0.153,0.179l-0.155,0.177l-0.157,0.175l-0.159,0.173l-0.162,0.172l-0.164,0.169l-0.166,0.168l-0.168,0.166l-0.17,0.164l-0.172,0.162l-0.175,0.161l-0.176,0.158l-0.178,0.156l-0.181,0.155l-0.182,0.152l-0.185,0.15l-0.186,0.149l-0.188,0.146l-0.19,0.144l-0.192,0.142l-0.194,0.14l-0.196,0.138l-0.197,0.136l-0.2,0.134l-0.201,0.131l-0.203,0.129l-0.204,0.127l-0.207,0.125l-0.208,0.122l-0.209,0.121l-0.212,0.118l-0.213,0.115l-0.215,0.113l-0.216,0.111l-0.218,0.109l-0.219,0.106l-0.221,0.104l-0.222,0.101l-0.224,0.099l-0.226,0.097l-0.227,0.093l-0.228,0.092l-0.23,0.089l-0.231,0.086l-0.233,0.084l-0.233,0.081l-0.236,0.079l-0.236,0.076l-0.238,0.073l-0.239,0.071l-0.241,0.068l-0.241,0.066l-0.243,0.062l-0.244,0.06l-0.246,0.058l-0.246,0.054l-0.248,0.052l-0.248,0.049l-0.25,0.046l-0.251,0.043l-0.252,0.04l-0.126,0.02l-0.127,0.018l-0.126,0.018l-0.128,0.017l-0.127,0.016l-0.127,0.015l-0.128,0.015l-0.128,0.014l-0.129,0.013l-0.128,0.013l-0.129,0.012l-0.129,0.011l-0.129,0.01l-0.13,0.01l-0.13,0.008l-0.13,0.008l-0.13,0.008l-0.13,0.006l-0.131,0.006l-0.13,0.005l-0.131,0.004l-0.132,0.004l-0.131,0.003l-0.132,0.001l-0.131,0.002l-0.132,0l-0.132,0l-0.132,-0.002l-0.132,-0.001l-0.131,-0.003l-0.132,-0.004l-0.131,-0.004l-0.13,-0.005l-0.131,-0.006l-0.13,-0.006l-0.13,-0.008l-0.13,-0.008l-0.13,-0.008l-0.13,-0.01l-0.129,-0.01l-0.129,-0.011l-0.129,-0.012l-0.128,-0.013l-0.128,-0.013l-0.129,-0.014l-0.127,-0.015l-0.128,-0.015l-0.127,-0.016l-0.127,-0.017l-0.127,-0.018l-0.127,-0.018l-0.126,-0.02l-0.252,-0.04l-0.251,-0.043l-0.25,-0.046l-0.248,-0.049l-0.248,-0.052l-0.246,-0.054l-0.246,-0.058l-0.244,-0.06l-0.243,-0.062l-0.241,-0.066l-0.241,-0.068l-0.239,-0.071l-0.238,-0.073l-0.236,-0.076l-0.235,-0.079l-0.234,-0.081l-0.233,-0.084l-0.231,-0.086l-0.23,-0.089l-0.228,-0.092l-0.227,-0.093l-0.226,-0.097l-0.223,-0.099l-0.223,-0.101l-0.221,-0.104l-0.219,-0.106l-0.218,-0.109l-0.216,-0.111l-0.215,-0.113l-0.213,-0.115l-0.211,-0.118l-0.21,-0.121l-0.208,-0.122l-0.207,-0.125l-0.204,-0.127l-0.203,-0.129l-0.201,-0.131l-0.2,-0.134l-0.197,-0.136l-0.196,-0.138l-0.194,-0.14l-0.192,-0.142l-0.19,-0.144l-0.188,-0.146l-0.186,-0.149l-0.185,-0.15l-0.182,-0.152l-0.181,-0.155l-0.178,-0.156l-0.176,-0.158l-0.175,-0.161l-0.172,-0.162l-0.17,-0.164l-0.168,-0.166l-0.166,-0.168l-0.164,-0.169l-0.162,-0.172l-0.159,-0.173l-0.157,-0.175l-0.155,-0.177l-0.153,-0.179l-0.151,-0.18l-0.148,-0.182l-0.146,-0.184l-0.143,-0.185l-0.142,-0.187l-0.139,-0.189l-0.136,-0.19l-0.134,-0.192l-0.132,-0.194l-0.129,-0.195l-0.127,-0.197l-0.124,-0.198l-0.122,-0.199l-0.119,-0.202l-0.117,-0.202l-0.114,-0.204l-0.112,-0.206l-0.109,-0.207l-0.106,-0.208l-0.103,-0.21l-0.101,-0.211l-0.099,-0.212l-0.095,-0.214l-0.093,-0.215l-0.09,-0.216l-0.088,-0.218l-0.084,-0.219l-0.082,-0.22l-0.079,-0.221l-0.076,-0.223l-0.073,-0.223l-0.071,-0.225l-0.067,-0.226l-0.064,-0.227l-0.062,-0.228l-0.059,-0.229l-0.055,-0.231l-0.053,-0.231l-0.049,-0.232l-0.047,-0.234l-0.043,-0.234l-0.021,-0.117l-0.019,-0.118l-0.019,-0.118l-0.019,-0.118l-0.017,-0.119l-0.017,-0.118l-0.016,-0.119l-0.015,-0.12l-0.014,-0.119l-0.013,-0.12l-0.013,-0.119l-0.012,-0.12l-0.011,-0.121l-0.01,-0.12l-0.01,-0.121l-0.009,-0.121l-0.007,-0.121l-0.007,-0.121l-0.007,-0.121l-0.005,-0.122l-0.005,-0.122l-0.003,-0.122l-0.003,-0.122l-0.002,-0.123l-0.002,-0.122l0,-0.123l0,-0.123l0.002,-0.122l0.002,-0.123l0.003,-0.122l0.003,-0.122l0.005,-0.122l0.005,-0.122l0.007,-0.121l0.007,-0.121l0.007,-0.121l0.009,-0.121l0.01,-0.121l0.01,-0.12l0.011,-0.121l0.012,-0.12l0.013,-0.119l0.013,-0.12l0.014,-0.119l0.015,-0.12l0.016,-0.119l0.017,-0.118l0.017,-0.119l0.019,-0.118l0.019,-0.118l0.019,-0.118l0.021,-0.117l0.043,-0.234l0.047,-0.234l0.049,-0.232l0.053,-0.231l0.055,-0.231l0.059,-0.229l0.062,-0.228l0.064,-0.227l0.067,-0.226l0.071,-0.225l0.073,-0.223l0.076,-0.223l0.079,-0.221l0.082,-0.22l0.084,-0.219l0.088,-0.218l0.09,-0.216l0.093,-0.215l0.095,-0.214l0.099,-0.212l0.101,-0.211l0.103,-0.21l0.106,-0.208l0.109,-0.207l0.112,-0.206l0.114,-0.204l0.117,-0.202l0.119,-0.202l0.122,-0.199l0.124,-0.198l0.127,-0.197l0.129,-0.195l0.132,-0.194l0.134,-0.192l0.136,-0.19l0.139,-0.189l0.142,-0.187l0.143,-0.185l0.146,-0.184l0.148,-0.182l0.151,-0.18l0.153,-0.179l0.155,-0.177l0.157,-0.175l0.159,-0.173l0.162,-0.172l0.164,-0.169l0.166,-0.168l0.168,-0.166l0.17,-0.164l0.172,-0.162l0.175,-0.161l0.176,-0.158l0.178,-0.156l0.181,-0.155l0.182,-0.152l0.185,-0.15l0.186,-0.149l0.188,-0.146l0.19,-0.144l0.192,-0.142l0.194,-0.14l0.196,-0.138l0.197,-0.136l0.2,-0.134l0.201,-0.131l0.203,-0.129l0.204,-0.127l0.207,-0.125l0.208,-0.122l0.21,-0.121l0.211,-0.118l0.213,-0.115l0.215,-0.113l0.216,-0.111l0.218,-0.109l0.219,-0.106l0.221,-0.104l0.223,-0.101l0.223,-0.099l0.226,-0.097l0.227,-0.093l0.228,-0.092l0.23,-0.089l0.231,-0.086l0.233,-0.084l0.234,-0.081l0.235,-0.079l0.236,-0.076l0.238,-0.073l0.239,-0.071l0.241,-0.068l0.241,-0.066l0.243,-0.062l0.244,-0.06l0.246,-0.058l0.246,-0.054l0.248,-0.052l0.248,-0.049l0.25,-0.046l0.251,-0.043l0.252,-0.04l0.126,-0.02l0.127,-0.018l0.127,-0.018l0.127,-0.017l0.127,-0.016l0.128,-0.015l0.127,-0.015l0.129,-0.014l0.128,-0.013l0.128,-0.013l0.129,-0.012l0.129,-0.011l0.129,-0.01l0.13,-0.01l0.13,-0.008l0.13,-0.008l0.13,-0.008l0.13,-0.006l0.131,-0.006l0.13,-0.005l0.131,-0.004l0.132,-0.004l0.131,-0.003l0.132,-0.001l0.132,-0.002l0.132,0l0.132,0Zm-0.263,0.287l-0.129,0.001l-0.13,0.002l-0.13,0.003l-0.129,0.003l-0.129,0.004l-0.129,0.005l-0.128,0.006l-0.129,0.006l-0.128,0.007l-0.128,0.008l-0.128,0.009l-0.127,0.009l-0.127,0.011l-0.128,0.011l-0.126,0.011l-0.127,0.013l-0.126,0.013l-0.127,0.013l-0.126,0.015l-0.125,0.015l-0.126,0.016l-0.125,0.017l-0.125,0.017l-0.124,0.018l-0.124,0.019l-0.249,0.04l-0.247,0.043l-0.246,0.045l-0.245,0.048l-0.244,0.051l-0.242,0.054l-0.242,0.056l-0.24,0.059l-0.239,0.062l-0.238,0.064l-0.237,0.067l-0.236,0.07l-0.234,0.072l-0.233,0.075l-0.231,0.078l-0.231,0.08l-0.229,0.082l-0.227,0.085l-0.227,0.088l-0.225,0.09l-0.223,0.092l-0.222,0.095l-0.221,0.098l-0.219,0.1l-0.217,0.102l-0.217,0.104l-0.214,0.107l-0.213,0.11l-0.211,0.111l-0.21,0.114l-0.209,0.116l-0.206,0.119l-0.205,0.12l-0.203,0.123l-0.202,0.125l-0.2,0.127l-0.198,0.13l-0.196,0.131l-0.195,0.134l-0.192,0.136l-0.191,0.138l-0.19,0.14l-0.187,0.142l-0.185,0.144l-0.184,0.146l-0.181,0.148l-0.18,0.15l-0.178,0.152l-0.175,0.154l-0.174,0.156l-0.172,0.158l-0.17,0.16l-0.167,0.162l-0.166,0.163l-0.163,0.165l-0.162,0.167l-0.159,0.169l-0.157,0.171l-0.155,0.172l-0.153,0.175l-0.15,0.176l-0.148,0.177l-0.146,0.18l-0.144,0.181l-0.142,0.182l-0.139,0.185l-0.137,0.185l-0.134,0.188l-0.132,0.189l-0.13,0.191l-0.127,0.192l-0.125,0.193l-0.122,0.196l-0.12,0.196l-0.118,0.198l-0.115,0.2l-0.112,0.201l-0.11,0.202l-0.107,0.204l-0.105,0.205l-0.102,0.207l-0.099,0.208l-0.097,0.209l-0.094,0.21l-0.092,0.212l-0.089,0.213l-0.086,0.215l-0.083,0.215l-0.08,0.217l-0.078,0.218l-0.075,0.219l-0.072,0.22l-0.069,0.221l-0.067,0.223l-0.063,0.223l-0.061,0.225l-0.058,0.226l-0.054,0.227l-0.052,0.227l-0.049,0.229l-0.046,0.23l-0.042,0.231l-0.021,0.115l-0.019,0.116l-0.019,0.117l-0.018,0.116l-0.017,0.117l-0.016,0.117l-0.016,0.117l-0.015,0.117l-0.014,0.118l-0.013,0.117l-0.013,0.118l-0.011,0.119l-0.011,0.118l-0.01,0.119l-0.01,0.119l-0.008,0.119l-0.008,0.119l-0.007,0.119l-0.006,0.12l-0.005,0.12l-0.005,0.12l-0.003,0.12l-0.003,0.121l-0.002,0.12l-0.002,0.121l0,0.121l0,0.121l0.002,0.121l0.002,0.12l0.003,0.121l0.003,0.12l0.005,0.12l0.005,0.12l0.006,0.12l0.007,0.119l0.008,0.119l0.008,0.119l0.01,0.119l0.01,0.119l0.011,0.118l0.011,0.119l0.013,0.117l0.013,0.118l0.014,0.118l0.015,0.117l0.016,0.117l0.016,0.117l0.017,0.117l0.018,0.116l0.019,0.117l0.019,0.116l0.021,0.115l0.042,0.231l0.046,0.23l0.049,0.229l0.052,0.227l0.054,0.227l0.058,0.226l0.061,0.225l0.063,0.223l0.067,0.223l0.069,0.221l0.072,0.22l0.075,0.219l0.078,0.218l0.08,0.217l0.083,0.215l0.086,0.215l0.089,0.213l0.092,0.212l0.094,0.21l0.097,0.209l0.099,0.208l0.102,0.207l0.105,0.205l0.107,0.204l0.11,0.202l0.112,0.201l0.115,0.2l0.118,0.198l0.12,0.196l0.122,0.196l0.125,0.193l0.127,0.192l0.13,0.191l0.132,0.189l0.134,0.188l0.137,0.185l0.139,0.185l0.142,0.182l0.144,0.181l0.146,0.18l0.148,0.177l0.15,0.176l0.153,0.174l0.155,0.173l0.157,0.171l0.159,0.169l0.162,0.167l0.163,0.165l0.166,0.163l0.167,0.162l0.17,0.16l0.172,0.158l0.174,0.156l0.175,0.154l0.178,0.152l0.18,0.15l0.181,0.148l0.184,0.146l0.185,0.144l0.187,0.142l0.19,0.14l0.191,0.138l0.192,0.136l0.195,0.134l0.196,0.131l0.198,0.13l0.2,0.127l0.202,0.125l0.203,0.123l0.205,0.12l0.206,0.119l0.209,0.116l0.21,0.114l0.211,0.111l0.213,0.11l0.214,0.107l0.217,0.104l0.217,0.102l0.219,0.1l0.221,0.098l0.222,0.095l0.223,0.092l0.225,0.09l0.227,0.088l0.227,0.085l0.229,0.082l0.231,0.08l0.231,0.078l0.233,0.075l0.234,0.072l0.236,0.07l0.237,0.067l0.238,0.064l0.239,0.062l0.24,0.059l0.242,0.056l0.242,0.054l0.244,0.051l0.245,0.048l0.246,0.045l0.247,0.043l0.249,0.04l0.124,0.019l0.124,0.018l0.125,0.017l0.125,0.017l0.126,0.016l0.125,0.015l0.126,0.015l0.127,0.013l0.126,0.013l0.127,0.013l0.126,0.011l0.128,0.011l0.127,0.01l0.127,0.01l0.128,0.009l0.128,0.008l0.128,0.007l0.129,0.006l0.128,0.006l0.129,0.005l0.129,0.004l0.129,0.003l0.13,0.003l0.13,0.002l0.129,0.001l0.131,0.001l0.13,-0.001l0.129,-0.001l0.13,-0.002l0.13,-0.003l0.129,-0.003l0.129,-0.004l0.129,-0.005l0.128,-0.006l0.129,-0.006l0.128,-0.007l0.128,-0.008l0.128,-0.009l0.127,-0.01l0.128,-0.01l0.127,-0.011l0.127,-0.011l0.126,-0.013l0.127,-0.013l0.126,-0.013l0.126,-0.015l0.125,-0.015l0.126,-0.016l0.125,-0.017l0.125,-0.017l0.125,-0.018l0.123,-0.019l0.249,-0.04l0.247,-0.043l0.246,-0.045l0.245,-0.048l0.244,-0.051l0.242,-0.054l0.242,-0.056l0.24,-0.059l0.239,-0.062l0.238,-0.064l0.237,-0.067l0.236,-0.07l0.234,-0.072l0.233,-0.075l0.232,-0.078l0.23,-0.08l0.229,-0.082l0.228,-0.085l0.226,-0.088l0.225,-0.09l0.223,-0.092l0.222,-0.095l0.221,-0.098l0.219,-0.1l0.218,-0.102l0.216,-0.104l0.214,-0.107l0.213,-0.11l0.212,-0.111l0.209,-0.114l0.209,-0.116l0.206,-0.119l0.205,-0.12l0.203,-0.123l0.202,-0.125l0.2,-0.127l0.198,-0.13l0.196,-0.131l0.195,-0.134l0.193,-0.136l0.191,-0.138l0.189,-0.14l0.187,-0.142l0.185,-0.144l0.184,-0.146l0.181,-0.148l0.18,-0.15l0.178,-0.152l0.176,-0.154l0.173,-0.156l0.172,-0.158l0.17,-0.16l0.167,-0.162l0.166,-0.163l0.163,-0.165l0.162,-0.167l0.159,-0.169l0.157,-0.171l0.155,-0.173l0.153,-0.174l0.15,-0.176l0.148,-0.177l0.146,-0.18l0.144,-0.181l0.142,-0.182l0.139,-0.185l0.137,-0.185l0.134,-0.188l0.132,-0.189l0.13,-0.191l0.127,-0.192l0.125,-0.193l0.122,-0.196l0.12,-0.196l0.118,-0.198l0.115,-0.2l0.112,-0.201l0.11,-0.202l0.107,-0.204l0.105,-0.205l0.102,-0.207l0.099,-0.208l0.097,-0.209l0.094,-0.21l0.092,-0.212l0.089,-0.213l0.086,-0.215l0.083,-0.215l0.08,-0.217l0.078,-0.218l0.075,-0.219l0.072,-0.22l0.069,-0.221l0.067,-0.223l0.063,-0.223l0.061,-0.225l0.058,-0.226l0.054,-0.227l0.052,-0.227l0.049,-0.229l0.046,-0.23l0.043,-0.231l0.02,-0.115l0.019,-0.116l0.019,-0.117l0.018,-0.116l0.017,-0.117l0.016,-0.117l0.016,-0.117l0.015,-0.117l0.014,-0.118l0.013,-0.118l0.013,-0.117l0.011,-0.119l0.011,-0.118l0.01,-0.119l0.01,-0.119l0.008,-0.119l0.008,-0.119l0.007,-0.119l0.006,-0.12l0.005,-0.12l0.005,-0.12l0.004,-0.12l0.002,-0.121l0.002,-0.12l0.002,-0.121l0,-0.121l0,-0.121l-0.002,-0.121l-0.002,-0.12l-0.002,-0.121l-0.004,-0.12l-0.005,-0.12l-0.005,-0.12l-0.006,-0.12l-0.007,-0.119l-0.008,-0.119l-0.008,-0.119l-0.01,-0.119l-0.01,-0.119l-0.011,-0.118l-0.011,-0.119l-0.013,-0.118l-0.013,-0.117l-0.014,-0.118l-0.015,-0.117l-0.016,-0.117l-0.016,-0.117l-0.017,-0.117l-0.018,-0.116l-0.019,-0.117l-0.019,-0.116l-0.02,-0.115l-0.043,-0.231l-0.046,-0.23l-0.049,-0.229l-0.052,-0.227l-0.054,-0.227l-0.058,-0.226l-0.061,-0.225l-0.063,-0.223l-0.067,-0.223l-0.069,-0.221l-0.072,-0.22l-0.075,-0.219l-0.078,-0.218l-0.08,-0.217l-0.083,-0.215l-0.086,-0.215l-0.089,-0.213l-0.092,-0.212l-0.094,-0.21l-0.097,-0.209l-0.099,-0.208l-0.102,-0.207l-0.105,-0.205l-0.107,-0.204l-0.11,-0.202l-0.112,-0.201l-0.115,-0.2l-0.118,-0.198l-0.12,-0.196l-0.122,-0.196l-0.125,-0.193l-0.127,-0.192l-0.13,-0.191l-0.132,-0.189l-0.134,-0.188l-0.137,-0.185l-0.139,-0.185l-0.142,-0.182l-0.144,-0.181l-0.146,-0.18l-0.148,-0.177l-0.15,-0.176l-0.153,-0.175l-0.155,-0.172l-0.157,-0.171l-0.159,-0.169l-0.162,-0.167l-0.163,-0.165l-0.166,-0.163l-0.167,-0.162l-0.17,-0.16l-0.172,-0.158l-0.173,-0.156l-0.176,-0.154l-0.178,-0.152l-0.18,-0.15l-0.181,-0.148l-0.184,-0.146l-0.185,-0.144l-0.187,-0.142l-0.189,-0.14l-0.191,-0.138l-0.193,-0.136l-0.195,-0.134l-0.196,-0.131l-0.198,-0.13l-0.2,-0.127l-0.202,-0.125l-0.203,-0.123l-0.205,-0.12l-0.206,-0.119l-0.209,-0.116l-0.209,-0.114l-0.212,-0.111l-0.213,-0.11l-0.214,-0.107l-0.216,-0.104l-0.218,-0.102l-0.219,-0.1l-0.221,-0.098l-0.222,-0.095l-0.223,-0.092l-0.225,-0.09l-0.226,-0.088l-0.228,-0.085l-0.229,-0.082l-0.23,-0.08l-0.232,-0.078l-0.233,-0.075l-0.234,-0.072l-0.236,-0.07l-0.237,-0.067l-0.238,-0.064l-0.239,-0.062l-0.24,-0.059l-0.242,-0.056l-0.242,-0.054l-0.244,-0.051l-0.245,-0.048l-0.246,-0.045l-0.247,-0.043l-0.249,-0.04l-0.123,-0.019l-0.125,-0.018l-0.125,-0.017l-0.125,-0.017l-0.126,-0.016l-0.125,-0.015l-0.126,-0.015l-0.126,-0.013l-0.127,-0.013l-0.126,-0.013l-0.127,-0.011l-0.127,-0.011l-0.128,-0.011l-0.127,-0.009l-0.128,-0.009l-0.128,-0.008l-0.128,-0.007l-0.129,-0.006l-0.128,-0.006l-0.129,-0.005l-0.129,-0.004l-0.129,-0.003l-0.13,-0.003l-0.13,-0.002l-0.129,-0.001l-0.13,-0.001l-0.131,0.001Z"/>
                </g>
                <g id="Ellipse1" serif:id="Ellipse" transform="matrix(1.03345,0,0,1.03139,-4.50721,-6.6556)">
                    <ellipse cx="47.905" cy="94.683" rx="12.095" ry="12.12" style="fill:rgb(29,29,29);stroke:rgb(65,65,65);stroke-width:0.66px;"/>
                </g>
                <path d="M43.468,81.14l-1.502,-2.64c0,-0.845 2.189,-1.967 3.034,-1.967c0.845,0 3.006,1.122 3.006,1.967l-1.474,2.64c4.78,0.738 8.445,4.874 8.445,9.86c0,5.507 -4.47,9.977 -9.977,9.977c-5.507,0 -9.977,-4.47 -9.977,-9.977c0,-4.986 3.665,-9.122 8.445,-9.86Z" style="fill:rgb(54,192,173);stroke:rgb(24,24,24);stroke-width:0.32px;stroke-linejoin:round;"/>
                <path id="Curve" d="M45.041,76.533l0.042,0.003l0.045,0.004l0.046,0.005l0.048,0.007l0.05,0.009l0.051,0.01l0.052,0.011l0.054,0.013l0.056,0.014l0.056,0.016l0.058,0.017l0.059,0.018l0.059,0.019l0.061,0.02l0.061,0.022l0.062,0.023l0.063,0.024l0.063,0.025l0.064,0.026l0.064,0.027l0.065,0.028l0.064,0.028l0.065,0.03l0.065,0.031l0.065,0.031l0.064,0.033l0.065,0.033l0.064,0.034l0.064,0.034l0.063,0.035l0.063,0.036l0.062,0.037l0.062,0.037l0.06,0.038l0.06,0.038l0.059,0.038l0.058,0.04l0.057,0.039l0.055,0.04l0.054,0.04l0.053,0.041l0.052,0.041l0.049,0.041l0.049,0.042l0.046,0.041l0.045,0.042l0.043,0.042l0.041,0.042l0.039,0.042l0.037,0.042l0.034,0.043l0.032,0.042l0.03,0.042l0.028,0.042l0.025,0.042l0.022,0.042l0.01,0.02l0.01,0.021l0.008,0.021l0.008,0.02l0.008,0.021l0.006,0.021l0.006,0.02l0.005,0.02l0.005,0.021l0.003,0.02l0.003,0.02l0.002,0.02l0.001,0.02l0.001,0.02l-1.558,2.64l0.111,0.018l0.112,0.019l0.111,0.02l0.11,0.022l0.111,0.023l0.109,0.024l0.109,0.025l0.109,0.026l0.109,0.028l0.107,0.029l0.108,0.03l0.107,0.031l0.106,0.032l0.106,0.034l0.105,0.034l0.105,0.036l0.104,0.037l0.104,0.038l0.103,0.039l0.103,0.04l0.102,0.041l0.102,0.043l0.101,0.043l0.1,0.044l0.1,0.046l0.099,0.047l0.099,0.047l0.098,0.049l0.097,0.05l0.097,0.051l0.096,0.052l0.096,0.053l0.095,0.053l0.094,0.055l0.094,0.056l0.093,0.057l0.092,0.058l0.092,0.059l0.091,0.06l0.09,0.06l0.089,0.062l0.089,0.063l0.088,0.063l0.088,0.065l0.086,0.065l0.086,0.067l0.085,0.067l0.085,0.068l0.083,0.069l0.083,0.07l0.082,0.071l0.082,0.072l0.08,0.072l0.08,0.074l0.079,0.074l0.078,0.075l0.077,0.076l0.077,0.077l0.076,0.078l0.074,0.078l0.074,0.079l0.073,0.08l0.073,0.081l0.071,0.082l0.071,0.082l0.069,0.083l0.069,0.084l0.068,0.085l0.067,0.086l0.066,0.086l0.065,0.087l0.064,0.087l0.063,0.089l0.063,0.089l0.061,0.089l0.061,0.091l0.059,0.091l0.058,0.092l0.058,0.092l0.056,0.094l0.056,0.094l0.055,0.094l0.053,0.095l0.053,0.096l0.051,0.096l0.05,0.097l0.05,0.098l0.048,0.098l0.048,0.099l0.046,0.1l0.045,0.1l0.044,0.1l0.043,0.102l0.042,0.101l0.041,0.103l0.04,0.103l0.039,0.103l0.037,0.104l0.036,0.105l0.036,0.105l0.034,0.105l0.033,0.106l0.032,0.107l0.03,0.107l0.03,0.107l0.028,0.108l0.028,0.109l0.026,0.109l0.024,0.109l0.024,0.11l0.022,0.11l0.021,0.111l0.02,0.111l0.019,0.112l0.017,0.112l0.017,0.112l0.015,0.113l0.013,0.113l0.013,0.114l0.011,0.114l0.01,0.114l0.008,0.115l0.008,0.115l0.006,0.115l0.004,0.116l0.004,0.116l0.002,0.116l0,0.117l-0.001,0.129l-0.002,0.128l-0.004,0.128l-0.006,0.128l-0.007,0.127l-0.009,0.127l-0.01,0.127l-0.012,0.126l-0.014,0.125l-0.015,0.125l-0.017,0.125l-0.018,0.124l-0.02,0.123l-0.021,0.123l-0.022,0.123l-0.025,0.122l-0.025,0.121l-0.027,0.121l-0.029,0.12l-0.03,0.12l-0.032,0.119l-0.033,0.119l-0.034,0.118l-0.036,0.118l-0.037,0.116l-0.038,0.117l-0.04,0.115l-0.042,0.115l-0.042,0.114l-0.044,0.114l-0.046,0.113l-0.046,0.112l-0.048,0.112l-0.05,0.11l-0.05,0.111l-0.052,0.109l-0.053,0.109l-0.055,0.108l-0.056,0.107l-0.057,0.106l-0.058,0.106l-0.059,0.105l-0.061,0.104l-0.062,0.103l-0.063,0.102l-0.065,0.102l-0.065,0.101l-0.067,0.1l-0.068,0.099l-0.069,0.098l-0.07,0.097l-0.071,0.097l-0.072,0.096l-0.074,0.094l-0.075,0.094l-0.075,0.093l-0.077,0.092l-0.078,0.091l-0.079,0.09l-0.08,0.089l-0.081,0.088l-0.082,0.087l-0.083,0.086l-0.084,0.086l-0.086,0.084l-0.086,0.083l-0.087,0.082l-0.088,0.081l-0.089,0.08l-0.09,0.079l-0.091,0.078l-0.092,0.077l-0.093,0.075l-0.094,0.075l-0.094,0.074l-0.096,0.072l-0.097,0.071l-0.097,0.07l-0.098,0.069l-0.099,0.068l-0.1,0.067l-0.101,0.065l-0.102,0.065l-0.102,0.063l-0.103,0.062l-0.104,0.061l-0.105,0.059l-0.106,0.058l-0.106,0.057l-0.107,0.056l-0.108,0.055l-0.109,0.053l-0.109,0.052l-0.111,0.05l-0.11,0.05l-0.112,0.048l-0.112,0.046l-0.113,0.046l-0.114,0.044l-0.114,0.042l-0.115,0.042l-0.115,0.04l-0.117,0.038l-0.116,0.037l-0.118,0.036l-0.118,0.034l-0.119,0.033l-0.119,0.032l-0.12,0.03l-0.12,0.029l-0.121,0.027l-0.121,0.025l-0.122,0.025l-0.123,0.022l-0.123,0.021l-0.123,0.02l-0.124,0.018l-0.125,0.017l-0.125,0.015l-0.125,0.014l-0.126,0.012l-0.127,0.01l-0.127,0.009l-0.127,0.007l-0.128,0.006l-0.128,0.004l-0.128,0.002l-0.129,0.001l-0.129,-0.001l-0.128,-0.002l-0.128,-0.004l-0.128,-0.006l-0.127,-0.007l-0.127,-0.009l-0.127,-0.01l-0.126,-0.012l-0.125,-0.014l-0.125,-0.015l-0.125,-0.017l-0.124,-0.018l-0.123,-0.02l-0.123,-0.021l-0.123,-0.022l-0.122,-0.025l-0.121,-0.025l-0.121,-0.027l-0.12,-0.029l-0.12,-0.03l-0.119,-0.032l-0.119,-0.033l-0.118,-0.034l-0.118,-0.036l-0.116,-0.037l-0.117,-0.038l-0.115,-0.04l-0.115,-0.042l-0.114,-0.042l-0.114,-0.044l-0.113,-0.046l-0.112,-0.046l-0.112,-0.048l-0.11,-0.05l-0.111,-0.05l-0.109,-0.052l-0.109,-0.053l-0.108,-0.055l-0.107,-0.056l-0.106,-0.057l-0.106,-0.058l-0.105,-0.059l-0.104,-0.061l-0.103,-0.062l-0.102,-0.063l-0.102,-0.065l-0.101,-0.065l-0.1,-0.067l-0.099,-0.068l-0.098,-0.069l-0.097,-0.07l-0.097,-0.071l-0.096,-0.072l-0.094,-0.074l-0.094,-0.075l-0.093,-0.075l-0.092,-0.077l-0.091,-0.078l-0.09,-0.079l-0.089,-0.08l-0.088,-0.081l-0.087,-0.082l-0.086,-0.083l-0.086,-0.084l-0.084,-0.086l-0.083,-0.086l-0.082,-0.087l-0.081,-0.088l-0.08,-0.089l-0.079,-0.09l-0.078,-0.091l-0.077,-0.092l-0.075,-0.093l-0.075,-0.094l-0.074,-0.094l-0.072,-0.096l-0.071,-0.097l-0.07,-0.097l-0.069,-0.098l-0.068,-0.099l-0.067,-0.1l-0.065,-0.101l-0.065,-0.102l-0.063,-0.102l-0.062,-0.103l-0.061,-0.104l-0.059,-0.105l-0.058,-0.106l-0.057,-0.106l-0.056,-0.107l-0.055,-0.108l-0.053,-0.109l-0.052,-0.109l-0.05,-0.111l-0.05,-0.11l-0.048,-0.112l-0.046,-0.112l-0.046,-0.113l-0.044,-0.114l-0.042,-0.114l-0.042,-0.115l-0.04,-0.115l-0.038,-0.117l-0.037,-0.116l-0.036,-0.118l-0.034,-0.118l-0.033,-0.119l-0.032,-0.119l-0.03,-0.12l-0.029,-0.12l-0.027,-0.121l-0.025,-0.121l-0.025,-0.122l-0.022,-0.123l-0.021,-0.123l-0.02,-0.123l-0.018,-0.124l-0.017,-0.125l-0.015,-0.125l-0.014,-0.125l-0.012,-0.126l-0.01,-0.127l-0.009,-0.127l-0.007,-0.127l-0.006,-0.128l-0.004,-0.128l-0.002,-0.128l-0.001,-0.129l0,-0.117l0.002,-0.116l0.004,-0.116l0.004,-0.116l0.006,-0.115l0.008,-0.115l0.008,-0.115l0.01,-0.114l0.011,-0.114l0.013,-0.114l0.013,-0.113l0.015,-0.113l0.017,-0.112l0.017,-0.112l0.019,-0.112l0.02,-0.111l0.021,-0.111l0.022,-0.11l0.024,-0.11l0.024,-0.109l0.026,-0.109l0.028,-0.109l0.028,-0.108l0.03,-0.107l0.03,-0.107l0.032,-0.107l0.033,-0.106l0.034,-0.105l0.036,-0.105l0.036,-0.105l0.037,-0.104l0.039,-0.103l0.04,-0.103l0.041,-0.103l0.042,-0.101l0.043,-0.102l0.044,-0.1l0.045,-0.1l0.046,-0.1l0.048,-0.099l0.048,-0.098l0.05,-0.098l0.05,-0.097l0.051,-0.096l0.053,-0.096l0.053,-0.095l0.055,-0.094l0.056,-0.094l0.056,-0.094l0.058,-0.092l0.058,-0.092l0.059,-0.091l0.061,-0.091l0.061,-0.089l0.063,-0.089l0.063,-0.089l0.064,-0.087l0.065,-0.087l0.066,-0.086l0.067,-0.086l0.068,-0.085l0.069,-0.084l0.069,-0.083l0.071,-0.082l0.071,-0.082l0.073,-0.081l0.073,-0.08l0.074,-0.079l0.074,-0.078l0.076,-0.078l0.077,-0.077l0.077,-0.076l0.078,-0.075l0.079,-0.074l0.08,-0.074l0.08,-0.072l0.082,-0.072l0.082,-0.071l0.083,-0.07l0.083,-0.069l0.085,-0.068l0.085,-0.067l0.086,-0.067l0.086,-0.065l0.088,-0.065l0.088,-0.063l0.089,-0.063l0.089,-0.062l0.09,-0.06l0.091,-0.06l0.092,-0.059l0.092,-0.058l0.093,-0.057l0.094,-0.056l0.094,-0.055l0.095,-0.053l0.096,-0.053l0.096,-0.052l0.097,-0.051l0.097,-0.05l0.098,-0.049l0.099,-0.047l0.099,-0.047l0.1,-0.046l0.1,-0.044l0.101,-0.043l0.102,-0.043l0.102,-0.041l0.103,-0.04l0.103,-0.039l0.104,-0.038l0.104,-0.037l0.105,-0.036l0.105,-0.034l0.106,-0.034l0.106,-0.032l0.107,-0.031l0.108,-0.03l0.107,-0.029l0.109,-0.028l0.109,-0.026l0.109,-0.025l0.109,-0.024l0.111,-0.023l0.11,-0.022l0.111,-0.02l0.112,-0.019l0.111,-0.018l-1.53,-2.64l0,-0.02l0.002,-0.02l0.002,-0.02l0.002,-0.02l0.004,-0.02l0.004,-0.021l0.005,-0.02l0.006,-0.02l0.007,-0.021l0.007,-0.021l0.008,-0.02l0.008,-0.021l0.01,-0.021l0.01,-0.02l0.022,-0.042l0.025,-0.042l0.027,-0.042l0.029,-0.042l0.032,-0.042l0.034,-0.043l0.037,-0.042l0.038,-0.042l0.041,-0.042l0.042,-0.042l0.044,-0.042l0.046,-0.041l0.048,-0.042l0.049,-0.041l0.051,-0.041l0.052,-0.041l0.054,-0.04l0.055,-0.04l0.056,-0.039l0.057,-0.04l0.058,-0.038l0.06,-0.038l0.06,-0.038l0.06,-0.037l0.062,-0.037l0.062,-0.036l0.063,-0.035l0.063,-0.034l0.064,-0.034l0.063,-0.033l0.064,-0.033l0.065,-0.031l0.064,-0.031l0.064,-0.03l0.064,-0.028l0.064,-0.028l0.063,-0.027l0.063,-0.026l0.063,-0.025l0.062,-0.024l0.062,-0.023l0.061,-0.022l0.06,-0.02l0.059,-0.019l0.059,-0.018l0.057,-0.017l0.056,-0.016l0.055,-0.014l0.054,-0.013l0.052,-0.011l0.051,-0.01l0.049,-0.009l0.048,-0.007l0.046,-0.005l0.045,-0.004l0.042,-0.003l0.041,0l0.041,0Zm-0.052,0.769l-0.016,0.001l-0.02,0.002l-0.024,0.002l-0.029,0.005l-0.031,0.005l-0.035,0.007l-0.037,0.008l-0.04,0.01l-0.042,0.01l-0.044,0.012l-0.046,0.014l-0.047,0.015l-0.049,0.016l-0.051,0.017l-0.051,0.018l-0.053,0.019l-0.053,0.021l-0.054,0.022l-0.055,0.022l-0.056,0.024l-0.056,0.024l-0.056,0.026l-0.057,0.026l-0.056,0.027l-0.057,0.028l-0.056,0.028l-0.057,0.029l-0.056,0.03l-0.055,0.031l-0.055,0.03l-0.055,0.032l-0.053,0.032l-0.053,0.032l-0.052,0.032l-0.051,0.033l-0.049,0.033l-0.048,0.033l-0.047,0.033l-0.046,0.033l-0.044,0.033l-0.042,0.033l-0.04,0.032l-0.038,0.032l-0.037,0.032l-0.034,0.031l-0.031,0.03l-0.03,0.029l-0.027,0.028l-0.024,0.026l-0.005,0.006l1.345,2.318l0.037,0.074l0.03,0.077l0.021,0.08l0.012,0.082l0.003,0.083l-0.005,0.082l-0.015,0.082l-0.023,0.079l-0.031,0.077l-0.039,0.072l-0.047,0.068l-0.055,0.063l-0.06,0.056l-0.066,0.05l-0.071,0.042l-0.076,0.035l-0.078,0.026l-0.081,0.017l-0.107,0.017l-0.103,0.018l-0.103,0.019l-0.102,0.02l-0.101,0.021l-0.101,0.022l-0.101,0.023l-0.101,0.025l-0.099,0.025l-0.1,0.027l-0.099,0.027l-0.098,0.029l-0.099,0.03l-0.097,0.03l-0.097,0.032l-0.097,0.033l-0.096,0.034l-0.096,0.035l-0.095,0.036l-0.095,0.037l-0.094,0.038l-0.094,0.04l-0.093,0.04l-0.093,0.041l-0.092,0.042l-0.091,0.043l-0.091,0.044l-0.091,0.045l-0.09,0.046l-0.089,0.047l-0.089,0.048l-0.088,0.048l-0.088,0.05l-0.087,0.051l-0.086,0.051l-0.086,0.053l-0.085,0.053l-0.085,0.055l-0.083,0.055l-0.084,0.056l-0.082,0.057l-0.082,0.058l-0.082,0.058l-0.08,0.06l-0.08,0.06l-0.08,0.062l-0.078,0.062l-0.078,0.063l-0.078,0.064l-0.076,0.064l-0.076,0.066l-0.075,0.066l-0.074,0.067l-0.074,0.068l-0.073,0.068l-0.072,0.07l-0.072,0.07l-0.07,0.071l-0.07,0.071l-0.069,0.073l-0.068,0.073l-0.068,0.074l-0.067,0.075l-0.066,0.075l-0.065,0.076l-0.064,0.077l-0.064,0.077l-0.062,0.079l-0.062,0.079l-0.061,0.079l-0.06,0.08l-0.059,0.081l-0.059,0.082l-0.057,0.082l-0.057,0.083l-0.056,0.083l-0.055,0.085l-0.054,0.084l-0.053,0.086l-0.052,0.086l-0.051,0.086l-0.05,0.088l-0.05,0.087l-0.048,0.089l-0.048,0.089l-0.046,0.089l-0.046,0.091l-0.045,0.09l-0.043,0.091l-0.043,0.092l-0.042,0.093l-0.04,0.092l-0.04,0.094l-0.039,0.094l-0.037,0.094l-0.037,0.095l-0.036,0.095l-0.034,0.096l-0.034,0.097l-0.033,0.096l-0.031,0.098l-0.031,0.098l-0.029,0.098l-0.028,0.099l-0.027,0.099l-0.027,0.099l-0.025,0.1l-0.024,0.101l-0.022,0.101l-0.022,0.101l-0.021,0.102l-0.019,0.102l-0.019,0.103l-0.017,0.103l-0.016,0.103l-0.015,0.104l-0.014,0.104l-0.012,0.104l-0.012,0.105l-0.01,0.105l-0.009,0.106l-0.008,0.106l-0.007,0.106l-0.005,0.106l-0.005,0.107l-0.003,0.108l-0.002,0.107l0,0.108l0,0.119l0.003,0.119l0.003,0.118l0.006,0.118l0.006,0.118l0.009,0.117l0.009,0.116l0.011,0.117l0.013,0.116l0.014,0.115l0.015,0.115l0.017,0.114l0.018,0.114l0.02,0.114l0.021,0.113l0.022,0.112l0.024,0.112l0.025,0.112l0.026,0.111l0.028,0.11l0.029,0.11l0.03,0.11l0.032,0.109l0.033,0.108l0.034,0.108l0.036,0.107l0.036,0.106l0.039,0.106l0.039,0.106l0.041,0.105l0.041,0.104l0.043,0.103l0.045,0.103l0.045,0.102l0.047,0.102l0.048,0.101l0.049,0.1l0.05,0.1l0.052,0.099l0.052,0.098l0.054,0.097l0.055,0.097l0.056,0.096l0.057,0.096l0.058,0.094l0.06,0.094l0.06,0.093l0.062,0.092l0.062,0.092l0.064,0.09l0.065,0.09l0.066,0.089l0.067,0.089l0.067,0.087l0.069,0.087l0.07,0.085l0.071,0.085l0.072,0.084l0.073,0.084l0.074,0.082l0.075,0.081l0.076,0.081l0.076,0.079l0.078,0.079l0.079,0.078l0.079,0.076l0.081,0.076l0.081,0.075l0.083,0.074l0.083,0.073l0.084,0.072l0.085,0.071l0.085,0.07l0.087,0.069l0.087,0.067l0.089,0.067l0.089,0.066l0.09,0.065l0.09,0.064l0.092,0.062l0.092,0.062l0.093,0.06l0.094,0.06l0.094,0.058l0.096,0.057l0.096,0.056l0.097,0.055l0.097,0.054l0.098,0.052l0.099,0.052l0.1,0.05l0.1,0.049l0.101,0.048l0.102,0.047l0.102,0.045l0.103,0.045l0.103,0.043l0.104,0.041l0.105,0.041l0.106,0.039l0.106,0.039l0.106,0.036l0.107,0.036l0.108,0.034l0.108,0.033l0.109,0.032l0.11,0.03l0.11,0.029l0.11,0.028l0.111,0.026l0.112,0.025l0.112,0.024l0.112,0.022l0.113,0.021l0.114,0.02l0.114,0.018l0.114,0.017l0.115,0.015l0.115,0.014l0.116,0.013l0.117,0.011l0.116,0.009l0.117,0.009l0.118,0.006l0.118,0.006l0.118,0.003l0.119,0.003l0.119,0l0.119,0l0.119,-0.003l0.118,-0.003l0.118,-0.006l0.118,-0.006l0.117,-0.009l0.116,-0.009l0.117,-0.011l0.116,-0.013l0.115,-0.014l0.115,-0.015l0.114,-0.017l0.114,-0.018l0.114,-0.02l0.113,-0.021l0.112,-0.022l0.112,-0.024l0.112,-0.025l0.111,-0.026l0.11,-0.028l0.11,-0.029l0.11,-0.03l0.109,-0.032l0.108,-0.033l0.108,-0.034l0.107,-0.036l0.106,-0.036l0.106,-0.039l0.106,-0.039l0.105,-0.041l0.104,-0.041l0.103,-0.043l0.103,-0.045l0.102,-0.045l0.102,-0.047l0.101,-0.048l0.1,-0.049l0.1,-0.05l0.099,-0.052l0.098,-0.052l0.097,-0.054l0.097,-0.055l0.096,-0.056l0.096,-0.057l0.094,-0.058l0.094,-0.06l0.093,-0.06l0.092,-0.062l0.092,-0.062l0.09,-0.064l0.09,-0.065l0.089,-0.066l0.089,-0.067l0.087,-0.067l0.087,-0.069l0.085,-0.07l0.085,-0.071l0.084,-0.072l0.084,-0.073l0.082,-0.074l0.081,-0.075l0.081,-0.076l0.079,-0.076l0.079,-0.078l0.078,-0.079l0.076,-0.079l0.076,-0.081l0.075,-0.081l0.074,-0.082l0.073,-0.084l0.072,-0.084l0.071,-0.085l0.07,-0.085l0.069,-0.087l0.067,-0.087l0.067,-0.089l0.066,-0.089l0.065,-0.09l0.064,-0.09l0.062,-0.092l0.062,-0.092l0.06,-0.093l0.06,-0.094l0.058,-0.094l0.057,-0.096l0.056,-0.096l0.055,-0.097l0.054,-0.097l0.052,-0.098l0.052,-0.099l0.05,-0.1l0.049,-0.1l0.048,-0.101l0.047,-0.102l0.045,-0.102l0.045,-0.103l0.043,-0.103l0.041,-0.104l0.041,-0.105l0.039,-0.106l0.039,-0.106l0.036,-0.106l0.036,-0.107l0.034,-0.108l0.033,-0.108l0.032,-0.109l0.03,-0.11l0.029,-0.11l0.028,-0.11l0.026,-0.111l0.025,-0.112l0.024,-0.112l0.022,-0.112l0.021,-0.113l0.02,-0.114l0.018,-0.114l0.017,-0.114l0.015,-0.115l0.014,-0.115l0.013,-0.116l0.011,-0.117l0.009,-0.116l0.009,-0.117l0.006,-0.118l0.006,-0.118l0.003,-0.118l0.003,-0.119l0,-0.119l0,-0.108l-0.002,-0.107l-0.003,-0.108l-0.005,-0.107l-0.005,-0.106l-0.007,-0.106l-0.008,-0.106l-0.009,-0.106l-0.01,-0.105l-0.012,-0.105l-0.012,-0.104l-0.014,-0.104l-0.015,-0.104l-0.016,-0.103l-0.017,-0.103l-0.019,-0.103l-0.019,-0.102l-0.021,-0.102l-0.022,-0.101l-0.022,-0.101l-0.024,-0.1l-0.025,-0.101l-0.027,-0.099l-0.027,-0.099l-0.028,-0.099l-0.03,-0.098l-0.03,-0.098l-0.031,-0.098l-0.033,-0.096l-0.034,-0.097l-0.034,-0.096l-0.036,-0.095l-0.037,-0.095l-0.037,-0.094l-0.039,-0.094l-0.04,-0.094l-0.04,-0.093l-0.042,-0.092l-0.043,-0.092l-0.043,-0.091l-0.045,-0.09l-0.046,-0.091l-0.046,-0.089l-0.048,-0.089l-0.048,-0.089l-0.05,-0.087l-0.05,-0.088l-0.051,-0.086l-0.052,-0.086l-0.053,-0.086l-0.054,-0.084l-0.055,-0.085l-0.056,-0.083l-0.057,-0.083l-0.057,-0.082l-0.059,-0.082l-0.059,-0.081l-0.06,-0.08l-0.061,-0.08l-0.062,-0.078l-0.062,-0.079l-0.064,-0.077l-0.064,-0.077l-0.065,-0.076l-0.066,-0.075l-0.067,-0.075l-0.068,-0.074l-0.068,-0.073l-0.069,-0.073l-0.07,-0.071l-0.07,-0.071l-0.072,-0.07l-0.072,-0.07l-0.073,-0.068l-0.074,-0.068l-0.074,-0.067l-0.075,-0.066l-0.076,-0.066l-0.076,-0.064l-0.078,-0.064l-0.078,-0.063l-0.078,-0.062l-0.08,-0.062l-0.08,-0.06l-0.08,-0.06l-0.082,-0.058l-0.082,-0.058l-0.082,-0.057l-0.083,-0.056l-0.084,-0.055l-0.085,-0.055l-0.085,-0.053l-0.086,-0.053l-0.086,-0.051l-0.087,-0.051l-0.088,-0.05l-0.088,-0.048l-0.089,-0.048l-0.089,-0.047l-0.09,-0.046l-0.091,-0.045l-0.091,-0.044l-0.091,-0.043l-0.092,-0.042l-0.093,-0.041l-0.093,-0.04l-0.094,-0.04l-0.094,-0.038l-0.095,-0.037l-0.095,-0.036l-0.096,-0.035l-0.096,-0.034l-0.097,-0.033l-0.097,-0.032l-0.097,-0.03l-0.099,-0.03l-0.098,-0.029l-0.099,-0.027l-0.1,-0.027l-0.099,-0.025l-0.101,-0.025l-0.101,-0.023l-0.101,-0.022l-0.101,-0.021l-0.102,-0.02l-0.103,-0.019l-0.103,-0.018l-0.107,-0.017l-0.081,-0.017l-0.079,-0.027l-0.076,-0.034l-0.071,-0.043l-0.066,-0.05l-0.061,-0.056l-0.054,-0.063l-0.047,-0.069l-0.039,-0.073l-0.032,-0.077l-0.022,-0.08l-0.014,-0.082l-0.005,-0.083l0.004,-0.083l0.012,-0.082l0.022,-0.08l0.03,-0.077l0.038,-0.074l1.366,-2.313l-0.002,-0.002l-0.024,-0.027l-0.028,-0.028l-0.029,-0.029l-0.033,-0.03l-0.034,-0.031l-0.037,-0.032l-0.039,-0.032l-0.041,-0.032l-0.042,-0.033l-0.045,-0.033l-0.046,-0.033l-0.048,-0.034l-0.049,-0.033l-0.05,-0.033l-0.051,-0.033l-0.053,-0.032l-0.053,-0.032l-0.054,-0.032l-0.056,-0.032l-0.055,-0.031l-0.057,-0.03l-0.056,-0.03l-0.057,-0.029l-0.057,-0.029l-0.058,-0.028l-0.057,-0.027l-0.057,-0.026l-0.057,-0.026l-0.057,-0.024l-0.056,-0.024l-0.056,-0.023l-0.054,-0.021l-0.055,-0.021l-0.053,-0.019l-0.052,-0.019l-0.051,-0.017l-0.049,-0.016l-0.048,-0.015l-0.047,-0.013l-0.044,-0.012l-0.043,-0.011l-0.04,-0.01l-0.037,-0.008l-0.035,-0.007l-0.032,-0.005l-0.029,-0.004l-0.025,-0.003l-0.02,-0.002l-0.016,-0.001l-0.011,0l-0.011,0Z" style="fill-opacity:0.5;"/>
            </g>
        </g>
    </g>
</svg>
