<?xml version="1.0" encoding="UTF-8" standalone="no"?>
<!DOCTYPE svg PUBLIC "-//W3C//DTD SVG 1.1//EN" "http://www.w3.org/Graphics/SVG/1.1/DTD/svg11.dtd">
<svg width="30px" height="30px" version="1.1" xmlns="http://www.w3.org/2000/svg" xmlns:xlink="http://www.w3.org/1999/xlink" xml:space="preserve" xmlns:serif="http://www.serif.com/" style="fill-rule:evenodd;clip-rule:evenodd;stroke-linecap:round;stroke-linejoin:bevel;stroke-miterlimit:1.5;">
    <g transform="matrix(1,0,0,1,-150,-103)">
        <g transform="matrix(0.975,0,0,1.26667,-97.5,-126.667)">
            <g id="knob-green" transform="matrix(1.02564,0,0,0.789474,223.077,121.315)">
                <g id="Ellipse" transform="matrix(0.734375,0,0,0.789474,7.96876,16)">
                    <ellipse cx="50.426" cy="95" rx="20.426" ry="19" style="fill:rgb(29,29,29);"/>
                    <path d="M50.689,76.002l0.263,0.004l0.263,0.008l0.261,0.011l0.26,0.014l0.26,0.016l0.259,0.02l0.258,0.023l0.257,0.026l0.256,0.029l0.254,0.031l0.254,0.035l0.253,0.038l0.252,0.04l0.251,0.043l0.25,0.046l0.248,0.049l0.248,0.052l0.246,0.054l0.246,0.058l0.244,0.06l0.243,0.062l0.241,0.066l0.241,0.068l0.239,0.071l0.238,0.073l0.236,0.076l0.236,0.079l0.233,0.081l0.233,0.084l0.231,0.086l0.23,0.089l0.228,0.092l0.227,0.093l0.226,0.097l0.224,0.099l0.222,0.101l0.221,0.104l0.219,0.106l0.218,0.109l0.216,0.111l0.215,0.113l0.213,0.115l0.212,0.118l0.209,0.121l0.208,0.122l0.207,0.125l0.204,0.127l0.203,0.129l0.201,0.131l0.2,0.134l0.197,0.136l0.196,0.138l0.194,0.14l0.192,0.142l0.19,0.144l0.188,0.146l0.186,0.149l0.185,0.15l0.182,0.152l0.181,0.155l0.178,0.156l0.176,0.158l0.175,0.161l0.172,0.162l0.17,0.164l0.168,0.166l0.166,0.168l0.164,0.169l0.162,0.172l0.159,0.173l0.157,0.175l0.155,0.177l0.153,0.179l0.151,0.18l0.148,0.182l0.146,0.184l0.144,0.185l0.141,0.187l0.139,0.189l0.136,0.19l0.134,0.192l0.132,0.194l0.129,0.195l0.127,0.197l0.124,0.198l0.122,0.199l0.119,0.202l0.117,0.202l0.114,0.204l0.112,0.206l0.109,0.207l0.106,0.208l0.104,0.21l0.101,0.211l0.098,0.212l0.095,0.214l0.093,0.215l0.09,0.216l0.088,0.218l0.084,0.219l0.082,0.22l0.079,0.221l0.076,0.223l0.073,0.223l0.071,0.225l0.067,0.226l0.065,0.227l0.061,0.228l0.059,0.229l0.055,0.231l0.053,0.231l0.049,0.232l0.047,0.234l0.043,0.234l0.041,0.235l0.037,0.236l0.034,0.237l0.031,0.239l0.028,0.239l0.024,0.239l0.021,0.241l0.019,0.242l0.014,0.242l0.012,0.243l0.008,0.244l0.005,0.245l0.002,0.245l-0.002,0.245l-0.005,0.245l-0.008,0.244l-0.012,0.243l-0.014,0.242l-0.019,0.242l-0.021,0.241l-0.024,0.239l-0.028,0.239l-0.031,0.239l-0.034,0.237l-0.037,0.236l-0.041,0.235l-0.043,0.234l-0.047,0.234l-0.049,0.232l-0.053,0.231l-0.055,0.231l-0.059,0.229l-0.061,0.228l-0.065,0.227l-0.067,0.226l-0.071,0.225l-0.073,0.223l-0.076,0.223l-0.079,0.221l-0.082,0.22l-0.084,0.219l-0.088,0.218l-0.09,0.216l-0.093,0.215l-0.095,0.214l-0.098,0.212l-0.101,0.211l-0.104,0.21l-0.106,0.208l-0.109,0.207l-0.112,0.206l-0.114,0.204l-0.117,0.202l-0.119,0.202l-0.122,0.199l-0.124,0.198l-0.127,0.197l-0.129,0.195l-0.132,0.194l-0.134,0.192l-0.136,0.19l-0.139,0.189l-0.141,0.187l-0.144,0.185l-0.146,0.184l-0.148,0.182l-0.151,0.18l-0.153,0.179l-0.155,0.177l-0.157,0.175l-0.159,0.173l-0.162,0.172l-0.164,0.169l-0.166,0.168l-0.168,0.166l-0.17,0.164l-0.172,0.162l-0.175,0.161l-0.176,0.158l-0.178,0.156l-0.181,0.155l-0.182,0.152l-0.185,0.15l-0.186,0.149l-0.188,0.146l-0.19,0.144l-0.192,0.142l-0.194,0.14l-0.196,0.138l-0.197,0.136l-0.2,0.134l-0.201,0.131l-0.203,0.129l-0.204,0.127l-0.207,0.125l-0.208,0.122l-0.209,0.121l-0.212,0.118l-0.213,0.115l-0.215,0.113l-0.216,0.111l-0.218,0.109l-0.219,0.106l-0.221,0.104l-0.222,0.101l-0.224,0.099l-0.226,0.097l-0.227,0.093l-0.228,0.092l-0.23,0.089l-0.231,0.086l-0.233,0.084l-0.233,0.081l-0.236,0.079l-0.236,0.076l-0.238,0.073l-0.239,0.071l-0.241,0.068l-0.241,0.066l-0.243,0.062l-0.244,0.06l-0.246,0.058l-0.246,0.054l-0.248,0.052l-0.248,0.049l-0.25,0.046l-0.251,0.043l-0.252,0.04l-0.253,0.038l-0.254,0.035l-0.254,0.031l-0.256,0.029l-0.257,0.026l-0.258,0.023l-0.259,0.02l-0.26,0.016l-0.26,0.014l-0.261,0.011l-0.263,0.008l-0.263,0.004l-0.263,0.002l-0.264,-0.002l-0.263,-0.004l-0.263,-0.008l-0.261,-0.011l-0.26,-0.014l-0.26,-0.016l-0.259,-0.02l-0.258,-0.023l-0.256,-0.026l-0.256,-0.029l-0.255,-0.031l-0.254,-0.035l-0.253,-0.038l-0.252,-0.04l-0.251,-0.043l-0.25,-0.046l-0.248,-0.049l-0.248,-0.052l-0.246,-0.054l-0.246,-0.058l-0.244,-0.06l-0.243,-0.062l-0.241,-0.066l-0.241,-0.068l-0.239,-0.071l-0.238,-0.073l-0.236,-0.076l-0.235,-0.079l-0.234,-0.081l-0.233,-0.084l-0.231,-0.086l-0.23,-0.089l-0.228,-0.092l-0.227,-0.093l-0.226,-0.097l-0.223,-0.099l-0.223,-0.101l-0.221,-0.104l-0.219,-0.106l-0.218,-0.109l-0.216,-0.111l-0.215,-0.113l-0.213,-0.115l-0.211,-0.118l-0.21,-0.121l-0.208,-0.122l-0.207,-0.125l-0.204,-0.127l-0.203,-0.129l-0.201,-0.131l-0.2,-0.134l-0.197,-0.136l-0.196,-0.138l-0.194,-0.14l-0.192,-0.142l-0.19,-0.144l-0.188,-0.146l-0.186,-0.149l-0.185,-0.15l-0.182,-0.152l-0.181,-0.155l-0.178,-0.156l-0.176,-0.158l-0.175,-0.161l-0.172,-0.162l-0.17,-0.164l-0.168,-0.166l-0.166,-0.168l-0.164,-0.169l-0.162,-0.172l-0.159,-0.173l-0.157,-0.175l-0.155,-0.177l-0.153,-0.179l-0.151,-0.18l-0.148,-0.182l-0.146,-0.184l-0.143,-0.185l-0.142,-0.187l-0.139,-0.189l-0.136,-0.19l-0.134,-0.192l-0.132,-0.194l-0.129,-0.195l-0.127,-0.197l-0.124,-0.198l-0.122,-0.199l-0.119,-0.202l-0.117,-0.202l-0.114,-0.204l-0.112,-0.206l-0.109,-0.207l-0.106,-0.208l-0.103,-0.21l-0.101,-0.211l-0.099,-0.212l-0.095,-0.214l-0.093,-0.215l-0.09,-0.216l-0.088,-0.218l-0.084,-0.219l-0.082,-0.22l-0.079,-0.221l-0.076,-0.223l-0.073,-0.223l-0.071,-0.225l-0.067,-0.226l-0.064,-0.227l-0.062,-0.228l-0.059,-0.229l-0.055,-0.231l-0.053,-0.231l-0.049,-0.232l-0.047,-0.234l-0.043,-0.234l-0.04,-0.235l-0.038,-0.236l-0.034,-0.237l-0.031,-0.239l-0.027,-0.239l-0.025,-0.239l-0.021,-0.241l-0.019,-0.242l-0.014,-0.242l-0.012,-0.243l-0.008,-0.244l-0.005,-0.245l-0.002,-0.245l0.002,-0.245l0.005,-0.245l0.008,-0.244l0.012,-0.243l0.014,-0.242l0.019,-0.242l0.021,-0.241l0.025,-0.239l0.027,-0.239l0.031,-0.239l0.034,-0.237l0.038,-0.236l0.04,-0.235l0.043,-0.234l0.047,-0.234l0.049,-0.232l0.053,-0.231l0.055,-0.231l0.059,-0.229l0.062,-0.228l0.064,-0.227l0.067,-0.226l0.071,-0.225l0.073,-0.223l0.076,-0.223l0.079,-0.221l0.082,-0.22l0.084,-0.219l0.088,-0.218l0.09,-0.216l0.093,-0.215l0.095,-0.214l0.099,-0.212l0.101,-0.211l0.103,-0.21l0.106,-0.208l0.109,-0.207l0.112,-0.206l0.114,-0.204l0.117,-0.202l0.119,-0.202l0.122,-0.199l0.124,-0.198l0.127,-0.197l0.129,-0.195l0.132,-0.194l0.134,-0.192l0.136,-0.19l0.139,-0.189l0.142,-0.187l0.143,-0.185l0.146,-0.184l0.148,-0.182l0.151,-0.18l0.153,-0.179l0.155,-0.177l0.157,-0.175l0.159,-0.173l0.162,-0.172l0.164,-0.169l0.166,-0.168l0.168,-0.166l0.17,-0.164l0.172,-0.162l0.175,-0.161l0.176,-0.158l0.178,-0.156l0.181,-0.155l0.182,-0.152l0.185,-0.15l0.186,-0.149l0.188,-0.146l0.19,-0.144l0.192,-0.142l0.194,-0.14l0.196,-0.138l0.197,-0.136l0.2,-0.134l0.201,-0.131l0.203,-0.129l0.204,-0.127l0.207,-0.125l0.208,-0.122l0.21,-0.121l0.211,-0.118l0.213,-0.115l0.215,-0.113l0.216,-0.111l0.218,-0.109l0.219,-0.106l0.221,-0.104l0.223,-0.101l0.223,-0.099l0.226,-0.097l0.227,-0.093l0.228,-0.092l0.23,-0.089l0.231,-0.086l0.233,-0.084l0.234,-0.081l0.235,-0.079l0.236,-0.076l0.238,-0.073l0.239,-0.071l0.241,-0.068l0.241,-0.066l0.243,-0.062l0.244,-0.06l0.246,-0.058l0.246,-0.054l0.248,-0.052l0.248,-0.049l0.25,-0.046l0.251,-0.043l0.252,-0.04l0.253,-0.038l0.254,-0.035l0.255,-0.031l0.256,-0.029l0.256,-0.026l0.258,-0.023l0.259,-0.02l0.26,-0.016l0.26,-0.014l0.261,-0.011l0.263,-0.008l0.263,-0.004l0.264,-0.002l0.263,0.002Zm-0.522,0.362l-0.258,0.005l-0.258,0.008l-0.256,0.01l-0.256,0.014l-0.254,0.016l-0.254,0.02l-0.253,0.022l-0.252,0.026l-0.251,0.028l-0.25,0.031l-0.249,0.034l-0.248,0.037l-0.247,0.039l-0.246,0.043l-0.245,0.045l-0.244,0.048l-0.243,0.05l-0.242,0.054l-0.24,0.056l-0.24,0.059l-0.238,0.061l-0.237,0.064l-0.236,0.067l-0.234,0.07l-0.233,0.072l-0.232,0.074l-0.231,0.077l-0.23,0.08l-0.228,0.082l-0.226,0.085l-0.226,0.087l-0.224,0.09l-0.222,0.092l-0.221,0.095l-0.22,0.097l-0.218,0.099l-0.217,0.102l-0.215,0.104l-0.214,0.106l-0.212,0.109l-0.211,0.111l-0.209,0.114l-0.207,0.115l-0.206,0.118l-0.204,0.12l-0.202,0.123l-0.201,0.124l-0.199,0.127l-0.197,0.129l-0.196,0.131l-0.193,0.133l-0.192,0.136l-0.191,0.137l-0.188,0.139l-0.187,0.142l-0.184,0.143l-0.183,0.146l-0.181,0.147l-0.179,0.15l-0.177,0.151l-0.175,0.154l-0.173,0.155l-0.171,0.157l-0.169,0.159l-0.167,0.161l-0.165,0.163l-0.163,0.165l-0.16,0.166l-0.159,0.168l-0.156,0.17l-0.155,0.172l-0.152,0.174l-0.15,0.175l-0.147,0.177l-0.146,0.178l-0.143,0.181l-0.141,0.182l-0.138,0.183l-0.136,0.185l-0.134,0.187l-0.132,0.188l-0.129,0.19l-0.127,0.191l-0.124,0.193l-0.122,0.195l-0.12,0.196l-0.117,0.197l-0.114,0.199l-0.112,0.2l-0.109,0.201l-0.107,0.203l-0.104,0.205l-0.102,0.205l-0.099,0.207l-0.097,0.209l-0.093,0.209l-0.091,0.211l-0.089,0.212l-0.085,0.214l-0.083,0.214l-0.081,0.216l-0.077,0.217l-0.075,0.218l-0.071,0.22l-0.069,0.22l-0.066,0.222l-0.064,0.222l-0.06,0.224l-0.058,0.225l-0.054,0.226l-0.052,0.227l-0.048,0.228l-0.046,0.228l-0.042,0.23l-0.04,0.231l-0.036,0.232l-0.034,0.232l-0.03,0.234l-0.027,0.234l-0.024,0.235l-0.021,0.237l-0.018,0.237l-0.015,0.237l-0.011,0.239l-0.008,0.239l-0.005,0.24l-0.002,0.241l0.002,0.241l0.005,0.24l0.008,0.239l0.011,0.239l0.015,0.237l0.018,0.237l0.021,0.237l0.024,0.235l0.027,0.234l0.03,0.234l0.034,0.232l0.036,0.232l0.04,0.231l0.042,0.23l0.046,0.228l0.048,0.228l0.052,0.227l0.054,0.226l0.058,0.225l0.06,0.224l0.064,0.222l0.066,0.222l0.069,0.22l0.071,0.22l0.075,0.218l0.077,0.217l0.081,0.216l0.083,0.214l0.085,0.214l0.089,0.212l0.091,0.211l0.093,0.209l0.097,0.209l0.099,0.207l0.102,0.205l0.104,0.205l0.107,0.203l0.109,0.201l0.112,0.2l0.114,0.199l0.117,0.197l0.12,0.196l0.122,0.195l0.124,0.193l0.127,0.191l0.129,0.19l0.132,0.188l0.134,0.187l0.136,0.185l0.138,0.183l0.141,0.182l0.143,0.181l0.146,0.178l0.147,0.177l0.15,0.175l0.152,0.174l0.155,0.172l0.156,0.17l0.159,0.168l0.16,0.166l0.163,0.165l0.165,0.163l0.167,0.161l0.169,0.159l0.171,0.157l0.173,0.155l0.175,0.154l0.177,0.151l0.179,0.15l0.181,0.147l0.183,0.146l0.184,0.143l0.187,0.142l0.188,0.139l0.191,0.137l0.192,0.136l0.193,0.133l0.196,0.131l0.197,0.129l0.199,0.127l0.201,0.124l0.202,0.123l0.204,0.12l0.206,0.118l0.207,0.115l0.209,0.114l0.211,0.111l0.212,0.109l0.214,0.106l0.215,0.104l0.217,0.102l0.218,0.099l0.22,0.097l0.221,0.095l0.222,0.092l0.224,0.09l0.226,0.087l0.226,0.085l0.228,0.082l0.23,0.08l0.231,0.077l0.232,0.074l0.233,0.072l0.234,0.07l0.236,0.067l0.237,0.064l0.238,0.061l0.24,0.059l0.24,0.056l0.242,0.054l0.243,0.05l0.244,0.048l0.244,0.045l0.247,0.043l0.247,0.039l0.248,0.037l0.249,0.034l0.25,0.031l0.251,0.029l0.252,0.025l0.253,0.022l0.254,0.02l0.254,0.016l0.256,0.014l0.256,0.01l0.258,0.008l0.258,0.005l0.259,0.001l0.258,-0.001l0.259,-0.005l0.257,-0.008l0.256,-0.01l0.256,-0.014l0.254,-0.016l0.254,-0.02l0.253,-0.022l0.252,-0.025l0.251,-0.029l0.25,-0.031l0.249,-0.034l0.249,-0.037l0.247,-0.039l0.246,-0.043l0.245,-0.045l0.243,-0.048l0.243,-0.05l0.242,-0.054l0.24,-0.056l0.24,-0.059l0.238,-0.061l0.237,-0.064l0.236,-0.067l0.234,-0.07l0.234,-0.072l0.232,-0.074l0.23,-0.077l0.23,-0.08l0.228,-0.082l0.227,-0.085l0.225,-0.087l0.224,-0.09l0.222,-0.092l0.221,-0.095l0.22,-0.097l0.218,-0.099l0.217,-0.102l0.215,-0.104l0.214,-0.106l0.212,-0.109l0.211,-0.111l0.209,-0.114l0.207,-0.115l0.206,-0.118l0.204,-0.12l0.202,-0.123l0.201,-0.124l0.199,-0.127l0.197,-0.129l0.196,-0.131l0.194,-0.133l0.192,-0.136l0.19,-0.137l0.188,-0.139l0.187,-0.142l0.184,-0.143l0.183,-0.146l0.181,-0.147l0.179,-0.15l0.177,-0.151l0.175,-0.154l0.173,-0.155l0.171,-0.157l0.169,-0.159l0.167,-0.161l0.165,-0.163l0.163,-0.165l0.16,-0.166l0.159,-0.168l0.156,-0.17l0.155,-0.172l0.152,-0.174l0.15,-0.175l0.147,-0.177l0.146,-0.178l0.143,-0.181l0.141,-0.182l0.138,-0.183l0.137,-0.185l0.133,-0.187l0.132,-0.188l0.129,-0.19l0.127,-0.191l0.124,-0.193l0.122,-0.195l0.12,-0.196l0.117,-0.197l0.114,-0.199l0.112,-0.2l0.109,-0.201l0.107,-0.203l0.105,-0.205l0.101,-0.205l0.099,-0.207l0.097,-0.209l0.093,-0.209l0.092,-0.211l0.088,-0.212l0.086,-0.214l0.082,-0.214l0.081,-0.216l0.077,-0.217l0.075,-0.218l0.072,-0.22l0.068,-0.22l0.067,-0.222l0.063,-0.222l0.06,-0.224l0.058,-0.225l0.054,-0.226l0.052,-0.227l0.048,-0.228l0.046,-0.228l0.042,-0.23l0.04,-0.231l0.036,-0.232l0.034,-0.232l0.03,-0.234l0.027,-0.234l0.025,-0.235l0.021,-0.237l0.017,-0.237l0.015,-0.237l0.011,-0.239l0.008,-0.239l0.005,-0.24l0.002,-0.241l-0.002,-0.241l-0.005,-0.24l-0.008,-0.239l-0.011,-0.239l-0.015,-0.237l-0.017,-0.237l-0.021,-0.237l-0.025,-0.235l-0.027,-0.234l-0.03,-0.234l-0.034,-0.232l-0.036,-0.232l-0.04,-0.231l-0.042,-0.23l-0.046,-0.228l-0.048,-0.228l-0.052,-0.227l-0.054,-0.226l-0.058,-0.225l-0.06,-0.224l-0.063,-0.222l-0.067,-0.222l-0.068,-0.22l-0.072,-0.22l-0.075,-0.218l-0.077,-0.217l-0.081,-0.216l-0.082,-0.214l-0.086,-0.214l-0.088,-0.212l-0.092,-0.211l-0.093,-0.209l-0.097,-0.209l-0.099,-0.207l-0.101,-0.205l-0.105,-0.205l-0.107,-0.203l-0.109,-0.201l-0.112,-0.2l-0.114,-0.199l-0.117,-0.197l-0.12,-0.196l-0.122,-0.195l-0.124,-0.193l-0.127,-0.191l-0.129,-0.19l-0.132,-0.188l-0.133,-0.187l-0.137,-0.185l-0.138,-0.183l-0.141,-0.182l-0.143,-0.181l-0.146,-0.178l-0.147,-0.177l-0.15,-0.175l-0.152,-0.174l-0.155,-0.172l-0.156,-0.17l-0.159,-0.168l-0.16,-0.166l-0.163,-0.165l-0.165,-0.163l-0.167,-0.161l-0.169,-0.159l-0.171,-0.157l-0.173,-0.155l-0.175,-0.154l-0.177,-0.151l-0.179,-0.15l-0.181,-0.147l-0.183,-0.146l-0.184,-0.143l-0.187,-0.142l-0.188,-0.139l-0.19,-0.137l-0.192,-0.136l-0.194,-0.133l-0.196,-0.131l-0.197,-0.129l-0.199,-0.127l-0.201,-0.124l-0.202,-0.123l-0.204,-0.12l-0.206,-0.118l-0.207,-0.115l-0.209,-0.114l-0.211,-0.111l-0.212,-0.109l-0.214,-0.106l-0.215,-0.104l-0.217,-0.102l-0.218,-0.099l-0.22,-0.097l-0.221,-0.095l-0.222,-0.092l-0.224,-0.09l-0.225,-0.087l-0.227,-0.085l-0.228,-0.082l-0.23,-0.08l-0.23,-0.077l-0.232,-0.074l-0.234,-0.072l-0.234,-0.07l-0.236,-0.067l-0.237,-0.064l-0.238,-0.061l-0.24,-0.059l-0.24,-0.056l-0.242,-0.054l-0.243,-0.05l-0.243,-0.048l-0.245,-0.045l-0.246,-0.043l-0.247,-0.039l-0.249,-0.037l-0.249,-0.034l-0.25,-0.031l-0.251,-0.028l-0.252,-0.026l-0.253,-0.022l-0.254,-0.02l-0.254,-0.016l-0.256,-0.014l-0.256,-0.01l-0.258,-0.008l-0.258,-0.005l-0.258,-0.001l-0.259,0.001Z"/>
                </g>
                <g id="Ellipse1" serif:id="Ellipse" transform="matrix(1.03345,0,0,1.03139,-4.50721,-6.6556)">
                    <ellipse cx="47.905" cy="94.683" rx="12.095" ry="12.12" style="fill:rgb(29,29,29);stroke:rgb(65,65,65);stroke-width:0.83px;"/>
                </g>
                <path id="Curve" d="M43.468,81.14l-1.502,-2.64c0,-0.845 2.189,-1.967 3.034,-1.967c0.845,0 3.006,1.122 3.006,1.967l-1.474,2.64c4.78,0.738 8.445,4.874 8.445,9.86c0,5.507 -4.47,9.977 -9.977,9.977c-5.507,0 -9.977,-4.47 -9.977,-9.977c0,-4.986 3.665,-9.122 8.445,-9.86Z" style="fill:rgb(54,192,173);stroke:rgb(24,24,24);stroke-width:0.4px;stroke-linejoin:round;"/>
                <path id="Curve1" serif:id="Curve" d="M45.041,76.533l0.042,0.003l0.045,0.004l0.046,0.005l0.048,0.007l0.05,0.009l0.051,0.01l0.052,0.011l0.054,0.013l0.056,0.014l0.056,0.016l0.058,0.017l0.059,0.018l0.059,0.019l0.061,0.02l0.061,0.022l0.062,0.023l0.063,0.024l0.063,0.025l0.064,0.026l0.064,0.027l0.065,0.028l0.064,0.028l0.065,0.03l0.065,0.031l0.065,0.031l0.064,0.033l0.065,0.033l0.064,0.034l0.064,0.034l0.063,0.035l0.063,0.036l0.062,0.037l0.062,0.037l0.06,0.038l0.06,0.038l0.059,0.038l0.058,0.04l0.057,0.039l0.055,0.04l0.054,0.04l0.053,0.041l0.052,0.041l0.049,0.041l0.049,0.042l0.046,0.041l0.045,0.042l0.043,0.042l0.041,0.042l0.039,0.042l0.037,0.042l0.034,0.043l0.032,0.042l0.03,0.042l0.028,0.042l0.025,0.042l0.022,0.042l0.02,0.041l0.016,0.041l0.014,0.042l0.011,0.04l0.008,0.041l0.003,0.02l0.002,0.02l0.001,0.02l0.001,0.02l-1.558,2.64l0.111,0.018l0.112,0.019l0.111,0.02l0.11,0.022l0.111,0.023l0.109,0.024l0.109,0.025l0.109,0.026l0.109,0.028l0.107,0.029l0.108,0.03l0.107,0.031l0.106,0.032l0.106,0.034l0.105,0.034l0.105,0.036l0.104,0.037l0.104,0.038l0.103,0.039l0.103,0.04l0.102,0.041l0.102,0.043l0.101,0.043l0.1,0.044l0.1,0.046l0.099,0.047l0.099,0.047l0.098,0.049l0.097,0.05l0.097,0.051l0.096,0.052l0.096,0.053l0.095,0.053l0.094,0.055l0.094,0.056l0.093,0.057l0.092,0.058l0.092,0.059l0.091,0.06l0.09,0.06l0.089,0.062l0.089,0.063l0.088,0.063l0.088,0.065l0.086,0.065l0.086,0.067l0.085,0.067l0.085,0.068l0.083,0.069l0.083,0.07l0.082,0.071l0.082,0.072l0.08,0.072l0.08,0.074l0.079,0.074l0.078,0.075l0.077,0.076l0.077,0.077l0.076,0.078l0.074,0.078l0.074,0.079l0.073,0.08l0.073,0.081l0.071,0.082l0.071,0.082l0.069,0.083l0.069,0.084l0.068,0.085l0.067,0.086l0.066,0.086l0.065,0.087l0.064,0.087l0.063,0.089l0.063,0.089l0.061,0.089l0.061,0.091l0.059,0.091l0.058,0.092l0.058,0.092l0.056,0.094l0.056,0.094l0.055,0.094l0.053,0.095l0.053,0.096l0.051,0.096l0.05,0.097l0.05,0.098l0.048,0.098l0.048,0.099l0.046,0.1l0.045,0.1l0.044,0.1l0.043,0.102l0.042,0.101l0.041,0.103l0.04,0.103l0.039,0.103l0.037,0.104l0.036,0.105l0.036,0.105l0.034,0.105l0.033,0.106l0.032,0.107l0.03,0.107l0.03,0.107l0.028,0.108l0.028,0.109l0.026,0.109l0.024,0.109l0.024,0.11l0.022,0.11l0.021,0.111l0.02,0.111l0.019,0.112l0.017,0.112l0.017,0.112l0.015,0.113l0.013,0.113l0.013,0.114l0.011,0.114l0.01,0.114l0.008,0.115l0.008,0.115l0.006,0.115l0.004,0.116l0.004,0.116l0.002,0.116l0,0.117l-0.001,0.129l-0.002,0.128l-0.004,0.128l-0.006,0.128l-0.007,0.127l-0.009,0.127l-0.01,0.127l-0.012,0.126l-0.014,0.125l-0.015,0.125l-0.017,0.125l-0.018,0.124l-0.02,0.123l-0.021,0.123l-0.022,0.123l-0.025,0.122l-0.025,0.121l-0.027,0.121l-0.029,0.12l-0.03,0.12l-0.032,0.119l-0.033,0.119l-0.034,0.118l-0.036,0.118l-0.037,0.116l-0.038,0.117l-0.04,0.115l-0.042,0.115l-0.042,0.114l-0.044,0.114l-0.046,0.113l-0.046,0.112l-0.048,0.112l-0.05,0.11l-0.05,0.111l-0.052,0.109l-0.053,0.109l-0.055,0.108l-0.056,0.107l-0.057,0.106l-0.058,0.106l-0.059,0.105l-0.061,0.104l-0.062,0.103l-0.063,0.102l-0.065,0.102l-0.065,0.101l-0.067,0.1l-0.068,0.099l-0.069,0.098l-0.07,0.097l-0.071,0.097l-0.072,0.096l-0.074,0.094l-0.075,0.094l-0.075,0.093l-0.077,0.092l-0.078,0.091l-0.079,0.09l-0.08,0.089l-0.081,0.088l-0.082,0.087l-0.083,0.086l-0.084,0.086l-0.086,0.084l-0.086,0.083l-0.087,0.082l-0.088,0.081l-0.089,0.08l-0.09,0.079l-0.091,0.078l-0.092,0.077l-0.093,0.075l-0.094,0.075l-0.094,0.074l-0.096,0.072l-0.097,0.071l-0.097,0.07l-0.098,0.069l-0.099,0.068l-0.1,0.067l-0.101,0.065l-0.102,0.065l-0.102,0.063l-0.103,0.062l-0.104,0.061l-0.105,0.059l-0.106,0.058l-0.106,0.057l-0.107,0.056l-0.108,0.055l-0.109,0.053l-0.109,0.052l-0.111,0.05l-0.11,0.05l-0.112,0.048l-0.112,0.046l-0.113,0.046l-0.114,0.044l-0.114,0.042l-0.115,0.042l-0.115,0.04l-0.117,0.038l-0.116,0.037l-0.118,0.036l-0.118,0.034l-0.119,0.033l-0.119,0.032l-0.12,0.03l-0.12,0.029l-0.121,0.027l-0.121,0.025l-0.122,0.025l-0.123,0.022l-0.123,0.021l-0.123,0.02l-0.124,0.018l-0.125,0.017l-0.125,0.015l-0.125,0.014l-0.126,0.012l-0.127,0.01l-0.127,0.009l-0.127,0.007l-0.128,0.006l-0.128,0.004l-0.128,0.002l-0.129,0.001l-0.129,-0.001l-0.128,-0.002l-0.128,-0.004l-0.128,-0.006l-0.127,-0.007l-0.127,-0.009l-0.127,-0.01l-0.126,-0.012l-0.125,-0.014l-0.125,-0.015l-0.125,-0.017l-0.124,-0.018l-0.123,-0.02l-0.123,-0.021l-0.123,-0.022l-0.122,-0.025l-0.121,-0.025l-0.121,-0.027l-0.12,-0.029l-0.12,-0.03l-0.119,-0.032l-0.119,-0.033l-0.118,-0.034l-0.118,-0.036l-0.116,-0.037l-0.117,-0.038l-0.115,-0.04l-0.115,-0.042l-0.114,-0.042l-0.114,-0.044l-0.113,-0.046l-0.112,-0.046l-0.112,-0.048l-0.11,-0.05l-0.111,-0.05l-0.109,-0.052l-0.109,-0.053l-0.108,-0.055l-0.107,-0.056l-0.106,-0.057l-0.106,-0.058l-0.105,-0.059l-0.104,-0.061l-0.103,-0.062l-0.102,-0.063l-0.102,-0.065l-0.101,-0.065l-0.1,-0.067l-0.099,-0.068l-0.098,-0.069l-0.097,-0.07l-0.097,-0.071l-0.096,-0.072l-0.094,-0.074l-0.094,-0.075l-0.093,-0.075l-0.092,-0.077l-0.091,-0.078l-0.09,-0.079l-0.089,-0.08l-0.088,-0.081l-0.087,-0.082l-0.086,-0.083l-0.086,-0.084l-0.084,-0.086l-0.083,-0.086l-0.082,-0.087l-0.081,-0.088l-0.08,-0.089l-0.079,-0.09l-0.078,-0.091l-0.077,-0.092l-0.075,-0.093l-0.075,-0.094l-0.074,-0.094l-0.072,-0.096l-0.071,-0.097l-0.07,-0.097l-0.069,-0.098l-0.068,-0.099l-0.067,-0.1l-0.065,-0.101l-0.065,-0.102l-0.063,-0.102l-0.062,-0.103l-0.061,-0.104l-0.059,-0.105l-0.058,-0.106l-0.057,-0.106l-0.056,-0.107l-0.055,-0.108l-0.053,-0.109l-0.052,-0.109l-0.05,-0.111l-0.05,-0.11l-0.048,-0.112l-0.046,-0.112l-0.046,-0.113l-0.044,-0.114l-0.042,-0.114l-0.042,-0.115l-0.04,-0.115l-0.038,-0.117l-0.037,-0.116l-0.036,-0.118l-0.034,-0.118l-0.033,-0.119l-0.032,-0.119l-0.03,-0.12l-0.029,-0.12l-0.027,-0.121l-0.025,-0.121l-0.025,-0.122l-0.022,-0.123l-0.021,-0.123l-0.02,-0.123l-0.018,-0.124l-0.017,-0.125l-0.015,-0.125l-0.014,-0.125l-0.012,-0.126l-0.01,-0.127l-0.009,-0.127l-0.007,-0.127l-0.006,-0.128l-0.004,-0.128l-0.002,-0.128l-0.001,-0.129l0,-0.117l0.002,-0.116l0.004,-0.116l0.004,-0.116l0.006,-0.115l0.008,-0.115l0.008,-0.115l0.01,-0.114l0.011,-0.114l0.013,-0.114l0.013,-0.113l0.015,-0.113l0.017,-0.112l0.017,-0.112l0.019,-0.112l0.02,-0.111l0.021,-0.111l0.022,-0.11l0.024,-0.11l0.024,-0.109l0.026,-0.109l0.028,-0.109l0.028,-0.108l0.03,-0.107l0.03,-0.107l0.032,-0.107l0.033,-0.106l0.034,-0.105l0.036,-0.105l0.036,-0.105l0.037,-0.104l0.039,-0.103l0.04,-0.103l0.041,-0.103l0.042,-0.101l0.043,-0.102l0.044,-0.1l0.045,-0.1l0.046,-0.1l0.048,-0.099l0.048,-0.098l0.05,-0.098l0.05,-0.097l0.051,-0.096l0.053,-0.096l0.053,-0.095l0.055,-0.094l0.056,-0.094l0.056,-0.094l0.058,-0.092l0.058,-0.092l0.059,-0.091l0.061,-0.091l0.061,-0.089l0.063,-0.089l0.063,-0.089l0.064,-0.087l0.065,-0.087l0.066,-0.086l0.067,-0.086l0.068,-0.085l0.069,-0.084l0.069,-0.083l0.071,-0.082l0.071,-0.082l0.073,-0.081l0.073,-0.08l0.074,-0.079l0.074,-0.078l0.076,-0.078l0.077,-0.077l0.077,-0.076l0.078,-0.075l0.079,-0.074l0.08,-0.074l0.08,-0.072l0.082,-0.072l0.082,-0.071l0.083,-0.07l0.083,-0.069l0.085,-0.068l0.085,-0.067l0.086,-0.067l0.086,-0.065l0.088,-0.065l0.088,-0.063l0.089,-0.063l0.089,-0.062l0.09,-0.06l0.091,-0.06l0.092,-0.059l0.092,-0.058l0.093,-0.057l0.094,-0.056l0.094,-0.055l0.095,-0.053l0.096,-0.053l0.096,-0.052l0.097,-0.051l0.097,-0.05l0.098,-0.049l0.099,-0.047l0.099,-0.047l0.1,-0.046l0.1,-0.044l0.101,-0.043l0.102,-0.043l0.102,-0.041l0.103,-0.04l0.103,-0.039l0.104,-0.038l0.104,-0.037l0.105,-0.036l0.105,-0.034l0.106,-0.034l0.106,-0.032l0.107,-0.031l0.108,-0.03l0.107,-0.029l0.109,-0.028l0.109,-0.026l0.109,-0.025l0.109,-0.024l0.111,-0.023l0.11,-0.022l0.111,-0.02l0.112,-0.019l0.111,-0.018l-1.53,-2.64l0,-0.02l0.002,-0.02l0.002,-0.02l0.002,-0.02l0.008,-0.041l0.011,-0.04l0.014,-0.042l0.016,-0.041l0.02,-0.041l0.022,-0.042l0.025,-0.042l0.027,-0.042l0.029,-0.042l0.032,-0.042l0.034,-0.043l0.037,-0.042l0.038,-0.042l0.041,-0.042l0.042,-0.042l0.044,-0.042l0.046,-0.041l0.048,-0.042l0.049,-0.041l0.051,-0.041l0.052,-0.041l0.054,-0.04l0.055,-0.04l0.056,-0.039l0.057,-0.04l0.058,-0.038l0.06,-0.038l0.06,-0.038l0.06,-0.037l0.062,-0.037l0.062,-0.036l0.063,-0.035l0.063,-0.034l0.064,-0.034l0.063,-0.033l0.064,-0.033l0.065,-0.031l0.064,-0.031l0.064,-0.03l0.064,-0.028l0.064,-0.028l0.063,-0.027l0.063,-0.026l0.063,-0.025l0.062,-0.024l0.062,-0.023l0.061,-0.022l0.06,-0.02l0.059,-0.019l0.059,-0.018l0.057,-0.017l0.056,-0.016l0.055,-0.014l0.054,-0.013l0.052,-0.011l0.051,-0.01l0.049,-0.009l0.048,-0.007l0.046,-0.005l0.045,-0.004l0.042,-0.003l0.041,0l0.041,0Zm-0.044,0.974l-0.009,0l-0.013,0.001l-0.019,0.003l-0.023,0.003l-0.027,0.005l-0.03,0.006l-0.033,0.007l-0.036,0.009l-0.039,0.009l-0.041,0.012l-0.043,0.012l-0.044,0.014l-0.046,0.015l-0.048,0.016l-0.049,0.018l-0.05,0.018l-0.052,0.02l-0.052,0.021l-0.052,0.021l-0.054,0.023l-0.054,0.024l-0.054,0.024l-0.054,0.025l-0.055,0.026l-0.055,0.027l-0.054,0.028l-0.054,0.028l-0.054,0.029l-0.054,0.029l-0.053,0.03l-0.052,0.03l-0.051,0.03l-0.051,0.031l-0.05,0.031l-0.048,0.032l-0.048,0.031l-0.045,0.032l-0.045,0.031l-0.043,0.031l-0.041,0.031l-0.04,0.031l-0.037,0.03l-0.035,0.029l-0.034,0.029l-0.03,0.028l-0.001,0.001l1.266,2.183l0.043,0.084l0.035,0.088l0.027,0.09l0.017,0.093l0.009,0.094l-0.001,0.094l-0.01,0.094l-0.019,0.092l-0.027,0.091l-0.037,0.087l-0.044,0.083l-0.053,0.078l-0.059,0.073l-0.067,0.067l-0.072,0.06l-0.079,0.053l-0.082,0.045l-0.087,0.037l-0.09,0.028l-0.093,0.02l-0.106,0.017l-0.1,0.017l-0.1,0.018l-0.1,0.02l-0.1,0.02l-0.098,0.022l-0.099,0.023l-0.098,0.023l-0.098,0.025l-0.097,0.026l-0.097,0.027l-0.096,0.028l-0.096,0.03l-0.095,0.03l-0.095,0.031l-0.095,0.032l-0.094,0.033l-0.093,0.034l-0.094,0.036l-0.092,0.036l-0.092,0.037l-0.092,0.038l-0.091,0.04l-0.09,0.04l-0.091,0.041l-0.089,0.042l-0.089,0.043l-0.089,0.044l-0.087,0.045l-0.088,0.046l-0.087,0.046l-0.086,0.048l-0.085,0.049l-0.085,0.049l-0.085,0.051l-0.084,0.051l-0.083,0.052l-0.083,0.053l-0.082,0.054l-0.081,0.055l-0.081,0.056l-0.08,0.057l-0.08,0.057l-0.079,0.058l-0.078,0.059l-0.077,0.06l-0.077,0.061l-0.077,0.062l-0.075,0.062l-0.075,0.063l-0.074,0.064l-0.074,0.065l-0.072,0.065l-0.072,0.067l-0.072,0.067l-0.07,0.068l-0.07,0.068l-0.069,0.07l-0.068,0.07l-0.068,0.071l-0.067,0.071l-0.066,0.072l-0.065,0.073l-0.065,0.074l-0.063,0.075l-0.063,0.075l-0.062,0.075l-0.062,0.077l-0.06,0.077l-0.06,0.078l-0.058,0.078l-0.058,0.079l-0.057,0.08l-0.057,0.081l-0.055,0.081l-0.055,0.081l-0.053,0.083l-0.053,0.083l-0.052,0.083l-0.051,0.084l-0.05,0.085l-0.049,0.085l-0.049,0.086l-0.047,0.086l-0.046,0.087l-0.046,0.088l-0.044,0.088l-0.044,0.089l-0.043,0.089l-0.042,0.09l-0.04,0.09l-0.04,0.091l-0.039,0.091l-0.038,0.092l-0.037,0.092l-0.035,0.093l-0.035,0.093l-0.034,0.094l-0.033,0.094l-0.032,0.095l-0.031,0.095l-0.029,0.095l-0.029,0.097l-0.028,0.096l-0.026,0.097l-0.026,0.097l-0.024,0.098l-0.024,0.098l-0.022,0.099l-0.021,0.099l-0.021,0.1l-0.019,0.099l-0.018,0.101l-0.017,0.1l-0.015,0.101l-0.015,0.102l-0.013,0.102l-0.013,0.102l-0.011,0.102l-0.01,0.103l-0.009,0.103l-0.008,0.104l-0.006,0.104l-0.006,0.104l-0.004,0.104l-0.003,0.105l-0.002,0.106l0,0.105l0,0.117l0.003,0.116l0.003,0.115l0.005,0.116l0.007,0.115l0.008,0.114l0.009,0.114l0.011,0.114l0.013,0.113l0.013,0.113l0.015,0.112l0.017,0.112l0.017,0.112l0.019,0.111l0.021,0.11l0.022,0.11l0.023,0.11l0.024,0.109l0.026,0.108l0.027,0.108l0.029,0.108l0.029,0.107l0.031,0.106l0.033,0.106l0.033,0.105l0.035,0.105l0.036,0.104l0.037,0.104l0.039,0.103l0.039,0.102l0.041,0.102l0.042,0.101l0.044,0.101l0.044,0.1l0.046,0.099l0.047,0.099l0.048,0.098l0.049,0.097l0.05,0.097l0.051,0.096l0.053,0.095l0.054,0.095l0.054,0.094l0.056,0.093l0.057,0.092l0.058,0.092l0.059,0.091l0.061,0.09l0.061,0.09l0.062,0.088l0.064,0.088l0.064,0.088l0.065,0.086l0.067,0.085l0.067,0.085l0.068,0.084l0.07,0.083l0.07,0.082l0.071,0.081l0.073,0.081l0.073,0.079l0.074,0.079l0.075,0.078l0.076,0.077l0.077,0.076l0.078,0.075l0.079,0.074l0.079,0.073l0.081,0.073l0.081,0.071l0.082,0.07l0.083,0.07l0.084,0.068l0.085,0.067l0.085,0.067l0.086,0.065l0.088,0.064l0.087,0.064l0.089,0.062l0.09,0.061l0.09,0.061l0.091,0.059l0.092,0.058l0.092,0.057l0.093,0.056l0.094,0.054l0.095,0.054l0.095,0.053l0.096,0.051l0.097,0.05l0.097,0.049l0.098,0.048l0.099,0.047l0.099,0.046l0.1,0.044l0.101,0.044l0.101,0.042l0.102,0.041l0.102,0.039l0.103,0.039l0.104,0.037l0.104,0.036l0.105,0.035l0.105,0.033l0.106,0.033l0.106,0.031l0.107,0.029l0.108,0.029l0.108,0.027l0.108,0.026l0.109,0.024l0.11,0.023l0.11,0.022l0.11,0.021l0.111,0.019l0.112,0.017l0.112,0.017l0.112,0.015l0.113,0.013l0.113,0.013l0.114,0.011l0.114,0.009l0.114,0.008l0.115,0.007l0.116,0.005l0.115,0.003l0.116,0.003l0.117,0l0.117,0l0.116,-0.003l0.115,-0.003l0.116,-0.005l0.115,-0.007l0.114,-0.008l0.114,-0.009l0.114,-0.011l0.113,-0.013l0.113,-0.013l0.112,-0.015l0.112,-0.017l0.112,-0.017l0.111,-0.019l0.11,-0.021l0.11,-0.022l0.11,-0.023l0.109,-0.024l0.108,-0.026l0.108,-0.027l0.108,-0.029l0.107,-0.029l0.106,-0.031l0.106,-0.033l0.105,-0.033l0.105,-0.035l0.104,-0.036l0.104,-0.037l0.103,-0.039l0.102,-0.039l0.102,-0.041l0.101,-0.042l0.101,-0.044l0.1,-0.044l0.099,-0.046l0.099,-0.047l0.098,-0.048l0.097,-0.049l0.097,-0.05l0.096,-0.051l0.095,-0.053l0.095,-0.054l0.094,-0.054l0.093,-0.056l0.092,-0.057l0.092,-0.058l0.091,-0.059l0.09,-0.061l0.09,-0.061l0.089,-0.062l0.087,-0.064l0.088,-0.064l0.086,-0.065l0.085,-0.067l0.085,-0.067l0.084,-0.068l0.083,-0.07l0.082,-0.07l0.081,-0.071l0.081,-0.073l0.079,-0.073l0.079,-0.074l0.078,-0.075l0.077,-0.076l0.076,-0.077l0.075,-0.078l0.074,-0.079l0.073,-0.079l0.073,-0.081l0.071,-0.081l0.07,-0.082l0.07,-0.083l0.068,-0.084l0.067,-0.085l0.067,-0.085l0.065,-0.086l0.064,-0.088l0.064,-0.088l0.062,-0.088l0.061,-0.09l0.061,-0.09l0.059,-0.091l0.058,-0.092l0.057,-0.092l0.056,-0.093l0.054,-0.094l0.054,-0.095l0.053,-0.095l0.051,-0.096l0.05,-0.097l0.049,-0.097l0.048,-0.098l0.047,-0.099l0.046,-0.099l0.044,-0.1l0.044,-0.101l0.042,-0.101l0.041,-0.102l0.039,-0.102l0.039,-0.103l0.037,-0.104l0.036,-0.104l0.035,-0.105l0.033,-0.105l0.033,-0.106l0.031,-0.106l0.029,-0.107l0.029,-0.108l0.027,-0.108l0.026,-0.108l0.024,-0.109l0.023,-0.11l0.022,-0.11l0.021,-0.11l0.019,-0.111l0.017,-0.112l0.017,-0.112l0.015,-0.112l0.013,-0.113l0.013,-0.113l0.011,-0.114l0.009,-0.114l0.008,-0.114l0.007,-0.115l0.005,-0.116l0.003,-0.115l0.003,-0.116l0,-0.117l0,-0.105l-0.002,-0.106l-0.003,-0.105l-0.004,-0.104l-0.006,-0.104l-0.006,-0.104l-0.008,-0.104l-0.009,-0.103l-0.01,-0.103l-0.011,-0.102l-0.013,-0.102l-0.013,-0.102l-0.015,-0.102l-0.015,-0.101l-0.017,-0.1l-0.018,-0.101l-0.019,-0.099l-0.021,-0.1l-0.021,-0.099l-0.022,-0.099l-0.024,-0.098l-0.024,-0.098l-0.026,-0.097l-0.026,-0.097l-0.028,-0.096l-0.029,-0.097l-0.029,-0.095l-0.031,-0.095l-0.032,-0.095l-0.033,-0.094l-0.034,-0.094l-0.035,-0.093l-0.035,-0.093l-0.037,-0.092l-0.038,-0.092l-0.039,-0.091l-0.04,-0.091l-0.04,-0.09l-0.042,-0.09l-0.043,-0.089l-0.044,-0.089l-0.044,-0.088l-0.046,-0.088l-0.046,-0.087l-0.047,-0.086l-0.049,-0.086l-0.049,-0.085l-0.05,-0.085l-0.051,-0.084l-0.052,-0.083l-0.053,-0.083l-0.053,-0.083l-0.055,-0.081l-0.055,-0.081l-0.057,-0.081l-0.057,-0.079l-0.058,-0.08l-0.058,-0.078l-0.06,-0.078l-0.06,-0.077l-0.062,-0.077l-0.062,-0.075l-0.063,-0.075l-0.063,-0.075l-0.065,-0.074l-0.065,-0.073l-0.066,-0.072l-0.067,-0.071l-0.068,-0.071l-0.068,-0.07l-0.069,-0.07l-0.07,-0.068l-0.07,-0.068l-0.072,-0.067l-0.072,-0.067l-0.072,-0.065l-0.074,-0.065l-0.074,-0.064l-0.075,-0.063l-0.075,-0.062l-0.077,-0.062l-0.077,-0.061l-0.077,-0.06l-0.078,-0.059l-0.079,-0.058l-0.08,-0.057l-0.08,-0.057l-0.081,-0.056l-0.081,-0.055l-0.082,-0.054l-0.083,-0.053l-0.083,-0.052l-0.084,-0.051l-0.085,-0.051l-0.085,-0.049l-0.085,-0.049l-0.086,-0.048l-0.087,-0.046l-0.088,-0.046l-0.087,-0.045l-0.089,-0.044l-0.089,-0.043l-0.089,-0.042l-0.091,-0.041l-0.09,-0.04l-0.091,-0.04l-0.092,-0.038l-0.092,-0.037l-0.092,-0.036l-0.094,-0.036l-0.093,-0.034l-0.094,-0.033l-0.095,-0.032l-0.095,-0.031l-0.095,-0.03l-0.096,-0.03l-0.096,-0.028l-0.097,-0.027l-0.097,-0.026l-0.098,-0.025l-0.098,-0.023l-0.099,-0.023l-0.098,-0.022l-0.1,-0.02l-0.1,-0.02l-0.1,-0.018l-0.1,-0.017l-0.106,-0.017l-0.093,-0.02l-0.09,-0.028l-0.088,-0.037l-0.083,-0.046l-0.078,-0.053l-0.073,-0.061l-0.066,-0.067l-0.06,-0.073l-0.053,-0.079l-0.044,-0.084l-0.036,-0.087l-0.027,-0.091l-0.019,-0.093l-0.009,-0.094l0,-0.095l0.009,-0.094l0.018,-0.093l0.027,-0.091l0.036,-0.087l0.044,-0.084l1.285,-2.177l-0.028,-0.025l-0.034,-0.029l-0.036,-0.03l-0.038,-0.03l-0.04,-0.031l-0.042,-0.031l-0.043,-0.031l-0.046,-0.032l-0.046,-0.031l-0.048,-0.032l-0.049,-0.031l-0.051,-0.031l-0.051,-0.031l-0.052,-0.031l-0.053,-0.03l-0.054,-0.03l-0.054,-0.029l-0.055,-0.029l-0.055,-0.029l-0.055,-0.027l-0.055,-0.027l-0.056,-0.026l-0.055,-0.026l-0.055,-0.024l-0.054,-0.024l-0.054,-0.023l-0.054,-0.021l-0.053,-0.021l-0.051,-0.02l-0.051,-0.018l-0.05,-0.018l-0.048,-0.016l-0.047,-0.015l-0.045,-0.014l-0.043,-0.013l-0.042,-0.011l-0.039,-0.01l-0.036,-0.009l-0.034,-0.007l-0.031,-0.006l-0.027,-0.005l-0.023,-0.003l-0.019,-0.002l-0.014,-0.002l-0.009,0l-0.003,0l-0.003,0Z" style="fill-opacity:0.5;"/>
            </g>
        </g>
    </g>
</svg>
