<?xml version="1.0" encoding="UTF-8" standalone="no"?>
<!DOCTYPE svg PUBLIC "-//W3C//DTD SVG 1.1//EN" "http://www.w3.org/Graphics/SVG/1.1/DTD/svg11.dtd">
<svg width="26px" height="26px" version="1.1" xmlns="http://www.w3.org/2000/svg" xmlns:xlink="http://www.w3.org/1999/xlink" xml:space="preserve" xmlns:serif="http://www.serif.com/" style="fill-rule:evenodd;clip-rule:evenodd;stroke-linejoin:round;stroke-miterlimit:2;">
    <g transform="matrix(1,0,0,1,-17,-276)">
        <g transform="matrix(0.975,0,0,1.26667,-97.5,-126.667)">
            <g id="port" transform="matrix(1.0555,0,0,0.804248,-305.406,302.287)">
                <g transform="matrix(1.27056,0,0,1.28352,-109.445,-264.326)">
                    <circle cx="411.384" cy="231" r="6.113" style="fill:rgb(19,22,26);"/>
                    <path d="M411.463,224.887l0.079,0.002l0.078,0.002l0.078,0.004l0.078,0.004l0.078,0.006l0.078,0.006l0.077,0.008l0.077,0.008l0.076,0.009l0.076,0.01l0.076,0.011l0.076,0.013l0.076,0.013l0.075,0.013l0.074,0.015l0.075,0.016l0.074,0.017l0.074,0.017l0.073,0.019l0.073,0.019l0.073,0.02l0.072,0.021l0.072,0.022l0.072,0.023l0.071,0.023l0.071,0.025l0.07,0.025l0.07,0.026l0.07,0.027l0.069,0.028l0.069,0.029l0.068,0.029l0.068,0.03l0.067,0.031l0.067,0.032l0.067,0.033l0.066,0.033l0.066,0.034l0.065,0.035l0.065,0.036l0.064,0.036l0.064,0.038l0.063,0.038l0.063,0.038l0.062,0.04l0.062,0.04l0.061,0.041l0.061,0.041l0.06,0.042l0.059,0.043l0.06,0.044l0.058,0.044l0.058,0.045l0.058,0.046l0.057,0.047l0.056,0.047l0.056,0.047l0.055,0.049l0.054,0.049l0.054,0.049l0.054,0.051l0.053,0.051l0.052,0.051l0.051,0.052l0.051,0.053l0.051,0.054l0.049,0.054l0.049,0.054l0.049,0.055l0.047,0.056l0.047,0.056l0.047,0.057l0.046,0.058l0.045,0.058l0.044,0.058l0.044,0.06l0.043,0.059l0.042,0.06l0.041,0.061l0.041,0.061l0.04,0.062l0.04,0.062l0.039,0.063l0.037,0.063l0.038,0.064l0.036,0.064l0.036,0.065l0.035,0.065l0.034,0.066l0.033,0.066l0.033,0.067l0.032,0.067l0.031,0.067l0.03,0.068l0.029,0.068l0.029,0.069l0.028,0.069l0.027,0.07l0.026,0.07l0.025,0.07l0.025,0.071l0.023,0.071l0.023,0.072l0.022,0.072l0.021,0.072l0.02,0.073l0.019,0.073l0.019,0.073l0.017,0.074l0.017,0.074l0.016,0.075l0.015,0.074l0.014,0.075l0.013,0.076l0.012,0.076l0.011,0.076l0.01,0.076l0.009,0.076l0.008,0.077l0.008,0.078l0.006,0.077l0.006,0.078l0.004,0.078l0.004,0.078l0.002,0.078l0.002,0.079l0,0.079l0,0.079l-0.002,0.079l-0.002,0.078l-0.004,0.078l-0.004,0.078l-0.006,0.078l-0.006,0.077l-0.008,0.078l-0.008,0.077l-0.009,0.076l-0.01,0.076l-0.011,0.076l-0.012,0.076l-0.013,0.076l-0.014,0.075l-0.015,0.074l-0.016,0.075l-0.017,0.074l-0.017,0.074l-0.019,0.073l-0.019,0.073l-0.02,0.073l-0.021,0.072l-0.022,0.072l-0.023,0.072l-0.023,0.071l-0.025,0.071l-0.025,0.07l-0.026,0.07l-0.027,0.07l-0.028,0.069l-0.029,0.069l-0.029,0.068l-0.03,0.068l-0.031,0.067l-0.032,0.067l-0.033,0.067l-0.033,0.066l-0.034,0.066l-0.035,0.065l-0.036,0.065l-0.036,0.064l-0.038,0.064l-0.037,0.063l-0.039,0.063l-0.04,0.062l-0.04,0.062l-0.041,0.061l-0.041,0.061l-0.042,0.06l-0.043,0.059l-0.044,0.06l-0.044,0.058l-0.045,0.058l-0.046,0.058l-0.047,0.057l-0.047,0.056l-0.047,0.056l-0.049,0.055l-0.049,0.054l-0.049,0.054l-0.051,0.054l-0.051,0.053l-0.051,0.052l-0.052,0.051l-0.053,0.051l-0.054,0.051l-0.054,0.049l-0.054,0.049l-0.055,0.049l-0.056,0.047l-0.056,0.047l-0.057,0.047l-0.058,0.046l-0.058,0.045l-0.058,0.044l-0.06,0.044l-0.059,0.043l-0.06,0.042l-0.061,0.041l-0.061,0.041l-0.062,0.04l-0.062,0.04l-0.063,0.038l-0.063,0.038l-0.064,0.038l-0.064,0.036l-0.065,0.036l-0.065,0.035l-0.066,0.034l-0.066,0.033l-0.067,0.033l-0.067,0.032l-0.067,0.031l-0.068,0.03l-0.068,0.029l-0.069,0.029l-0.069,0.028l-0.07,0.027l-0.07,0.026l-0.07,0.025l-0.071,0.025l-0.071,0.023l-0.072,0.023l-0.072,0.022l-0.072,0.021l-0.073,0.02l-0.073,0.019l-0.073,0.019l-0.074,0.017l-0.074,0.017l-0.075,0.016l-0.074,0.015l-0.075,0.013l-0.076,0.013l-0.076,0.013l-0.076,0.011l-0.076,0.01l-0.076,0.009l-0.077,0.008l-0.077,0.008l-0.078,0.006l-0.078,0.006l-0.078,0.004l-0.078,0.004l-0.078,0.002l-0.079,0.002l-0.079,0l-0.079,0l-0.079,-0.002l-0.078,-0.002l-0.078,-0.004l-0.078,-0.004l-0.078,-0.006l-0.077,-0.006l-0.078,-0.008l-0.076,-0.008l-0.077,-0.009l-0.076,-0.01l-0.076,-0.011l-0.076,-0.013l-0.075,-0.013l-0.076,-0.013l-0.074,-0.015l-0.075,-0.016l-0.074,-0.017l-0.074,-0.017l-0.073,-0.019l-0.073,-0.019l-0.073,-0.02l-0.072,-0.021l-0.072,-0.022l-0.072,-0.023l-0.071,-0.023l-0.07,-0.025l-0.071,-0.025l-0.07,-0.026l-0.07,-0.027l-0.069,-0.028l-0.068,-0.029l-0.069,-0.029l-0.068,-0.03l-0.067,-0.031l-0.067,-0.032l-0.067,-0.033l-0.066,-0.033l-0.066,-0.034l-0.065,-0.035l-0.064,-0.036l-0.065,-0.036l-0.064,-0.038l-0.063,-0.038l-0.063,-0.038l-0.062,-0.04l-0.062,-0.04l-0.061,-0.041l-0.061,-0.041l-0.06,-0.042l-0.059,-0.043l-0.059,-0.044l-0.059,-0.044l-0.058,-0.045l-0.058,-0.046l-0.056,-0.047l-0.057,-0.047l-0.056,-0.047l-0.055,-0.049l-0.054,-0.049l-0.054,-0.049l-0.054,-0.051l-0.052,-0.051l-0.053,-0.051l-0.051,-0.052l-0.051,-0.053l-0.05,-0.054l-0.05,-0.054l-0.049,-0.054l-0.049,-0.055l-0.047,-0.056l-0.047,-0.056l-0.047,-0.057l-0.045,-0.058l-0.045,-0.058l-0.045,-0.058l-0.044,-0.06l-0.043,-0.059l-0.042,-0.06l-0.041,-0.061l-0.041,-0.061l-0.04,-0.062l-0.04,-0.062l-0.038,-0.063l-0.038,-0.063l-0.038,-0.064l-0.036,-0.064l-0.036,-0.065l-0.035,-0.065l-0.034,-0.066l-0.033,-0.066l-0.033,-0.067l-0.032,-0.067l-0.031,-0.067l-0.03,-0.068l-0.029,-0.068l-0.029,-0.069l-0.028,-0.069l-0.027,-0.07l-0.026,-0.07l-0.025,-0.07l-0.025,-0.071l-0.023,-0.071l-0.023,-0.072l-0.022,-0.072l-0.021,-0.072l-0.02,-0.073l-0.019,-0.073l-0.019,-0.073l-0.017,-0.074l-0.017,-0.074l-0.016,-0.075l-0.015,-0.074l-0.013,-0.075l-0.013,-0.076l-0.012,-0.076l-0.012,-0.076l-0.01,-0.076l-0.009,-0.076l-0.008,-0.077l-0.008,-0.078l-0.006,-0.077l-0.006,-0.078l-0.004,-0.078l-0.003,-0.078l-0.003,-0.078l-0.001,-0.079l-0.001,-0.079l0.001,-0.079l0.001,-0.079l0.003,-0.078l0.003,-0.078l0.004,-0.078l0.006,-0.078l0.006,-0.077l0.008,-0.078l0.008,-0.077l0.009,-0.076l0.01,-0.076l0.012,-0.076l0.012,-0.076l0.013,-0.076l0.013,-0.075l0.015,-0.074l0.016,-0.075l0.017,-0.074l0.017,-0.074l0.019,-0.073l0.019,-0.073l0.02,-0.073l0.021,-0.072l0.022,-0.072l0.023,-0.072l0.023,-0.071l0.025,-0.071l0.025,-0.07l0.026,-0.07l0.027,-0.07l0.028,-0.069l0.029,-0.069l0.029,-0.068l0.03,-0.068l0.031,-0.067l0.032,-0.067l0.033,-0.067l0.033,-0.066l0.034,-0.066l0.035,-0.065l0.036,-0.065l0.036,-0.064l0.038,-0.064l0.038,-0.063l0.038,-0.063l0.04,-0.062l0.04,-0.062l0.041,-0.061l0.041,-0.061l0.042,-0.06l0.043,-0.059l0.044,-0.06l0.045,-0.058l0.045,-0.058l0.045,-0.058l0.047,-0.057l0.047,-0.056l0.047,-0.056l0.049,-0.055l0.049,-0.054l0.05,-0.054l0.05,-0.054l0.051,-0.053l0.051,-0.052l0.053,-0.051l0.052,-0.051l0.054,-0.051l0.054,-0.049l0.054,-0.049l0.055,-0.049l0.056,-0.047l0.057,-0.047l0.056,-0.047l0.058,-0.046l0.058,-0.045l0.059,-0.044l0.059,-0.044l0.059,-0.043l0.06,-0.042l0.061,-0.041l0.061,-0.041l0.062,-0.04l0.062,-0.04l0.063,-0.038l0.063,-0.038l0.064,-0.038l0.065,-0.036l0.064,-0.036l0.065,-0.035l0.066,-0.034l0.066,-0.033l0.067,-0.033l0.067,-0.032l0.067,-0.031l0.068,-0.03l0.069,-0.029l0.068,-0.029l0.069,-0.028l0.07,-0.027l0.07,-0.026l0.071,-0.025l0.07,-0.025l0.071,-0.023l0.072,-0.023l0.072,-0.022l0.072,-0.021l0.073,-0.02l0.073,-0.019l0.073,-0.019l0.074,-0.017l0.074,-0.017l0.075,-0.016l0.074,-0.015l0.076,-0.013l0.075,-0.013l0.076,-0.013l0.076,-0.011l0.076,-0.01l0.077,-0.009l0.076,-0.008l0.078,-0.008l0.077,-0.006l0.078,-0.006l0.078,-0.004l0.078,-0.004l0.078,-0.002l0.079,-0.002l0.079,0l0.079,0Zm-0.155,0.22l-0.076,0.001l-0.076,0.002l-0.075,0.004l-0.075,0.004l-0.075,0.005l-0.075,0.006l-0.074,0.008l-0.075,0.008l-0.073,0.008l-0.074,0.01l-0.073,0.011l-0.073,0.012l-0.073,0.012l-0.072,0.014l-0.072,0.014l-0.072,0.015l-0.071,0.016l-0.072,0.017l-0.07,0.018l-0.071,0.018l-0.07,0.02l-0.069,0.02l-0.07,0.021l-0.069,0.022l-0.068,0.023l-0.069,0.023l-0.068,0.025l-0.067,0.025l-0.067,0.026l-0.067,0.027l-0.066,0.027l-0.066,0.029l-0.065,0.029l-0.065,0.03l-0.065,0.031l-0.064,0.031l-0.064,0.032l-0.063,0.033l-0.063,0.034l-0.063,0.034l-0.061,0.035l-0.062,0.036l-0.061,0.037l-0.061,0.037l-0.06,0.038l-0.059,0.039l-0.059,0.039l-0.059,0.04l-0.058,0.041l-0.057,0.041l-0.057,0.043l-0.057,0.042l-0.056,0.044l-0.055,0.044l-0.055,0.045l-0.054,0.045l-0.054,0.046l-0.053,0.047l-0.053,0.047l-0.052,0.048l-0.052,0.048l-0.05,0.049l-0.051,0.05l-0.049,0.051l-0.05,0.05l-0.048,0.052l-0.048,0.052l-0.047,0.053l-0.047,0.053l-0.046,0.054l-0.045,0.054l-0.045,0.055l-0.044,0.055l-0.044,0.056l-0.042,0.057l-0.043,0.057l-0.041,0.057l-0.041,0.058l-0.04,0.059l-0.039,0.059l-0.039,0.059l-0.038,0.06l-0.037,0.061l-0.037,0.061l-0.036,0.061l-0.035,0.062l-0.034,0.063l-0.034,0.063l-0.033,0.063l-0.032,0.064l-0.031,0.064l-0.031,0.065l-0.03,0.065l-0.029,0.065l-0.029,0.066l-0.027,0.066l-0.027,0.067l-0.026,0.067l-0.025,0.067l-0.024,0.068l-0.024,0.069l-0.023,0.068l-0.022,0.069l-0.021,0.069l-0.02,0.07l-0.02,0.07l-0.018,0.071l-0.018,0.07l-0.017,0.071l-0.016,0.072l-0.015,0.072l-0.014,0.072l-0.014,0.072l-0.012,0.073l-0.012,0.073l-0.011,0.073l-0.009,0.074l-0.009,0.073l-0.008,0.075l-0.008,0.074l-0.006,0.075l-0.005,0.075l-0.004,0.075l-0.004,0.075l-0.002,0.076l-0.001,0.076l-0.001,0.076l0.001,0.076l0.001,0.076l0.002,0.076l0.004,0.075l0.004,0.075l0.005,0.075l0.006,0.075l0.008,0.074l0.008,0.075l0.009,0.073l0.009,0.074l0.011,0.073l0.012,0.073l0.012,0.073l0.014,0.072l0.014,0.072l0.015,0.072l0.016,0.072l0.017,0.071l0.018,0.07l0.018,0.071l0.02,0.07l0.02,0.07l0.021,0.069l0.022,0.069l0.023,0.068l0.024,0.069l0.024,0.068l0.025,0.067l0.026,0.067l0.027,0.067l0.027,0.066l0.029,0.066l0.029,0.065l0.03,0.066l0.031,0.064l0.031,0.064l0.032,0.064l0.033,0.063l0.034,0.063l0.034,0.063l0.035,0.062l0.036,0.061l0.037,0.061l0.037,0.061l0.038,0.06l0.039,0.059l0.039,0.059l0.04,0.059l0.041,0.058l0.041,0.057l0.043,0.057l0.042,0.057l0.044,0.056l0.044,0.055l0.045,0.055l0.045,0.054l0.046,0.054l0.047,0.053l0.047,0.053l0.048,0.052l0.048,0.052l0.05,0.05l0.049,0.051l0.051,0.05l0.05,0.049l0.052,0.048l0.052,0.048l0.053,0.047l0.053,0.047l0.054,0.046l0.054,0.045l0.055,0.045l0.055,0.044l0.056,0.044l0.057,0.042l0.057,0.043l0.057,0.041l0.058,0.041l0.059,0.04l0.059,0.039l0.059,0.039l0.061,0.038l0.06,0.037l0.061,0.037l0.062,0.036l0.061,0.035l0.063,0.034l0.063,0.034l0.063,0.033l0.064,0.032l0.064,0.031l0.065,0.031l0.065,0.03l0.065,0.029l0.066,0.029l0.066,0.027l0.067,0.027l0.067,0.026l0.067,0.025l0.068,0.025l0.069,0.023l0.068,0.023l0.069,0.022l0.07,0.021l0.069,0.02l0.07,0.02l0.071,0.018l0.07,0.018l0.072,0.017l0.071,0.016l0.072,0.015l0.072,0.014l0.072,0.014l0.073,0.012l0.073,0.012l0.073,0.011l0.074,0.01l0.073,0.008l0.075,0.008l0.074,0.008l0.075,0.006l0.075,0.005l0.075,0.004l0.075,0.004l0.076,0.002l0.076,0.001l0.076,0.001l0.076,-0.001l0.076,-0.001l0.076,-0.002l0.075,-0.004l0.076,-0.004l0.074,-0.005l0.075,-0.006l0.075,-0.008l0.074,-0.008l0.074,-0.008l0.073,-0.01l0.073,-0.011l0.073,-0.012l0.073,-0.012l0.072,-0.014l0.072,-0.014l0.072,-0.015l0.072,-0.016l0.071,-0.017l0.07,-0.018l0.071,-0.018l0.07,-0.02l0.07,-0.02l0.069,-0.021l0.069,-0.022l0.069,-0.023l0.068,-0.023l0.068,-0.025l0.067,-0.025l0.067,-0.026l0.067,-0.027l0.066,-0.027l0.066,-0.029l0.066,-0.029l0.065,-0.03l0.064,-0.031l0.064,-0.031l0.064,-0.032l0.063,-0.033l0.063,-0.034l0.063,-0.034l0.062,-0.035l0.061,-0.036l0.061,-0.037l0.061,-0.037l0.06,-0.038l0.059,-0.039l0.059,-0.039l0.059,-0.04l0.058,-0.041l0.057,-0.041l0.057,-0.043l0.057,-0.042l0.056,-0.044l0.055,-0.044l0.055,-0.045l0.054,-0.045l0.054,-0.046l0.053,-0.047l0.053,-0.047l0.052,-0.048l0.052,-0.048l0.051,-0.049l0.05,-0.05l0.05,-0.051l0.049,-0.05l0.048,-0.052l0.048,-0.052l0.047,-0.053l0.047,-0.053l0.046,-0.054l0.045,-0.054l0.045,-0.055l0.044,-0.055l0.044,-0.056l0.043,-0.057l0.042,-0.057l0.041,-0.057l0.041,-0.058l0.04,-0.059l0.039,-0.059l0.039,-0.059l0.038,-0.06l0.037,-0.061l0.037,-0.061l0.036,-0.061l0.035,-0.062l0.034,-0.063l0.034,-0.063l0.033,-0.063l0.032,-0.064l0.032,-0.064l0.03,-0.064l0.03,-0.066l0.029,-0.065l0.029,-0.066l0.027,-0.066l0.027,-0.067l0.026,-0.067l0.025,-0.067l0.025,-0.068l0.023,-0.069l0.023,-0.068l0.022,-0.069l0.021,-0.069l0.02,-0.07l0.02,-0.07l0.018,-0.071l0.018,-0.07l0.017,-0.071l0.016,-0.072l0.015,-0.072l0.014,-0.072l0.014,-0.072l0.012,-0.073l0.012,-0.073l0.011,-0.073l0.01,-0.074l0.009,-0.073l0.008,-0.075l0.007,-0.074l0.006,-0.075l0.005,-0.075l0.004,-0.075l0.004,-0.075l0.002,-0.076l0.002,-0.076l0,-0.076l0,-0.076l-0.002,-0.076l-0.002,-0.076l-0.004,-0.075l-0.004,-0.075l-0.005,-0.075l-0.006,-0.075l-0.007,-0.074l-0.008,-0.075l-0.009,-0.073l-0.01,-0.074l-0.011,-0.073l-0.012,-0.073l-0.012,-0.073l-0.014,-0.072l-0.014,-0.072l-0.015,-0.072l-0.016,-0.072l-0.017,-0.071l-0.018,-0.07l-0.018,-0.071l-0.02,-0.07l-0.02,-0.07l-0.021,-0.069l-0.022,-0.069l-0.023,-0.068l-0.023,-0.069l-0.025,-0.068l-0.025,-0.067l-0.026,-0.067l-0.027,-0.067l-0.027,-0.066l-0.029,-0.066l-0.029,-0.065l-0.03,-0.065l-0.03,-0.065l-0.032,-0.064l-0.032,-0.064l-0.033,-0.063l-0.034,-0.063l-0.034,-0.063l-0.035,-0.062l-0.036,-0.061l-0.037,-0.061l-0.037,-0.061l-0.038,-0.06l-0.039,-0.059l-0.039,-0.059l-0.04,-0.059l-0.041,-0.058l-0.041,-0.057l-0.042,-0.057l-0.043,-0.057l-0.044,-0.056l-0.044,-0.055l-0.045,-0.055l-0.045,-0.054l-0.046,-0.054l-0.047,-0.053l-0.047,-0.053l-0.048,-0.052l-0.048,-0.052l-0.049,-0.05l-0.05,-0.051l-0.05,-0.05l-0.051,-0.049l-0.052,-0.048l-0.052,-0.048l-0.053,-0.047l-0.053,-0.047l-0.054,-0.046l-0.054,-0.045l-0.055,-0.045l-0.055,-0.044l-0.056,-0.044l-0.057,-0.042l-0.057,-0.043l-0.057,-0.041l-0.058,-0.041l-0.059,-0.04l-0.059,-0.039l-0.059,-0.039l-0.06,-0.038l-0.061,-0.037l-0.061,-0.037l-0.061,-0.036l-0.062,-0.035l-0.063,-0.034l-0.063,-0.034l-0.063,-0.033l-0.064,-0.032l-0.064,-0.031l-0.064,-0.031l-0.065,-0.03l-0.066,-0.029l-0.066,-0.029l-0.066,-0.027l-0.067,-0.027l-0.067,-0.026l-0.067,-0.025l-0.068,-0.025l-0.068,-0.023l-0.069,-0.023l-0.069,-0.022l-0.069,-0.021l-0.07,-0.02l-0.07,-0.02l-0.071,-0.018l-0.07,-0.018l-0.071,-0.017l-0.072,-0.016l-0.072,-0.015l-0.072,-0.014l-0.072,-0.014l-0.073,-0.012l-0.073,-0.012l-0.073,-0.011l-0.073,-0.01l-0.074,-0.008l-0.074,-0.008l-0.075,-0.008l-0.075,-0.006l-0.074,-0.005l-0.076,-0.004l-0.075,-0.004l-0.076,-0.002l-0.076,-0.001l-0.076,-0.001l-0.076,0.001Z" style="fill:rgb(91,91,91);"/>
                </g>
                <g id="Rectangle" transform="matrix(0.971715,0,0,0.934886,9.49412,-187.047)">
                    <rect x="414" y="235" width="3" height="10.5" style="fill:rgb(49,49,49);"/>
                    <path d="M417,245.5l-3,0l0,-10.5l3,0l0,10.5Zm-2.714,-10.199l0,9.898l2.428,0l0,-9.898l-2.428,0Z" style="fill:rgb(28,28,28);"/>
                </g>
                <g transform="matrix(1.02526,0,0,1.03257,-12.2816,-209.971)">
                    <path d="M415.04,225c5.228,0 9.472,4.257 9.472,9.5c0,5.243 -4.244,9.5 -9.472,9.5c-5.227,0 -9.471,-4.257 -9.471,-9.5c0,-5.243 4.244,-9.5 9.471,-9.5Zm0,3.23c3.45,0 6.251,2.809 6.251,6.27c0,3.461 -2.801,6.27 -6.251,6.27c-3.45,0 -6.251,-2.809 -6.251,-6.27c0,-3.461 2.801,-6.27 6.251,-6.27Z" style="fill:rgb(87,97,105);"/>
                    <path d="M415.163,225.001l0.122,0.002l0.121,0.004l0.121,0.005l0.121,0.007l0.121,0.009l0.12,0.01l0.119,0.011l0.119,0.013l0.119,0.014l0.118,0.016l0.118,0.018l0.117,0.018l0.117,0.02l0.116,0.022l0.116,0.023l0.115,0.025l0.115,0.025l0.114,0.028l0.114,0.028l0.113,0.03l0.113,0.032l0.112,0.032l0.111,0.034l0.111,0.036l0.111,0.036l0.109,0.039l0.109,0.039l0.109,0.04l0.108,0.042l0.107,0.044l0.106,0.044l0.106,0.046l0.106,0.047l0.104,0.048l0.104,0.049l0.103,0.051l0.103,0.052l0.101,0.053l0.101,0.054l0.101,0.056l0.099,0.056l0.099,0.058l0.098,0.059l0.097,0.06l0.097,0.062l0.095,0.062l0.095,0.063l0.094,0.065l0.094,0.066l0.092,0.066l0.092,0.068l0.09,0.069l0.09,0.07l0.089,0.071l0.088,0.072l0.088,0.074l0.086,0.074l0.086,0.075l0.084,0.076l0.084,0.077l0.083,0.079l0.081,0.079l0.081,0.08l0.08,0.081l0.079,0.082l0.078,0.083l0.077,0.084l0.076,0.085l0.075,0.085l0.074,0.087l0.073,0.088l0.072,0.088l0.07,0.089l0.07,0.09l0.069,0.092l0.068,0.091l0.066,0.093l0.066,0.094l0.064,0.094l0.063,0.095l0.063,0.096l0.061,0.097l0.06,0.097l0.058,0.099l0.058,0.099l0.056,0.1l0.056,0.1l0.054,0.102l0.053,0.102l0.051,0.102l0.051,0.104l0.049,0.104l0.048,0.105l0.047,0.105l0.046,0.107l0.044,0.107l0.043,0.107l0.042,0.108l0.04,0.109l0.04,0.109l0.038,0.11l0.036,0.111l0.035,0.111l0.034,0.112l0.033,0.113l0.031,0.112l0.03,0.114l0.029,0.114l0.027,0.115l0.026,0.115l0.024,0.115l0.023,0.117l0.021,0.116l0.021,0.117l0.018,0.118l0.018,0.118l0.015,0.119l0.015,0.119l0.013,0.119l0.011,0.12l0.01,0.121l0.008,0.12l0.007,0.121l0.006,0.122l0.003,0.122l0.003,0.122l0.001,0.123l-0.001,0.123l-0.003,0.122l-0.003,0.122l-0.006,0.122l-0.007,0.121l-0.008,0.12l-0.01,0.121l-0.011,0.12l-0.013,0.119l-0.015,0.119l-0.015,0.119l-0.018,0.118l-0.018,0.118l-0.021,0.117l-0.021,0.116l-0.023,0.117l-0.024,0.115l-0.026,0.115l-0.027,0.115l-0.029,0.114l-0.03,0.114l-0.031,0.112l-0.033,0.113l-0.034,0.112l-0.035,0.111l-0.036,0.111l-0.038,0.11l-0.04,0.109l-0.04,0.109l-0.042,0.108l-0.043,0.107l-0.044,0.107l-0.046,0.107l-0.047,0.105l-0.048,0.105l-0.049,0.104l-0.051,0.104l-0.051,0.102l-0.053,0.102l-0.054,0.102l-0.056,0.1l-0.056,0.1l-0.058,0.099l-0.058,0.099l-0.06,0.097l-0.061,0.097l-0.063,0.096l-0.063,0.095l-0.064,0.094l-0.066,0.094l-0.066,0.093l-0.068,0.091l-0.069,0.092l-0.07,0.09l-0.07,0.089l-0.072,0.088l-0.073,0.088l-0.074,0.087l-0.075,0.085l-0.076,0.085l-0.077,0.084l-0.078,0.083l-0.079,0.082l-0.08,0.081l-0.081,0.08l-0.081,0.079l-0.083,0.079l-0.084,0.077l-0.084,0.076l-0.086,0.075l-0.086,0.074l-0.088,0.074l-0.088,0.072l-0.089,0.071l-0.09,0.07l-0.09,0.069l-0.092,0.068l-0.092,0.066l-0.094,0.066l-0.094,0.065l-0.095,0.063l-0.095,0.062l-0.097,0.062l-0.097,0.06l-0.098,0.059l-0.099,0.058l-0.099,0.056l-0.101,0.056l-0.101,0.054l-0.101,0.053l-0.103,0.052l-0.103,0.051l-0.104,0.049l-0.104,0.048l-0.106,0.047l-0.106,0.046l-0.106,0.044l-0.107,0.044l-0.108,0.042l-0.109,0.04l-0.109,0.039l-0.109,0.039l-0.111,0.036l-0.111,0.036l-0.111,0.034l-0.112,0.032l-0.113,0.032l-0.113,0.03l-0.114,0.028l-0.114,0.028l-0.115,0.025l-0.115,0.025l-0.116,0.023l-0.116,0.022l-0.117,0.02l-0.117,0.018l-0.118,0.018l-0.118,0.016l-0.119,0.014l-0.119,0.013l-0.119,0.011l-0.12,0.01l-0.121,0.009l-0.121,0.007l-0.121,0.005l-0.121,0.004l-0.122,0.002l-0.123,0.001l-0.122,-0.001l-0.122,-0.002l-0.122,-0.004l-0.121,-0.005l-0.121,-0.007l-0.12,-0.009l-0.12,-0.01l-0.119,-0.011l-0.12,-0.013l-0.118,-0.014l-0.118,-0.016l-0.118,-0.018l-0.117,-0.018l-0.117,-0.02l-0.117,-0.022l-0.115,-0.023l-0.116,-0.025l-0.114,-0.025l-0.115,-0.028l-0.113,-0.028l-0.114,-0.03l-0.112,-0.032l-0.112,-0.032l-0.112,-0.034l-0.111,-0.036l-0.11,-0.036l-0.11,-0.039l-0.109,-0.039l-0.108,-0.04l-0.108,-0.042l-0.107,-0.044l-0.107,-0.044l-0.106,-0.046l-0.105,-0.047l-0.104,-0.048l-0.104,-0.049l-0.103,-0.051l-0.103,-0.052l-0.102,-0.053l-0.101,-0.054l-0.1,-0.056l-0.099,-0.056l-0.099,-0.058l-0.098,-0.059l-0.097,-0.06l-0.097,-0.062l-0.096,-0.062l-0.095,-0.063l-0.094,-0.065l-0.093,-0.066l-0.092,-0.066l-0.092,-0.068l-0.091,-0.069l-0.09,-0.07l-0.089,-0.071l-0.088,-0.072l-0.087,-0.074l-0.086,-0.074l-0.086,-0.075l-0.084,-0.076l-0.084,-0.077l-0.083,-0.079l-0.082,-0.079l-0.08,-0.08l-0.08,-0.081l-0.079,-0.082l-0.078,-0.083l-0.077,-0.084l-0.076,-0.085l-0.075,-0.085l-0.074,-0.087l-0.073,-0.088l-0.072,-0.088l-0.071,-0.089l-0.069,-0.09l-0.069,-0.092l-0.068,-0.091l-0.066,-0.093l-0.066,-0.094l-0.064,-0.094l-0.064,-0.095l-0.062,-0.096l-0.061,-0.097l-0.06,-0.097l-0.059,-0.099l-0.057,-0.099l-0.057,-0.1l-0.055,-0.1l-0.054,-0.102l-0.053,-0.102l-0.052,-0.102l-0.05,-0.104l-0.05,-0.104l-0.048,-0.105l-0.046,-0.105l-0.046,-0.107l-0.044,-0.107l-0.043,-0.107l-0.042,-0.108l-0.041,-0.109l-0.039,-0.109l-0.038,-0.11l-0.036,-0.111l-0.036,-0.111l-0.034,-0.112l-0.032,-0.113l-0.032,-0.112l-0.029,-0.114l-0.029,-0.114l-0.027,-0.115l-0.026,-0.115l-0.024,-0.115l-0.023,-0.117l-0.022,-0.116l-0.02,-0.117l-0.019,-0.118l-0.017,-0.118l-0.016,-0.119l-0.014,-0.119l-0.013,-0.119l-0.011,-0.12l-0.01,-0.121l-0.009,-0.12l-0.006,-0.121l-0.006,-0.122l-0.004,-0.122l-0.002,-0.122l-0.001,-0.123l0.001,-0.123l0.002,-0.122l0.004,-0.122l0.006,-0.122l0.006,-0.121l0.009,-0.12l0.01,-0.121l0.011,-0.12l0.013,-0.119l0.014,-0.119l0.016,-0.119l0.017,-0.118l0.019,-0.118l0.02,-0.117l0.022,-0.116l0.023,-0.117l0.024,-0.115l0.026,-0.115l0.027,-0.115l0.029,-0.114l0.029,-0.114l0.032,-0.112l0.032,-0.113l0.034,-0.112l0.036,-0.111l0.036,-0.111l0.038,-0.11l0.039,-0.109l0.041,-0.109l0.042,-0.108l0.043,-0.107l0.044,-0.107l0.046,-0.107l0.046,-0.105l0.048,-0.105l0.05,-0.104l0.05,-0.104l0.052,-0.102l0.053,-0.102l0.054,-0.102l0.055,-0.1l0.057,-0.1l0.057,-0.099l0.059,-0.099l0.06,-0.097l0.061,-0.097l0.062,-0.096l0.064,-0.095l0.064,-0.094l0.066,-0.094l0.066,-0.093l0.068,-0.091l0.069,-0.092l0.069,-0.09l0.071,-0.089l0.072,-0.088l0.073,-0.088l0.074,-0.087l0.075,-0.085l0.076,-0.085l0.077,-0.084l0.078,-0.083l0.079,-0.082l0.08,-0.081l0.08,-0.08l0.082,-0.079l0.083,-0.079l0.084,-0.077l0.084,-0.076l0.086,-0.075l0.086,-0.074l0.087,-0.074l0.088,-0.072l0.089,-0.071l0.09,-0.07l0.091,-0.069l0.092,-0.068l0.092,-0.066l0.093,-0.066l0.094,-0.065l0.095,-0.063l0.096,-0.062l0.097,-0.062l0.097,-0.06l0.098,-0.059l0.099,-0.058l0.099,-0.056l0.1,-0.056l0.101,-0.054l0.102,-0.053l0.103,-0.052l0.103,-0.051l0.104,-0.049l0.104,-0.048l0.105,-0.047l0.106,-0.046l0.107,-0.044l0.107,-0.044l0.108,-0.042l0.108,-0.04l0.109,-0.039l0.11,-0.039l0.11,-0.036l0.111,-0.036l0.112,-0.034l0.112,-0.032l0.112,-0.032l0.114,-0.03l0.113,-0.028l0.115,-0.028l0.114,-0.025l0.116,-0.025l0.115,-0.023l0.117,-0.022l0.117,-0.02l0.117,-0.018l0.118,-0.018l0.118,-0.016l0.118,-0.014l0.12,-0.013l0.119,-0.011l0.12,-0.01l0.12,-0.009l0.121,-0.007l0.121,-0.005l0.122,-0.004l0.122,-0.002l0.122,-0.001l0.123,0.001Zm-0.233,0.926l-0.11,0.002l-0.11,0.003l-0.11,0.005l-0.109,0.006l-0.109,0.008l-0.108,0.009l-0.108,0.01l-0.108,0.012l-0.107,0.013l-0.106,0.014l-0.107,0.016l-0.105,0.017l-0.106,0.018l-0.105,0.019l-0.104,0.021l-0.104,0.022l-0.104,0.024l-0.103,0.024l-0.102,0.026l-0.102,0.027l-0.102,0.028l-0.101,0.03l-0.1,0.03l-0.1,0.032l-0.1,0.033l-0.099,0.035l-0.098,0.035l-0.098,0.037l-0.097,0.038l-0.097,0.039l-0.096,0.04l-0.095,0.041l-0.095,0.042l-0.095,0.044l-0.093,0.044l-0.093,0.046l-0.093,0.047l-0.092,0.048l-0.091,0.049l-0.09,0.05l-0.09,0.051l-0.089,0.052l-0.089,0.053l-0.087,0.055l-0.088,0.055l-0.086,0.056l-0.086,0.058l-0.085,0.058l-0.084,0.059l-0.083,0.06l-0.083,0.062l-0.082,0.062l-0.081,0.063l-0.08,0.064l-0.08,0.066l-0.079,0.066l-0.078,0.067l-0.077,0.067l-0.077,0.069l-0.075,0.07l-0.075,0.071l-0.074,0.071l-0.073,0.072l-0.072,0.074l-0.071,0.074l-0.071,0.075l-0.069,0.076l-0.069,0.076l-0.067,0.078l-0.067,0.078l-0.066,0.079l-0.065,0.08l-0.064,0.08l-0.063,0.082l-0.062,0.082l-0.061,0.083l-0.06,0.084l-0.059,0.084l-0.059,0.085l-0.057,0.086l-0.056,0.087l-0.055,0.087l-0.054,0.088l-0.053,0.089l-0.052,0.09l-0.051,0.09l-0.05,0.09l-0.049,0.092l-0.047,0.092l-0.047,0.093l-0.046,0.093l-0.044,0.094l-0.044,0.095l-0.042,0.095l-0.041,0.096l-0.04,0.096l-0.039,0.097l-0.037,0.097l-0.037,0.099l-0.035,0.098l-0.034,0.099l-0.033,0.1l-0.032,0.101l-0.031,0.1l-0.029,0.102l-0.028,0.102l-0.027,0.102l-0.026,0.103l-0.025,0.103l-0.023,0.104l-0.022,0.104l-0.021,0.105l-0.019,0.105l-0.018,0.106l-0.017,0.106l-0.016,0.107l-0.014,0.107l-0.013,0.107l-0.011,0.108l-0.011,0.108l-0.009,0.109l-0.007,0.109l-0.007,0.109l-0.004,0.11l-0.004,0.11l-0.002,0.111l-0.001,0.111l0.001,0.111l0.002,0.111l0.004,0.11l0.004,0.11l0.007,0.109l0.007,0.109l0.009,0.109l0.011,0.108l0.011,0.108l0.013,0.107l0.014,0.107l0.016,0.107l0.017,0.106l0.018,0.106l0.019,0.105l0.021,0.105l0.022,0.104l0.023,0.104l0.025,0.103l0.026,0.103l0.026,0.102l0.029,0.102l0.029,0.102l0.031,0.1l0.032,0.101l0.033,0.1l0.034,0.099l0.035,0.098l0.037,0.099l0.037,0.097l0.039,0.097l0.04,0.096l0.041,0.096l0.042,0.095l0.044,0.095l0.044,0.094l0.046,0.093l0.047,0.093l0.047,0.092l0.049,0.092l0.05,0.09l0.051,0.09l0.052,0.09l0.053,0.089l0.054,0.088l0.055,0.087l0.056,0.087l0.058,0.086l0.058,0.085l0.059,0.084l0.06,0.084l0.061,0.083l0.062,0.082l0.063,0.081l0.064,0.081l0.065,0.08l0.066,0.079l0.067,0.078l0.067,0.078l0.069,0.076l0.069,0.076l0.071,0.075l0.071,0.074l0.072,0.073l0.073,0.073l0.074,0.071l0.075,0.071l0.075,0.07l0.077,0.068l0.077,0.068l0.078,0.067l0.079,0.066l0.08,0.066l0.08,0.064l0.081,0.063l0.082,0.062l0.083,0.062l0.083,0.06l0.084,0.059l0.085,0.058l0.086,0.058l0.086,0.056l0.087,0.055l0.088,0.055l0.089,0.053l0.089,0.052l0.09,0.051l0.09,0.05l0.091,0.049l0.092,0.048l0.093,0.047l0.093,0.046l0.093,0.044l0.095,0.044l0.095,0.042l0.095,0.041l0.096,0.04l0.097,0.039l0.097,0.038l0.098,0.037l0.098,0.035l0.099,0.035l0.1,0.033l0.1,0.031l0.1,0.031l0.101,0.03l0.102,0.028l0.102,0.027l0.102,0.026l0.103,0.024l0.104,0.024l0.104,0.022l0.104,0.021l0.105,0.019l0.106,0.018l0.105,0.017l0.107,0.016l0.106,0.014l0.107,0.013l0.108,0.012l0.108,0.01l0.108,0.009l0.109,0.008l0.109,0.006l0.11,0.005l0.11,0.003l0.11,0.002l0.11,0.001l0.111,-0.001l0.11,-0.002l0.11,-0.003l0.11,-0.005l0.109,-0.006l0.109,-0.008l0.108,-0.009l0.108,-0.01l0.107,-0.012l0.107,-0.013l0.107,-0.014l0.106,-0.016l0.106,-0.017l0.106,-0.018l0.104,-0.019l0.105,-0.021l0.104,-0.022l0.103,-0.024l0.103,-0.024l0.103,-0.026l0.102,-0.027l0.102,-0.028l0.101,-0.03l0.1,-0.031l0.1,-0.031l0.099,-0.033l0.099,-0.035l0.099,-0.035l0.098,-0.037l0.097,-0.038l0.097,-0.039l0.096,-0.04l0.095,-0.041l0.095,-0.042l0.094,-0.044l0.094,-0.044l0.093,-0.046l0.093,-0.047l0.091,-0.048l0.092,-0.049l0.09,-0.05l0.09,-0.051l0.089,-0.052l0.088,-0.053l0.088,-0.055l0.087,-0.055l0.087,-0.056l0.085,-0.058l0.085,-0.058l0.084,-0.059l0.084,-0.06l0.083,-0.062l0.082,-0.062l0.081,-0.063l0.08,-0.064l0.08,-0.066l0.079,-0.066l0.078,-0.067l0.077,-0.068l0.076,-0.068l0.076,-0.07l0.075,-0.071l0.073,-0.071l0.073,-0.073l0.073,-0.073l0.071,-0.074l0.07,-0.075l0.07,-0.076l0.068,-0.076l0.068,-0.078l0.067,-0.078l0.066,-0.079l0.065,-0.08l0.064,-0.081l0.063,-0.081l0.062,-0.082l0.061,-0.083l0.06,-0.084l0.059,-0.084l0.058,-0.085l0.057,-0.086l0.057,-0.087l0.055,-0.087l0.054,-0.088l0.053,-0.089l0.052,-0.09l0.051,-0.09l0.05,-0.09l0.048,-0.092l0.048,-0.092l0.047,-0.093l0.045,-0.093l0.045,-0.094l0.043,-0.095l0.043,-0.095l0.041,-0.096l0.04,-0.096l0.038,-0.097l0.038,-0.097l0.037,-0.099l0.035,-0.098l0.034,-0.099l0.033,-0.1l0.032,-0.101l0.031,-0.1l0.029,-0.102l0.028,-0.102l0.027,-0.102l0.026,-0.103l0.024,-0.103l0.024,-0.104l0.022,-0.104l0.02,-0.105l0.02,-0.105l0.018,-0.106l0.017,-0.106l0.015,-0.107l0.015,-0.107l0.013,-0.107l0.011,-0.108l0.01,-0.108l0.009,-0.109l0.008,-0.109l0.006,-0.109l0.005,-0.11l0.004,-0.11l0.002,-0.111l0,-0.111l0,-0.111l-0.002,-0.111l-0.004,-0.11l-0.005,-0.11l-0.006,-0.109l-0.008,-0.109l-0.009,-0.109l-0.01,-0.108l-0.011,-0.108l-0.013,-0.107l-0.015,-0.107l-0.015,-0.107l-0.017,-0.106l-0.018,-0.106l-0.02,-0.105l-0.02,-0.105l-0.022,-0.104l-0.024,-0.104l-0.024,-0.103l-0.026,-0.103l-0.027,-0.102l-0.028,-0.102l-0.029,-0.102l-0.031,-0.1l-0.032,-0.101l-0.033,-0.1l-0.034,-0.099l-0.035,-0.098l-0.037,-0.099l-0.038,-0.097l-0.038,-0.097l-0.04,-0.096l-0.041,-0.096l-0.043,-0.095l-0.043,-0.095l-0.045,-0.094l-0.045,-0.093l-0.047,-0.093l-0.048,-0.092l-0.048,-0.092l-0.05,-0.09l-0.051,-0.09l-0.052,-0.09l-0.053,-0.089l-0.054,-0.088l-0.055,-0.087l-0.057,-0.087l-0.057,-0.086l-0.058,-0.085l-0.059,-0.084l-0.06,-0.084l-0.061,-0.083l-0.062,-0.082l-0.063,-0.082l-0.064,-0.08l-0.065,-0.08l-0.066,-0.079l-0.067,-0.078l-0.068,-0.078l-0.068,-0.076l-0.07,-0.076l-0.07,-0.075l-0.071,-0.074l-0.073,-0.074l-0.073,-0.072l-0.073,-0.071l-0.075,-0.071l-0.076,-0.07l-0.076,-0.069l-0.077,-0.067l-0.078,-0.067l-0.079,-0.066l-0.08,-0.066l-0.08,-0.064l-0.081,-0.063l-0.082,-0.062l-0.083,-0.062l-0.084,-0.06l-0.084,-0.059l-0.085,-0.058l-0.085,-0.058l-0.087,-0.056l-0.087,-0.055l-0.088,-0.055l-0.088,-0.053l-0.089,-0.052l-0.09,-0.051l-0.09,-0.05l-0.092,-0.049l-0.091,-0.048l-0.093,-0.047l-0.093,-0.046l-0.094,-0.044l-0.094,-0.044l-0.095,-0.042l-0.095,-0.041l-0.096,-0.04l-0.097,-0.039l-0.097,-0.038l-0.098,-0.037l-0.099,-0.035l-0.098,-0.035l-0.1,-0.033l-0.1,-0.032l-0.1,-0.03l-0.101,-0.03l-0.102,-0.028l-0.102,-0.027l-0.103,-0.026l-0.103,-0.024l-0.103,-0.024l-0.104,-0.022l-0.105,-0.021l-0.104,-0.019l-0.106,-0.018l-0.106,-0.017l-0.106,-0.016l-0.107,-0.014l-0.107,-0.013l-0.107,-0.012l-0.108,-0.01l-0.109,-0.009l-0.108,-0.008l-0.109,-0.006l-0.11,-0.005l-0.11,-0.003l-0.11,-0.002l-0.111,-0.001l-0.11,0.001Zm0.203,1.378l0.092,0.001l0.092,0.003l0.092,0.004l0.091,0.006l0.091,0.006l0.091,0.008l0.09,0.008l0.091,0.01l0.09,0.011l0.089,0.012l0.089,0.013l0.089,0.014l0.089,0.016l0.088,0.016l0.088,0.017l0.087,0.019l0.087,0.02l0.087,0.02l0.086,0.022l0.086,0.023l0.085,0.023l0.085,0.025l0.085,0.026l0.084,0.027l0.083,0.028l0.084,0.028l0.082,0.03l0.083,0.031l0.081,0.032l0.081,0.033l0.081,0.033l0.081,0.035l0.079,0.036l0.08,0.036l0.078,0.038l0.079,0.038l0.077,0.039l0.077,0.041l0.077,0.041l0.076,0.042l0.075,0.043l0.075,0.043l0.074,0.045l0.074,0.046l0.073,0.046l0.072,0.047l0.072,0.048l0.071,0.049l0.071,0.05l0.07,0.051l0.069,0.051l0.069,0.052l0.068,0.053l0.068,0.054l0.066,0.054l0.066,0.056l0.066,0.056l0.064,0.057l0.064,0.057l0.064,0.059l0.062,0.059l0.062,0.06l0.061,0.061l0.061,0.061l0.06,0.062l0.058,0.063l0.059,0.063l0.057,0.065l0.057,0.064l0.056,0.066l0.055,0.066l0.054,0.067l0.054,0.068l0.053,0.068l0.052,0.069l0.051,0.07l0.051,0.07l0.049,0.071l0.049,0.071l0.048,0.072l0.047,0.073l0.046,0.073l0.046,0.074l0.044,0.074l0.044,0.075l0.043,0.076l0.041,0.076l0.041,0.077l0.041,0.077l0.039,0.078l0.038,0.079l0.037,0.079l0.037,0.079l0.035,0.08l0.035,0.081l0.033,0.08l0.033,0.082l0.032,0.082l0.03,0.083l0.03,0.082l0.029,0.084l0.028,0.084l0.026,0.084l0.026,0.085l0.025,0.085l0.024,0.086l0.022,0.086l0.022,0.086l0.021,0.087l0.019,0.088l0.019,0.087l0.017,0.088l0.016,0.089l0.016,0.088l0.014,0.09l0.013,0.089l0.012,0.09l0.011,0.09l0.009,0.091l0.009,0.09l0.008,0.092l0.006,0.091l0.005,0.092l0.004,0.092l0.003,0.092l0.002,0.092l0,0.093l0,0.093l-0.002,0.092l-0.003,0.092l-0.004,0.092l-0.005,0.092l-0.006,0.091l-0.008,0.092l-0.009,0.09l-0.009,0.091l-0.011,0.09l-0.012,0.09l-0.013,0.089l-0.014,0.089l-0.016,0.089l-0.016,0.089l-0.017,0.088l-0.019,0.087l-0.019,0.088l-0.021,0.087l-0.022,0.086l-0.022,0.086l-0.024,0.086l-0.025,0.085l-0.026,0.085l-0.026,0.084l-0.028,0.084l-0.029,0.084l-0.03,0.083l-0.03,0.082l-0.032,0.082l-0.033,0.081l-0.033,0.082l-0.035,0.08l-0.035,0.08l-0.037,0.079l-0.037,0.079l-0.038,0.079l-0.039,0.078l-0.041,0.077l-0.041,0.077l-0.041,0.076l-0.043,0.076l-0.044,0.075l-0.044,0.074l-0.046,0.074l-0.046,0.073l-0.047,0.073l-0.048,0.072l-0.049,0.072l-0.049,0.07l-0.051,0.07l-0.051,0.07l-0.052,0.069l-0.053,0.068l-0.053,0.068l-0.055,0.067l-0.055,0.066l-0.056,0.066l-0.057,0.064l-0.057,0.065l-0.059,0.063l-0.059,0.063l-0.059,0.062l-0.061,0.061l-0.061,0.061l-0.062,0.06l-0.062,0.059l-0.064,0.059l-0.064,0.057l-0.064,0.057l-0.066,0.056l-0.066,0.056l-0.066,0.054l-0.068,0.054l-0.068,0.053l-0.069,0.052l-0.069,0.051l-0.07,0.051l-0.071,0.05l-0.071,0.049l-0.072,0.048l-0.072,0.047l-0.073,0.046l-0.074,0.046l-0.074,0.045l-0.075,0.043l-0.075,0.043l-0.076,0.042l-0.077,0.041l-0.077,0.041l-0.077,0.039l-0.079,0.038l-0.078,0.038l-0.079,0.036l-0.08,0.036l-0.081,0.035l-0.08,0.033l-0.082,0.033l-0.081,0.032l-0.083,0.031l-0.082,0.029l-0.083,0.029l-0.084,0.028l-0.084,0.027l-0.085,0.026l-0.085,0.025l-0.085,0.023l-0.086,0.023l-0.086,0.022l-0.087,0.02l-0.087,0.02l-0.087,0.019l-0.088,0.017l-0.088,0.016l-0.089,0.016l-0.089,0.014l-0.089,0.013l-0.089,0.012l-0.09,0.011l-0.091,0.01l-0.09,0.008l-0.091,0.008l-0.091,0.006l-0.091,0.006l-0.092,0.004l-0.092,0.003l-0.092,0.001l-0.093,0.001l-0.092,-0.001l-0.092,-0.001l-0.092,-0.003l-0.092,-0.004l-0.091,-0.006l-0.091,-0.006l-0.091,-0.008l-0.091,-0.008l-0.09,-0.01l-0.09,-0.011l-0.089,-0.012l-0.09,-0.013l-0.089,-0.014l-0.088,-0.016l-0.088,-0.016l-0.088,-0.017l-0.087,-0.019l-0.088,-0.02l-0.086,-0.02l-0.086,-0.022l-0.086,-0.023l-0.085,-0.023l-0.085,-0.025l-0.085,-0.026l-0.084,-0.027l-0.084,-0.028l-0.083,-0.029l-0.083,-0.029l-0.082,-0.031l-0.082,-0.032l-0.081,-0.033l-0.08,-0.033l-0.081,-0.035l-0.08,-0.036l-0.079,-0.036l-0.079,-0.038l-0.078,-0.038l-0.077,-0.039l-0.077,-0.041l-0.077,-0.041l-0.076,-0.042l-0.075,-0.043l-0.075,-0.043l-0.074,-0.045l-0.074,-0.046l-0.073,-0.046l-0.073,-0.047l-0.071,-0.048l-0.072,-0.049l-0.07,-0.05l-0.07,-0.051l-0.07,-0.051l-0.068,-0.052l-0.068,-0.053l-0.068,-0.054l-0.066,-0.054l-0.067,-0.056l-0.065,-0.056l-0.065,-0.057l-0.064,-0.057l-0.063,-0.059l-0.063,-0.059l-0.061,-0.06l-0.062,-0.061l-0.06,-0.061l-0.06,-0.062l-0.059,-0.063l-0.058,-0.063l-0.057,-0.065l-0.057,-0.064l-0.056,-0.066l-0.055,-0.066l-0.055,-0.067l-0.053,-0.068l-0.053,-0.068l-0.052,-0.069l-0.052,-0.07l-0.05,-0.07l-0.049,-0.07l-0.049,-0.072l-0.048,-0.072l-0.047,-0.073l-0.047,-0.073l-0.045,-0.074l-0.044,-0.074l-0.044,-0.075l-0.043,-0.076l-0.042,-0.076l-0.041,-0.077l-0.04,-0.077l-0.039,-0.078l-0.038,-0.079l-0.038,-0.079l-0.036,-0.079l-0.036,-0.08l-0.034,-0.08l-0.034,-0.082l-0.032,-0.081l-0.032,-0.082l-0.031,-0.082l-0.03,-0.083l-0.028,-0.084l-0.028,-0.084l-0.027,-0.084l-0.026,-0.085l-0.024,-0.085l-0.024,-0.086l-0.023,-0.086l-0.021,-0.086l-0.021,-0.087l-0.019,-0.088l-0.019,-0.087l-0.017,-0.088l-0.017,-0.089l-0.015,-0.089l-0.014,-0.089l-0.013,-0.089l-0.012,-0.09l-0.011,-0.09l-0.01,-0.091l-0.008,-0.09l-0.008,-0.092l-0.006,-0.091l-0.005,-0.092l-0.004,-0.092l-0.003,-0.092l-0.002,-0.092l-0.001,-0.093l0.001,-0.093l0.002,-0.092l0.003,-0.092l0.004,-0.092l0.005,-0.092l0.006,-0.091l0.008,-0.092l0.008,-0.09l0.01,-0.091l0.011,-0.09l0.012,-0.09l0.013,-0.089l0.014,-0.09l0.015,-0.088l0.017,-0.089l0.017,-0.088l0.019,-0.087l0.019,-0.088l0.021,-0.087l0.021,-0.086l0.023,-0.086l0.024,-0.086l0.024,-0.085l0.026,-0.085l0.027,-0.084l0.028,-0.084l0.028,-0.084l0.03,-0.082l0.031,-0.083l0.032,-0.082l0.032,-0.082l0.034,-0.08l0.034,-0.081l0.036,-0.08l0.036,-0.079l0.038,-0.079l0.038,-0.079l0.039,-0.078l0.04,-0.077l0.041,-0.077l0.042,-0.076l0.043,-0.076l0.044,-0.075l0.044,-0.074l0.045,-0.074l0.047,-0.073l0.047,-0.073l0.048,-0.072l0.048,-0.071l0.05,-0.071l0.05,-0.07l0.052,-0.07l0.052,-0.069l0.053,-0.068l0.053,-0.068l0.055,-0.067l0.055,-0.066l0.056,-0.066l0.057,-0.064l0.057,-0.065l0.058,-0.063l0.059,-0.063l0.06,-0.062l0.06,-0.061l0.062,-0.061l0.061,-0.06l0.063,-0.059l0.063,-0.059l0.064,-0.057l0.065,-0.057l0.065,-0.056l0.067,-0.056l0.066,-0.054l0.068,-0.054l0.068,-0.053l0.068,-0.052l0.07,-0.051l0.07,-0.051l0.07,-0.05l0.071,-0.049l0.072,-0.048l0.073,-0.047l0.073,-0.046l0.074,-0.046l0.074,-0.045l0.075,-0.043l0.075,-0.043l0.076,-0.042l0.076,-0.041l0.078,-0.041l0.077,-0.039l0.078,-0.038l0.079,-0.038l0.079,-0.036l0.08,-0.036l0.08,-0.035l0.081,-0.033l0.081,-0.033l0.082,-0.032l0.082,-0.031l0.083,-0.03l0.083,-0.028l0.084,-0.028l0.084,-0.027l0.085,-0.026l0.085,-0.025l0.085,-0.023l0.086,-0.023l0.086,-0.022l0.087,-0.02l0.087,-0.02l0.087,-0.019l0.088,-0.017l0.088,-0.016l0.088,-0.016l0.089,-0.014l0.09,-0.013l0.089,-0.012l0.09,-0.011l0.09,-0.01l0.091,-0.008l0.091,-0.008l0.091,-0.006l0.091,-0.006l0.092,-0.004l0.092,-0.003l0.092,-0.001l0.092,-0.001l0.093,0.001Zm-0.173,0.926l-0.081,0.001l-0.08,0.003l-0.08,0.003l-0.08,0.005l-0.079,0.005l-0.079,0.007l-0.079,0.007l-0.079,0.009l-0.078,0.009l-0.078,0.011l-0.078,0.011l-0.077,0.013l-0.078,0.013l-0.076,0.014l-0.077,0.015l-0.076,0.017l-0.076,0.017l-0.075,0.018l-0.075,0.019l-0.075,0.019l-0.074,0.021l-0.074,0.022l-0.074,0.022l-0.073,0.023l-0.073,0.025l-0.072,0.025l-0.072,0.026l-0.072,0.027l-0.071,0.027l-0.071,0.029l-0.07,0.029l-0.07,0.03l-0.069,0.031l-0.069,0.032l-0.069,0.033l-0.068,0.033l-0.067,0.034l-0.068,0.035l-0.066,0.036l-0.066,0.037l-0.066,0.037l-0.065,0.038l-0.065,0.039l-0.064,0.04l-0.064,0.04l-0.063,0.042l-0.063,0.041l-0.062,0.043l-0.061,0.043l-0.061,0.045l-0.061,0.044l-0.06,0.046l-0.059,0.046l-0.059,0.047l-0.058,0.048l-0.057,0.048l-0.057,0.049l-0.057,0.049l-0.056,0.051l-0.055,0.051l-0.055,0.051l-0.054,0.052l-0.053,0.053l-0.053,0.054l-0.052,0.054l-0.051,0.055l-0.051,0.055l-0.05,0.056l-0.05,0.057l-0.048,0.057l-0.048,0.058l-0.048,0.058l-0.047,0.059l-0.046,0.059l-0.045,0.061l-0.045,0.06l-0.044,0.061l-0.043,0.062l-0.042,0.062l-0.042,0.063l-0.041,0.064l-0.041,0.063l-0.039,0.065l-0.039,0.065l-0.038,0.065l-0.037,0.066l-0.037,0.066l-0.035,0.067l-0.035,0.068l-0.034,0.067l-0.034,0.069l-0.032,0.068l-0.032,0.07l-0.031,0.069l-0.03,0.07l-0.029,0.071l-0.029,0.071l-0.027,0.071l-0.027,0.072l-0.026,0.072l-0.025,0.073l-0.024,0.073l-0.023,0.073l-0.023,0.074l-0.021,0.074l-0.021,0.075l-0.02,0.075l-0.018,0.075l-0.018,0.076l-0.017,0.076l-0.017,0.076l-0.015,0.077l-0.014,0.077l-0.013,0.077l-0.013,0.078l-0.011,0.078l-0.01,0.078l-0.01,0.078l-0.008,0.079l-0.008,0.079l-0.006,0.08l-0.006,0.08l-0.004,0.08l-0.004,0.08l-0.003,0.08l-0.001,0.081l-0.001,0.081l0.001,0.081l0.001,0.081l0.003,0.08l0.004,0.08l0.004,0.08l0.006,0.08l0.006,0.08l0.008,0.079l0.008,0.079l0.01,0.078l0.01,0.078l0.011,0.078l0.013,0.078l0.013,0.077l0.014,0.077l0.015,0.077l0.017,0.076l0.017,0.076l0.018,0.076l0.018,0.075l0.02,0.075l0.021,0.075l0.021,0.074l0.023,0.074l0.023,0.073l0.024,0.073l0.025,0.073l0.026,0.072l0.027,0.072l0.027,0.071l0.029,0.071l0.029,0.071l0.03,0.07l0.031,0.069l0.032,0.07l0.032,0.068l0.034,0.069l0.034,0.067l0.035,0.068l0.035,0.067l0.037,0.066l0.037,0.066l0.038,0.065l0.039,0.065l0.039,0.065l0.041,0.063l0.041,0.064l0.042,0.063l0.042,0.062l0.043,0.062l0.044,0.061l0.045,0.06l0.045,0.061l0.046,0.059l0.047,0.059l0.048,0.058l0.048,0.058l0.048,0.057l0.05,0.057l0.05,0.056l0.051,0.055l0.051,0.055l0.052,0.054l0.053,0.054l0.053,0.053l0.054,0.052l0.055,0.051l0.055,0.051l0.056,0.051l0.057,0.049l0.057,0.049l0.057,0.048l0.058,0.048l0.059,0.047l0.059,0.046l0.06,0.046l0.061,0.044l0.061,0.045l0.061,0.043l0.062,0.043l0.063,0.041l0.063,0.042l0.064,0.04l0.064,0.04l0.065,0.039l0.065,0.038l0.066,0.037l0.066,0.037l0.066,0.036l0.068,0.035l0.067,0.034l0.068,0.033l0.069,0.033l0.069,0.032l0.069,0.031l0.07,0.03l0.07,0.029l0.071,0.029l0.071,0.027l0.072,0.027l0.072,0.026l0.072,0.025l0.073,0.025l0.073,0.023l0.074,0.022l0.074,0.022l0.074,0.021l0.075,0.019l0.075,0.019l0.075,0.018l0.076,0.017l0.076,0.017l0.077,0.015l0.076,0.014l0.078,0.013l0.077,0.013l0.078,0.011l0.078,0.011l0.078,0.009l0.079,0.009l0.079,0.007l0.079,0.007l0.079,0.005l0.08,0.005l0.08,0.003l0.08,0.003l0.081,0.001l0.08,0.001l0.081,-0.001l0.081,-0.001l0.08,-0.003l0.08,-0.003l0.08,-0.005l0.079,-0.005l0.079,-0.007l0.079,-0.007l0.079,-0.009l0.078,-0.009l0.078,-0.011l0.078,-0.011l0.077,-0.013l0.077,-0.013l0.077,-0.014l0.076,-0.015l0.077,-0.017l0.075,-0.017l0.076,-0.018l0.075,-0.019l0.074,-0.019l0.075,-0.021l0.074,-0.022l0.073,-0.022l0.074,-0.023l0.072,-0.025l0.073,-0.025l0.072,-0.026l0.071,-0.027l0.071,-0.027l0.071,-0.029l0.071,-0.029l0.069,-0.03l0.07,-0.031l0.069,-0.032l0.068,-0.033l0.068,-0.033l0.068,-0.034l0.067,-0.035l0.067,-0.036l0.066,-0.037l0.066,-0.037l0.065,-0.038l0.065,-0.039l0.064,-0.04l0.064,-0.04l0.063,-0.042l0.062,-0.041l0.062,-0.043l0.062,-0.043l0.061,-0.045l0.06,-0.044l0.06,-0.046l0.06,-0.046l0.058,-0.047l0.059,-0.048l0.057,-0.048l0.057,-0.049l0.057,-0.049l0.055,-0.051l0.056,-0.051l0.054,-0.051l0.054,-0.052l0.054,-0.053l0.052,-0.054l0.052,-0.054l0.052,-0.055l0.051,-0.055l0.05,-0.056l0.049,-0.057l0.049,-0.057l0.048,-0.058l0.048,-0.058l0.046,-0.059l0.046,-0.059l0.046,-0.061l0.044,-0.06l0.044,-0.061l0.044,-0.062l0.042,-0.062l0.042,-0.063l0.041,-0.064l0.04,-0.063l0.04,-0.065l0.039,-0.065l0.038,-0.065l0.037,-0.066l0.036,-0.066l0.036,-0.067l0.035,-0.068l0.034,-0.067l0.034,-0.069l0.032,-0.068l0.032,-0.07l0.031,-0.069l0.03,-0.07l0.029,-0.071l0.028,-0.071l0.028,-0.071l0.027,-0.072l0.026,-0.072l0.025,-0.073l0.024,-0.073l0.023,-0.073l0.022,-0.074l0.022,-0.074l0.021,-0.075l0.019,-0.075l0.019,-0.075l0.018,-0.076l0.017,-0.076l0.016,-0.076l0.015,-0.077l0.015,-0.077l0.013,-0.077l0.012,-0.078l0.012,-0.078l0.01,-0.078l0.01,-0.078l0.008,-0.079l0.008,-0.079l0.006,-0.08l0.006,-0.08l0.004,-0.08l0.004,-0.08l0.002,-0.08l0.002,-0.081l0,-0.081l0,-0.081l-0.002,-0.081l-0.002,-0.08l-0.004,-0.08l-0.004,-0.08l-0.006,-0.08l-0.006,-0.08l-0.008,-0.079l-0.008,-0.079l-0.01,-0.078l-0.01,-0.078l-0.012,-0.078l-0.012,-0.078l-0.013,-0.077l-0.015,-0.077l-0.015,-0.077l-0.016,-0.076l-0.017,-0.076l-0.018,-0.076l-0.019,-0.075l-0.019,-0.075l-0.021,-0.075l-0.022,-0.074l-0.022,-0.074l-0.023,-0.073l-0.024,-0.073l-0.025,-0.073l-0.026,-0.072l-0.027,-0.072l-0.028,-0.071l-0.028,-0.071l-0.029,-0.071l-0.03,-0.07l-0.031,-0.069l-0.032,-0.07l-0.032,-0.068l-0.034,-0.069l-0.034,-0.067l-0.035,-0.068l-0.036,-0.067l-0.036,-0.066l-0.037,-0.066l-0.038,-0.065l-0.039,-0.065l-0.04,-0.065l-0.04,-0.063l-0.041,-0.064l-0.042,-0.063l-0.042,-0.062l-0.044,-0.062l-0.044,-0.061l-0.044,-0.06l-0.046,-0.061l-0.046,-0.059l-0.046,-0.059l-0.048,-0.058l-0.048,-0.058l-0.049,-0.057l-0.049,-0.057l-0.05,-0.056l-0.051,-0.055l-0.052,-0.055l-0.052,-0.054l-0.052,-0.054l-0.054,-0.053l-0.054,-0.052l-0.054,-0.051l-0.056,-0.051l-0.055,-0.051l-0.057,-0.049l-0.057,-0.049l-0.057,-0.048l-0.059,-0.048l-0.058,-0.047l-0.06,-0.046l-0.06,-0.046l-0.06,-0.044l-0.061,-0.045l-0.062,-0.043l-0.062,-0.043l-0.062,-0.041l-0.063,-0.042l-0.064,-0.04l-0.064,-0.04l-0.065,-0.039l-0.065,-0.038l-0.066,-0.037l-0.066,-0.037l-0.067,-0.036l-0.067,-0.035l-0.068,-0.034l-0.068,-0.033l-0.068,-0.033l-0.069,-0.032l-0.07,-0.031l-0.069,-0.03l-0.071,-0.029l-0.071,-0.029l-0.071,-0.027l-0.071,-0.027l-0.072,-0.026l-0.073,-0.025l-0.072,-0.025l-0.074,-0.023l-0.073,-0.022l-0.074,-0.022l-0.075,-0.021l-0.074,-0.019l-0.075,-0.019l-0.076,-0.018l-0.075,-0.017l-0.077,-0.017l-0.076,-0.015l-0.077,-0.014l-0.077,-0.013l-0.077,-0.013l-0.078,-0.011l-0.078,-0.011l-0.078,-0.009l-0.079,-0.009l-0.079,-0.007l-0.079,-0.007l-0.079,-0.005l-0.08,-0.005l-0.08,-0.003l-0.08,-0.003l-0.081,-0.001l-0.081,-0.001l-0.08,0.001Z" style="fill:rgb(49,49,49);"/>
                </g>
                <g transform="matrix(1.33376,0,0,1.34328,-140.325,-282.832)">
                    <path d="M415.04,225c5.228,0 9.472,4.257 9.472,9.5c0,5.243 -4.244,9.5 -9.472,9.5c-5.227,0 -9.471,-4.257 -9.471,-9.5c0,-5.243 4.244,-9.5 9.471,-9.5Zm0,2.755c3.712,0 6.725,3.022 6.725,6.745c0,3.723 -3.013,6.745 -6.725,6.745c-3.711,0 -6.724,-3.022 -6.724,-6.745c0,-3.723 3.013,-6.745 6.724,-6.745Z" style="fill:rgb(216,216,216);"/>
                    <path d="M415.163,225.001l0.122,0.002l0.121,0.004l0.121,0.005l0.121,0.007l0.121,0.009l0.12,0.01l0.119,0.011l0.119,0.013l0.119,0.014l0.118,0.016l0.118,0.018l0.117,0.018l0.117,0.02l0.116,0.022l0.116,0.023l0.115,0.025l0.115,0.025l0.114,0.028l0.114,0.028l0.113,0.03l0.113,0.032l0.112,0.032l0.111,0.034l0.111,0.036l0.111,0.036l0.109,0.039l0.109,0.039l0.109,0.04l0.108,0.042l0.107,0.044l0.106,0.044l0.106,0.046l0.106,0.047l0.104,0.048l0.104,0.049l0.103,0.051l0.103,0.052l0.101,0.053l0.101,0.054l0.101,0.056l0.099,0.056l0.099,0.058l0.098,0.059l0.097,0.06l0.097,0.062l0.095,0.062l0.095,0.063l0.094,0.065l0.094,0.066l0.092,0.066l0.092,0.068l0.09,0.069l0.09,0.07l0.089,0.071l0.088,0.072l0.088,0.074l0.086,0.074l0.086,0.075l0.084,0.076l0.084,0.077l0.083,0.079l0.081,0.079l0.081,0.08l0.08,0.081l0.079,0.082l0.078,0.083l0.077,0.084l0.076,0.085l0.075,0.085l0.074,0.087l0.073,0.088l0.072,0.088l0.07,0.089l0.07,0.09l0.069,0.092l0.068,0.091l0.066,0.093l0.066,0.094l0.064,0.094l0.063,0.095l0.063,0.096l0.061,0.097l0.06,0.097l0.058,0.099l0.058,0.099l0.056,0.1l0.056,0.1l0.054,0.102l0.053,0.102l0.051,0.102l0.051,0.104l0.049,0.104l0.048,0.105l0.047,0.105l0.046,0.107l0.044,0.107l0.043,0.107l0.042,0.108l0.04,0.109l0.04,0.109l0.038,0.11l0.036,0.111l0.035,0.111l0.034,0.112l0.033,0.113l0.031,0.112l0.03,0.114l0.029,0.114l0.027,0.115l0.026,0.115l0.024,0.115l0.023,0.117l0.021,0.116l0.021,0.117l0.018,0.118l0.018,0.118l0.015,0.119l0.015,0.119l0.013,0.119l0.011,0.12l0.01,0.121l0.008,0.12l0.007,0.121l0.006,0.122l0.003,0.122l0.003,0.122l0.001,0.123l-0.001,0.123l-0.003,0.122l-0.003,0.122l-0.006,0.122l-0.007,0.121l-0.008,0.12l-0.01,0.121l-0.011,0.12l-0.013,0.119l-0.015,0.119l-0.015,0.119l-0.018,0.118l-0.018,0.118l-0.021,0.117l-0.021,0.116l-0.023,0.117l-0.024,0.115l-0.026,0.115l-0.027,0.115l-0.029,0.114l-0.03,0.114l-0.031,0.112l-0.033,0.113l-0.034,0.112l-0.035,0.111l-0.036,0.111l-0.038,0.11l-0.04,0.109l-0.04,0.109l-0.042,0.108l-0.043,0.107l-0.044,0.107l-0.046,0.107l-0.047,0.105l-0.048,0.105l-0.049,0.104l-0.051,0.104l-0.051,0.102l-0.053,0.102l-0.054,0.102l-0.056,0.1l-0.056,0.1l-0.058,0.099l-0.058,0.099l-0.06,0.097l-0.061,0.097l-0.063,0.096l-0.063,0.095l-0.064,0.094l-0.066,0.094l-0.066,0.093l-0.068,0.091l-0.069,0.092l-0.07,0.09l-0.07,0.089l-0.072,0.088l-0.073,0.088l-0.074,0.087l-0.075,0.085l-0.076,0.085l-0.077,0.084l-0.078,0.083l-0.079,0.082l-0.08,0.081l-0.081,0.08l-0.081,0.079l-0.083,0.079l-0.084,0.077l-0.084,0.076l-0.086,0.075l-0.086,0.074l-0.088,0.074l-0.088,0.072l-0.089,0.071l-0.09,0.07l-0.09,0.069l-0.092,0.068l-0.092,0.066l-0.094,0.066l-0.094,0.065l-0.095,0.063l-0.095,0.062l-0.097,0.062l-0.097,0.06l-0.098,0.059l-0.099,0.058l-0.099,0.056l-0.101,0.056l-0.101,0.054l-0.101,0.053l-0.103,0.052l-0.103,0.051l-0.104,0.049l-0.104,0.048l-0.106,0.047l-0.106,0.046l-0.106,0.044l-0.107,0.044l-0.108,0.042l-0.109,0.04l-0.109,0.039l-0.109,0.039l-0.111,0.036l-0.111,0.036l-0.111,0.034l-0.112,0.032l-0.113,0.032l-0.113,0.03l-0.114,0.028l-0.114,0.028l-0.115,0.025l-0.115,0.025l-0.116,0.023l-0.116,0.022l-0.117,0.02l-0.117,0.018l-0.118,0.018l-0.118,0.016l-0.119,0.014l-0.119,0.013l-0.119,0.011l-0.12,0.01l-0.121,0.009l-0.121,0.007l-0.121,0.005l-0.121,0.004l-0.122,0.002l-0.123,0.001l-0.122,-0.001l-0.122,-0.002l-0.122,-0.004l-0.121,-0.005l-0.121,-0.007l-0.12,-0.009l-0.12,-0.01l-0.119,-0.011l-0.12,-0.013l-0.118,-0.014l-0.118,-0.016l-0.118,-0.018l-0.117,-0.018l-0.117,-0.02l-0.117,-0.022l-0.115,-0.023l-0.116,-0.025l-0.114,-0.025l-0.115,-0.028l-0.113,-0.028l-0.114,-0.03l-0.112,-0.032l-0.112,-0.032l-0.112,-0.034l-0.111,-0.036l-0.11,-0.036l-0.11,-0.039l-0.109,-0.039l-0.108,-0.04l-0.108,-0.042l-0.107,-0.044l-0.107,-0.044l-0.106,-0.046l-0.105,-0.047l-0.104,-0.048l-0.104,-0.049l-0.103,-0.051l-0.103,-0.052l-0.102,-0.053l-0.101,-0.054l-0.1,-0.056l-0.099,-0.056l-0.099,-0.058l-0.098,-0.059l-0.097,-0.06l-0.097,-0.062l-0.096,-0.062l-0.095,-0.063l-0.094,-0.065l-0.093,-0.066l-0.092,-0.066l-0.092,-0.068l-0.091,-0.069l-0.09,-0.07l-0.089,-0.071l-0.088,-0.072l-0.087,-0.074l-0.086,-0.074l-0.086,-0.075l-0.084,-0.076l-0.084,-0.077l-0.083,-0.079l-0.082,-0.079l-0.08,-0.08l-0.08,-0.081l-0.079,-0.082l-0.078,-0.083l-0.077,-0.084l-0.076,-0.085l-0.075,-0.085l-0.074,-0.087l-0.073,-0.088l-0.072,-0.088l-0.071,-0.089l-0.069,-0.09l-0.069,-0.092l-0.068,-0.091l-0.066,-0.093l-0.066,-0.094l-0.064,-0.094l-0.064,-0.095l-0.062,-0.096l-0.061,-0.097l-0.06,-0.097l-0.059,-0.099l-0.057,-0.099l-0.057,-0.1l-0.055,-0.1l-0.054,-0.102l-0.053,-0.102l-0.052,-0.102l-0.05,-0.104l-0.05,-0.104l-0.048,-0.105l-0.046,-0.105l-0.046,-0.107l-0.044,-0.107l-0.043,-0.107l-0.042,-0.108l-0.041,-0.109l-0.039,-0.109l-0.038,-0.11l-0.036,-0.111l-0.036,-0.111l-0.034,-0.112l-0.032,-0.113l-0.032,-0.112l-0.029,-0.114l-0.029,-0.114l-0.027,-0.115l-0.026,-0.115l-0.024,-0.115l-0.023,-0.117l-0.022,-0.116l-0.02,-0.117l-0.019,-0.118l-0.017,-0.118l-0.016,-0.119l-0.014,-0.119l-0.013,-0.119l-0.011,-0.12l-0.01,-0.121l-0.009,-0.12l-0.006,-0.121l-0.006,-0.122l-0.004,-0.122l-0.002,-0.122l-0.001,-0.123l0.001,-0.123l0.002,-0.122l0.004,-0.122l0.006,-0.122l0.006,-0.121l0.009,-0.12l0.01,-0.121l0.011,-0.12l0.013,-0.119l0.014,-0.119l0.016,-0.119l0.017,-0.118l0.019,-0.118l0.02,-0.117l0.022,-0.116l0.023,-0.117l0.024,-0.115l0.026,-0.115l0.027,-0.115l0.029,-0.114l0.029,-0.114l0.032,-0.112l0.032,-0.113l0.034,-0.112l0.036,-0.111l0.036,-0.111l0.038,-0.11l0.039,-0.109l0.041,-0.109l0.042,-0.108l0.043,-0.107l0.044,-0.107l0.046,-0.107l0.046,-0.105l0.048,-0.105l0.05,-0.104l0.05,-0.104l0.052,-0.102l0.053,-0.102l0.054,-0.102l0.055,-0.1l0.057,-0.1l0.057,-0.099l0.059,-0.099l0.06,-0.097l0.061,-0.097l0.062,-0.096l0.064,-0.095l0.064,-0.094l0.066,-0.094l0.066,-0.093l0.068,-0.091l0.069,-0.092l0.069,-0.09l0.071,-0.089l0.072,-0.088l0.073,-0.088l0.074,-0.087l0.075,-0.085l0.076,-0.085l0.077,-0.084l0.078,-0.083l0.079,-0.082l0.08,-0.081l0.08,-0.08l0.082,-0.079l0.083,-0.079l0.084,-0.077l0.084,-0.076l0.086,-0.075l0.086,-0.074l0.087,-0.074l0.088,-0.072l0.089,-0.071l0.09,-0.07l0.091,-0.069l0.092,-0.068l0.092,-0.066l0.093,-0.066l0.094,-0.065l0.095,-0.063l0.096,-0.062l0.097,-0.062l0.097,-0.06l0.098,-0.059l0.099,-0.058l0.099,-0.056l0.1,-0.056l0.101,-0.054l0.102,-0.053l0.103,-0.052l0.103,-0.051l0.104,-0.049l0.104,-0.048l0.105,-0.047l0.106,-0.046l0.107,-0.044l0.107,-0.044l0.108,-0.042l0.108,-0.04l0.109,-0.039l0.11,-0.039l0.11,-0.036l0.111,-0.036l0.112,-0.034l0.112,-0.032l0.112,-0.032l0.114,-0.03l0.113,-0.028l0.115,-0.028l0.114,-0.025l0.116,-0.025l0.115,-0.023l0.117,-0.022l0.117,-0.02l0.117,-0.018l0.118,-0.018l0.118,-0.016l0.118,-0.014l0.12,-0.013l0.119,-0.011l0.12,-0.01l0.12,-0.009l0.121,-0.007l0.121,-0.005l0.122,-0.004l0.122,-0.002l0.122,-0.001l0.123,0.001Zm-0.242,0.209l-0.12,0.002l-0.119,0.004l-0.118,0.005l-0.118,0.007l-0.118,0.008l-0.117,0.01l-0.117,0.011l-0.117,0.013l-0.116,0.014l-0.115,0.016l-0.116,0.016l-0.114,0.019l-0.115,0.02l-0.113,0.021l-0.114,0.022l-0.112,0.024l-0.113,0.025l-0.111,0.027l-0.111,0.028l-0.111,0.029l-0.11,0.031l-0.11,0.032l-0.109,0.033l-0.108,0.035l-0.108,0.036l-0.107,0.037l-0.107,0.038l-0.106,0.04l-0.105,0.041l-0.105,0.042l-0.104,0.044l-0.104,0.045l-0.103,0.045l-0.102,0.048l-0.102,0.048l-0.1,0.05l-0.101,0.05l-0.099,0.052l-0.099,0.053l-0.098,0.054l-0.097,0.056l-0.097,0.056l-0.096,0.058l-0.095,0.059l-0.094,0.06l-0.094,0.061l-0.093,0.062l-0.092,0.063l-0.091,0.064l-0.09,0.066l-0.09,0.066l-0.089,0.067l-0.088,0.069l-0.087,0.069l-0.086,0.071l-0.085,0.071l-0.085,0.073l-0.083,0.074l-0.083,0.074l-0.082,0.076l-0.081,0.076l-0.08,0.077l-0.079,0.079l-0.078,0.079l-0.077,0.08l-0.076,0.082l-0.076,0.082l-0.074,0.083l-0.073,0.083l-0.073,0.085l-0.071,0.086l-0.07,0.086l-0.07,0.088l-0.068,0.088l-0.067,0.089l-0.066,0.09l-0.065,0.09l-0.064,0.092l-0.063,0.092l-0.062,0.093l-0.061,0.094l-0.06,0.095l-0.058,0.095l-0.058,0.096l-0.056,0.097l-0.056,0.098l-0.054,0.098l-0.053,0.099l-0.051,0.1l-0.051,0.101l-0.049,0.101l-0.048,0.102l-0.047,0.102l-0.046,0.103l-0.045,0.104l-0.043,0.105l-0.042,0.105l-0.041,0.106l-0.04,0.106l-0.038,0.107l-0.037,0.108l-0.036,0.108l-0.034,0.109l-0.034,0.109l-0.031,0.11l-0.031,0.11l-0.029,0.111l-0.028,0.112l-0.027,0.112l-0.025,0.112l-0.024,0.113l-0.022,0.114l-0.021,0.114l-0.02,0.115l-0.018,0.115l-0.017,0.115l-0.016,0.116l-0.014,0.117l-0.012,0.116l-0.011,0.118l-0.01,0.117l-0.008,0.119l-0.007,0.118l-0.005,0.119l-0.004,0.119l-0.002,0.12l-0.001,0.12l0.001,0.12l0.002,0.12l0.004,0.119l0.005,0.119l0.007,0.118l0.008,0.119l0.01,0.117l0.011,0.118l0.012,0.116l0.014,0.117l0.016,0.116l0.017,0.115l0.018,0.115l0.02,0.115l0.021,0.114l0.022,0.114l0.024,0.113l0.025,0.112l0.027,0.112l0.028,0.112l0.029,0.111l0.031,0.11l0.031,0.11l0.034,0.109l0.034,0.109l0.036,0.108l0.037,0.108l0.038,0.107l0.04,0.106l0.041,0.106l0.042,0.105l0.043,0.105l0.045,0.104l0.046,0.103l0.047,0.102l0.048,0.102l0.049,0.101l0.051,0.101l0.051,0.1l0.053,0.099l0.054,0.098l0.056,0.098l0.056,0.097l0.058,0.096l0.058,0.095l0.06,0.095l0.061,0.094l0.062,0.093l0.063,0.092l0.064,0.092l0.065,0.09l0.066,0.09l0.067,0.089l0.068,0.088l0.07,0.088l0.07,0.086l0.071,0.086l0.073,0.085l0.073,0.083l0.074,0.083l0.076,0.082l0.076,0.082l0.077,0.08l0.078,0.079l0.079,0.079l0.08,0.077l0.081,0.076l0.082,0.076l0.083,0.074l0.083,0.074l0.085,0.073l0.085,0.071l0.086,0.071l0.087,0.069l0.088,0.069l0.089,0.067l0.09,0.066l0.09,0.066l0.091,0.064l0.092,0.063l0.093,0.062l0.094,0.061l0.094,0.06l0.095,0.059l0.096,0.058l0.097,0.056l0.097,0.056l0.098,0.054l0.099,0.053l0.099,0.052l0.101,0.05l0.1,0.05l0.102,0.048l0.102,0.048l0.103,0.045l0.104,0.045l0.104,0.044l0.105,0.042l0.105,0.041l0.106,0.04l0.107,0.038l0.107,0.037l0.108,0.036l0.108,0.035l0.109,0.033l0.11,0.032l0.11,0.031l0.111,0.029l0.111,0.028l0.111,0.027l0.113,0.025l0.112,0.024l0.114,0.022l0.113,0.021l0.115,0.02l0.114,0.019l0.116,0.016l0.115,0.016l0.116,0.014l0.117,0.013l0.117,0.011l0.117,0.01l0.118,0.008l0.118,0.007l0.118,0.005l0.119,0.004l0.12,0.002l0.119,0.001l0.12,-0.001l0.119,-0.002l0.119,-0.004l0.119,-0.005l0.118,-0.007l0.118,-0.008l0.117,-0.01l0.117,-0.011l0.117,-0.013l0.116,-0.014l0.115,-0.016l0.115,-0.016l0.115,-0.019l0.114,-0.02l0.114,-0.021l0.113,-0.022l0.113,-0.024l0.112,-0.025l0.112,-0.027l0.111,-0.028l0.111,-0.029l0.11,-0.031l0.109,-0.032l0.109,-0.033l0.109,-0.035l0.108,-0.036l0.107,-0.037l0.107,-0.038l0.106,-0.04l0.105,-0.041l0.105,-0.042l0.104,-0.044l0.104,-0.045l0.103,-0.045l0.102,-0.048l0.101,-0.048l0.101,-0.05l0.1,-0.05l0.1,-0.052l0.099,-0.053l0.098,-0.054l0.097,-0.056l0.097,-0.056l0.096,-0.058l0.095,-0.059l0.094,-0.06l0.094,-0.061l0.092,-0.062l0.092,-0.063l0.092,-0.064l0.09,-0.066l0.09,-0.066l0.088,-0.067l0.088,-0.069l0.087,-0.069l0.087,-0.071l0.085,-0.071l0.084,-0.073l0.084,-0.074l0.083,-0.074l0.082,-0.076l0.081,-0.076l0.08,-0.077l0.079,-0.079l0.078,-0.079l0.077,-0.08l0.076,-0.082l0.075,-0.082l0.075,-0.083l0.073,-0.083l0.072,-0.085l0.072,-0.086l0.07,-0.086l0.069,-0.088l0.069,-0.088l0.067,-0.089l0.066,-0.09l0.065,-0.09l0.064,-0.092l0.063,-0.092l0.062,-0.093l0.061,-0.094l0.06,-0.095l0.058,-0.095l0.058,-0.096l0.056,-0.097l0.055,-0.098l0.054,-0.098l0.053,-0.099l0.052,-0.1l0.051,-0.101l0.049,-0.101l0.048,-0.102l0.047,-0.102l0.046,-0.103l0.045,-0.104l0.043,-0.105l0.042,-0.105l0.041,-0.106l0.039,-0.106l0.039,-0.107l0.037,-0.108l0.036,-0.108l0.034,-0.109l0.033,-0.109l0.032,-0.11l0.031,-0.11l0.029,-0.111l0.028,-0.112l0.026,-0.112l0.026,-0.112l0.023,-0.113l0.023,-0.114l0.021,-0.114l0.02,-0.115l0.018,-0.115l0.017,-0.115l0.015,-0.116l0.014,-0.117l0.013,-0.116l0.011,-0.118l0.01,-0.117l0.008,-0.119l0.007,-0.118l0.005,-0.119l0.004,-0.119l0.002,-0.12l0.001,-0.12l-0.001,-0.12l-0.002,-0.12l-0.004,-0.119l-0.005,-0.119l-0.007,-0.118l-0.008,-0.119l-0.01,-0.117l-0.011,-0.118l-0.013,-0.116l-0.014,-0.117l-0.015,-0.116l-0.017,-0.115l-0.018,-0.115l-0.02,-0.115l-0.021,-0.114l-0.023,-0.114l-0.023,-0.113l-0.026,-0.112l-0.026,-0.112l-0.028,-0.112l-0.029,-0.111l-0.031,-0.11l-0.032,-0.11l-0.033,-0.109l-0.034,-0.109l-0.036,-0.108l-0.037,-0.108l-0.039,-0.107l-0.039,-0.106l-0.041,-0.106l-0.042,-0.105l-0.043,-0.105l-0.045,-0.104l-0.046,-0.103l-0.047,-0.102l-0.048,-0.102l-0.049,-0.101l-0.051,-0.101l-0.052,-0.1l-0.053,-0.099l-0.054,-0.098l-0.055,-0.098l-0.056,-0.097l-0.058,-0.096l-0.058,-0.095l-0.06,-0.095l-0.061,-0.094l-0.062,-0.093l-0.063,-0.092l-0.064,-0.092l-0.065,-0.09l-0.066,-0.09l-0.067,-0.089l-0.069,-0.088l-0.069,-0.088l-0.07,-0.086l-0.072,-0.086l-0.072,-0.085l-0.073,-0.083l-0.075,-0.083l-0.075,-0.082l-0.076,-0.082l-0.077,-0.08l-0.078,-0.079l-0.079,-0.079l-0.08,-0.077l-0.081,-0.076l-0.082,-0.076l-0.083,-0.074l-0.084,-0.074l-0.084,-0.073l-0.085,-0.071l-0.087,-0.071l-0.087,-0.069l-0.088,-0.069l-0.088,-0.067l-0.09,-0.066l-0.09,-0.066l-0.092,-0.064l-0.092,-0.063l-0.092,-0.062l-0.094,-0.061l-0.094,-0.06l-0.095,-0.059l-0.096,-0.058l-0.097,-0.056l-0.097,-0.056l-0.098,-0.054l-0.099,-0.053l-0.1,-0.052l-0.1,-0.05l-0.101,-0.05l-0.101,-0.048l-0.102,-0.048l-0.103,-0.045l-0.104,-0.045l-0.104,-0.044l-0.105,-0.042l-0.105,-0.041l-0.106,-0.04l-0.107,-0.038l-0.107,-0.037l-0.108,-0.036l-0.109,-0.035l-0.109,-0.033l-0.109,-0.032l-0.11,-0.031l-0.111,-0.029l-0.111,-0.028l-0.112,-0.027l-0.112,-0.025l-0.113,-0.024l-0.113,-0.022l-0.114,-0.021l-0.114,-0.02l-0.115,-0.019l-0.115,-0.016l-0.115,-0.016l-0.116,-0.014l-0.117,-0.013l-0.117,-0.011l-0.117,-0.01l-0.118,-0.008l-0.118,-0.007l-0.119,-0.005l-0.119,-0.004l-0.119,-0.002l-0.12,-0.001l-0.119,0.001Zm0.209,2.336l0.089,0.002l0.089,0.003l0.089,0.004l0.088,0.005l0.088,0.006l0.088,0.007l0.088,0.009l0.087,0.009l0.087,0.011l0.086,0.011l0.086,0.013l0.086,0.014l0.086,0.014l0.085,0.016l0.085,0.017l0.084,0.018l0.084,0.019l0.084,0.02l0.083,0.021l0.083,0.022l0.082,0.023l0.083,0.024l0.081,0.025l0.081,0.025l0.081,0.027l0.08,0.028l0.08,0.029l0.08,0.03l0.079,0.03l0.078,0.032l0.078,0.033l0.078,0.033l0.077,0.034l0.076,0.036l0.076,0.036l0.076,0.037l0.075,0.038l0.074,0.039l0.074,0.04l0.074,0.04l0.072,0.042l0.073,0.042l0.072,0.043l0.071,0.044l0.07,0.045l0.07,0.046l0.07,0.046l0.069,0.047l0.068,0.049l0.068,0.048l0.067,0.05l0.066,0.051l0.066,0.051l0.065,0.052l0.065,0.053l0.063,0.053l0.064,0.054l0.062,0.055l0.062,0.056l0.061,0.057l0.061,0.057l0.06,0.058l0.059,0.058l0.058,0.06l0.058,0.06l0.057,0.061l0.057,0.061l0.055,0.062l0.055,0.063l0.054,0.063l0.053,0.064l0.053,0.065l0.052,0.065l0.051,0.066l0.05,0.067l0.05,0.067l0.049,0.068l0.048,0.069l0.047,0.069l0.046,0.069l0.046,0.071l0.044,0.07l0.044,0.072l0.043,0.072l0.042,0.072l0.042,0.073l0.04,0.074l0.04,0.074l0.038,0.075l0.038,0.075l0.037,0.076l0.036,0.076l0.036,0.077l0.034,0.077l0.033,0.078l0.033,0.078l0.031,0.079l0.031,0.079l0.03,0.08l0.028,0.08l0.028,0.08l0.027,0.082l0.026,0.081l0.024,0.082l0.024,0.082l0.023,0.083l0.022,0.083l0.021,0.083l0.02,0.084l0.019,0.085l0.018,0.084l0.016,0.085l0.016,0.086l0.015,0.086l0.014,0.086l0.012,0.086l0.012,0.087l0.01,0.087l0.01,0.088l0.008,0.087l0.007,0.088l0.007,0.089l0.005,0.089l0.003,0.088l0.003,0.09l0.002,0.089l0.001,0.09l-0.001,0.09l-0.002,0.089l-0.003,0.09l-0.003,0.088l-0.005,0.089l-0.007,0.089l-0.007,0.088l-0.008,0.087l-0.01,0.088l-0.01,0.087l-0.012,0.087l-0.012,0.086l-0.014,0.086l-0.015,0.086l-0.016,0.086l-0.016,0.085l-0.018,0.084l-0.019,0.085l-0.02,0.084l-0.021,0.083l-0.022,0.083l-0.023,0.083l-0.024,0.082l-0.024,0.082l-0.026,0.082l-0.027,0.081l-0.028,0.08l-0.028,0.08l-0.03,0.08l-0.031,0.079l-0.031,0.079l-0.033,0.078l-0.033,0.078l-0.034,0.077l-0.036,0.077l-0.036,0.076l-0.037,0.076l-0.038,0.075l-0.038,0.075l-0.04,0.074l-0.04,0.074l-0.042,0.073l-0.042,0.072l-0.043,0.072l-0.044,0.072l-0.044,0.07l-0.046,0.071l-0.046,0.069l-0.047,0.069l-0.048,0.069l-0.049,0.068l-0.05,0.067l-0.05,0.067l-0.051,0.066l-0.052,0.065l-0.053,0.065l-0.053,0.064l-0.054,0.063l-0.055,0.063l-0.055,0.062l-0.057,0.061l-0.057,0.061l-0.058,0.06l-0.058,0.06l-0.059,0.058l-0.06,0.058l-0.061,0.057l-0.061,0.057l-0.062,0.056l-0.062,0.055l-0.064,0.054l-0.063,0.053l-0.065,0.053l-0.065,0.052l-0.066,0.051l-0.066,0.051l-0.067,0.05l-0.068,0.048l-0.068,0.049l-0.069,0.047l-0.07,0.046l-0.07,0.046l-0.07,0.045l-0.071,0.044l-0.072,0.043l-0.072,0.042l-0.073,0.042l-0.074,0.04l-0.074,0.04l-0.074,0.039l-0.075,0.038l-0.076,0.037l-0.076,0.036l-0.076,0.036l-0.077,0.034l-0.078,0.033l-0.078,0.033l-0.078,0.032l-0.079,0.03l-0.08,0.03l-0.08,0.029l-0.08,0.028l-0.081,0.027l-0.081,0.025l-0.081,0.025l-0.083,0.024l-0.082,0.023l-0.083,0.022l-0.083,0.021l-0.084,0.02l-0.084,0.019l-0.084,0.018l-0.085,0.017l-0.085,0.016l-0.086,0.014l-0.086,0.014l-0.086,0.013l-0.086,0.011l-0.087,0.011l-0.087,0.009l-0.088,0.009l-0.088,0.007l-0.088,0.006l-0.088,0.005l-0.089,0.004l-0.089,0.003l-0.089,0.002l-0.09,0l-0.089,0l-0.089,-0.002l-0.089,-0.003l-0.089,-0.004l-0.088,-0.005l-0.089,-0.006l-0.087,-0.007l-0.088,-0.009l-0.087,-0.009l-0.087,-0.011l-0.086,-0.011l-0.087,-0.013l-0.086,-0.014l-0.085,-0.014l-0.085,-0.016l-0.085,-0.017l-0.084,-0.018l-0.085,-0.019l-0.083,-0.02l-0.083,-0.021l-0.083,-0.022l-0.083,-0.023l-0.082,-0.024l-0.081,-0.025l-0.082,-0.025l-0.08,-0.027l-0.081,-0.028l-0.08,-0.029l-0.079,-0.03l-0.079,-0.03l-0.078,-0.032l-0.078,-0.033l-0.078,-0.033l-0.077,-0.034l-0.077,-0.036l-0.076,-0.036l-0.075,-0.037l-0.075,-0.038l-0.075,-0.039l-0.074,-0.04l-0.073,-0.04l-0.073,-0.042l-0.072,-0.042l-0.072,-0.043l-0.071,-0.044l-0.071,-0.045l-0.07,-0.046l-0.069,-0.046l-0.069,-0.047l-0.068,-0.049l-0.068,-0.048l-0.067,-0.05l-0.066,-0.051l-0.066,-0.051l-0.065,-0.052l-0.065,-0.053l-0.064,-0.053l-0.063,-0.054l-0.063,-0.055l-0.061,-0.056l-0.062,-0.057l-0.06,-0.057l-0.06,-0.058l-0.059,-0.058l-0.059,-0.06l-0.057,-0.06l-0.057,-0.061l-0.057,-0.061l-0.055,-0.062l-0.055,-0.063l-0.054,-0.063l-0.054,-0.064l-0.052,-0.065l-0.052,-0.065l-0.051,-0.066l-0.051,-0.067l-0.049,-0.067l-0.049,-0.068l-0.048,-0.069l-0.047,-0.069l-0.046,-0.069l-0.046,-0.071l-0.045,-0.07l-0.043,-0.072l-0.043,-0.072l-0.043,-0.072l-0.041,-0.073l-0.04,-0.074l-0.04,-0.074l-0.039,-0.075l-0.038,-0.075l-0.037,-0.076l-0.036,-0.076l-0.035,-0.077l-0.034,-0.077l-0.034,-0.078l-0.032,-0.078l-0.032,-0.079l-0.03,-0.079l-0.03,-0.08l-0.029,-0.08l-0.027,-0.08l-0.027,-0.081l-0.026,-0.082l-0.025,-0.082l-0.024,-0.082l-0.023,-0.083l-0.021,-0.083l-0.021,-0.083l-0.02,-0.084l-0.019,-0.085l-0.018,-0.084l-0.017,-0.085l-0.015,-0.086l-0.015,-0.086l-0.014,-0.086l-0.013,-0.086l-0.011,-0.087l-0.011,-0.087l-0.009,-0.088l-0.008,-0.087l-0.008,-0.088l-0.006,-0.089l-0.005,-0.089l-0.004,-0.088l-0.003,-0.09l-0.001,-0.089l-0.001,-0.09l0.001,-0.09l0.001,-0.089l0.003,-0.09l0.004,-0.088l0.005,-0.089l0.006,-0.089l0.008,-0.088l0.008,-0.087l0.009,-0.088l0.011,-0.087l0.011,-0.087l0.013,-0.086l0.014,-0.086l0.015,-0.086l0.015,-0.086l0.017,-0.085l0.018,-0.084l0.019,-0.085l0.02,-0.084l0.021,-0.083l0.021,-0.083l0.023,-0.083l0.024,-0.082l0.025,-0.082l0.026,-0.081l0.027,-0.082l0.027,-0.08l0.029,-0.08l0.03,-0.08l0.03,-0.079l0.032,-0.079l0.032,-0.078l0.034,-0.078l0.034,-0.077l0.035,-0.077l0.036,-0.076l0.037,-0.076l0.038,-0.075l0.039,-0.075l0.04,-0.074l0.04,-0.074l0.041,-0.073l0.043,-0.072l0.043,-0.072l0.043,-0.072l0.045,-0.07l0.046,-0.071l0.046,-0.069l0.047,-0.069l0.048,-0.069l0.049,-0.068l0.049,-0.067l0.051,-0.067l0.051,-0.066l0.052,-0.065l0.052,-0.065l0.054,-0.064l0.054,-0.063l0.055,-0.063l0.055,-0.062l0.056,-0.061l0.058,-0.061l0.057,-0.06l0.059,-0.06l0.059,-0.058l0.06,-0.058l0.06,-0.057l0.062,-0.057l0.061,-0.056l0.063,-0.055l0.063,-0.054l0.064,-0.053l0.065,-0.053l0.065,-0.052l0.066,-0.051l0.066,-0.051l0.067,-0.05l0.068,-0.048l0.068,-0.049l0.069,-0.047l0.069,-0.046l0.07,-0.046l0.071,-0.045l0.071,-0.044l0.072,-0.043l0.072,-0.042l0.073,-0.042l0.073,-0.04l0.074,-0.04l0.075,-0.039l0.075,-0.038l0.075,-0.037l0.076,-0.036l0.077,-0.036l0.077,-0.034l0.078,-0.033l0.078,-0.033l0.078,-0.032l0.079,-0.03l0.079,-0.03l0.08,-0.029l0.081,-0.028l0.08,-0.027l0.082,-0.025l0.081,-0.025l0.082,-0.024l0.083,-0.023l0.083,-0.022l0.083,-0.021l0.083,-0.02l0.085,-0.019l0.084,-0.018l0.085,-0.017l0.085,-0.016l0.085,-0.014l0.086,-0.014l0.087,-0.013l0.086,-0.011l0.087,-0.011l0.087,-0.009l0.088,-0.009l0.087,-0.007l0.089,-0.006l0.088,-0.005l0.089,-0.004l0.089,-0.003l0.089,-0.002l0.089,0l0.09,0Zm-0.176,0.21l-0.087,0.001l-0.086,0.003l-0.086,0.004l-0.086,0.005l-0.086,0.006l-0.085,0.007l-0.085,0.008l-0.084,0.009l-0.085,0.01l-0.084,0.011l-0.083,0.013l-0.083,0.013l-0.083,0.014l-0.083,0.016l-0.082,0.016l-0.082,0.017l-0.082,0.019l-0.081,0.019l-0.08,0.021l-0.081,0.021l-0.08,0.022l-0.079,0.023l-0.079,0.024l-0.079,0.026l-0.078,0.026l-0.078,0.027l-0.078,0.028l-0.077,0.028l-0.076,0.03l-0.076,0.031l-0.076,0.031l-0.075,0.033l-0.075,0.033l-0.074,0.034l-0.074,0.036l-0.073,0.036l-0.073,0.036l-0.072,0.038l-0.072,0.039l-0.071,0.039l-0.071,0.04l-0.07,0.041l-0.069,0.042l-0.069,0.043l-0.069,0.043l-0.068,0.045l-0.067,0.045l-0.067,0.045l-0.066,0.047l-0.066,0.048l-0.065,0.048l-0.064,0.049l-0.064,0.049l-0.063,0.051l-0.063,0.051l-0.062,0.052l-0.061,0.053l-0.061,0.053l-0.06,0.054l-0.059,0.055l-0.059,0.055l-0.058,0.057l-0.058,0.057l-0.056,0.057l-0.056,0.058l-0.056,0.059l-0.054,0.06l-0.054,0.06l-0.054,0.061l-0.052,0.061l-0.052,0.063l-0.051,0.062l-0.05,0.064l-0.05,0.064l-0.049,0.064l-0.048,0.066l-0.047,0.065l-0.046,0.067l-0.046,0.067l-0.045,0.067l-0.044,0.069l-0.044,0.068l-0.042,0.07l-0.042,0.069l-0.041,0.071l-0.04,0.071l-0.039,0.071l-0.038,0.072l-0.038,0.072l-0.037,0.073l-0.036,0.074l-0.035,0.074l-0.034,0.074l-0.033,0.075l-0.032,0.076l-0.032,0.075l-0.03,0.077l-0.03,0.077l-0.029,0.077l-0.028,0.078l-0.027,0.078l-0.026,0.078l-0.025,0.079l-0.024,0.08l-0.023,0.079l-0.022,0.081l-0.021,0.08l-0.021,0.081l-0.019,0.082l-0.018,0.081l-0.017,0.082l-0.017,0.083l-0.015,0.083l-0.014,0.083l-0.014,0.083l-0.012,0.084l-0.011,0.084l-0.01,0.085l-0.009,0.085l-0.009,0.085l-0.007,0.085l-0.006,0.086l-0.004,0.086l-0.004,0.086l-0.003,0.087l-0.002,0.087l0,0.087l0,0.087l0.002,0.087l0.003,0.087l0.004,0.086l0.004,0.086l0.006,0.086l0.007,0.085l0.009,0.085l0.009,0.085l0.01,0.085l0.011,0.084l0.012,0.084l0.014,0.083l0.014,0.083l0.015,0.083l0.017,0.083l0.017,0.082l0.018,0.081l0.019,0.082l0.021,0.081l0.021,0.08l0.022,0.081l0.023,0.079l0.024,0.08l0.025,0.079l0.026,0.078l0.027,0.078l0.028,0.078l0.029,0.077l0.03,0.077l0.03,0.077l0.032,0.075l0.032,0.076l0.033,0.075l0.034,0.074l0.035,0.074l0.036,0.074l0.037,0.073l0.038,0.072l0.038,0.072l0.039,0.071l0.04,0.071l0.041,0.071l0.042,0.069l0.042,0.07l0.044,0.068l0.044,0.069l0.045,0.067l0.046,0.067l0.046,0.067l0.047,0.065l0.048,0.066l0.049,0.064l0.05,0.064l0.05,0.064l0.051,0.062l0.052,0.063l0.052,0.061l0.054,0.061l0.054,0.06l0.054,0.06l0.056,0.059l0.056,0.058l0.056,0.057l0.058,0.057l0.058,0.057l0.059,0.055l0.059,0.055l0.06,0.054l0.061,0.053l0.061,0.053l0.062,0.052l0.063,0.051l0.063,0.051l0.064,0.049l0.064,0.049l0.065,0.048l0.066,0.048l0.066,0.047l0.067,0.045l0.067,0.045l0.068,0.045l0.069,0.043l0.069,0.043l0.069,0.042l0.07,0.041l0.071,0.04l0.071,0.039l0.072,0.039l0.072,0.038l0.073,0.036l0.073,0.036l0.074,0.036l0.074,0.034l0.075,0.033l0.075,0.033l0.076,0.031l0.076,0.031l0.076,0.03l0.077,0.028l0.078,0.028l0.078,0.027l0.078,0.026l0.079,0.026l0.079,0.024l0.079,0.023l0.08,0.022l0.081,0.021l0.08,0.021l0.081,0.019l0.082,0.019l0.082,0.017l0.082,0.016l0.083,0.016l0.083,0.014l0.083,0.013l0.083,0.013l0.084,0.011l0.085,0.01l0.084,0.009l0.085,0.008l0.085,0.007l0.086,0.006l0.086,0.005l0.086,0.004l0.086,0.003l0.087,0.001l0.086,0.001l0.087,-0.001l0.087,-0.001l0.086,-0.003l0.086,-0.004l0.086,-0.005l0.085,-0.006l0.086,-0.007l0.084,-0.008l0.085,-0.009l0.084,-0.01l0.084,-0.011l0.084,-0.013l0.083,-0.013l0.083,-0.014l0.083,-0.016l0.082,-0.016l0.082,-0.017l0.081,-0.019l0.081,-0.019l0.081,-0.021l0.08,-0.021l0.08,-0.022l0.08,-0.023l0.079,-0.024l0.079,-0.026l0.078,-0.026l0.078,-0.027l0.077,-0.028l0.077,-0.028l0.077,-0.03l0.076,-0.031l0.076,-0.031l0.075,-0.033l0.075,-0.033l0.074,-0.034l0.074,-0.036l0.073,-0.036l0.073,-0.036l0.072,-0.038l0.072,-0.039l0.071,-0.039l0.07,-0.04l0.071,-0.041l0.069,-0.042l0.069,-0.043l0.069,-0.043l0.068,-0.045l0.067,-0.045l0.067,-0.045l0.066,-0.047l0.066,-0.048l0.065,-0.048l0.064,-0.049l0.064,-0.049l0.063,-0.051l0.063,-0.051l0.062,-0.052l0.061,-0.053l0.061,-0.053l0.06,-0.054l0.059,-0.055l0.059,-0.055l0.058,-0.057l0.057,-0.057l0.057,-0.057l0.056,-0.058l0.055,-0.059l0.055,-0.06l0.054,-0.06l0.053,-0.061l0.053,-0.061l0.052,-0.063l0.051,-0.062l0.05,-0.064l0.049,-0.064l0.049,-0.064l0.048,-0.066l0.048,-0.065l0.046,-0.067l0.046,-0.067l0.045,-0.067l0.044,-0.069l0.043,-0.068l0.043,-0.07l0.041,-0.069l0.041,-0.071l0.041,-0.071l0.039,-0.071l0.038,-0.072l0.038,-0.072l0.036,-0.073l0.036,-0.074l0.035,-0.074l0.034,-0.074l0.034,-0.075l0.032,-0.076l0.032,-0.075l0.03,-0.077l0.03,-0.077l0.029,-0.077l0.027,-0.078l0.027,-0.078l0.026,-0.078l0.025,-0.079l0.024,-0.08l0.024,-0.079l0.022,-0.081l0.021,-0.08l0.02,-0.081l0.02,-0.082l0.018,-0.081l0.017,-0.082l0.016,-0.083l0.016,-0.083l0.014,-0.083l0.013,-0.083l0.013,-0.084l0.011,-0.084l0.01,-0.085l0.009,-0.085l0.008,-0.085l0.007,-0.085l0.006,-0.086l0.005,-0.086l0.004,-0.086l0.003,-0.087l0.001,-0.087l0.001,-0.087l-0.001,-0.087l-0.001,-0.087l-0.003,-0.087l-0.004,-0.086l-0.005,-0.086l-0.006,-0.086l-0.007,-0.085l-0.008,-0.085l-0.009,-0.085l-0.01,-0.085l-0.011,-0.084l-0.013,-0.084l-0.013,-0.083l-0.014,-0.083l-0.016,-0.083l-0.016,-0.083l-0.017,-0.082l-0.018,-0.081l-0.02,-0.082l-0.02,-0.081l-0.021,-0.08l-0.022,-0.081l-0.024,-0.079l-0.024,-0.08l-0.025,-0.079l-0.026,-0.078l-0.027,-0.078l-0.027,-0.078l-0.029,-0.077l-0.03,-0.077l-0.03,-0.077l-0.032,-0.075l-0.032,-0.076l-0.034,-0.075l-0.034,-0.074l-0.035,-0.074l-0.036,-0.074l-0.036,-0.073l-0.038,-0.072l-0.038,-0.072l-0.039,-0.071l-0.041,-0.071l-0.041,-0.071l-0.041,-0.069l-0.043,-0.07l-0.043,-0.068l-0.044,-0.069l-0.045,-0.067l-0.046,-0.067l-0.046,-0.067l-0.048,-0.065l-0.048,-0.066l-0.049,-0.064l-0.049,-0.064l-0.05,-0.064l-0.051,-0.062l-0.052,-0.063l-0.053,-0.061l-0.053,-0.061l-0.054,-0.06l-0.055,-0.06l-0.055,-0.059l-0.056,-0.058l-0.057,-0.057l-0.057,-0.057l-0.058,-0.057l-0.059,-0.055l-0.059,-0.055l-0.06,-0.054l-0.061,-0.053l-0.061,-0.053l-0.062,-0.052l-0.063,-0.051l-0.063,-0.051l-0.064,-0.049l-0.064,-0.049l-0.065,-0.048l-0.066,-0.048l-0.066,-0.047l-0.067,-0.045l-0.067,-0.045l-0.068,-0.045l-0.069,-0.043l-0.069,-0.043l-0.069,-0.042l-0.071,-0.041l-0.07,-0.04l-0.071,-0.039l-0.072,-0.039l-0.072,-0.038l-0.073,-0.036l-0.073,-0.036l-0.074,-0.036l-0.074,-0.034l-0.075,-0.033l-0.075,-0.033l-0.076,-0.031l-0.076,-0.031l-0.077,-0.03l-0.077,-0.028l-0.077,-0.028l-0.078,-0.027l-0.078,-0.026l-0.079,-0.026l-0.079,-0.024l-0.08,-0.023l-0.08,-0.022l-0.08,-0.021l-0.081,-0.021l-0.081,-0.019l-0.081,-0.019l-0.082,-0.017l-0.082,-0.016l-0.083,-0.016l-0.083,-0.014l-0.083,-0.013l-0.084,-0.013l-0.084,-0.011l-0.084,-0.01l-0.085,-0.009l-0.084,-0.008l-0.086,-0.007l-0.085,-0.006l-0.086,-0.005l-0.086,-0.004l-0.086,-0.003l-0.087,-0.001l-0.087,-0.001l-0.086,0.001Z" style="fill:rgb(28,28,28);"/>
                </g>
                <g transform="matrix(0.971715,0,0,0.98163,9.97998,-198.522)">
                    <path d="M427.961,234c0.026,0.332 0.039,0.668 0.039,1.007c0,0.678 -0.052,1.343 -0.152,1.993l-3.834,0c0.141,-0.642 0.216,-1.309 0.216,-1.993c0,-0.34 -0.018,-0.676 -0.054,-1.007l3.785,0Z" style="fill:rgb(47,57,65);"/>
                    <path d="M427.97,234.125l0.008,0.125l0.007,0.125l0.005,0.126l0.005,0.126l0.003,0.126l0.001,0.127l0.001,0.127l-0.001,0.127l-0.001,0.127l-0.003,0.126l-0.005,0.126l-0.005,0.126l-0.007,0.125l-0.008,0.125l-0.009,0.125l-0.01,0.124l-0.011,0.125l-0.012,0.123l-0.014,0.124l-0.015,0.123l-0.016,0.123l-0.017,0.122l-0.018,0.122l-3.834,0l0.026,-0.121l0.024,-0.121l0.022,-0.122l0.021,-0.122l0.02,-0.123l0.017,-0.123l0.017,-0.124l0.014,-0.125l0.013,-0.125l0.011,-0.125l0.009,-0.126l0.008,-0.126l0.006,-0.127l0.005,-0.127l0.002,-0.128l0.001,-0.128l-0.001,-0.127l-0.002,-0.127l-0.005,-0.127l-0.006,-0.126l-0.007,-0.126l-0.01,-0.125l-0.011,-0.125l-0.012,-0.124l3.785,0l0.009,0.125Zm-3.481,0.161l0.005,0.069l0.008,0.129l0.006,0.13l0.005,0.131l0.003,0.131l0,0.131l0,0.132l-0.003,0.132l-0.005,0.131l-0.006,0.13l-0.008,0.131l-0.01,0.129l-0.011,0.13l-0.013,0.128l-0.015,0.129l-0.017,0.128l-0.018,0.127l-0.02,0.126l-0.022,0.127l-0.005,0.027l3.237,0l0.015,-0.117l0.014,-0.12l0.014,-0.121l0.012,-0.121l0.011,-0.121l0.01,-0.122l0.009,-0.122l0.007,-0.122l0.007,-0.123l0.005,-0.123l0.004,-0.123l0.003,-0.124l0.002,-0.124l0.001,-0.124l-0.001,-0.124l-0.002,-0.124l-0.003,-0.124l-0.004,-0.123l-0.005,-0.123l-0.006,-0.103l-3.204,0Z" style="fill:rgb(28,28,28);"/>
                </g>
                <g transform="matrix(0.971715,0,0,0.98163,9.97998,-198.522)">
                    <path d="M405.824,234c-0.036,0.331 -0.054,0.667 -0.054,1.007c0,0.684 0.075,1.351 0.216,1.993l-3.834,0c-0.1,-0.65 -0.152,-1.315 -0.152,-1.993c0,-0.339 0.013,-0.675 0.039,-1.007l3.785,0Z" style="fill:rgb(47,57,65);"/>
                    <path d="M405.812,234.124l-0.011,0.125l-0.01,0.125l-0.007,0.126l-0.006,0.126l-0.005,0.127l-0.002,0.127l-0.001,0.127l0.001,0.128l0.002,0.128l0.005,0.127l0.006,0.127l0.008,0.126l0.009,0.126l0.011,0.125l0.013,0.125l0.014,0.125l0.017,0.124l0.017,0.123l0.02,0.123l0.021,0.122l0.022,0.122l0.024,0.121l0.026,0.121l-3.834,0l-0.018,-0.122l-0.017,-0.122l-0.016,-0.123l-0.015,-0.123l-0.014,-0.124l-0.012,-0.123l-0.011,-0.125l-0.01,-0.124l-0.009,-0.125l-0.008,-0.125l-0.007,-0.125l-0.005,-0.126l-0.005,-0.126l-0.003,-0.126l-0.001,-0.127l-0.001,-0.127l0.001,-0.127l0.001,-0.127l0.003,-0.126l0.005,-0.126l0.005,-0.126l0.007,-0.125l0.008,-0.125l0.009,-0.125l3.785,0l-0.012,0.124Zm-3.505,0.162l-0.006,0.103l-0.005,0.123l-0.004,0.123l-0.003,0.124l-0.002,0.124l-0.001,0.124l0.001,0.124l0.002,0.124l0.003,0.124l0.004,0.123l0.005,0.123l0.007,0.123l0.007,0.122l0.009,0.122l0.01,0.122l0.011,0.121l0.012,0.121l0.014,0.121l0.014,0.12l0.015,0.117l3.237,0l-0.005,-0.027l-0.022,-0.127l-0.02,-0.126l-0.018,-0.127l-0.017,-0.128l-0.015,-0.129l-0.013,-0.128l-0.011,-0.13l-0.01,-0.129l-0.008,-0.131l-0.006,-0.13l-0.005,-0.131l-0.003,-0.132l0,-0.132l0,-0.131l0.003,-0.131l0.005,-0.131l0.006,-0.13l0.008,-0.129l0.005,-0.069l-3.204,0Z" style="fill:rgb(28,28,28);"/>
                </g>
            </g>
        </g>
    </g>
</svg>
