<?xml version="1.0" encoding="UTF-8" standalone="no"?>
<!DOCTYPE svg PUBLIC "-//W3C//DTD SVG 1.1//EN" "http://www.w3.org/Graphics/SVG/1.1/DTD/svg11.dtd">
<svg width="15px" height="15px" version="1.1" xmlns="http://www.w3.org/2000/svg" xmlns:xlink="http://www.w3.org/1999/xlink" xml:space="preserve" xmlns:serif="http://www.serif.com/" style="fill-rule:evenodd;clip-rule:evenodd;stroke-linejoin:round;stroke-miterlimit:2;">
    <g transform="matrix(1,0,0,1,-14,-362)">
        <g transform="matrix(0.975,0,0,1.26667,-97.5,-126.667)">
            <g id="screw" transform="matrix(0.947532,0,0,0.729351,82.0711,255.888)">
                <g transform="matrix(0.271228,0,0,0.277277,25.284,129.168)">
                    <ellipse cx="62.346" cy="205.772" rx="27.652" ry="27.049" style="fill:rgb(86,96,104);"/>
                    <path d="M62.703,178.726l0.356,0.006l0.355,0.011l0.354,0.016l0.353,0.019l0.351,0.025l0.351,0.028l0.349,0.032l0.347,0.037l0.347,0.041l0.345,0.045l0.344,0.049l0.342,0.054l0.341,0.057l0.34,0.062l0.338,0.066l0.337,0.069l0.335,0.074l0.333,0.077l0.332,0.082l0.331,0.085l0.328,0.089l0.328,0.094l0.325,0.096l0.324,0.101l0.322,0.105l0.32,0.108l0.319,0.112l0.316,0.116l0.315,0.119l0.313,0.123l0.311,0.127l0.309,0.13l0.307,0.134l0.306,0.137l0.303,0.141l0.301,0.144l0.299,0.148l0.297,0.151l0.295,0.154l0.293,0.158l0.29,0.161l0.289,0.165l0.286,0.168l0.284,0.171l0.282,0.174l0.279,0.178l0.277,0.181l0.275,0.184l0.272,0.187l0.27,0.19l0.267,0.193l0.265,0.196l0.263,0.2l0.26,0.202l0.257,0.205l0.255,0.209l0.252,0.211l0.25,0.214l0.247,0.217l0.244,0.22l0.241,0.222l0.239,0.226l0.236,0.228l0.233,0.231l0.231,0.233l0.227,0.236l0.225,0.239l0.222,0.242l0.219,0.244l0.215,0.247l0.213,0.249l0.21,0.252l0.207,0.254l0.204,0.257l0.201,0.259l0.197,0.262l0.194,0.263l0.192,0.267l0.188,0.269l0.185,0.27l0.181,0.274l0.178,0.275l0.175,0.278l0.172,0.28l0.168,0.282l0.165,0.284l0.161,0.287l0.158,0.288l0.155,0.291l0.151,0.292l0.147,0.295l0.144,0.297l0.141,0.298l0.136,0.301l0.134,0.302l0.129,0.304l0.126,0.306l0.122,0.308l0.118,0.31l0.114,0.312l0.111,0.313l0.107,0.315l0.103,0.317l0.099,0.318l0.095,0.32l0.092,0.322l0.087,0.323l0.083,0.325l0.079,0.326l0.076,0.328l0.071,0.329l0.067,0.331l0.063,0.332l0.059,0.333l0.054,0.335l0.051,0.337l0.046,0.337l0.042,0.339l0.037,0.34l0.033,0.342l0.029,0.342l0.025,0.344l0.02,0.345l0.016,0.346l0.011,0.348l0.007,0.348l0.002,0.349l-0.002,0.35l-0.007,0.348l-0.011,0.347l-0.016,0.346l-0.02,0.345l-0.025,0.344l-0.029,0.343l-0.033,0.341l-0.037,0.34l-0.042,0.339l-0.046,0.338l-0.051,0.336l-0.054,0.335l-0.059,0.334l-0.063,0.332l-0.067,0.331l-0.071,0.329l-0.076,0.328l-0.079,0.326l-0.083,0.325l-0.087,0.323l-0.092,0.322l-0.095,0.32l-0.099,0.318l-0.103,0.317l-0.107,0.315l-0.111,0.313l-0.114,0.312l-0.118,0.309l-0.122,0.308l-0.126,0.306l-0.129,0.305l-0.134,0.302l-0.136,0.301l-0.141,0.298l-0.144,0.297l-0.147,0.294l-0.151,0.293l-0.155,0.29l-0.158,0.289l-0.161,0.286l-0.165,0.285l-0.168,0.282l-0.172,0.28l-0.175,0.277l-0.178,0.276l-0.181,0.273l-0.185,0.271l-0.188,0.269l-0.192,0.266l-0.194,0.264l-0.197,0.262l-0.201,0.259l-0.204,0.257l-0.207,0.254l-0.21,0.252l-0.213,0.249l-0.215,0.247l-0.219,0.244l-0.222,0.241l-0.225,0.239l-0.227,0.236l-0.231,0.234l-0.233,0.231l-0.236,0.228l-0.239,0.225l-0.241,0.223l-0.244,0.22l-0.247,0.217l-0.25,0.214l-0.252,0.211l-0.255,0.208l-0.257,0.206l-0.26,0.202l-0.263,0.199l-0.265,0.197l-0.267,0.193l-0.27,0.19l-0.272,0.187l-0.275,0.184l-0.277,0.181l-0.279,0.177l-0.282,0.175l-0.284,0.171l-0.286,0.168l-0.289,0.164l-0.29,0.162l-0.293,0.157l-0.295,0.155l-0.297,0.151l-0.299,0.148l-0.301,0.144l-0.303,0.141l-0.306,0.137l-0.307,0.134l-0.309,0.13l-0.311,0.127l-0.313,0.123l-0.315,0.119l-0.316,0.116l-0.319,0.112l-0.32,0.108l-0.322,0.104l-0.324,0.101l-0.325,0.097l-0.328,0.093l-0.328,0.09l-0.331,0.085l-0.332,0.081l-0.333,0.078l-0.335,0.074l-0.337,0.069l-0.338,0.066l-0.34,0.061l-0.341,0.058l-0.342,0.053l-0.344,0.049l-0.345,0.046l-0.347,0.041l-0.347,0.036l-0.349,0.033l-0.351,0.028l-0.351,0.024l-0.353,0.02l-0.354,0.015l-0.355,0.011l-0.356,0.007l-0.357,0.002l-0.357,-0.002l-0.356,-0.007l-0.355,-0.011l-0.354,-0.015l-0.353,-0.02l-0.351,-0.024l-0.351,-0.028l-0.349,-0.033l-0.347,-0.036l-0.347,-0.041l-0.345,-0.046l-0.344,-0.049l-0.342,-0.053l-0.341,-0.058l-0.34,-0.061l-0.338,-0.066l-0.337,-0.069l-0.335,-0.074l-0.333,-0.078l-0.332,-0.081l-0.331,-0.085l-0.328,-0.09l-0.328,-0.093l-0.325,-0.097l-0.324,-0.101l-0.322,-0.104l-0.32,-0.108l-0.319,-0.112l-0.316,-0.116l-0.315,-0.119l-0.313,-0.123l-0.311,-0.127l-0.309,-0.13l-0.307,-0.134l-0.306,-0.137l-0.303,-0.141l-0.301,-0.144l-0.299,-0.148l-0.297,-0.151l-0.295,-0.155l-0.293,-0.157l-0.29,-0.162l-0.289,-0.164l-0.286,-0.168l-0.284,-0.171l-0.282,-0.175l-0.279,-0.177l-0.277,-0.181l-0.275,-0.184l-0.272,-0.187l-0.27,-0.19l-0.267,-0.193l-0.265,-0.197l-0.263,-0.199l-0.26,-0.202l-0.257,-0.206l-0.255,-0.208l-0.252,-0.211l-0.25,-0.214l-0.247,-0.217l-0.244,-0.22l-0.241,-0.223l-0.239,-0.225l-0.236,-0.228l-0.233,-0.231l-0.231,-0.234l-0.227,-0.236l-0.225,-0.239l-0.222,-0.241l-0.219,-0.244l-0.215,-0.247l-0.213,-0.249l-0.21,-0.252l-0.207,-0.254l-0.204,-0.257l-0.201,-0.259l-0.197,-0.262l-0.195,-0.264l-0.191,-0.266l-0.188,-0.269l-0.185,-0.271l-0.181,-0.273l-0.178,-0.276l-0.175,-0.277l-0.172,-0.28l-0.168,-0.282l-0.165,-0.285l-0.161,-0.286l-0.158,-0.289l-0.155,-0.29l-0.151,-0.293l-0.147,-0.294l-0.144,-0.297l-0.141,-0.298l-0.136,-0.301l-0.134,-0.302l-0.129,-0.305l-0.126,-0.306l-0.122,-0.308l-0.118,-0.309l-0.114,-0.312l-0.111,-0.313l-0.107,-0.315l-0.103,-0.317l-0.099,-0.318l-0.095,-0.32l-0.092,-0.322l-0.087,-0.323l-0.083,-0.325l-0.079,-0.326l-0.076,-0.328l-0.071,-0.329l-0.067,-0.331l-0.063,-0.332l-0.059,-0.334l-0.054,-0.335l-0.051,-0.336l-0.046,-0.338l-0.042,-0.339l-0.037,-0.34l-0.033,-0.341l-0.029,-0.343l-0.025,-0.344l-0.02,-0.345l-0.016,-0.346l-0.011,-0.347l-0.007,-0.348l-0.002,-0.35l0.002,-0.349l0.007,-0.348l0.011,-0.348l0.016,-0.346l0.02,-0.345l0.025,-0.344l0.029,-0.342l0.033,-0.342l0.037,-0.34l0.042,-0.339l0.046,-0.337l0.051,-0.337l0.054,-0.335l0.059,-0.333l0.063,-0.332l0.067,-0.331l0.071,-0.329l0.076,-0.328l0.079,-0.326l0.083,-0.325l0.087,-0.323l0.092,-0.322l0.095,-0.32l0.099,-0.318l0.103,-0.317l0.107,-0.315l0.111,-0.313l0.114,-0.312l0.118,-0.31l0.122,-0.308l0.126,-0.306l0.129,-0.304l0.134,-0.302l0.136,-0.301l0.141,-0.298l0.144,-0.297l0.147,-0.295l0.151,-0.292l0.155,-0.291l0.158,-0.288l0.161,-0.287l0.165,-0.284l0.168,-0.282l0.172,-0.28l0.175,-0.278l0.178,-0.275l0.181,-0.274l0.185,-0.27l0.188,-0.269l0.191,-0.267l0.195,-0.263l0.197,-0.262l0.201,-0.259l0.204,-0.257l0.207,-0.254l0.21,-0.252l0.213,-0.249l0.215,-0.247l0.219,-0.244l0.222,-0.242l0.225,-0.239l0.227,-0.236l0.231,-0.233l0.233,-0.231l0.236,-0.228l0.239,-0.226l0.241,-0.222l0.244,-0.22l0.247,-0.217l0.25,-0.214l0.252,-0.211l0.255,-0.209l0.257,-0.205l0.26,-0.202l0.263,-0.2l0.265,-0.196l0.267,-0.193l0.27,-0.19l0.272,-0.187l0.275,-0.184l0.277,-0.181l0.279,-0.178l0.282,-0.174l0.284,-0.171l0.286,-0.168l0.289,-0.165l0.29,-0.161l0.293,-0.158l0.295,-0.154l0.297,-0.151l0.299,-0.148l0.301,-0.144l0.303,-0.141l0.306,-0.137l0.307,-0.134l0.309,-0.13l0.311,-0.127l0.313,-0.123l0.315,-0.119l0.316,-0.116l0.319,-0.112l0.32,-0.108l0.322,-0.105l0.324,-0.101l0.325,-0.096l0.328,-0.094l0.328,-0.089l0.331,-0.085l0.332,-0.082l0.333,-0.077l0.335,-0.074l0.337,-0.069l0.338,-0.066l0.34,-0.062l0.341,-0.057l0.342,-0.054l0.344,-0.049l0.345,-0.045l0.347,-0.041l0.347,-0.037l0.349,-0.032l0.351,-0.028l0.351,-0.025l0.353,-0.019l0.354,-0.016l0.355,-0.011l0.356,-0.006l0.357,-0.002l0.357,0.002Zm-0.694,1.565l-0.336,0.006l-0.334,0.011l-0.334,0.014l-0.332,0.019l-0.332,0.023l-0.33,0.026l-0.329,0.031l-0.327,0.035l-0.327,0.038l-0.325,0.043l-0.324,0.046l-0.322,0.05l-0.321,0.055l-0.32,0.058l-0.319,0.061l-0.317,0.066l-0.315,0.069l-0.315,0.073l-0.312,0.077l-0.311,0.08l-0.31,0.084l-0.308,0.088l-0.306,0.091l-0.305,0.095l-0.303,0.099l-0.302,0.102l-0.3,0.105l-0.298,0.109l-0.297,0.112l-0.294,0.116l-0.293,0.119l-0.291,0.123l-0.29,0.126l-0.287,0.129l-0.286,0.133l-0.283,0.136l-0.282,0.139l-0.28,0.142l-0.278,0.146l-0.276,0.149l-0.273,0.152l-0.272,0.155l-0.269,0.157l-0.268,0.162l-0.266,0.164l-0.263,0.168l-0.261,0.17l-0.259,0.173l-0.256,0.176l-0.254,0.179l-0.252,0.183l-0.25,0.185l-0.248,0.188l-0.245,0.19l-0.242,0.194l-0.24,0.196l-0.238,0.199l-0.235,0.202l-0.233,0.204l-0.23,0.208l-0.228,0.209l-0.225,0.213l-0.222,0.215l-0.22,0.218l-0.217,0.22l-0.215,0.222l-0.212,0.225l-0.209,0.228l-0.206,0.23l-0.203,0.233l-0.201,0.235l-0.198,0.237l-0.195,0.239l-0.192,0.242l-0.189,0.245l-0.186,0.246l-0.183,0.249l-0.181,0.251l-0.177,0.253l-0.174,0.255l-0.171,0.258l-0.168,0.26l-0.165,0.261l-0.161,0.264l-0.159,0.266l-0.155,0.268l-0.152,0.27l-0.149,0.271l-0.146,0.274l-0.142,0.275l-0.139,0.278l-0.135,0.279l-0.132,0.281l-0.129,0.283l-0.126,0.285l-0.122,0.287l-0.118,0.288l-0.115,0.29l-0.111,0.292l-0.108,0.293l-0.104,0.295l-0.101,0.297l-0.097,0.298l-0.093,0.3l-0.09,0.301l-0.086,0.303l-0.082,0.304l-0.078,0.306l-0.075,0.307l-0.071,0.309l-0.067,0.31l-0.063,0.312l-0.059,0.313l-0.056,0.314l-0.051,0.315l-0.047,0.317l-0.044,0.318l-0.039,0.319l-0.036,0.321l-0.031,0.321l-0.027,0.323l-0.024,0.325l-0.019,0.325l-0.014,0.326l-0.011,0.327l-0.006,0.329l-0.002,0.329l0.002,0.33l0.006,0.328l0.011,0.328l0.014,0.326l0.019,0.325l0.024,0.324l0.027,0.323l0.031,0.322l0.036,0.32l0.039,0.32l0.044,0.318l0.047,0.317l0.051,0.315l0.056,0.314l0.059,0.313l0.063,0.311l0.067,0.311l0.071,0.308l0.075,0.308l0.078,0.305l0.082,0.305l0.086,0.303l0.09,0.301l0.093,0.3l0.097,0.298l0.101,0.297l0.104,0.295l0.108,0.293l0.111,0.292l0.115,0.289l0.119,0.289l0.121,0.286l0.126,0.285l0.128,0.283l0.133,0.281l0.135,0.28l0.139,0.277l0.142,0.276l0.146,0.274l0.149,0.271l0.152,0.27l0.155,0.268l0.159,0.265l0.161,0.264l0.165,0.262l0.168,0.26l0.171,0.257l0.174,0.256l0.178,0.253l0.18,0.251l0.183,0.249l0.186,0.246l0.189,0.244l0.192,0.242l0.195,0.24l0.198,0.237l0.201,0.235l0.203,0.232l0.206,0.231l0.209,0.227l0.212,0.225l0.215,0.223l0.217,0.22l0.22,0.218l0.222,0.215l0.225,0.212l0.228,0.21l0.23,0.207l0.233,0.205l0.235,0.202l0.238,0.199l0.24,0.196l0.242,0.193l0.245,0.191l0.248,0.188l0.249,0.185l0.252,0.182l0.255,0.179l0.256,0.177l0.259,0.173l0.261,0.17l0.263,0.168l0.266,0.164l0.267,0.161l0.27,0.158l0.272,0.155l0.273,0.152l0.276,0.149l0.278,0.145l0.28,0.143l0.282,0.139l0.283,0.136l0.286,0.133l0.287,0.129l0.29,0.126l0.291,0.122l0.293,0.119l0.294,0.116l0.297,0.113l0.298,0.109l0.3,0.105l0.302,0.102l0.303,0.099l0.305,0.094l0.306,0.092l0.308,0.087l0.31,0.084l0.311,0.081l0.313,0.077l0.314,0.073l0.315,0.069l0.317,0.065l0.319,0.062l0.319,0.058l0.322,0.054l0.322,0.051l0.324,0.046l0.326,0.042l0.326,0.039l0.327,0.035l0.329,0.03l0.33,0.027l0.331,0.023l0.333,0.018l0.334,0.015l0.335,0.01l0.335,0.006l0.337,0.003l0.337,-0.003l0.335,-0.006l0.335,-0.01l0.334,-0.015l0.333,-0.018l0.331,-0.023l0.33,-0.027l0.329,-0.03l0.327,-0.035l0.326,-0.039l0.326,-0.042l0.324,-0.046l0.322,-0.051l0.322,-0.054l0.319,-0.058l0.319,-0.062l0.317,-0.065l0.315,-0.069l0.314,-0.073l0.313,-0.077l0.311,-0.081l0.31,-0.084l0.308,-0.087l0.306,-0.092l0.305,-0.094l0.303,-0.099l0.302,-0.102l0.3,-0.105l0.298,-0.109l0.297,-0.113l0.294,-0.116l0.293,-0.119l0.291,-0.122l0.29,-0.126l0.287,-0.129l0.286,-0.133l0.283,-0.136l0.282,-0.139l0.28,-0.143l0.278,-0.145l0.276,-0.149l0.273,-0.152l0.272,-0.155l0.27,-0.158l0.267,-0.161l0.266,-0.164l0.263,-0.168l0.261,-0.17l0.258,-0.173l0.257,-0.177l0.255,-0.179l0.252,-0.182l0.249,-0.185l0.248,-0.188l0.245,-0.191l0.242,-0.193l0.24,-0.196l0.238,-0.199l0.235,-0.202l0.233,-0.205l0.23,-0.207l0.228,-0.21l0.225,-0.212l0.222,-0.215l0.22,-0.218l0.217,-0.22l0.215,-0.223l0.212,-0.225l0.209,-0.227l0.206,-0.231l0.203,-0.232l0.201,-0.235l0.198,-0.237l0.195,-0.24l0.192,-0.242l0.189,-0.244l0.186,-0.246l0.183,-0.249l0.18,-0.251l0.178,-0.253l0.174,-0.256l0.171,-0.257l0.168,-0.26l0.165,-0.262l0.161,-0.264l0.159,-0.265l0.155,-0.268l0.152,-0.27l0.149,-0.271l0.146,-0.274l0.142,-0.276l0.139,-0.277l0.135,-0.28l0.133,-0.281l0.128,-0.283l0.126,-0.285l0.121,-0.286l0.119,-0.289l0.115,-0.289l0.111,-0.292l0.108,-0.293l0.104,-0.295l0.101,-0.297l0.097,-0.298l0.093,-0.3l0.09,-0.301l0.086,-0.303l0.082,-0.305l0.078,-0.305l0.075,-0.308l0.071,-0.308l0.067,-0.311l0.063,-0.311l0.059,-0.313l0.056,-0.314l0.051,-0.315l0.047,-0.317l0.044,-0.318l0.039,-0.32l0.036,-0.32l0.031,-0.322l0.027,-0.323l0.024,-0.324l0.019,-0.325l0.014,-0.326l0.011,-0.328l0.006,-0.328l0.002,-0.33l-0.002,-0.329l-0.006,-0.329l-0.011,-0.327l-0.014,-0.326l-0.019,-0.325l-0.024,-0.325l-0.027,-0.323l-0.031,-0.321l-0.036,-0.321l-0.039,-0.319l-0.044,-0.318l-0.047,-0.317l-0.051,-0.315l-0.056,-0.314l-0.059,-0.313l-0.063,-0.312l-0.067,-0.31l-0.071,-0.309l-0.075,-0.307l-0.078,-0.306l-0.082,-0.304l-0.086,-0.303l-0.09,-0.301l-0.093,-0.3l-0.097,-0.298l-0.101,-0.297l-0.104,-0.295l-0.108,-0.293l-0.111,-0.292l-0.115,-0.29l-0.118,-0.288l-0.122,-0.287l-0.126,-0.285l-0.129,-0.283l-0.132,-0.281l-0.135,-0.279l-0.139,-0.278l-0.142,-0.275l-0.146,-0.274l-0.149,-0.271l-0.152,-0.27l-0.155,-0.268l-0.159,-0.266l-0.161,-0.264l-0.165,-0.261l-0.168,-0.26l-0.171,-0.258l-0.174,-0.255l-0.177,-0.253l-0.181,-0.251l-0.183,-0.249l-0.186,-0.246l-0.189,-0.245l-0.192,-0.242l-0.195,-0.239l-0.198,-0.237l-0.201,-0.235l-0.203,-0.233l-0.206,-0.23l-0.209,-0.228l-0.212,-0.225l-0.215,-0.222l-0.217,-0.22l-0.22,-0.218l-0.222,-0.215l-0.225,-0.213l-0.228,-0.209l-0.23,-0.208l-0.233,-0.204l-0.235,-0.202l-0.238,-0.199l-0.24,-0.196l-0.242,-0.194l-0.245,-0.19l-0.248,-0.188l-0.25,-0.185l-0.252,-0.183l-0.254,-0.179l-0.256,-0.176l-0.259,-0.173l-0.261,-0.17l-0.263,-0.168l-0.266,-0.164l-0.268,-0.162l-0.269,-0.157l-0.272,-0.155l-0.273,-0.152l-0.276,-0.149l-0.278,-0.146l-0.28,-0.142l-0.282,-0.139l-0.283,-0.136l-0.286,-0.133l-0.287,-0.129l-0.29,-0.126l-0.291,-0.123l-0.293,-0.119l-0.294,-0.116l-0.297,-0.112l-0.298,-0.109l-0.3,-0.105l-0.302,-0.102l-0.303,-0.099l-0.305,-0.095l-0.306,-0.091l-0.308,-0.088l-0.31,-0.084l-0.311,-0.08l-0.312,-0.077l-0.315,-0.073l-0.315,-0.069l-0.317,-0.066l-0.319,-0.061l-0.32,-0.058l-0.321,-0.055l-0.322,-0.05l-0.324,-0.046l-0.325,-0.043l-0.327,-0.038l-0.327,-0.035l-0.329,-0.031l-0.33,-0.026l-0.332,-0.023l-0.332,-0.019l-0.334,-0.014l-0.334,-0.011l-0.336,-0.006l-0.337,-0.002l-0.337,0.002Z" style="fill:rgb(19,22,26);"/>
                </g>
                <g transform="matrix(0.841557,-0.841557,0.841557,0.841557,-150.032,65.0145)">
                    <path d="M42.771,181.4c0.319,0 0.578,0.259 0.578,0.578l0,3.091l3.091,0c0.319,0 0.577,0.258 0.577,0.577l0,1.155c0,0.319 -0.258,0.577 -0.577,0.577l-3.091,0l0,3.091c0,0.319 -0.259,0.578 -0.578,0.578l-1.154,0c-0.319,0 -0.578,-0.259 -0.578,-0.578l0,-3.091l-3.091,0c-0.319,0 -0.577,-0.258 -0.577,-0.577l0,-1.155c0,-0.319 0.258,-0.577 0.577,-0.577l3.091,0l0,-3.091c0,-0.319 0.259,-0.578 0.578,-0.578l1.154,0Z" style="fill:rgb(19,22,26);"/>
                    <path d="M46.867,185.258l0.018,0.021l0.018,0.022l0.016,0.022l0.015,0.024l0.014,0.024l0.012,0.025l0.012,0.025l0.01,0.027l0.009,0.026l0.008,0.028l0.007,0.028l0.005,0.028l0.003,0.029l0.003,0.029l0,0.03l0,1.155l0,0.03l-0.003,0.029l-0.003,0.029l-0.005,0.028l-0.007,0.028l-0.008,0.028l-0.009,0.026l-0.01,0.027l-0.012,0.025l-0.012,0.025l-0.014,0.024l-0.015,0.024l-0.016,0.022l-0.018,0.022l-0.018,0.021l-0.019,0.02l-0.02,0.019l-0.021,0.019l-0.022,0.017l-0.022,0.016l-0.024,0.015l-0.024,0.014l-0.025,0.012l-0.025,0.012l-0.027,0.01l-0.026,0.009l-0.028,0.008l-0.028,0.007l-0.028,0.005l-0.029,0.003l-0.029,0.003l-0.03,0l-3.091,0l0,3.091l-0.001,0.03l-0.002,0.029l-0.004,0.029l-0.005,0.029l-0.006,0.028l-0.008,0.027l-0.009,0.027l-0.011,0.026l-0.011,0.026l-0.013,0.025l-0.014,0.024l-0.015,0.023l-0.016,0.023l-0.017,0.022l-0.018,0.021l-0.019,0.02l-0.02,0.019l-0.021,0.018l-0.022,0.017l-0.023,0.016l-0.023,0.015l-0.024,0.014l-0.025,0.013l-0.026,0.012l-0.026,0.01l-0.027,0.009l-0.027,0.008l-0.028,0.006l-0.029,0.005l-0.029,0.004l-0.029,0.002l-0.03,0.001l-1.154,0l-0.03,-0.001l-0.029,-0.002l-0.029,-0.004l-0.029,-0.005l-0.028,-0.006l-0.027,-0.008l-0.027,-0.009l-0.026,-0.01l-0.026,-0.012l-0.025,-0.013l-0.024,-0.014l-0.023,-0.015l-0.023,-0.016l-0.022,-0.017l-0.021,-0.018l-0.02,-0.019l-0.019,-0.02l-0.018,-0.021l-0.017,-0.022l-0.016,-0.023l-0.015,-0.023l-0.014,-0.024l-0.013,-0.025l-0.011,-0.026l-0.011,-0.026l-0.009,-0.027l-0.008,-0.027l-0.006,-0.028l-0.005,-0.029l-0.004,-0.029l-0.002,-0.029l-0.001,-0.03l0,-3.091l-3.091,0l-0.03,0l-0.029,-0.003l-0.029,-0.003l-0.028,-0.005l-0.028,-0.007l-0.028,-0.008l-0.026,-0.009l-0.027,-0.01l-0.025,-0.012l-0.025,-0.012l-0.024,-0.014l-0.024,-0.015l-0.022,-0.016l-0.022,-0.017l-0.021,-0.019l-0.02,-0.019l-0.019,-0.02l-0.018,-0.021l-0.018,-0.022l-0.016,-0.022l-0.015,-0.024l-0.014,-0.024l-0.012,-0.025l-0.012,-0.025l-0.01,-0.027l-0.009,-0.026l-0.008,-0.028l-0.007,-0.028l-0.005,-0.028l-0.003,-0.029l-0.003,-0.029l0,-0.03l0,-1.155l0,-0.03l0.003,-0.029l0.003,-0.029l0.005,-0.028l0.007,-0.028l0.008,-0.028l0.009,-0.026l0.01,-0.027l0.012,-0.025l0.012,-0.025l0.014,-0.024l0.015,-0.024l0.016,-0.022l0.018,-0.022l0.018,-0.021l0.019,-0.02l0.02,-0.019l0.021,-0.018l0.022,-0.018l0.022,-0.016l0.024,-0.015l0.024,-0.014l0.025,-0.012l0.025,-0.012l0.027,-0.01l0.026,-0.009l0.028,-0.008l0.028,-0.007l0.028,-0.005l0.029,-0.003l0.029,-0.003l0.03,0l3.091,0l0,-3.091l0.001,-0.03l0.002,-0.029l0.004,-0.029l0.005,-0.029l0.006,-0.028l0.008,-0.027l0.009,-0.027l0.011,-0.026l0.011,-0.026l0.013,-0.024l0.014,-0.025l0.015,-0.023l0.016,-0.023l0.017,-0.022l0.018,-0.021l0.019,-0.02l0.02,-0.019l0.021,-0.018l0.022,-0.017l0.023,-0.016l0.023,-0.015l0.024,-0.014l0.025,-0.013l0.026,-0.011l0.026,-0.011l0.027,-0.009l0.027,-0.008l0.028,-0.006l0.029,-0.005l0.029,-0.004l0.029,-0.002l0.03,-0.001l1.154,0l0.03,0.001l0.029,0.002l0.029,0.004l0.029,0.005l0.028,0.006l0.027,0.008l0.027,0.009l0.026,0.011l0.026,0.011l0.025,0.013l0.024,0.014l0.023,0.015l0.023,0.016l0.022,0.017l0.021,0.018l0.02,0.019l0.019,0.02l0.018,0.021l0.017,0.022l0.016,0.023l0.015,0.023l0.014,0.025l0.013,0.024l0.011,0.026l0.011,0.026l0.009,0.027l0.008,0.027l0.006,0.028l0.005,0.029l0.004,0.029l0.002,0.029l0.001,0.03l0,3.091l3.091,0l0.03,0l0.029,0.003l0.029,0.003l0.028,0.005l0.028,0.007l0.028,0.008l0.026,0.009l0.027,0.01l0.025,0.012l0.025,0.012l0.024,0.014l0.024,0.015l0.022,0.016l0.022,0.018l0.021,0.018l0.02,0.019l0.019,0.02Zm-0.284,0.231l-0.008,-0.007l-0.008,-0.006l-0.009,-0.006l-0.008,-0.006l-0.009,-0.005l-0.009,-0.005l-0.01,-0.004l-0.009,-0.004l-0.01,-0.003l-0.01,-0.003l-0.01,-0.002l-0.01,-0.002l-0.011,-0.001l-0.011,-0.001l-0.016,-0.001l-3.086,0l-0.034,-0.001l-0.033,-0.005l-0.033,-0.007l-0.032,-0.011l-0.031,-0.014l-0.029,-0.016l-0.028,-0.019l-0.026,-0.022l-0.024,-0.024l-0.021,-0.026l-0.019,-0.027l-0.017,-0.03l-0.013,-0.031l-0.011,-0.032l-0.008,-0.032l-0.004,-0.034l-0.002,-0.033l0,-3.087l0,-0.016l-0.001,-0.011l-0.001,-0.01l-0.002,-0.01l-0.003,-0.011l-0.002,-0.01l-0.004,-0.009l-0.003,-0.01l-0.005,-0.009l-0.004,-0.009l-0.005,-0.009l-0.006,-0.009l-0.006,-0.008l-0.006,-0.008l-0.007,-0.008l-0.007,-0.008l-0.008,-0.007l-0.008,-0.006l-0.008,-0.007l-0.008,-0.006l-0.009,-0.005l-0.009,-0.005l-0.009,-0.005l-0.009,-0.004l-0.01,-0.004l-0.009,-0.003l-0.01,-0.003l-0.011,-0.003l-0.01,-0.001l-0.01,-0.002l-0.011,-0.001l-0.016,0l-1.146,0l-0.016,0l-0.011,0.001l-0.01,0.002l-0.011,0.001l-0.01,0.003l-0.01,0.003l-0.009,0.003l-0.01,0.004l-0.009,0.004l-0.009,0.005l-0.009,0.005l-0.009,0.005l-0.008,0.006l-0.008,0.007l-0.008,0.006l-0.008,0.007l-0.007,0.008l-0.007,0.008l-0.006,0.008l-0.006,0.008l-0.005,0.009l-0.006,0.009l-0.004,0.009l-0.004,0.009l-0.004,0.01l-0.004,0.009l-0.002,0.01l-0.003,0.011l-0.002,0.01l-0.001,0.01l-0.001,0.011l0,0.016l0,3.087l-0.002,0.033l-0.004,0.034l-0.008,0.033l-0.011,0.031l-0.013,0.031l-0.017,0.03l-0.019,0.027l-0.021,0.026l-0.024,0.024l-0.026,0.022l-0.028,0.019l-0.029,0.016l-0.031,0.014l-0.032,0.011l-0.033,0.007l-0.033,0.005l-0.034,0.001l-3.086,0l-0.016,0.001l-0.011,0.001l-0.011,0.001l-0.01,0.002l-0.01,0.002l-0.01,0.003l-0.01,0.003l-0.009,0.004l-0.01,0.004l-0.009,0.005l-0.009,0.005l-0.008,0.006l-0.009,0.006l-0.008,0.006l-0.008,0.007l-0.007,0.007l-0.007,0.007l-0.007,0.008l-0.006,0.008l-0.006,0.009l-0.006,0.008l-0.005,0.009l-0.005,0.009l-0.004,0.01l-0.004,0.009l-0.003,0.01l-0.003,0.01l-0.002,0.01l-0.002,0.01l-0.001,0.011l-0.001,0.011l-0.001,0.016l0,1.145l0.001,0.016l0.001,0.011l0.001,0.011l0.002,0.01l0.002,0.01l0.003,0.01l0.003,0.01l0.004,0.01l0.004,0.009l0.005,0.009l0.005,0.009l0.006,0.009l0.006,0.008l0.006,0.008l0.007,0.008l0.007,0.007l0.007,0.007l0.008,0.007l0.008,0.006l0.009,0.006l0.008,0.006l0.009,0.005l0.009,0.005l0.01,0.004l0.009,0.004l0.01,0.003l0.01,0.003l0.01,0.002l0.01,0.002l0.011,0.001l0.011,0.001l0.016,0.001l3.086,0l0.034,0.001l0.033,0.005l0.033,0.008l0.032,0.01l0.031,0.014l0.029,0.016l0.028,0.019l0.026,0.022l0.024,0.024l0.021,0.026l0.019,0.027l0.017,0.03l0.013,0.031l0.011,0.032l0.008,0.032l0.004,0.034l0.002,0.033l0,3.087l0,0.016l0.001,0.011l0.001,0.01l0.002,0.011l0.003,0.01l0.002,0.01l0.004,0.009l0.004,0.01l0.004,0.009l0.004,0.009l0.006,0.009l0.005,0.009l0.006,0.008l0.006,0.008l0.007,0.008l0.007,0.008l0.008,0.007l0.008,0.007l0.008,0.006l0.008,0.006l0.009,0.005l0.009,0.006l0.009,0.004l0.009,0.004l0.01,0.004l0.009,0.004l0.01,0.002l0.01,0.003l0.011,0.002l0.01,0.001l0.011,0.001l0.016,0l1.146,0l0.016,0l0.011,-0.001l0.01,-0.001l0.011,-0.002l0.01,-0.003l0.01,-0.002l0.009,-0.004l0.01,-0.003l0.009,-0.005l0.009,-0.004l0.009,-0.005l0.009,-0.006l0.008,-0.006l0.008,-0.006l0.008,-0.007l0.008,-0.007l0.007,-0.008l0.007,-0.008l0.006,-0.008l0.006,-0.008l0.005,-0.009l0.006,-0.009l0.004,-0.009l0.004,-0.009l0.004,-0.01l0.004,-0.009l0.002,-0.01l0.003,-0.01l0.002,-0.011l0.001,-0.01l0.001,-0.011l0,-0.016l0,-3.087l0.002,-0.033l0.004,-0.034l0.008,-0.032l0.011,-0.032l0.013,-0.031l0.017,-0.03l0.019,-0.027l0.021,-0.026l0.024,-0.024l0.026,-0.022l0.028,-0.019l0.029,-0.016l0.031,-0.014l0.032,-0.01l0.033,-0.008l0.033,-0.005l0.034,-0.001l3.086,0l0.016,-0.001l0.011,-0.001l0.011,-0.001l0.01,-0.002l0.01,-0.002l0.01,-0.003l0.01,-0.003l0.009,-0.004l0.01,-0.004l0.009,-0.005l0.009,-0.005l0.008,-0.006l0.009,-0.005l0.008,-0.007l0.008,-0.007l0.007,-0.007l0.007,-0.007l0.007,-0.008l0.006,-0.008l0.006,-0.009l0.006,-0.008l0.005,-0.009l0.005,-0.009l0.004,-0.01l0.004,-0.009l0.003,-0.01l0.003,-0.01l0.002,-0.01l0.002,-0.01l0.001,-0.011l0.001,-0.011l0.001,-0.016l0,-1.145l-0.001,-0.016l-0.001,-0.011l-0.001,-0.011l-0.002,-0.01l-0.002,-0.01l-0.003,-0.01l-0.003,-0.01l-0.004,-0.009l-0.004,-0.01l-0.005,-0.009l-0.005,-0.009l-0.006,-0.008l-0.006,-0.009l-0.006,-0.008l-0.007,-0.008l-0.007,-0.007l-0.007,-0.007Z" style="fill-opacity:0.5;"/>
                </g>
            </g>
        </g>
    </g>
</svg>
