<?xml version="1.0" encoding="UTF-8" standalone="no"?>
<!DOCTYPE svg PUBLIC "-//W3C//DTD SVG 1.1//EN" "http://www.w3.org/Graphics/SVG/1.1/DTD/svg11.dtd">
<svg width="150px" height="380px" version="1.1" xmlns="http://www.w3.org/2000/svg" xmlns:xlink="http://www.w3.org/1999/xlink" xml:space="preserve" xmlns:serif="http://www.serif.com/" style="fill-rule:evenodd;clip-rule:evenodd;stroke-linecap:round;stroke-linejoin:round;stroke-miterlimit:1.5;">
    <g transform="matrix(1,0,0,1,-225,0)">
        <g transform="matrix(0.994047,0,0,1,5.75872,0)">
            <g id="the-tailor" transform="matrix(1.00599,0,0,1,-5.79321,0)">
                <g transform="matrix(3.94737,0,0,12.0908,-663.158,-31.0875)">
                    <rect x="225" y="2.571" width="38" height="31.429" style="fill:rgb(47,57,65);"/>
                </g>
                <path d="M255,285c-4.591,-8.146 -13.774,-24.437 -15,-38c-1.25,-13.833 3.75,-32.333 7.5,-45c3.259,-11.007 12.5,-22.667 15,-31c1.82,-6.066 0.607,-14.689 0,-19" style="fill:none;stroke:rgb(54,192,173);stroke-width:3.04px;"/>
                <g transform="matrix(1,0,0,1,200.858,-208.366)">
                    <g transform="matrix(16.6667,0,0,16.6667,56.7087,226.171)">
                        <path d="M0.358,-0.032c-0.013,0.012 -0.03,0.021 -0.049,0.028c-0.019,0.006 -0.04,0.009 -0.061,0.009c-0.049,0 -0.087,-0.013 -0.114,-0.04c-0.027,-0.027 -0.04,-0.064 -0.04,-0.113l0,-0.493l0.071,0l0,0.115l0.159,0l0,0.06l-0.159,0l0,0.314c0,0.031 0.008,0.055 0.023,0.072c0.015,0.016 0.038,0.024 0.067,0.024c0.032,0 0.058,-0.009 0.078,-0.027l0.025,0.051Z" style="fill:rgb(235,235,235);fill-rule:nonzero;"/>
                    </g>
                    <g transform="matrix(16.6667,0,0,16.6667,63.1753,226.171)">
                        <path d="M0.367,-0.53c0.066,0 0.118,0.019 0.157,0.058c0.039,0.038 0.059,0.094 0.059,0.167l0,0.305l-0.071,0l0,-0.298c0,-0.055 -0.014,-0.096 -0.041,-0.125c-0.027,-0.029 -0.066,-0.043 -0.117,-0.043c-0.057,0 -0.102,0.017 -0.135,0.051c-0.033,0.033 -0.049,0.08 -0.049,0.139l0,0.276l-0.071,0l0,-0.742l0.071,0l0,0.308c0.019,-0.031 0.046,-0.054 0.08,-0.071c0.034,-0.017 0.073,-0.025 0.117,-0.025Z" style="fill:rgb(235,235,235);fill-rule:nonzero;"/>
                    </g>
                    <g transform="matrix(16.6667,0,0,16.6667,74.492,226.171)">
                        <path d="M0.324,-0.058c0.033,0 0.063,-0.006 0.09,-0.017c0.028,-0.012 0.052,-0.029 0.071,-0.052l0.04,0.046c-0.023,0.028 -0.052,0.049 -0.087,0.064c-0.035,0.015 -0.073,0.022 -0.115,0.022c-0.054,0 -0.102,-0.011 -0.144,-0.034c-0.042,-0.023 -0.075,-0.055 -0.098,-0.096c-0.023,-0.041 -0.035,-0.087 -0.035,-0.138c0,-0.051 0.011,-0.097 0.034,-0.138c0.022,-0.041 0.053,-0.072 0.092,-0.095c0.039,-0.023 0.084,-0.034 0.134,-0.034c0.047,0 0.089,0.011 0.127,0.032c0.037,0.021 0.067,0.051 0.089,0.089c0.023,0.038 0.035,0.081 0.036,0.13l-0.432,0.084c0.013,0.043 0.037,0.076 0.072,0.101c0.035,0.024 0.077,0.036 0.126,0.036Zm-0.018,-0.411c-0.037,0 -0.07,0.009 -0.099,0.026c-0.029,0.017 -0.051,0.04 -0.068,0.071c-0.016,0.03 -0.024,0.065 -0.024,0.104c0,0.01 0,0.017 0.001,0.022l0.371,-0.072c-0.008,-0.044 -0.028,-0.08 -0.061,-0.108c-0.033,-0.029 -0.073,-0.043 -0.12,-0.043Z" style="fill:rgb(235,235,235);fill-rule:nonzero;"/>
                    </g>
                </g>
                <g>
                    <g transform="matrix(20.8333,0,0,20.8333,285.188,33.0581)">
                        <path d="M0.229,-0.16c0.002,0.01 0.007,0.019 0.013,0.025c0.011,0.013 0.028,0.019 0.049,0.019c0.024,0 0.045,-0.007 0.064,-0.02l0.041,0.11c-0.015,0.011 -0.034,0.02 -0.056,0.026c-0.023,0.005 -0.046,0.008 -0.07,0.008c-0.065,0 -0.114,-0.016 -0.149,-0.049c-0.026,-0.025 -0.042,-0.058 -0.049,-0.1l0.157,-0.019Z" style="fill:rgb(54,192,173);"/>
                    </g>
                    <g transform="matrix(20.8333,0,0,20.8333,293.417,33.0581)">
                        <path d="M0.46,-0.235l0.158,-0.019l0,0.254l-0.149,0l0,-0.062c-0.039,0.047 -0.095,0.07 -0.168,0.07c-0.051,0 -0.096,-0.011 -0.138,-0.034c-0.041,-0.023 -0.073,-0.055 -0.096,-0.097l-0.024,-0.062l0.159,-0.019l0.027,0.044c0.026,0.027 0.059,0.04 0.099,0.04c0.039,0 0.072,-0.013 0.098,-0.04c0.019,-0.02 0.031,-0.044 0.034,-0.075Z" style="fill:rgb(54,192,173);"/>
                    </g>
                    <g transform="matrix(20.8333,0,0,20.8333,307.792,33.0581)">
                        <path d="M0.072,-0.271l0.156,-0.019l0,0.29l-0.156,0l0,-0.271Z" style="fill:rgb(54,192,173);"/>
                    </g>
                    <g transform="matrix(20.8333,0,0,20.8333,314.063,33.0581)">
                        <path d="M0.228,-0.326l0,0.139c0,0.023 0.006,0.04 0.017,0.052c0.012,0.013 0.029,0.019 0.05,0.019c0.008,0 0.016,-0.001 0.025,-0.003c0.008,-0.002 0.014,-0.004 0.019,-0.007l0.007,0.121c-0.026,0.009 -0.053,0.013 -0.081,0.013c-0.061,0 -0.108,-0.016 -0.142,-0.048c-0.034,-0.033 -0.051,-0.079 -0.051,-0.138l0,-0.129l0.156,-0.019Z" style="fill:rgb(54,192,173);"/>
                    </g>
                    <g transform="matrix(20.8333,0,0,20.8333,321.167,33.0581)">
                        <path d="M0.586,-0.41c0.025,0.042 0.037,0.089 0.037,0.141c0,0.053 -0.013,0.101 -0.038,0.143c-0.025,0.042 -0.06,0.075 -0.105,0.099c-0.045,0.023 -0.095,0.035 -0.152,0.035c-0.057,0 -0.107,-0.012 -0.152,-0.035c-0.045,-0.024 -0.081,-0.057 -0.106,-0.099c-0.025,-0.042 -0.038,-0.09 -0.038,-0.143l0.009,-0.075l0.181,-0.022c-0.022,0.024 -0.032,0.057 -0.032,0.097c0,0.045 0.013,0.082 0.039,0.109c0.026,0.027 0.059,0.04 0.099,0.04c0.04,0 0.073,-0.013 0.099,-0.04c0.025,-0.027 0.038,-0.064 0.038,-0.109c0,-0.045 -0.013,-0.082 -0.038,-0.108l-0.016,-0.012l0.175,-0.021Z" style="fill:rgb(54,192,173);"/>
                    </g>
                    <g transform="matrix(20.8333,0,0,20.8333,334.813,33.0581)">
                        <path d="M0.406,-0.466l0,0.064c-0.017,-0.001 -0.029,-0.002 -0.035,-0.002c-0.045,0 -0.08,0.013 -0.105,0.038c-0.025,0.025 -0.038,0.062 -0.038,0.112l0,0.254l-0.156,0l0,-0.426l0.334,-0.04Z" style="fill:rgb(54,192,173);"/>
                    </g>
                </g>
                <g transform="matrix(-1.31795,1.61403e-16,-1.71963e-16,-1.40418,379.269,321.048)">
                    <path d="M31.962,132.994l-0.111,-0.001l-0.11,-0.002l-0.109,-0.002l-0.11,-0.003l-0.11,-0.004l-0.109,-0.004l-0.109,-0.005l-0.109,-0.006l-0.109,-0.006l-0.108,-0.006l-0.109,-0.008l-0.108,-0.008l-0.108,-0.009l-0.108,-0.009l-0.108,-0.01l-0.107,-0.011l-0.107,-0.011l-0.107,-0.012l-0.107,-0.012l-0.107,-0.013l-0.106,-0.014l-0.106,-0.014l-0.106,-0.015l-0.106,-0.015l-0.106,-0.017l-0.105,-0.016l-0.105,-0.018l-0.105,-0.018l-0.105,-0.018l-0.105,-0.019l-0.104,-0.02l-0.104,-0.02l-0.104,-0.021l-0.103,-0.022l-0.104,-0.022l-0.103,-0.022l-0.103,-0.024l-0.102,-0.024l-0.102,-0.024l-0.103,-0.025l-0.101,-0.026l-0.102,-0.026l-0.101,-0.026l-0.102,-0.028l-0.1,-0.028l-0.101,-0.028l-0.1,-0.029l-0.1,-0.03l-0.1,-0.03l-0.1,-0.03l-0.099,-0.032l-0.099,-0.031l-0.099,-0.033l-0.098,-0.033l-0.098,-0.033l-0.098,-0.034l-0.098,-0.035l-0.097,-0.035l-0.097,-0.035l-0.097,-0.037l-0.097,-0.036l-0.096,-0.037l-0.096,-0.038l-0.095,-0.039l-0.095,-0.038l-0.095,-0.04l-0.095,-0.04l-0.094,-0.04l-0.095,-0.041l-0.093,-0.041l-0.094,-0.042l-0.093,-0.043l-0.093,-0.043l-0.092,-0.043l-0.092,-0.044l-0.092,-0.045l-0.092,-0.045l-0.091,-0.045l-0.091,-0.046l-0.09,-0.047l-0.091,-0.047l-0.089,-0.047l-0.09,-0.048l-0.089,-0.049l-0.089,-0.049l-0.089,-0.049l-0.088,-0.05l-0.087,-0.051l-0.088,-0.051l-0.087,-0.051l-0.087,-0.052l-0.086,-0.052l-0.086,-0.053l-0.086,-0.054l-0.085,-0.053l-0.085,-0.055l-0.085,-0.054l-0.084,-0.055l-0.084,-0.056l-0.084,-0.056l-0.083,-0.057l-0.082,-0.057l-0.083,-0.057l-0.082,-0.058l-0.081,-0.059l-0.082,-0.058l-0.08,-0.06l-0.081,-0.059l-0.08,-0.06l-0.08,-0.061l-0.079,-0.061l-0.079,-0.062l-0.078,-0.061l-0.078,-0.063l-0.078,-0.063l-0.077,-0.063l-0.077,-0.063l-0.076,-0.064l-0.076,-0.065l-0.076,-0.065l-0.075,-0.065l-0.075,-0.066l-0.074,-0.066l-0.074,-0.066l-0.074,-0.067l-0.073,-0.068l-0.072,-0.068l-0.073,-0.068l-0.071,-0.068l-0.072,-0.069l-0.071,-0.07l-0.07,-0.069l-0.07,-0.071l-0.07,-0.07l-0.069,-0.071l-0.068,-0.072l-0.069,-0.071l-0.068,-0.072l-0.067,-0.073l-0.067,-0.073l-0.066,-0.073l-0.066,-0.074l-0.066,-0.074l-0.065,-0.074l-0.064,-0.075l-0.064,-0.075l-0.064,-0.075l-0.063,-0.076l-0.063,-0.077l-0.062,-0.076l-0.062,-0.077l-0.061,-0.077l-0.061,-0.078l-0.06,-0.078l-0.06,-0.078l-0.059,-0.079l-0.059,-0.079l-0.058,-0.08l-0.058,-0.079l-0.057,-0.08l-0.057,-0.081l-0.056,-0.081l-0.056,-0.081l-0.055,-0.081l-0.055,-0.082l-0.054,-0.082l-0.054,-0.083l-0.053,-0.082l-0.053,-0.083l-0.052,-0.084l-0.052,-0.084l-0.051,-0.084l-0.051,-0.084l-0.05,-0.085l-0.049,-0.085l-0.049,-0.085l-0.049,-0.085l-0.048,-0.086l-0.047,-0.087l-0.047,-0.086l-0.046,-0.087l-0.046,-0.087l-0.045,-0.087l-0.045,-0.088l-0.044,-0.088l-0.044,-0.088l-0.043,-0.089l-0.042,-0.089l-0.042,-0.089l-0.042,-0.089l-0.041,-0.09l-0.04,-0.09l-0.039,-0.09l-0.04,-0.091l-0.038,-0.091l-0.038,-0.091l-0.037,-0.091l-0.037,-0.092l-0.036,-0.092l-0.036,-0.092l-0.035,-0.092l-0.035,-0.093l-0.033,-0.093l-0.034,-0.093l-0.032,-0.093l-0.032,-0.094l-0.032,-0.094l-0.031,-0.094l-0.03,-0.095l-0.03,-0.094l-0.029,-0.095l-0.028,-0.095l-0.028,-0.096l-0.027,-0.095l-0.027,-0.096l-0.026,-0.096l-0.026,-0.097l-0.024,-0.096l-0.025,-0.097l-0.023,-0.097l-0.023,-0.097l-0.022,-0.097l-0.022,-0.098l-0.021,-0.098l-0.02,-0.098l-0.02,-0.098l-0.019,-0.099l-0.019,-0.099l-0.017,-0.098l-0.018,-0.1l-0.016,-0.099l-0.016,-0.099l-0.015,-0.1l-0.015,-0.1l-0.014,-0.1l-0.013,-0.1l-0.013,-0.101l-0.012,-0.101l-0.011,-0.1l-0.01,-0.101l-0.01,-0.102l-0.01,-0.101l-0.008,-0.102l-0.008,-0.101l-0.007,-0.102l-0.007,-0.102l-0.006,-0.103l-0.005,-0.102l-0.004,-0.103l-0.004,-0.102l-0.003,-0.103l-0.003,-0.103l-0.002,-0.104l-0.001,-0.103l0,-0.104l0.001,-0.132l0.001,-0.131l0.003,-0.132l0.004,-0.131l0.005,-0.132l0.007,-0.131l0.007,-0.131l0.009,-0.132l0.01,-0.131l0.01,-0.13l0.013,-0.131l0.013,-0.131l0.014,-0.13l0.015,-0.131l0.017,-0.13l0.018,-0.13l0.018,-0.129l0.02,-0.13l0.021,-0.129l0.023,-0.13l0.023,-0.129l0.024,-0.128l0.026,-0.129l0.027,-0.128l0.027,-0.129l0.029,-0.128l0.03,-0.127l0.031,-0.128l0.033,-0.127l0.033,-0.127l0.034,-0.127l0.036,-0.126l0.036,-0.126l0.038,-0.126l0.039,-0.125l0.04,-0.126l0.041,-0.125l0.042,-0.124l0.043,-0.125l0.044,-0.124l0.045,-0.123l0.047,-0.124l0.047,-0.123l0.049,-0.122l0.049,-0.123l0.051,-0.122l0.052,-0.121l0.053,-0.122l0.054,-0.12l0.055,-0.121l0.056,-0.12l0.057,-0.12l0.058,-0.119l0.059,-0.119l0.06,-0.118l0.062,-0.118l0.062,-0.118l0.064,-0.117l0.064,-0.117l0.066,-0.116l0.066,-0.116l0.068,-0.115l0.068,-0.115l0.07,-0.114l14.785,8.011l14.785,-8.011l0.069,0.114l0.069,0.115l0.068,0.115l0.066,0.116l0.066,0.116l0.064,0.117l0.064,0.117l0.062,0.118l0.061,0.118l0.061,0.118l0.059,0.119l0.058,0.119l0.057,0.12l0.056,0.12l0.055,0.121l0.054,0.12l0.053,0.122l0.052,0.121l0.05,0.122l0.05,0.123l0.049,0.122l0.047,0.123l0.047,0.124l0.045,0.123l0.044,0.124l0.043,0.125l0.042,0.124l0.041,0.125l0.04,0.126l0.039,0.125l0.038,0.126l0.036,0.126l0.036,0.126l0.034,0.127l0.033,0.127l0.033,0.127l0.031,0.128l0.03,0.127l0.029,0.128l0.027,0.129l0.027,0.128l0.025,0.129l0.025,0.128l0.023,0.129l0.022,0.13l0.021,0.129l0.02,0.13l0.019,0.129l0.018,0.13l0.016,0.13l0.016,0.131l0.014,0.13l0.013,0.131l0.012,0.131l0.011,0.13l0.01,0.131l0.009,0.132l0.007,0.131l0.006,0.131l0.006,0.132l0.004,0.131l0.003,0.132l0.001,0.131l0.001,0.132l0,0.104l-0.002,0.103l-0.001,0.104l-0.003,0.103l-0.003,0.103l-0.004,0.102l-0.004,0.103l-0.005,0.102l-0.006,0.103l-0.007,0.102l-0.007,0.102l-0.008,0.101l-0.009,0.102l-0.009,0.101l-0.01,0.102l-0.01,0.101l-0.012,0.1l-0.012,0.101l-0.012,0.101l-0.013,0.1l-0.014,0.1l-0.015,0.1l-0.015,0.1l-0.016,0.099l-0.016,0.099l-0.018,0.1l-0.017,0.098l-0.019,0.099l-0.019,0.099l-0.02,0.098l-0.02,0.098l-0.021,0.098l-0.022,0.098l-0.022,0.097l-0.023,0.097l-0.024,0.097l-0.024,0.097l-0.025,0.096l-0.025,0.097l-0.026,0.096l-0.027,0.096l-0.027,0.095l-0.028,0.096l-0.028,0.095l-0.029,0.095l-0.03,0.094l-0.03,0.095l-0.031,0.094l-0.032,0.094l-0.032,0.094l-0.032,0.093l-0.034,0.093l-0.034,0.093l-0.034,0.093l-0.035,0.092l-0.036,0.092l-0.036,0.092l-0.037,0.092l-0.037,0.091l-0.038,0.091l-0.039,0.091l-0.039,0.091l-0.039,0.09l-0.041,0.09l-0.04,0.09l-0.042,0.089l-0.042,0.089l-0.042,0.089l-0.043,0.089l-0.044,0.088l-0.044,0.088l-0.045,0.088l-0.045,0.087l-0.046,0.087l-0.046,0.087l-0.047,0.086l-0.047,0.087l-0.048,0.086l-0.049,0.085l-0.049,0.085l-0.049,0.085l-0.051,0.085l-0.05,0.084l-0.051,0.084l-0.052,0.084l-0.052,0.084l-0.053,0.083l-0.053,0.082l-0.054,0.083l-0.054,0.082l-0.055,0.082l-0.055,0.081l-0.056,0.081l-0.056,0.081l-0.057,0.081l-0.057,0.08l-0.058,0.079l-0.058,0.08l-0.059,0.079l-0.06,0.079l-0.059,0.078l-0.061,0.078l-0.06,0.078l-0.062,0.077l-0.061,0.077l-0.062,0.076l-0.063,0.077l-0.063,0.076l-0.064,0.075l-0.064,0.075l-0.065,0.075l-0.065,0.074l-0.065,0.074l-0.066,0.074l-0.066,0.073l-0.067,0.073l-0.068,0.073l-0.067,0.072l-0.069,0.071l-0.068,0.072l-0.069,0.071l-0.07,0.07l-0.07,0.071l-0.07,0.069l-0.071,0.07l-0.072,0.069l-0.072,0.068l-0.072,0.068l-0.072,0.068l-0.073,0.068l-0.074,0.067l-0.074,0.066l-0.074,0.066l-0.075,0.066l-0.075,0.065l-0.076,0.065l-0.076,0.065l-0.076,0.064l-0.077,0.063l-0.077,0.063l-0.078,0.063l-0.078,0.063l-0.078,0.061l-0.079,0.062l-0.08,0.061l-0.079,0.061l-0.08,0.06l-0.081,0.059l-0.081,0.06l-0.081,0.058l-0.081,0.059l-0.082,0.058l-0.083,0.057l-0.082,0.057l-0.084,0.057l-0.083,0.056l-0.084,0.056l-0.084,0.055l-0.085,0.054l-0.085,0.055l-0.085,0.053l-0.086,0.054l-0.086,0.053l-0.086,0.052l-0.087,0.052l-0.087,0.051l-0.088,0.051l-0.087,0.051l-0.089,0.05l-0.088,0.049l-0.089,0.049l-0.089,0.049l-0.09,0.048l-0.09,0.047l-0.09,0.047l-0.09,0.047l-0.091,0.046l-0.091,0.045l-0.092,0.045l-0.092,0.045l-0.092,0.044l-0.092,0.043l-0.093,0.043l-0.093,0.043l-0.094,0.042l-0.094,0.041l-0.094,0.041l-0.094,0.04l-0.095,0.04l-0.095,0.04l-0.095,0.038l-0.096,0.039l-0.095,0.038l-0.097,0.037l-0.096,0.036l-0.097,0.037l-0.097,0.035l-0.097,0.035l-0.098,0.035l-0.098,0.034l-0.098,0.033l-0.098,0.033l-0.099,0.033l-0.099,0.031l-0.099,0.032l-0.1,0.03l-0.1,0.03l-0.1,0.03l-0.1,0.029l-0.101,0.028l-0.101,0.028l-0.101,0.028l-0.101,0.026l-0.102,0.026l-0.101,0.026l-0.103,0.025l-0.102,0.024l-0.103,0.024l-0.102,0.024l-0.104,0.022l-0.103,0.022l-0.103,0.022l-0.104,0.021l-0.104,0.02l-0.105,0.02l-0.104,0.019l-0.105,0.018l-0.105,0.018l-0.105,0.018l-0.105,0.016l-0.106,0.017l-0.106,0.015l-0.106,0.015l-0.106,0.014l-0.106,0.014l-0.107,0.013l-0.107,0.012l-0.107,0.012l-0.107,0.011l-0.108,0.011l-0.107,0.01l-0.108,0.009l-0.108,0.009l-0.108,0.008l-0.109,0.008l-0.108,0.006l-0.109,0.006l-0.109,0.006l-0.109,0.005l-0.11,0.004l-0.109,0.004l-0.11,0.003l-0.11,0.002l-0.11,0.002l-0.11,0.001l-0.11,0l-0.11,0Zm0.214,-0.939l0.104,-0.001l0.103,-0.001l0.104,-0.003l0.103,-0.002l0.103,-0.004l0.103,-0.004l0.103,-0.004l0.103,-0.005l0.102,-0.006l0.103,-0.007l0.102,-0.007l0.102,-0.007l0.101,-0.008l0.102,-0.009l0.101,-0.01l0.101,-0.01l0.101,-0.01l0.101,-0.011l0.101,-0.012l0.1,-0.012l0.1,-0.013l0.1,-0.014l0.1,-0.014l0.1,-0.014l0.099,-0.015l0.099,-0.016l0.099,-0.016l0.099,-0.017l0.099,-0.018l0.098,-0.018l0.098,-0.018l0.098,-0.019l0.098,-0.02l0.097,-0.02l0.097,-0.021l0.097,-0.021l0.097,-0.022l0.097,-0.023l0.096,-0.023l0.096,-0.023l0.096,-0.024l0.096,-0.025l0.095,-0.025l0.095,-0.026l0.095,-0.026l0.095,-0.027l0.094,-0.027l0.094,-0.028l0.094,-0.028l0.094,-0.029l0.093,-0.029l0.093,-0.03l0.093,-0.031l0.093,-0.031l0.092,-0.031l0.092,-0.032l0.092,-0.033l0.092,-0.033l0.091,-0.033l0.091,-0.034l0.091,-0.035l0.091,-0.035l0.09,-0.035l0.09,-0.036l0.089,-0.037l0.09,-0.037l0.089,-0.038l0.089,-0.038l0.088,-0.038l0.088,-0.039l0.088,-0.04l0.088,-0.04l0.087,-0.04l0.087,-0.041l0.087,-0.041l0.087,-0.042l0.086,-0.043l0.086,-0.042l0.085,-0.044l0.085,-0.044l0.085,-0.044l0.085,-0.045l0.084,-0.045l0.084,-0.045l0.084,-0.047l0.083,-0.046l0.083,-0.047l0.083,-0.048l0.082,-0.048l0.082,-0.048l0.082,-0.049l0.081,-0.049l0.081,-0.05l0.081,-0.05l0.08,-0.051l0.08,-0.051l0.08,-0.051l0.079,-0.052l0.079,-0.053l0.079,-0.053l0.078,-0.053l0.078,-0.054l0.078,-0.054l0.077,-0.054l0.077,-0.055l0.076,-0.056l0.076,-0.055l0.076,-0.057l0.076,-0.056l0.075,-0.057l0.074,-0.058l0.075,-0.058l0.073,-0.058l0.074,-0.059l0.073,-0.059l0.073,-0.059l0.072,-0.06l0.072,-0.061l0.072,-0.06l0.071,-0.061l0.071,-0.062l0.07,-0.062l0.07,-0.062l0.07,-0.063l0.069,-0.063l0.069,-0.063l0.068,-0.064l0.068,-0.064l0.068,-0.065l0.067,-0.065l0.067,-0.065l0.066,-0.066l0.066,-0.066l0.066,-0.067l0.065,-0.066l0.065,-0.068l0.064,-0.067l0.064,-0.068l0.063,-0.068l0.063,-0.069l0.063,-0.069l0.062,-0.069l0.061,-0.07l0.062,-0.07l0.06,-0.071l0.061,-0.07l0.06,-0.071l0.059,-0.072l0.059,-0.072l0.059,-0.072l0.058,-0.072l0.058,-0.073l0.057,-0.073l0.056,-0.074l0.057,-0.073l0.056,-0.075l0.055,-0.074l0.055,-0.075l0.054,-0.075l0.054,-0.075l0.054,-0.076l0.053,-0.076l0.052,-0.076l0.052,-0.077l0.052,-0.077l0.051,-0.077l0.051,-0.078l0.05,-0.078l0.049,-0.078l0.049,-0.079l0.049,-0.078l0.048,-0.08l0.048,-0.079l0.047,-0.08l0.047,-0.08l0.046,-0.08l0.046,-0.081l0.045,-0.08l0.044,-0.082l0.044,-0.081l0.044,-0.082l0.043,-0.082l0.043,-0.082l0.042,-0.083l0.041,-0.082l0.041,-0.083l0.041,-0.084l0.04,-0.083l0.039,-0.084l0.039,-0.085l0.039,-0.084l0.038,-0.085l0.037,-0.085l0.037,-0.085l0.036,-0.085l0.036,-0.086l0.035,-0.086l0.034,-0.086l0.034,-0.086l0.034,-0.087l0.033,-0.087l0.032,-0.087l0.032,-0.088l0.032,-0.088l0.03,-0.087l0.031,-0.089l0.029,-0.088l0.029,-0.089l0.029,-0.088l0.028,-0.089l0.027,-0.09l0.027,-0.089l0.026,-0.09l0.026,-0.09l0.025,-0.09l0.024,-0.091l0.024,-0.09l0.024,-0.091l0.022,-0.091l0.022,-0.091l0.022,-0.092l0.021,-0.092l0.02,-0.091l0.02,-0.093l0.019,-0.092l0.019,-0.092l0.018,-0.093l0.017,-0.093l0.017,-0.093l0.016,-0.093l0.016,-0.094l0.015,-0.093l0.014,-0.094l0.014,-0.094l0.013,-0.094l0.012,-0.095l0.012,-0.095l0.011,-0.094l0.011,-0.095l0.01,-0.095l0.009,-0.096l0.009,-0.095l0.008,-0.096l0.008,-0.096l0.006,-0.096l0.007,-0.096l0.005,-0.096l0.005,-0.097l0.004,-0.096l0.004,-0.097l0.003,-0.097l0.002,-0.097l0.002,-0.098l0.001,-0.097l0,-0.097l0,-0.125l-0.002,-0.124l-0.003,-0.124l-0.004,-0.124l-0.005,-0.123l-0.005,-0.124l-0.007,-0.124l-0.009,-0.123l-0.009,-0.123l-0.01,-0.124l-0.011,-0.123l-0.013,-0.123l-0.013,-0.122l-0.015,-0.123l-0.015,-0.123l-0.017,-0.122l-0.018,-0.122l-0.018,-0.122l-0.02,-0.122l-0.021,-0.122l-0.022,-0.121l-0.023,-0.121l-0.024,-0.121l-0.025,-0.121l-0.026,-0.121l-0.028,-0.12l-0.028,-0.12l-0.029,-0.12l-0.03,-0.12l-0.032,-0.12l-0.032,-0.119l-0.034,-0.119l-0.034,-0.119l-0.036,-0.118l-0.036,-0.118l-0.038,-0.118l-0.038,-0.118l-0.04,-0.117l-0.04,-0.117l-0.042,-0.117l-0.043,-0.117l-0.043,-0.116l-0.045,-0.116l-0.046,-0.115l-0.046,-0.115l-0.048,-0.115l-0.049,-0.115l-0.05,-0.114l-0.05,-0.114l-0.052,-0.113l-0.053,-0.113l-0.054,-0.113l-0.054,-0.112l-0.056,-0.112l-0.057,-0.111l-0.058,-0.111l-0.024,-0.047l-13.892,7.528l-0.104,0.049l-0.109,0.037l-0.113,0.025l-0.116,0.013l-0.116,0l-0.116,-0.013l-0.113,-0.025l-0.109,-0.037l-0.104,-0.049l-13.892,-7.528l-0.024,0.047l-0.058,0.111l-0.057,0.111l-0.056,0.112l-0.054,0.112l-0.054,0.113l-0.053,0.113l-0.052,0.114l-0.05,0.113l-0.05,0.114l-0.049,0.115l-0.048,0.115l-0.046,0.115l-0.046,0.115l-0.045,0.116l-0.043,0.116l-0.043,0.117l-0.042,0.117l-0.04,0.117l-0.04,0.117l-0.039,0.118l-0.037,0.118l-0.037,0.118l-0.035,0.118l-0.035,0.119l-0.033,0.119l-0.032,0.119l-0.032,0.12l-0.03,0.119l-0.029,0.12l-0.028,0.121l-0.028,0.12l-0.026,0.121l-0.025,0.121l-0.024,0.121l-0.023,0.121l-0.022,0.121l-0.021,0.122l-0.02,0.122l-0.018,0.122l-0.018,0.122l-0.017,0.123l-0.015,0.122l-0.015,0.123l-0.013,0.122l-0.013,0.123l-0.011,0.123l-0.01,0.124l-0.009,0.123l-0.009,0.124l-0.007,0.123l-0.006,0.124l-0.004,0.123l-0.004,0.124l-0.003,0.124l-0.002,0.124l0,0.125l0,0.097l0.001,0.097l0.002,0.098l0.002,0.097l0.003,0.097l0.004,0.097l0.004,0.096l0.005,0.097l0.005,0.096l0.006,0.096l0.007,0.096l0.008,0.096l0.008,0.096l0.009,0.095l0.009,0.096l0.01,0.095l0.011,0.095l0.011,0.095l0.012,0.094l0.012,0.094l0.013,0.095l0.014,0.094l0.014,0.094l0.015,0.093l0.016,0.094l0.016,0.093l0.017,0.093l0.017,0.093l0.018,0.093l0.019,0.092l0.019,0.092l0.02,0.093l0.02,0.091l0.021,0.092l0.021,0.092l0.023,0.091l0.022,0.091l0.024,0.091l0.024,0.09l0.024,0.091l0.025,0.09l0.026,0.09l0.026,0.09l0.027,0.089l0.027,0.089l0.028,0.09l0.029,0.088l0.029,0.089l0.029,0.089l0.03,0.088l0.031,0.087l0.032,0.088l0.031,0.088l0.033,0.087l0.033,0.087l0.033,0.087l0.034,0.086l0.035,0.086l0.035,0.086l0.036,0.086l0.036,0.085l0.037,0.085l0.037,0.085l0.038,0.085l0.039,0.085l0.039,0.084l0.039,0.084l0.04,0.083l0.04,0.084l0.042,0.083l0.041,0.082l0.042,0.083l0.043,0.082l0.043,0.082l0.043,0.082l0.045,0.081l0.044,0.082l0.045,0.08l0.046,0.081l0.046,0.08l0.047,0.08l0.047,0.08l0.048,0.079l0.048,0.08l0.048,0.078l0.05,0.079l0.049,0.078l0.05,0.078l0.051,0.078l0.051,0.077l0.052,0.077l0.052,0.077l0.052,0.076l0.053,0.076l0.054,0.076l0.054,0.075l0.054,0.075l0.055,0.075l0.055,0.074l0.056,0.075l0.056,0.073l0.057,0.074l0.057,0.073l0.058,0.073l0.058,0.072l0.059,0.072l0.059,0.072l0.059,0.072l0.06,0.071l0.06,0.07l0.061,0.071l0.062,0.07l0.061,0.07l0.062,0.069l0.063,0.069l0.063,0.069l0.063,0.068l0.064,0.068l0.064,0.067l0.065,0.068l0.065,0.066l0.066,0.067l0.066,0.066l0.066,0.066l0.067,0.065l0.067,0.065l0.068,0.065l0.068,0.064l0.068,0.064l0.069,0.063l0.069,0.063l0.07,0.063l0.07,0.062l0.07,0.062l0.071,0.062l0.071,0.061l0.072,0.06l0.072,0.061l0.072,0.06l0.073,0.059l0.073,0.059l0.073,0.059l0.074,0.058l0.075,0.058l0.074,0.058l0.075,0.057l0.076,0.056l0.075,0.057l0.077,0.055l0.076,0.056l0.077,0.055l0.077,0.054l0.078,0.054l0.078,0.054l0.078,0.053l0.078,0.053l0.079,0.053l0.08,0.052l0.079,0.051l0.08,0.051l0.081,0.051l0.081,0.05l0.081,0.05l0.081,0.049l0.082,0.049l0.082,0.048l0.082,0.048l0.083,0.048l0.083,0.047l0.083,0.046l0.084,0.047l0.084,0.045l0.084,0.045l0.085,0.045l0.084,0.044l0.086,0.044l0.085,0.043l0.086,0.043l0.086,0.043l0.087,0.042l0.086,0.041l0.088,0.041l0.087,0.04l0.088,0.04l0.088,0.04l0.088,0.039l0.088,0.038l0.089,0.038l0.089,0.038l0.09,0.037l0.089,0.037l0.09,0.036l0.09,0.035l0.091,0.035l0.091,0.035l0.091,0.034l0.091,0.033l0.092,0.033l0.091,0.033l0.093,0.032l0.092,0.031l0.093,0.031l0.093,0.031l0.093,0.03l0.093,0.029l0.094,0.029l0.094,0.028l0.094,0.028l0.094,0.027l0.095,0.027l0.095,0.026l0.095,0.026l0.095,0.025l0.096,0.025l0.096,0.024l0.096,0.023l0.096,0.023l0.097,0.023l0.097,0.022l0.097,0.021l0.097,0.021l0.097,0.02l0.098,0.02l0.098,0.019l0.098,0.018l0.098,0.018l0.099,0.018l0.099,0.017l0.099,0.016l0.099,0.016l0.099,0.015l0.1,0.014l0.1,0.014l0.099,0.014l0.101,0.013l0.1,0.012l0.101,0.012l0.1,0.011l0.101,0.01l0.102,0.01l0.101,0.01l0.102,0.009l0.101,0.008l0.102,0.007l0.102,0.007l0.103,0.007l0.102,0.006l0.103,0.005l0.102,0.004l0.103,0.004l0.104,0.004l0.103,0.002l0.103,0.003l0.104,0.001l0.104,0.001l0.104,0l0.104,0Z" style="fill:rgb(173,131,134);"/>
                </g>
                <g transform="matrix(-1.31795,1.61403e-16,-1.71963e-16,-1.40418,305.269,321.061)">
                    <path d="M31.962,132.994l-0.111,-0.001l-0.11,-0.002l-0.109,-0.002l-0.11,-0.003l-0.11,-0.004l-0.109,-0.004l-0.109,-0.005l-0.109,-0.006l-0.109,-0.006l-0.108,-0.006l-0.109,-0.008l-0.108,-0.008l-0.108,-0.009l-0.108,-0.009l-0.108,-0.01l-0.107,-0.011l-0.107,-0.011l-0.107,-0.012l-0.107,-0.012l-0.107,-0.013l-0.106,-0.014l-0.106,-0.014l-0.106,-0.015l-0.106,-0.015l-0.106,-0.017l-0.105,-0.016l-0.105,-0.018l-0.105,-0.018l-0.105,-0.018l-0.105,-0.019l-0.104,-0.02l-0.104,-0.02l-0.104,-0.021l-0.103,-0.022l-0.104,-0.022l-0.103,-0.022l-0.103,-0.024l-0.102,-0.024l-0.102,-0.024l-0.103,-0.025l-0.101,-0.026l-0.102,-0.026l-0.101,-0.026l-0.102,-0.028l-0.1,-0.028l-0.101,-0.028l-0.1,-0.029l-0.1,-0.03l-0.1,-0.03l-0.1,-0.03l-0.099,-0.032l-0.099,-0.031l-0.099,-0.033l-0.098,-0.033l-0.098,-0.033l-0.098,-0.034l-0.098,-0.035l-0.097,-0.035l-0.097,-0.035l-0.097,-0.037l-0.097,-0.036l-0.096,-0.037l-0.096,-0.038l-0.095,-0.039l-0.095,-0.038l-0.095,-0.04l-0.095,-0.04l-0.094,-0.04l-0.095,-0.041l-0.093,-0.041l-0.094,-0.042l-0.093,-0.043l-0.093,-0.043l-0.092,-0.043l-0.092,-0.044l-0.092,-0.045l-0.092,-0.045l-0.091,-0.045l-0.091,-0.046l-0.09,-0.047l-0.091,-0.047l-0.089,-0.047l-0.09,-0.048l-0.089,-0.049l-0.089,-0.049l-0.089,-0.049l-0.088,-0.05l-0.087,-0.051l-0.088,-0.051l-0.087,-0.051l-0.087,-0.052l-0.086,-0.052l-0.086,-0.053l-0.086,-0.054l-0.085,-0.053l-0.085,-0.055l-0.085,-0.054l-0.084,-0.055l-0.084,-0.056l-0.084,-0.056l-0.083,-0.057l-0.082,-0.057l-0.083,-0.057l-0.082,-0.058l-0.081,-0.059l-0.082,-0.058l-0.08,-0.06l-0.081,-0.059l-0.08,-0.06l-0.08,-0.061l-0.079,-0.061l-0.079,-0.062l-0.078,-0.061l-0.078,-0.063l-0.078,-0.063l-0.077,-0.063l-0.077,-0.063l-0.076,-0.064l-0.076,-0.065l-0.076,-0.065l-0.075,-0.065l-0.075,-0.066l-0.074,-0.066l-0.074,-0.066l-0.074,-0.067l-0.073,-0.068l-0.072,-0.068l-0.073,-0.068l-0.071,-0.068l-0.072,-0.069l-0.071,-0.07l-0.07,-0.069l-0.07,-0.071l-0.07,-0.07l-0.069,-0.071l-0.068,-0.072l-0.069,-0.071l-0.068,-0.072l-0.067,-0.073l-0.067,-0.073l-0.066,-0.073l-0.066,-0.074l-0.066,-0.074l-0.065,-0.074l-0.064,-0.075l-0.064,-0.075l-0.064,-0.075l-0.063,-0.076l-0.063,-0.077l-0.062,-0.076l-0.062,-0.077l-0.061,-0.077l-0.061,-0.078l-0.06,-0.078l-0.06,-0.078l-0.059,-0.079l-0.059,-0.079l-0.058,-0.08l-0.058,-0.079l-0.057,-0.08l-0.057,-0.081l-0.056,-0.081l-0.056,-0.081l-0.055,-0.081l-0.055,-0.082l-0.054,-0.082l-0.054,-0.083l-0.053,-0.082l-0.053,-0.083l-0.052,-0.084l-0.052,-0.084l-0.051,-0.084l-0.051,-0.084l-0.05,-0.085l-0.049,-0.085l-0.049,-0.085l-0.049,-0.085l-0.048,-0.086l-0.047,-0.087l-0.047,-0.086l-0.046,-0.087l-0.046,-0.087l-0.045,-0.087l-0.045,-0.088l-0.044,-0.088l-0.044,-0.088l-0.043,-0.089l-0.042,-0.089l-0.042,-0.089l-0.042,-0.089l-0.041,-0.09l-0.04,-0.09l-0.039,-0.09l-0.04,-0.091l-0.038,-0.091l-0.038,-0.091l-0.037,-0.091l-0.037,-0.092l-0.036,-0.092l-0.036,-0.092l-0.035,-0.092l-0.035,-0.093l-0.033,-0.093l-0.034,-0.093l-0.032,-0.093l-0.032,-0.094l-0.032,-0.094l-0.031,-0.094l-0.03,-0.095l-0.03,-0.094l-0.029,-0.095l-0.028,-0.095l-0.028,-0.096l-0.027,-0.095l-0.027,-0.096l-0.026,-0.096l-0.026,-0.097l-0.024,-0.096l-0.025,-0.097l-0.023,-0.097l-0.023,-0.097l-0.022,-0.097l-0.022,-0.098l-0.021,-0.098l-0.02,-0.098l-0.02,-0.098l-0.019,-0.099l-0.019,-0.099l-0.017,-0.098l-0.018,-0.1l-0.016,-0.099l-0.016,-0.099l-0.015,-0.1l-0.015,-0.1l-0.014,-0.1l-0.013,-0.1l-0.013,-0.101l-0.012,-0.101l-0.011,-0.1l-0.01,-0.101l-0.01,-0.102l-0.01,-0.101l-0.008,-0.102l-0.008,-0.101l-0.007,-0.102l-0.007,-0.102l-0.006,-0.103l-0.005,-0.102l-0.004,-0.103l-0.004,-0.102l-0.003,-0.103l-0.003,-0.103l-0.002,-0.104l-0.001,-0.103l0,-0.104l0.001,-0.132l0.001,-0.131l0.003,-0.132l0.004,-0.131l0.005,-0.132l0.007,-0.131l0.007,-0.131l0.009,-0.132l0.01,-0.131l0.01,-0.13l0.013,-0.131l0.013,-0.131l0.014,-0.13l0.015,-0.131l0.017,-0.13l0.018,-0.13l0.018,-0.129l0.02,-0.13l0.021,-0.129l0.023,-0.13l0.023,-0.129l0.024,-0.128l0.026,-0.129l0.027,-0.128l0.027,-0.129l0.029,-0.128l0.03,-0.127l0.031,-0.128l0.033,-0.127l0.033,-0.127l0.034,-0.127l0.036,-0.126l0.036,-0.126l0.038,-0.126l0.039,-0.125l0.04,-0.126l0.041,-0.125l0.042,-0.124l0.043,-0.125l0.044,-0.124l0.045,-0.123l0.047,-0.124l0.047,-0.123l0.049,-0.122l0.049,-0.123l0.051,-0.122l0.052,-0.121l0.053,-0.122l0.054,-0.12l0.055,-0.121l0.056,-0.12l0.057,-0.12l0.058,-0.119l0.059,-0.119l0.06,-0.118l0.062,-0.118l0.062,-0.118l0.064,-0.117l0.064,-0.117l0.066,-0.116l0.066,-0.116l0.068,-0.115l0.068,-0.115l0.07,-0.114l14.785,8.011l14.785,-8.011l0.069,0.114l0.069,0.115l0.068,0.115l0.066,0.116l0.066,0.116l0.064,0.117l0.064,0.117l0.062,0.118l0.061,0.118l0.061,0.118l0.059,0.119l0.058,0.119l0.057,0.12l0.056,0.12l0.055,0.121l0.054,0.12l0.053,0.122l0.052,0.121l0.05,0.122l0.05,0.123l0.049,0.122l0.047,0.123l0.047,0.124l0.045,0.123l0.044,0.124l0.043,0.125l0.042,0.124l0.041,0.125l0.04,0.126l0.039,0.125l0.038,0.126l0.036,0.126l0.036,0.126l0.034,0.127l0.033,0.127l0.033,0.127l0.031,0.128l0.03,0.127l0.029,0.128l0.027,0.129l0.027,0.128l0.025,0.129l0.025,0.128l0.023,0.129l0.022,0.13l0.021,0.129l0.02,0.13l0.019,0.129l0.018,0.13l0.016,0.13l0.016,0.131l0.014,0.13l0.013,0.131l0.012,0.131l0.011,0.13l0.01,0.131l0.009,0.132l0.007,0.131l0.006,0.131l0.006,0.132l0.004,0.131l0.003,0.132l0.001,0.131l0.001,0.132l0,0.104l-0.002,0.103l-0.001,0.104l-0.003,0.103l-0.003,0.103l-0.004,0.102l-0.004,0.103l-0.005,0.102l-0.006,0.103l-0.007,0.102l-0.007,0.102l-0.008,0.101l-0.009,0.102l-0.009,0.101l-0.01,0.102l-0.01,0.101l-0.012,0.1l-0.012,0.101l-0.012,0.101l-0.013,0.1l-0.014,0.1l-0.015,0.1l-0.015,0.1l-0.016,0.099l-0.016,0.099l-0.018,0.1l-0.017,0.098l-0.019,0.099l-0.019,0.099l-0.02,0.098l-0.02,0.098l-0.021,0.098l-0.022,0.098l-0.022,0.097l-0.023,0.097l-0.024,0.097l-0.024,0.097l-0.025,0.096l-0.025,0.097l-0.026,0.096l-0.027,0.096l-0.027,0.095l-0.028,0.096l-0.028,0.095l-0.029,0.095l-0.03,0.094l-0.03,0.095l-0.031,0.094l-0.032,0.094l-0.032,0.094l-0.032,0.093l-0.034,0.093l-0.034,0.093l-0.034,0.093l-0.035,0.092l-0.036,0.092l-0.036,0.092l-0.037,0.092l-0.037,0.091l-0.038,0.091l-0.039,0.091l-0.039,0.091l-0.039,0.09l-0.041,0.09l-0.04,0.09l-0.042,0.089l-0.042,0.089l-0.042,0.089l-0.043,0.089l-0.044,0.088l-0.044,0.088l-0.045,0.088l-0.045,0.087l-0.046,0.087l-0.046,0.087l-0.047,0.086l-0.047,0.087l-0.048,0.086l-0.049,0.085l-0.049,0.085l-0.049,0.085l-0.051,0.085l-0.05,0.084l-0.051,0.084l-0.052,0.084l-0.052,0.084l-0.053,0.083l-0.053,0.082l-0.054,0.083l-0.054,0.082l-0.055,0.082l-0.055,0.081l-0.056,0.081l-0.056,0.081l-0.057,0.081l-0.057,0.08l-0.058,0.079l-0.058,0.08l-0.059,0.079l-0.06,0.079l-0.059,0.078l-0.061,0.078l-0.06,0.078l-0.062,0.077l-0.061,0.077l-0.062,0.076l-0.063,0.077l-0.063,0.076l-0.064,0.075l-0.064,0.075l-0.065,0.075l-0.065,0.074l-0.065,0.074l-0.066,0.074l-0.066,0.073l-0.067,0.073l-0.068,0.073l-0.067,0.072l-0.069,0.071l-0.068,0.072l-0.069,0.071l-0.07,0.07l-0.07,0.071l-0.07,0.069l-0.071,0.07l-0.072,0.069l-0.072,0.068l-0.072,0.068l-0.072,0.068l-0.073,0.068l-0.074,0.067l-0.074,0.066l-0.074,0.066l-0.075,0.066l-0.075,0.065l-0.076,0.065l-0.076,0.065l-0.076,0.064l-0.077,0.063l-0.077,0.063l-0.078,0.063l-0.078,0.063l-0.078,0.061l-0.079,0.062l-0.08,0.061l-0.079,0.061l-0.08,0.06l-0.081,0.059l-0.081,0.06l-0.081,0.058l-0.081,0.059l-0.082,0.058l-0.083,0.057l-0.082,0.057l-0.084,0.057l-0.083,0.056l-0.084,0.056l-0.084,0.055l-0.085,0.054l-0.085,0.055l-0.085,0.053l-0.086,0.054l-0.086,0.053l-0.086,0.052l-0.087,0.052l-0.087,0.051l-0.088,0.051l-0.087,0.051l-0.089,0.05l-0.088,0.049l-0.089,0.049l-0.089,0.049l-0.09,0.048l-0.09,0.047l-0.09,0.047l-0.09,0.047l-0.091,0.046l-0.091,0.045l-0.092,0.045l-0.092,0.045l-0.092,0.044l-0.092,0.043l-0.093,0.043l-0.093,0.043l-0.094,0.042l-0.094,0.041l-0.094,0.041l-0.094,0.04l-0.095,0.04l-0.095,0.04l-0.095,0.038l-0.096,0.039l-0.095,0.038l-0.097,0.037l-0.096,0.036l-0.097,0.037l-0.097,0.035l-0.097,0.035l-0.098,0.035l-0.098,0.034l-0.098,0.033l-0.098,0.033l-0.099,0.033l-0.099,0.031l-0.099,0.032l-0.1,0.03l-0.1,0.03l-0.1,0.03l-0.1,0.029l-0.101,0.028l-0.101,0.028l-0.101,0.028l-0.101,0.026l-0.102,0.026l-0.101,0.026l-0.103,0.025l-0.102,0.024l-0.103,0.024l-0.102,0.024l-0.104,0.022l-0.103,0.022l-0.103,0.022l-0.104,0.021l-0.104,0.02l-0.105,0.02l-0.104,0.019l-0.105,0.018l-0.105,0.018l-0.105,0.018l-0.105,0.016l-0.106,0.017l-0.106,0.015l-0.106,0.015l-0.106,0.014l-0.106,0.014l-0.107,0.013l-0.107,0.012l-0.107,0.012l-0.107,0.011l-0.108,0.011l-0.107,0.01l-0.108,0.009l-0.108,0.009l-0.108,0.008l-0.109,0.008l-0.108,0.006l-0.109,0.006l-0.109,0.006l-0.109,0.005l-0.11,0.004l-0.109,0.004l-0.11,0.003l-0.11,0.002l-0.11,0.002l-0.11,0.001l-0.11,0l-0.11,0Zm0.214,-0.939l0.104,-0.001l0.103,-0.001l0.104,-0.003l0.103,-0.002l0.103,-0.004l0.103,-0.004l0.103,-0.004l0.103,-0.005l0.102,-0.006l0.103,-0.007l0.102,-0.007l0.102,-0.007l0.101,-0.008l0.102,-0.009l0.101,-0.01l0.101,-0.01l0.101,-0.01l0.101,-0.011l0.101,-0.012l0.1,-0.012l0.1,-0.013l0.1,-0.014l0.1,-0.014l0.1,-0.014l0.099,-0.015l0.099,-0.016l0.099,-0.016l0.099,-0.017l0.099,-0.018l0.098,-0.018l0.098,-0.018l0.098,-0.019l0.098,-0.02l0.097,-0.02l0.097,-0.021l0.097,-0.021l0.097,-0.022l0.097,-0.023l0.096,-0.023l0.096,-0.023l0.096,-0.024l0.096,-0.025l0.095,-0.025l0.095,-0.026l0.095,-0.026l0.095,-0.027l0.094,-0.027l0.094,-0.028l0.094,-0.028l0.094,-0.029l0.093,-0.029l0.093,-0.03l0.093,-0.031l0.093,-0.031l0.092,-0.031l0.092,-0.032l0.092,-0.033l0.092,-0.033l0.091,-0.033l0.091,-0.034l0.091,-0.035l0.09,-0.035l0.091,-0.035l0.09,-0.036l0.089,-0.037l0.09,-0.037l0.089,-0.038l0.089,-0.038l0.088,-0.038l0.088,-0.039l0.088,-0.04l0.088,-0.04l0.087,-0.04l0.087,-0.041l0.087,-0.041l0.087,-0.042l0.086,-0.043l0.086,-0.043l0.085,-0.043l0.085,-0.044l0.085,-0.044l0.085,-0.045l0.084,-0.045l0.084,-0.045l0.084,-0.047l0.083,-0.046l0.083,-0.047l0.083,-0.048l0.082,-0.048l0.082,-0.048l0.082,-0.049l0.081,-0.049l0.081,-0.05l0.081,-0.05l0.08,-0.051l0.08,-0.051l0.08,-0.051l0.079,-0.052l0.079,-0.053l0.079,-0.053l0.078,-0.053l0.078,-0.054l0.078,-0.054l0.077,-0.054l0.077,-0.055l0.076,-0.056l0.076,-0.055l0.076,-0.057l0.076,-0.056l0.075,-0.057l0.074,-0.058l0.074,-0.058l0.074,-0.058l0.074,-0.059l0.073,-0.059l0.073,-0.059l0.072,-0.06l0.072,-0.061l0.072,-0.06l0.071,-0.061l0.071,-0.062l0.07,-0.062l0.07,-0.062l0.07,-0.063l0.069,-0.063l0.069,-0.063l0.068,-0.064l0.068,-0.064l0.068,-0.065l0.067,-0.065l0.067,-0.065l0.066,-0.066l0.066,-0.066l0.066,-0.067l0.065,-0.066l0.065,-0.068l0.064,-0.067l0.064,-0.068l0.063,-0.068l0.063,-0.069l0.063,-0.069l0.062,-0.069l0.061,-0.07l0.062,-0.07l0.06,-0.071l0.061,-0.07l0.06,-0.071l0.059,-0.072l0.059,-0.072l0.059,-0.072l0.058,-0.072l0.058,-0.073l0.057,-0.073l0.056,-0.074l0.057,-0.073l0.056,-0.075l0.055,-0.074l0.055,-0.075l0.054,-0.075l0.054,-0.075l0.054,-0.076l0.053,-0.076l0.052,-0.076l0.052,-0.077l0.052,-0.077l0.051,-0.077l0.051,-0.078l0.05,-0.078l0.049,-0.078l0.049,-0.079l0.049,-0.078l0.048,-0.08l0.048,-0.079l0.047,-0.08l0.047,-0.08l0.046,-0.08l0.046,-0.081l0.045,-0.08l0.044,-0.082l0.044,-0.081l0.044,-0.082l0.043,-0.082l0.043,-0.082l0.042,-0.083l0.041,-0.082l0.041,-0.083l0.041,-0.084l0.04,-0.083l0.039,-0.084l0.039,-0.085l0.039,-0.084l0.038,-0.085l0.037,-0.085l0.037,-0.085l0.036,-0.085l0.036,-0.086l0.035,-0.086l0.034,-0.086l0.034,-0.087l0.034,-0.086l0.033,-0.087l0.032,-0.087l0.032,-0.088l0.032,-0.088l0.03,-0.087l0.031,-0.089l0.029,-0.088l0.029,-0.089l0.029,-0.088l0.028,-0.089l0.027,-0.09l0.027,-0.089l0.026,-0.09l0.026,-0.09l0.025,-0.09l0.024,-0.091l0.024,-0.09l0.024,-0.091l0.022,-0.091l0.022,-0.091l0.022,-0.092l0.021,-0.092l0.02,-0.091l0.02,-0.093l0.019,-0.092l0.019,-0.092l0.018,-0.093l0.017,-0.093l0.017,-0.093l0.016,-0.093l0.016,-0.094l0.015,-0.093l0.014,-0.094l0.014,-0.094l0.013,-0.095l0.012,-0.094l0.012,-0.095l0.011,-0.094l0.011,-0.095l0.01,-0.095l0.009,-0.096l0.009,-0.095l0.008,-0.096l0.008,-0.096l0.006,-0.096l0.007,-0.096l0.005,-0.096l0.005,-0.097l0.004,-0.096l0.004,-0.097l0.003,-0.097l0.002,-0.097l0.002,-0.098l0.001,-0.097l0,-0.097l0,-0.125l-0.002,-0.124l-0.003,-0.124l-0.004,-0.124l-0.004,-0.123l-0.006,-0.124l-0.007,-0.124l-0.009,-0.123l-0.009,-0.123l-0.01,-0.124l-0.011,-0.123l-0.013,-0.123l-0.013,-0.122l-0.015,-0.123l-0.015,-0.123l-0.017,-0.122l-0.018,-0.122l-0.019,-0.122l-0.019,-0.122l-0.021,-0.122l-0.022,-0.121l-0.023,-0.121l-0.024,-0.121l-0.025,-0.121l-0.026,-0.121l-0.028,-0.12l-0.028,-0.12l-0.029,-0.121l-0.03,-0.119l-0.032,-0.12l-0.032,-0.119l-0.034,-0.119l-0.034,-0.119l-0.036,-0.118l-0.036,-0.118l-0.038,-0.118l-0.038,-0.118l-0.04,-0.117l-0.04,-0.117l-0.042,-0.117l-0.043,-0.117l-0.043,-0.116l-0.045,-0.116l-0.046,-0.115l-0.046,-0.115l-0.048,-0.115l-0.049,-0.115l-0.05,-0.114l-0.05,-0.113l-0.052,-0.114l-0.053,-0.113l-0.054,-0.113l-0.054,-0.112l-0.056,-0.112l-0.057,-0.111l-0.058,-0.111l-0.024,-0.047l-13.892,7.528l-0.104,0.049l-0.109,0.037l-0.113,0.025l-0.116,0.013l-0.116,0l-0.116,-0.013l-0.113,-0.025l-0.109,-0.037l-0.104,-0.049l-13.892,-7.528l-0.024,0.047l-0.058,0.111l-0.057,0.111l-0.056,0.112l-0.054,0.112l-0.054,0.113l-0.053,0.113l-0.052,0.114l-0.05,0.113l-0.05,0.114l-0.049,0.115l-0.048,0.115l-0.046,0.115l-0.046,0.115l-0.045,0.116l-0.043,0.116l-0.043,0.117l-0.042,0.117l-0.04,0.117l-0.04,0.117l-0.039,0.118l-0.037,0.118l-0.037,0.118l-0.035,0.118l-0.035,0.119l-0.033,0.119l-0.032,0.119l-0.032,0.12l-0.03,0.119l-0.029,0.12l-0.028,0.121l-0.028,0.12l-0.026,0.121l-0.025,0.121l-0.024,0.121l-0.023,0.121l-0.022,0.121l-0.021,0.122l-0.02,0.122l-0.018,0.122l-0.018,0.122l-0.017,0.122l-0.015,0.123l-0.015,0.123l-0.013,0.122l-0.013,0.123l-0.011,0.123l-0.01,0.124l-0.01,0.123l-0.008,0.123l-0.007,0.124l-0.006,0.124l-0.004,0.123l-0.004,0.124l-0.003,0.124l-0.002,0.124l0,0.125l0,0.097l0.001,0.097l0.002,0.098l0.002,0.097l0.003,0.097l0.004,0.097l0.004,0.096l0.005,0.097l0.005,0.096l0.006,0.096l0.007,0.096l0.008,0.096l0.008,0.096l0.009,0.095l0.009,0.096l0.01,0.095l0.011,0.095l0.011,0.094l0.012,0.095l0.012,0.094l0.013,0.095l0.014,0.094l0.014,0.094l0.015,0.093l0.016,0.094l0.016,0.093l0.017,0.093l0.017,0.093l0.018,0.093l0.019,0.092l0.019,0.092l0.02,0.093l0.02,0.091l0.021,0.092l0.021,0.092l0.023,0.091l0.022,0.091l0.024,0.091l0.024,0.09l0.024,0.091l0.025,0.09l0.026,0.09l0.026,0.09l0.027,0.089l0.027,0.09l0.028,0.089l0.029,0.088l0.029,0.089l0.029,0.088l0.031,0.089l0.03,0.087l0.032,0.088l0.031,0.088l0.033,0.087l0.033,0.087l0.033,0.086l0.034,0.087l0.035,0.086l0.035,0.086l0.036,0.086l0.036,0.085l0.037,0.085l0.037,0.085l0.038,0.085l0.039,0.085l0.039,0.084l0.039,0.084l0.04,0.083l0.041,0.084l0.041,0.083l0.041,0.082l0.042,0.083l0.043,0.082l0.043,0.082l0.043,0.082l0.045,0.081l0.044,0.082l0.045,0.08l0.046,0.081l0.046,0.08l0.047,0.08l0.047,0.08l0.048,0.079l0.048,0.08l0.049,0.078l0.049,0.079l0.049,0.078l0.05,0.078l0.051,0.078l0.051,0.077l0.052,0.077l0.052,0.077l0.052,0.076l0.053,0.076l0.054,0.076l0.054,0.075l0.054,0.075l0.055,0.075l0.055,0.074l0.056,0.075l0.056,0.073l0.057,0.074l0.057,0.073l0.058,0.073l0.058,0.072l0.059,0.072l0.059,0.072l0.059,0.072l0.06,0.071l0.06,0.07l0.061,0.071l0.062,0.07l0.061,0.07l0.062,0.069l0.063,0.069l0.063,0.069l0.063,0.068l0.064,0.068l0.064,0.067l0.065,0.068l0.065,0.066l0.066,0.067l0.066,0.066l0.066,0.066l0.067,0.065l0.067,0.065l0.068,0.065l0.068,0.064l0.068,0.064l0.069,0.063l0.069,0.063l0.07,0.063l0.07,0.062l0.07,0.062l0.071,0.062l0.071,0.061l0.072,0.06l0.072,0.061l0.072,0.06l0.073,0.059l0.073,0.059l0.074,0.059l0.073,0.058l0.075,0.058l0.074,0.058l0.075,0.057l0.076,0.056l0.075,0.057l0.077,0.055l0.076,0.056l0.077,0.055l0.077,0.054l0.078,0.054l0.078,0.054l0.078,0.053l0.079,0.053l0.078,0.053l0.08,0.052l0.079,0.051l0.08,0.051l0.081,0.051l0.08,0.05l0.082,0.05l0.081,0.049l0.082,0.049l0.082,0.048l0.082,0.048l0.083,0.048l0.083,0.047l0.083,0.046l0.084,0.047l0.084,0.045l0.084,0.045l0.085,0.045l0.084,0.044l0.086,0.044l0.085,0.044l0.086,0.042l0.086,0.043l0.087,0.042l0.086,0.041l0.088,0.041l0.087,0.04l0.088,0.04l0.087,0.04l0.089,0.039l0.088,0.038l0.089,0.038l0.089,0.038l0.09,0.037l0.089,0.037l0.09,0.036l0.09,0.035l0.091,0.035l0.091,0.035l0.091,0.034l0.091,0.033l0.092,0.033l0.091,0.033l0.093,0.032l0.092,0.031l0.093,0.031l0.092,0.031l0.094,0.03l0.093,0.029l0.094,0.029l0.094,0.028l0.094,0.028l0.094,0.027l0.095,0.027l0.095,0.026l0.095,0.026l0.095,0.025l0.096,0.025l0.096,0.024l0.096,0.023l0.096,0.023l0.097,0.023l0.097,0.022l0.097,0.021l0.097,0.021l0.097,0.02l0.098,0.02l0.098,0.019l0.098,0.018l0.098,0.018l0.099,0.018l0.099,0.017l0.099,0.016l0.099,0.016l0.099,0.015l0.1,0.014l0.099,0.014l0.1,0.014l0.101,0.013l0.1,0.012l0.101,0.012l0.1,0.011l0.101,0.01l0.102,0.01l0.101,0.01l0.102,0.009l0.101,0.008l0.102,0.007l0.102,0.007l0.103,0.007l0.102,0.006l0.103,0.005l0.102,0.004l0.103,0.004l0.104,0.004l0.103,0.002l0.103,0.003l0.104,0.001l0.104,0.001l0.104,0l0.104,0Z" style="fill:rgb(90,133,129);"/>
                </g>
                <g transform="matrix(1,0,0,1,271.331,-95)">
                    <g transform="matrix(12.5,0,0,12.5,46.3011,223.137)">
                        <path d="M0.91,-0.526l0,0.291c0,0.078 -0.019,0.138 -0.056,0.179c-0.037,0.041 -0.092,0.061 -0.165,0.061c-0.046,0 -0.084,-0.009 -0.115,-0.026c-0.031,-0.018 -0.055,-0.046 -0.072,-0.085c-0.017,0.038 -0.04,0.066 -0.071,0.084c-0.031,0.018 -0.069,0.027 -0.116,0.027c-0.073,0 -0.128,-0.02 -0.165,-0.061c-0.037,-0.041 -0.056,-0.101 -0.056,-0.179l0,-0.291l0.071,0l0,0.285c0,0.062 0.012,0.108 0.036,0.138c0.024,0.029 0.062,0.044 0.114,0.044c0.051,0 0.09,-0.015 0.114,-0.045c0.026,-0.03 0.038,-0.076 0.038,-0.139l0,-0.283l0.071,0l0,0.283c0,0.063 0.012,0.109 0.037,0.139c0.025,0.03 0.063,0.045 0.115,0.045c0.051,0 0.088,-0.015 0.112,-0.045c0.025,-0.029 0.037,-0.075 0.037,-0.137l0,-0.285l0.071,0Z" style="fill:rgb(254,113,125);fill-rule:nonzero;"/>
                    </g>
                    <g transform="matrix(12.5,0,0,12.5,58.8511,223.137)">
                        <path d="M0.099,-0.526l0.071,0l0,0.526l-0.071,0l0,-0.526Zm0.036,-0.115c-0.015,0 -0.027,-0.005 -0.037,-0.015c-0.01,-0.01 -0.015,-0.022 -0.015,-0.036c0,-0.013 0.005,-0.025 0.015,-0.035c0.01,-0.01 0.022,-0.015 0.037,-0.015c0.015,0 0.027,0.005 0.037,0.015c0.01,0.009 0.015,0.021 0.015,0.034c0,0.015 -0.005,0.027 -0.015,0.037c-0.01,0.01 -0.022,0.015 -0.037,0.015Z" style="fill:rgb(254,113,125);fill-rule:nonzero;"/>
                    </g>
                    <g transform="matrix(12.5,0,0,12.5,62.2136,223.137)">
                        <path d="M0.579,-0.742l0,0.742l-0.068,0l0,-0.104c-0.021,0.035 -0.049,0.062 -0.084,0.081c-0.035,0.019 -0.075,0.028 -0.119,0.028c-0.049,0 -0.094,-0.011 -0.134,-0.034c-0.04,-0.023 -0.071,-0.054 -0.094,-0.095c-0.023,-0.041 -0.034,-0.087 -0.034,-0.139c0,-0.052 0.011,-0.098 0.034,-0.139c0.023,-0.041 0.054,-0.072 0.094,-0.094c0.04,-0.023 0.085,-0.034 0.134,-0.034c0.043,0 0.081,0.009 0.116,0.027c0.034,0.017 0.062,0.043 0.084,0.077l0,-0.316l0.071,0Zm-0.265,0.684c0.037,0 0.07,-0.009 0.1,-0.026c0.029,-0.017 0.053,-0.041 0.07,-0.072c0.017,-0.031 0.025,-0.067 0.025,-0.107c0,-0.04 -0.008,-0.076 -0.025,-0.107c-0.017,-0.031 -0.041,-0.056 -0.07,-0.073c-0.03,-0.017 -0.063,-0.025 -0.1,-0.025c-0.037,0 -0.071,0.008 -0.1,0.025c-0.03,0.017 -0.053,0.042 -0.07,0.073c-0.017,0.031 -0.026,0.067 -0.026,0.107c0,0.04 0.009,0.076 0.026,0.107c0.017,0.031 0.04,0.055 0.07,0.072c0.029,0.017 0.063,0.026 0.1,0.026Z" style="fill:rgb(254,113,125);fill-rule:nonzero;"/>
                    </g>
                    <g transform="matrix(12.5,0,0,12.5,70.6886,223.137)">
                        <path d="M0.358,-0.032c-0.013,0.012 -0.03,0.021 -0.049,0.028c-0.019,0.006 -0.04,0.009 -0.061,0.009c-0.049,0 -0.087,-0.013 -0.114,-0.04c-0.027,-0.027 -0.04,-0.064 -0.04,-0.113l0,-0.493l0.071,0l0,0.115l0.159,0l0,0.06l-0.159,0l0,0.314c0,0.031 0.008,0.055 0.023,0.072c0.015,0.016 0.038,0.024 0.067,0.024c0.032,0 0.058,-0.009 0.078,-0.027l0.025,0.051Z" style="fill:rgb(254,113,125);fill-rule:nonzero;"/>
                    </g>
                    <g transform="matrix(12.5,0,0,12.5,75.5386,223.137)">
                        <path d="M0.367,-0.53c0.066,0 0.118,0.019 0.157,0.058c0.039,0.038 0.059,0.094 0.059,0.167l0,0.305l-0.071,0l0,-0.298c0,-0.055 -0.014,-0.096 -0.041,-0.125c-0.027,-0.029 -0.066,-0.043 -0.117,-0.043c-0.057,0 -0.102,0.017 -0.135,0.051c-0.033,0.033 -0.049,0.08 -0.049,0.139l0,0.276l-0.071,0l0,-0.742l0.071,0l0,0.308c0.019,-0.031 0.046,-0.054 0.08,-0.071c0.034,-0.017 0.073,-0.025 0.117,-0.025Z" style="fill:rgb(254,113,125);fill-rule:nonzero;"/>
                    </g>
                </g>
                <g transform="matrix(1,0,0,1,192.651,-95)">
                    <g transform="matrix(12.5,0,0,12.5,49.7926,223.137)">
                        <path d="M0.317,0.005c-0.052,0 -0.099,-0.011 -0.14,-0.034c-0.04,-0.023 -0.073,-0.055 -0.096,-0.096c-0.023,-0.041 -0.035,-0.087 -0.035,-0.138c0,-0.051 0.012,-0.097 0.035,-0.138c0.023,-0.041 0.056,-0.072 0.097,-0.095c0.041,-0.023 0.087,-0.034 0.139,-0.034c0.045,0 0.086,0.009 0.122,0.027c0.035,0.017 0.063,0.043 0.084,0.077l-0.053,0.036c-0.017,-0.026 -0.039,-0.045 -0.066,-0.058c-0.027,-0.014 -0.056,-0.02 -0.087,-0.02c-0.038,0 -0.072,0.009 -0.103,0.026c-0.03,0.017 -0.053,0.041 -0.071,0.072c-0.016,0.031 -0.025,0.067 -0.025,0.107c0,0.041 0.009,0.077 0.025,0.108c0.018,0.031 0.041,0.055 0.072,0.072c0.03,0.017 0.064,0.025 0.102,0.025c0.031,0 0.06,-0.006 0.087,-0.019c0.027,-0.013 0.049,-0.032 0.066,-0.058l0.053,0.036c-0.021,0.034 -0.049,0.06 -0.085,0.078c-0.036,0.017 -0.076,0.026 -0.121,0.026Z" style="fill:rgb(54,192,173);fill-rule:nonzero;"/>
                    </g>
                    <g transform="matrix(12.5,0,0,12.5,56.7176,223.137)">
                        <path d="M0.324,-0.058c0.033,0 0.063,-0.006 0.09,-0.017c0.028,-0.012 0.052,-0.029 0.071,-0.052l0.04,0.046c-0.023,0.028 -0.052,0.049 -0.087,0.064c-0.035,0.015 -0.073,0.022 -0.115,0.022c-0.054,0 -0.102,-0.011 -0.144,-0.034c-0.042,-0.023 -0.075,-0.055 -0.098,-0.096c-0.023,-0.041 -0.035,-0.087 -0.035,-0.138c0,-0.051 0.011,-0.097 0.034,-0.138c0.022,-0.041 0.053,-0.072 0.092,-0.095c0.039,-0.023 0.084,-0.034 0.134,-0.034c0.047,0 0.089,0.011 0.127,0.032c0.037,0.021 0.067,0.051 0.089,0.089c0.023,0.038 0.035,0.081 0.036,0.13l-0.432,0.084c0.013,0.043 0.037,0.076 0.072,0.101c0.035,0.024 0.077,0.036 0.126,0.036Zm-0.018,-0.411c-0.037,0 -0.07,0.009 -0.099,0.026c-0.029,0.017 -0.051,0.04 -0.068,0.071c-0.016,0.03 -0.024,0.065 -0.024,0.104c0,0.01 0,0.017 0.001,0.022l0.371,-0.072c-0.008,-0.044 -0.028,-0.08 -0.061,-0.108c-0.033,-0.029 -0.073,-0.043 -0.12,-0.043Z" style="fill:rgb(54,192,173);fill-rule:nonzero;"/>
                    </g>
                    <g transform="matrix(12.5,0,0,12.5,64.2676,223.137)">
                        <path d="M0.367,-0.53c0.066,0 0.118,0.019 0.157,0.058c0.039,0.038 0.059,0.094 0.059,0.167l0,0.305l-0.071,0l0,-0.298c0,-0.055 -0.014,-0.096 -0.041,-0.125c-0.027,-0.029 -0.066,-0.043 -0.117,-0.043c-0.057,0 -0.102,0.017 -0.135,0.051c-0.033,0.033 -0.049,0.08 -0.049,0.139l0,0.276l-0.071,0l0,-0.526l0.068,0l0,0.097c0.019,-0.032 0.046,-0.057 0.08,-0.074c0.035,-0.018 0.075,-0.027 0.12,-0.027Z" style="fill:rgb(54,192,173);fill-rule:nonzero;"/>
                    </g>
                    <g transform="matrix(12.5,0,0,12.5,72.7301,223.137)">
                        <path d="M0.358,-0.032c-0.013,0.012 -0.03,0.021 -0.049,0.028c-0.019,0.006 -0.04,0.009 -0.061,0.009c-0.049,0 -0.087,-0.013 -0.114,-0.04c-0.027,-0.027 -0.04,-0.064 -0.04,-0.113l0,-0.493l0.071,0l0,0.115l0.159,0l0,0.06l-0.159,0l0,0.314c0,0.031 0.008,0.055 0.023,0.072c0.015,0.016 0.038,0.024 0.067,0.024c0.032,0 0.058,-0.009 0.078,-0.027l0.025,0.051Z" style="fill:rgb(54,192,173);fill-rule:nonzero;"/>
                    </g>
                    <g transform="matrix(12.5,0,0,12.5,77.3426,223.137)">
                        <path d="M0.324,-0.058c0.033,0 0.063,-0.006 0.09,-0.017c0.028,-0.012 0.052,-0.029 0.071,-0.052l0.04,0.046c-0.023,0.028 -0.052,0.049 -0.087,0.064c-0.035,0.015 -0.073,0.022 -0.115,0.022c-0.054,0 -0.102,-0.011 -0.144,-0.034c-0.042,-0.023 -0.075,-0.055 -0.098,-0.096c-0.023,-0.041 -0.035,-0.087 -0.035,-0.138c0,-0.051 0.011,-0.097 0.034,-0.138c0.022,-0.041 0.053,-0.072 0.092,-0.095c0.039,-0.023 0.084,-0.034 0.134,-0.034c0.047,0 0.089,0.011 0.127,0.032c0.037,0.021 0.067,0.051 0.089,0.089c0.023,0.038 0.035,0.081 0.036,0.13l-0.432,0.084c0.013,0.043 0.037,0.076 0.072,0.101c0.035,0.024 0.077,0.036 0.126,0.036Zm-0.018,-0.411c-0.037,0 -0.07,0.009 -0.099,0.026c-0.029,0.017 -0.051,0.04 -0.068,0.071c-0.016,0.03 -0.024,0.065 -0.024,0.104c0,0.01 0,0.017 0.001,0.022l0.371,-0.072c-0.008,-0.044 -0.028,-0.08 -0.061,-0.108c-0.033,-0.029 -0.073,-0.043 -0.12,-0.043Z" style="fill:rgb(54,192,173);fill-rule:nonzero;"/>
                    </g>
                    <g transform="matrix(12.5,0,0,12.5,84.8926,223.137)">
                        <path d="M0.167,-0.423c0.017,-0.035 0.041,-0.062 0.074,-0.08c0.034,-0.018 0.074,-0.027 0.123,-0.027l0,0.069l-0.017,-0.001c-0.055,0 -0.099,0.017 -0.13,0.051c-0.031,0.034 -0.047,0.082 -0.047,0.143l0,0.268l-0.071,0l0,-0.526l0.068,0l0,0.103Z" style="fill:rgb(54,192,173);fill-rule:nonzero;"/>
                    </g>
                </g>
                <g transform="matrix(1,0,0,1,217.5,150.179)">
                    <g id="Symbol">
                        <path id="SLM" d="M67.192,225.794c-0.923,0 -1.814,-0.125 -2.675,-0.375c-0.861,-0.25 -1.553,-0.575 -2.075,-0.975l0.916,-2.034c0.5,0.367 1.095,0.662 1.784,0.884c0.689,0.222 1.377,0.333 2.066,0.333c0.767,0 1.334,-0.114 1.7,-0.342c0.367,-0.227 0.55,-0.53 0.55,-0.908c0,-0.278 -0.108,-0.508 -0.325,-0.692c-0.216,-0.183 -0.494,-0.33 -0.833,-0.441c-0.339,-0.111 -0.797,-0.234 -1.375,-0.367c-0.889,-0.211 -1.617,-0.422 -2.183,-0.633c-0.567,-0.211 -1.053,-0.55 -1.459,-1.017c-0.405,-0.467 -0.608,-1.089 -0.608,-1.867c0,-0.677 0.183,-1.291 0.55,-1.841c0.367,-0.55 0.919,-0.986 1.658,-1.309c0.739,-0.322 1.642,-0.483 2.709,-0.483c0.744,0 1.472,0.089 2.183,0.267c0.711,0.178 1.333,0.433 1.867,0.766l-0.834,2.05c-1.077,-0.611 -2.155,-0.916 -3.233,-0.916c-0.756,0 -1.314,0.122 -1.675,0.366c-0.361,0.245 -0.542,0.567 -0.542,0.967c0,0.4 0.209,0.697 0.625,0.892c0.417,0.194 1.053,0.386 1.909,0.575c0.889,0.211 1.616,0.422 2.183,0.633c0.567,0.211 1.053,0.545 1.458,1c0.406,0.456 0.609,1.072 0.609,1.85c0,0.667 -0.186,1.275 -0.559,1.825c-0.372,0.55 -0.93,0.986 -1.675,1.308c-0.744,0.323 -1.65,0.484 -2.716,0.484Z" style="fill:rgb(235,235,235);fill-rule:nonzero;stroke:rgb(38,38,38);stroke-width:0.29px;stroke-linecap:butt;stroke-miterlimit:2;"/>
                        <path d="M73.992,213.927l2.7,0l0,9.467l5.85,0l0,2.2l-8.55,0l0,-11.667Z" style="fill:rgb(235,235,235);fill-rule:nonzero;stroke:rgb(38,38,38);stroke-width:0.29px;stroke-linecap:butt;stroke-miterlimit:2;"/>
                        <path d="M97.375,213.727c1.378,0 2.45,0.403 3.217,1.208c0.766,0.806 1.15,1.97 1.15,3.492l0,7.167l-2.7,0l0,-7.084c0,-0.822 -0.214,-1.441 -0.642,-1.858c-0.428,-0.417 -0.992,-0.625 -1.692,-0.625c-0.766,0 -1.377,0.22 -1.833,0.658c-0.456,0.439 -0.683,1.103 -0.683,1.992l0,6.917l-2.7,0l0,-7.084c0,-0.822 -0.2,-1.441 -0.6,-1.858c-0.4,-0.417 -0.945,-0.625 -1.634,-0.625c-0.755,0 -1.361,0.22 -1.816,0.658c-0.456,0.439 -0.684,1.103 -0.684,1.992l0,6.917l-2.7,0l0,-11.667l2.617,0l0,1.433c0.356,-0.522 0.828,-0.925 1.417,-1.208c0.589,-0.283 1.266,-0.425 2.033,-0.425c0.8,0 1.5,0.147 2.1,0.442c0.6,0.294 1.061,0.719 1.383,1.275c0.4,-0.556 0.925,-0.981 1.575,-1.275c0.65,-0.295 1.381,-0.442 2.192,-0.442Z" style="fill:rgb(235,235,235);fill-rule:nonzero;stroke:rgb(38,38,38);stroke-width:0.29px;stroke-linecap:butt;stroke-miterlimit:2;"/>
                    </g>
                </g>
                <g transform="matrix(1,0,0,1,234.282,44)">
                    <g id="Symbol1" serif:id="Symbol">
                        <g id="sync" transform="matrix(12.5,0,0,12.5,50.6928,223.137)">
                            <path d="M0.24,0.005c-0.043,0 -0.083,-0.006 -0.123,-0.019c-0.038,-0.012 -0.069,-0.027 -0.091,-0.046l0.032,-0.056c0.022,0.017 0.05,0.031 0.083,0.042c0.033,0.011 0.068,0.017 0.104,0.017c0.048,0 0.083,-0.008 0.106,-0.023c0.023,-0.015 0.035,-0.036 0.035,-0.063c0,-0.019 -0.006,-0.035 -0.019,-0.046c-0.013,-0.011 -0.029,-0.019 -0.048,-0.024c-0.019,-0.006 -0.045,-0.012 -0.077,-0.017c-0.043,-0.008 -0.077,-0.016 -0.103,-0.025c-0.026,-0.008 -0.048,-0.022 -0.066,-0.042c-0.019,-0.02 -0.028,-0.048 -0.028,-0.083c0,-0.044 0.018,-0.08 0.055,-0.108c0.037,-0.028 0.088,-0.042 0.153,-0.042c0.034,0 0.068,0.005 0.102,0.014c0.034,0.009 0.062,0.02 0.084,0.035l-0.031,0.057c-0.043,-0.03 -0.095,-0.045 -0.155,-0.045c-0.045,0 -0.08,0.008 -0.103,0.024c-0.022,0.016 -0.034,0.037 -0.034,0.063c0,0.02 0.007,0.036 0.02,0.048c0.013,0.012 0.029,0.021 0.048,0.026c0.019,0.006 0.046,0.012 0.08,0.018c0.042,0.008 0.076,0.016 0.101,0.024c0.025,0.008 0.047,0.022 0.065,0.041c0.018,0.019 0.027,0.046 0.027,0.08c0,0.046 -0.019,0.082 -0.057,0.109c-0.039,0.027 -0.092,0.041 -0.16,0.041Z" style="fill:rgb(248,109,1);fill-rule:nonzero;"/>
                        </g>
                        <g transform="matrix(12.5,0,0,12.5,56.8053,223.137)">
                            <path d="M0.573,-0.526l0,0.462c0,0.089 -0.02,0.155 -0.061,0.198c-0.041,0.043 -0.102,0.065 -0.184,0.065c-0.046,0 -0.09,-0.007 -0.131,-0.022c-0.041,-0.014 -0.074,-0.034 -0.099,-0.059l0.036,-0.054c0.023,0.023 0.051,0.04 0.084,0.053c0.033,0.013 0.069,0.019 0.107,0.019c0.061,0 0.105,-0.016 0.134,-0.047c0.029,-0.031 0.043,-0.079 0.043,-0.144l0,-0.061c-0.019,0.031 -0.044,0.054 -0.077,0.071c-0.032,0.017 -0.068,0.025 -0.109,0.025c-0.069,0 -0.123,-0.019 -0.163,-0.058c-0.039,-0.038 -0.059,-0.094 -0.059,-0.168l0,-0.28l0.071,0l0,0.273c0,0.055 0.014,0.097 0.041,0.126c0.027,0.029 0.066,0.043 0.117,0.043c0.055,0 0.099,-0.017 0.131,-0.051c0.032,-0.033 0.048,-0.08 0.048,-0.14l0,-0.251l0.071,0Z" style="fill:rgb(248,109,1);fill-rule:nonzero;"/>
                        </g>
                        <g transform="matrix(12.5,0,0,12.5,65.2178,223.137)">
                            <path d="M0.367,-0.53c0.066,0 0.118,0.019 0.157,0.058c0.039,0.038 0.059,0.094 0.059,0.167l0,0.305l-0.071,0l0,-0.298c0,-0.055 -0.014,-0.096 -0.041,-0.125c-0.027,-0.029 -0.066,-0.043 -0.117,-0.043c-0.057,0 -0.102,0.017 -0.135,0.051c-0.033,0.033 -0.049,0.08 -0.049,0.139l0,0.276l-0.071,0l0,-0.526l0.068,0l0,0.097c0.019,-0.032 0.046,-0.057 0.08,-0.074c0.035,-0.018 0.075,-0.027 0.12,-0.027Z" style="fill:rgb(248,109,1);fill-rule:nonzero;"/>
                        </g>
                        <g transform="matrix(12.5,0,0,12.5,73.7053,223.137)">
                            <path d="M0.317,0.005c-0.052,0 -0.099,-0.011 -0.14,-0.034c-0.04,-0.023 -0.073,-0.055 -0.096,-0.096c-0.023,-0.041 -0.035,-0.087 -0.035,-0.138c0,-0.051 0.012,-0.097 0.035,-0.138c0.023,-0.041 0.056,-0.072 0.097,-0.095c0.041,-0.023 0.087,-0.034 0.139,-0.034c0.045,0 0.086,0.009 0.122,0.027c0.035,0.017 0.063,0.043 0.084,0.077l-0.053,0.036c-0.017,-0.026 -0.039,-0.045 -0.066,-0.058c-0.027,-0.014 -0.056,-0.02 -0.087,-0.02c-0.038,0 -0.072,0.009 -0.103,0.026c-0.03,0.017 -0.053,0.041 -0.071,0.072c-0.016,0.031 -0.025,0.067 -0.025,0.107c0,0.041 0.009,0.077 0.025,0.108c0.018,0.031 0.041,0.055 0.072,0.072c0.03,0.017 0.064,0.025 0.102,0.025c0.031,0 0.06,-0.006 0.087,-0.019c0.027,-0.013 0.049,-0.032 0.066,-0.058l0.053,0.036c-0.021,0.034 -0.049,0.06 -0.085,0.078c-0.036,0.017 -0.076,0.026 -0.121,0.026Z" style="fill:rgb(248,109,1);fill-rule:nonzero;"/>
                        </g>
                    </g>
                </g>
                <g transform="matrix(1,0,0,1,219.472,-2.84217e-14)">
                    <g id="Symbol2" serif:id="Symbol">
                        <g id="in" transform="matrix(12.5,0,0,12.5,52.1156,223.137)">
                            <path d="M0.099,-0.526l0.071,0l0,0.526l-0.071,0l0,-0.526Zm0.036,-0.115c-0.015,0 -0.027,-0.005 -0.037,-0.015c-0.01,-0.01 -0.015,-0.022 -0.015,-0.036c0,-0.013 0.005,-0.025 0.015,-0.035c0.01,-0.01 0.022,-0.015 0.037,-0.015c0.015,0 0.027,0.005 0.037,0.015c0.01,0.009 0.015,0.021 0.015,0.034c0,0.015 -0.005,0.027 -0.015,0.037c-0.01,0.01 -0.022,0.015 -0.037,0.015Z" style="fill:rgb(235,235,235);fill-rule:nonzero;"/>
                        </g>
                        <g transform="matrix(12.5,0,0,12.5,55.4781,223.137)">
                            <path d="M0.367,-0.53c0.066,0 0.118,0.019 0.157,0.058c0.039,0.038 0.059,0.094 0.059,0.167l0,0.305l-0.071,0l0,-0.298c0,-0.055 -0.014,-0.096 -0.041,-0.125c-0.027,-0.029 -0.066,-0.043 -0.117,-0.043c-0.057,0 -0.102,0.017 -0.135,0.051c-0.033,0.033 -0.049,0.08 -0.049,0.139l0,0.276l-0.071,0l0,-0.526l0.068,0l0,0.097c0.019,-0.032 0.046,-0.057 0.08,-0.074c0.035,-0.018 0.075,-0.027 0.12,-0.027Z" style="fill:rgb(235,235,235);fill-rule:nonzero;"/>
                        </g>
                    </g>
                </g>
                <g transform="matrix(1,0,0,1,264.472,-5.68434e-14)">
                    <g id="Symbol3" serif:id="Symbol">
                        <g id="in1" serif:id="in" transform="matrix(12.5,0,0,12.5,52.1156,223.137)">
                            <path d="M0.099,-0.526l0.071,0l0,0.526l-0.071,0l0,-0.526Zm0.036,-0.115c-0.015,0 -0.027,-0.005 -0.037,-0.015c-0.01,-0.01 -0.015,-0.022 -0.015,-0.036c0,-0.013 0.005,-0.025 0.015,-0.035c0.01,-0.01 0.022,-0.015 0.037,-0.015c0.015,0 0.027,0.005 0.037,0.015c0.01,0.009 0.015,0.021 0.015,0.034c0,0.015 -0.005,0.027 -0.015,0.037c-0.01,0.01 -0.022,0.015 -0.037,0.015Z" style="fill:rgb(235,235,235);fill-rule:nonzero;"/>
                        </g>
                        <g transform="matrix(12.5,0,0,12.5,55.4781,223.137)">
                            <path d="M0.367,-0.53c0.066,0 0.118,0.019 0.157,0.058c0.039,0.038 0.059,0.094 0.059,0.167l0,0.305l-0.071,0l0,-0.298c0,-0.055 -0.014,-0.096 -0.041,-0.125c-0.027,-0.029 -0.066,-0.043 -0.117,-0.043c-0.057,0 -0.102,0.017 -0.135,0.051c-0.033,0.033 -0.049,0.08 -0.049,0.139l0,0.276l-0.071,0l0,-0.526l0.068,0l0,0.097c0.019,-0.032 0.046,-0.057 0.08,-0.074c0.035,-0.018 0.075,-0.027 0.12,-0.027Z" style="fill:rgb(235,235,235);fill-rule:nonzero;"/>
                        </g>
                    </g>
                </g>
                <g transform="matrix(0.666667,0,0,0.930741,100,24.5953)">
                    <path d="M322.5,320.116c0,-8.895 -10.082,-16.116 -22.5,-16.116c-12.418,0 -22.5,7.221 -22.5,16.116l0,18.89c0,8.895 10.082,16.117 22.5,16.117c12.418,0 22.5,-7.222 22.5,-16.117l0,-18.89Z" style="fill:rgb(235,235,235);"/>
                </g>
                <g transform="matrix(1,0,0,1,237.198,123.5)">
                    <g id="Symbol4" serif:id="Symbol">
                        <g id="out" transform="matrix(12.5,0,0,12.5,51.8397,223.137)">
                            <path d="M0.328,0.008c-0.057,0 -0.108,-0.012 -0.153,-0.036c-0.045,-0.023 -0.08,-0.056 -0.105,-0.098c-0.025,-0.042 -0.038,-0.09 -0.038,-0.143c0,-0.053 0.013,-0.101 0.038,-0.143c0.025,-0.042 0.06,-0.075 0.105,-0.098c0.045,-0.024 0.096,-0.036 0.153,-0.036c0.057,0 0.107,0.012 0.152,0.036c0.045,0.023 0.08,0.056 0.105,0.098c0.025,0.042 0.038,0.09 0.038,0.143c0,0.053 -0.013,0.101 -0.038,0.143c-0.025,0.042 -0.06,0.075 -0.105,0.099c-0.045,0.023 -0.095,0.035 -0.152,0.035Zm0,-0.128c0.04,0 0.073,-0.014 0.099,-0.041c0.025,-0.026 0.038,-0.063 0.038,-0.108c0,-0.045 -0.013,-0.081 -0.038,-0.108c-0.026,-0.028 -0.059,-0.041 -0.099,-0.041c-0.04,0 -0.073,0.013 -0.099,0.04c-0.026,0.028 -0.039,0.064 -0.039,0.109c0,0.045 0.013,0.082 0.039,0.109c0.026,0.027 0.059,0.04 0.099,0.04Z" style="fill:rgb(47,57,65);fill-rule:nonzero;"/>
                        </g>
                        <g transform="matrix(12.5,0,0,12.5,60.0272,223.137)">
                            <path d="M0.614,-0.538l0,0.538l-0.148,0l0,-0.064c-0.021,0.023 -0.045,0.041 -0.074,0.054c-0.029,0.012 -0.06,0.018 -0.093,0.018c-0.071,0 -0.127,-0.02 -0.168,-0.061c-0.041,-0.041 -0.062,-0.101 -0.062,-0.181l0,-0.304l0.156,0l0,0.281c0,0.087 0.036,0.13 0.109,0.13c0.037,0 0.067,-0.012 0.09,-0.037c0.023,-0.024 0.034,-0.06 0.034,-0.108l0,-0.266l0.156,0Z" style="fill:rgb(47,57,65);fill-rule:nonzero;"/>
                        </g>
                        <g transform="matrix(12.5,0,0,12.5,68.6147,223.137)">
                            <path d="M0.396,-0.026c-0.015,0.011 -0.034,0.02 -0.056,0.026c-0.023,0.005 -0.046,0.008 -0.07,0.008c-0.065,0 -0.114,-0.016 -0.149,-0.049c-0.035,-0.033 -0.052,-0.081 -0.052,-0.144l0,-0.472l0.156,0l0,0.131l0.133,0l0,0.12l-0.133,0l0,0.219c0,0.023 0.006,0.04 0.017,0.053c0.011,0.012 0.028,0.018 0.049,0.018c0.024,0 0.045,-0.007 0.064,-0.02l0.041,0.11Z" style="fill:rgb(47,57,65);fill-rule:nonzero;"/>
                        </g>
                    </g>
                </g>
                <g transform="matrix(1.125,0,0,1,-37.5,0)">
                    <path d="M360,44.277c0,-3.464 -2.5,-6.277 -5.58,-6.277l-108.84,0c-3.08,0 -5.58,2.813 -5.58,6.277l0,63.446c0,3.464 2.5,6.277 5.58,6.277l108.84,0c3.08,0 5.58,-2.813 5.58,-6.277l0,-63.446Z" style="fill:rgb(26,32,36);"/>
                    <path d="M354.492,38.001l0.072,0.001l0.072,0.003l0.071,0.003l0.072,0.005l0.07,0.005l0.071,0.007l0.071,0.007l0.07,0.009l0.07,0.009l0.069,0.011l0.07,0.011l0.069,0.013l0.069,0.013l0.068,0.014l0.068,0.016l0.068,0.016l0.068,0.017l0.067,0.018l0.067,0.019l0.067,0.02l0.066,0.02l0.066,0.022l0.066,0.022l0.065,0.024l0.065,0.024l0.065,0.025l0.064,0.026l0.064,0.027l0.063,0.028l0.064,0.028l0.062,0.03l0.063,0.03l0.062,0.031l0.061,0.032l0.061,0.032l0.061,0.034l0.061,0.034l0.06,0.035l0.059,0.036l0.059,0.037l0.059,0.037l0.058,0.038l0.058,0.039l0.057,0.04l0.057,0.04l0.056,0.042l0.056,0.042l0.056,0.042l0.054,0.044l0.055,0.044l0.054,0.045l0.053,0.045l0.053,0.047l0.053,0.046l0.052,0.048l0.051,0.048l0.051,0.049l0.05,0.05l0.05,0.05l0.049,0.051l0.049,0.052l0.048,0.052l0.048,0.053l0.047,0.054l0.047,0.054l0.045,0.055l0.046,0.055l0.045,0.056l0.044,0.057l0.043,0.057l0.043,0.058l0.043,0.059l0.041,0.059l0.041,0.059l0.041,0.06l0.04,0.061l0.039,0.061l0.039,0.062l0.038,0.063l0.037,0.062l0.036,0.064l0.036,0.064l0.036,0.064l0.034,0.065l0.034,0.066l0.034,0.066l0.032,0.066l0.032,0.067l0.031,0.067l0.031,0.068l0.029,0.069l0.029,0.069l0.029,0.069l0.027,0.07l0.027,0.07l0.026,0.07l0.026,0.071l0.024,0.072l0.024,0.072l0.023,0.072l0.023,0.073l0.021,0.073l0.021,0.073l0.02,0.074l0.019,0.074l0.019,0.075l0.017,0.075l0.017,0.075l0.016,0.076l0.015,0.076l0.015,0.077l0.013,0.076l0.013,0.078l0.012,0.077l0.011,0.078l0.01,0.078l0.009,0.078l0.009,0.079l0.007,0.079l0.007,0.079l0.006,0.079l0.005,0.08l0.004,0.08l0.003,0.081l0.002,0.08l0.002,0.081l0,0.081l0,63.446l0,0.081l-0.002,0.081l-0.002,0.08l-0.003,0.081l-0.004,0.08l-0.005,0.08l-0.006,0.079l-0.007,0.079l-0.007,0.079l-0.009,0.079l-0.009,0.078l-0.01,0.078l-0.011,0.078l-0.012,0.077l-0.013,0.078l-0.013,0.076l-0.015,0.077l-0.015,0.076l-0.016,0.076l-0.017,0.075l-0.017,0.075l-0.019,0.075l-0.019,0.074l-0.02,0.074l-0.021,0.073l-0.021,0.073l-0.023,0.073l-0.023,0.072l-0.024,0.072l-0.024,0.072l-0.026,0.071l-0.026,0.07l-0.027,0.07l-0.027,0.07l-0.029,0.069l-0.029,0.069l-0.029,0.069l-0.031,0.068l-0.031,0.067l-0.032,0.067l-0.032,0.066l-0.034,0.066l-0.034,0.066l-0.034,0.065l-0.036,0.064l-0.036,0.064l-0.036,0.064l-0.037,0.062l-0.038,0.063l-0.039,0.062l-0.039,0.061l-0.04,0.061l-0.041,0.06l-0.041,0.059l-0.041,0.059l-0.043,0.059l-0.043,0.058l-0.043,0.057l-0.044,0.057l-0.045,0.056l-0.046,0.055l-0.045,0.055l-0.047,0.054l-0.047,0.054l-0.048,0.053l-0.048,0.052l-0.049,0.052l-0.049,0.051l-0.05,0.05l-0.05,0.05l-0.051,0.049l-0.051,0.048l-0.052,0.048l-0.053,0.046l-0.053,0.047l-0.053,0.045l-0.054,0.045l-0.055,0.044l-0.054,0.044l-0.056,0.042l-0.056,0.042l-0.056,0.042l-0.057,0.04l-0.057,0.04l-0.058,0.039l-0.058,0.038l-0.059,0.037l-0.059,0.037l-0.059,0.036l-0.06,0.035l-0.061,0.034l-0.061,0.034l-0.061,0.032l-0.061,0.032l-0.062,0.031l-0.063,0.03l-0.062,0.03l-0.064,0.028l-0.063,0.028l-0.064,0.027l-0.064,0.026l-0.065,0.025l-0.065,0.024l-0.065,0.024l-0.066,0.022l-0.066,0.022l-0.066,0.02l-0.067,0.02l-0.067,0.019l-0.067,0.018l-0.068,0.017l-0.068,0.016l-0.068,0.016l-0.068,0.014l-0.069,0.013l-0.069,0.013l-0.07,0.011l-0.069,0.011l-0.07,0.009l-0.07,0.009l-0.071,0.007l-0.071,0.007l-0.07,0.005l-0.072,0.005l-0.071,0.003l-0.072,0.003l-0.072,0.001l-0.072,0.001l-108.84,0l-0.072,-0.001l-0.072,-0.001l-0.072,-0.003l-0.071,-0.003l-0.072,-0.005l-0.07,-0.005l-0.071,-0.007l-0.071,-0.007l-0.07,-0.009l-0.07,-0.009l-0.069,-0.011l-0.07,-0.011l-0.069,-0.013l-0.069,-0.013l-0.068,-0.014l-0.068,-0.016l-0.068,-0.016l-0.068,-0.017l-0.067,-0.018l-0.067,-0.019l-0.067,-0.02l-0.066,-0.02l-0.066,-0.022l-0.066,-0.022l-0.065,-0.024l-0.065,-0.024l-0.065,-0.025l-0.064,-0.026l-0.064,-0.027l-0.063,-0.028l-0.064,-0.028l-0.062,-0.03l-0.063,-0.03l-0.062,-0.031l-0.061,-0.032l-0.061,-0.032l-0.061,-0.034l-0.061,-0.034l-0.06,-0.035l-0.059,-0.036l-0.059,-0.037l-0.059,-0.037l-0.058,-0.038l-0.058,-0.039l-0.057,-0.04l-0.057,-0.04l-0.056,-0.042l-0.056,-0.042l-0.056,-0.042l-0.054,-0.044l-0.055,-0.044l-0.054,-0.045l-0.053,-0.045l-0.053,-0.047l-0.053,-0.046l-0.052,-0.048l-0.051,-0.048l-0.051,-0.049l-0.05,-0.05l-0.05,-0.05l-0.049,-0.051l-0.049,-0.052l-0.048,-0.052l-0.048,-0.053l-0.047,-0.054l-0.047,-0.054l-0.045,-0.055l-0.046,-0.055l-0.045,-0.056l-0.044,-0.057l-0.043,-0.057l-0.043,-0.058l-0.043,-0.059l-0.041,-0.059l-0.041,-0.059l-0.041,-0.06l-0.04,-0.061l-0.039,-0.061l-0.039,-0.062l-0.038,-0.063l-0.037,-0.062l-0.036,-0.064l-0.036,-0.064l-0.036,-0.064l-0.034,-0.065l-0.034,-0.066l-0.034,-0.066l-0.032,-0.066l-0.032,-0.067l-0.031,-0.067l-0.031,-0.068l-0.029,-0.069l-0.029,-0.069l-0.029,-0.069l-0.027,-0.07l-0.027,-0.07l-0.026,-0.07l-0.026,-0.071l-0.024,-0.072l-0.024,-0.072l-0.023,-0.072l-0.023,-0.073l-0.021,-0.073l-0.021,-0.073l-0.02,-0.074l-0.019,-0.074l-0.019,-0.075l-0.017,-0.075l-0.017,-0.075l-0.016,-0.076l-0.015,-0.076l-0.015,-0.077l-0.013,-0.076l-0.013,-0.078l-0.012,-0.077l-0.011,-0.078l-0.01,-0.078l-0.009,-0.078l-0.009,-0.079l-0.007,-0.079l-0.007,-0.079l-0.006,-0.079l-0.005,-0.08l-0.004,-0.08l-0.003,-0.081l-0.002,-0.08l-0.002,-0.081l0,-0.081l0,-63.446l0,-0.081l0.002,-0.081l0.002,-0.08l0.003,-0.081l0.004,-0.08l0.005,-0.08l0.006,-0.079l0.007,-0.079l0.007,-0.079l0.009,-0.079l0.009,-0.078l0.01,-0.078l0.011,-0.078l0.012,-0.077l0.013,-0.078l0.013,-0.076l0.015,-0.077l0.015,-0.076l0.016,-0.076l0.017,-0.075l0.017,-0.075l0.019,-0.075l0.019,-0.074l0.02,-0.074l0.021,-0.073l0.021,-0.073l0.023,-0.073l0.023,-0.072l0.024,-0.072l0.024,-0.072l0.026,-0.071l0.026,-0.07l0.027,-0.07l0.027,-0.07l0.029,-0.069l0.029,-0.069l0.029,-0.069l0.031,-0.068l0.031,-0.067l0.032,-0.067l0.032,-0.066l0.034,-0.066l0.034,-0.066l0.034,-0.065l0.036,-0.064l0.036,-0.064l0.036,-0.064l0.037,-0.062l0.038,-0.063l0.039,-0.062l0.039,-0.061l0.04,-0.061l0.041,-0.06l0.041,-0.059l0.041,-0.059l0.043,-0.059l0.043,-0.058l0.043,-0.057l0.044,-0.057l0.045,-0.056l0.046,-0.055l0.045,-0.055l0.047,-0.054l0.047,-0.054l0.048,-0.053l0.048,-0.052l0.049,-0.052l0.049,-0.051l0.05,-0.05l0.05,-0.05l0.051,-0.049l0.051,-0.048l0.052,-0.048l0.053,-0.046l0.053,-0.047l0.053,-0.045l0.054,-0.045l0.055,-0.044l0.054,-0.044l0.056,-0.042l0.056,-0.042l0.056,-0.042l0.057,-0.04l0.057,-0.04l0.058,-0.039l0.058,-0.038l0.059,-0.037l0.059,-0.037l0.059,-0.036l0.06,-0.035l0.061,-0.034l0.061,-0.034l0.061,-0.032l0.061,-0.032l0.062,-0.031l0.063,-0.03l0.062,-0.03l0.064,-0.028l0.063,-0.028l0.064,-0.027l0.064,-0.026l0.065,-0.025l0.065,-0.024l0.065,-0.024l0.066,-0.022l0.066,-0.022l0.066,-0.02l0.067,-0.02l0.067,-0.019l0.067,-0.018l0.068,-0.017l0.068,-0.016l0.068,-0.016l0.068,-0.014l0.069,-0.013l0.069,-0.013l0.07,-0.011l0.069,-0.011l0.07,-0.009l0.07,-0.009l0.071,-0.007l0.071,-0.007l0.07,-0.005l0.072,-0.005l0.071,-0.003l0.072,-0.003l0.072,-0.001l0.072,-0.001l108.84,0l0.072,0.001Zm-108.911,0.443l-0.068,0l-0.067,0.002l-0.067,0.002l-0.066,0.004l-0.067,0.004l-0.065,0.005l-0.066,0.006l-0.066,0.007l-0.065,0.008l-0.065,0.009l-0.065,0.01l-0.064,0.01l-0.064,0.012l-0.064,0.012l-0.064,0.013l-0.063,0.015l-0.063,0.015l-0.063,0.015l-0.062,0.017l-0.063,0.018l-0.062,0.018l-0.061,0.019l-0.062,0.02l-0.061,0.021l-0.06,0.022l-0.061,0.023l-0.06,0.023l-0.059,0.024l-0.06,0.025l-0.059,0.026l-0.058,0.026l-0.059,0.028l-0.057,0.028l-0.058,0.028l-0.057,0.03l-0.057,0.03l-0.057,0.031l-0.056,0.032l-0.055,0.033l-0.056,0.033l-0.054,0.034l-0.055,0.035l-0.054,0.036l-0.054,0.036l-0.053,0.037l-0.053,0.037l-0.052,0.039l-0.052,0.039l-0.052,0.039l-0.051,0.041l-0.05,0.041l-0.05,0.041l-0.05,0.043l-0.049,0.043l-0.049,0.043l-0.048,0.045l-0.048,0.044l-0.048,0.046l-0.046,0.046l-0.047,0.047l-0.046,0.047l-0.045,0.048l-0.045,0.049l-0.044,0.049l-0.044,0.05l-0.043,0.051l-0.043,0.051l-0.042,0.051l-0.041,0.052l-0.041,0.053l-0.041,0.053l-0.04,0.054l-0.039,0.054l-0.039,0.055l-0.038,0.055l-0.038,0.056l-0.037,0.057l-0.036,0.057l-0.036,0.057l-0.036,0.058l-0.034,0.059l-0.034,0.058l-0.034,0.06l-0.033,0.06l-0.032,0.06l-0.031,0.061l-0.031,0.061l-0.03,0.062l-0.03,0.062l-0.029,0.063l-0.028,0.063l-0.028,0.064l-0.027,0.063l-0.026,0.065l-0.026,0.065l-0.025,0.065l-0.024,0.065l-0.024,0.066l-0.022,0.067l-0.023,0.066l-0.021,0.068l-0.021,0.067l-0.02,0.068l-0.019,0.068l-0.019,0.069l-0.018,0.069l-0.017,0.069l-0.016,0.07l-0.016,0.07l-0.014,0.07l-0.015,0.071l-0.013,0.071l-0.012,0.071l-0.012,0.072l-0.011,0.072l-0.011,0.072l-0.009,0.072l-0.009,0.073l-0.007,0.073l-0.008,0.074l-0.006,0.073l-0.005,0.074l-0.005,0.074l-0.004,0.075l-0.002,0.074l-0.003,0.075l-0.001,0.076l0,0.076l0,63.444l0,0.076l0.001,0.076l0.003,0.075l0.002,0.074l0.004,0.075l0.005,0.074l0.005,0.074l0.006,0.073l0.008,0.074l0.007,0.073l0.009,0.073l0.009,0.072l0.011,0.072l0.011,0.072l0.012,0.072l0.012,0.071l0.013,0.071l0.015,0.071l0.014,0.07l0.016,0.07l0.016,0.07l0.017,0.069l0.018,0.069l0.019,0.069l0.019,0.068l0.02,0.068l0.021,0.067l0.021,0.068l0.023,0.066l0.022,0.067l0.024,0.066l0.024,0.065l0.025,0.065l0.026,0.065l0.026,0.065l0.027,0.063l0.028,0.064l0.028,0.063l0.029,0.063l0.03,0.062l0.03,0.062l0.031,0.061l0.031,0.061l0.033,0.06l0.032,0.06l0.034,0.06l0.034,0.058l0.034,0.059l0.036,0.058l0.036,0.057l0.036,0.057l0.037,0.057l0.038,0.056l0.038,0.055l0.039,0.055l0.039,0.054l0.04,0.054l0.041,0.053l0.041,0.053l0.041,0.052l0.042,0.051l0.043,0.051l0.043,0.051l0.044,0.05l0.044,0.049l0.045,0.049l0.045,0.048l0.046,0.047l0.047,0.047l0.046,0.046l0.048,0.046l0.048,0.044l0.048,0.045l0.049,0.043l0.049,0.043l0.05,0.043l0.05,0.041l0.05,0.041l0.051,0.041l0.052,0.039l0.052,0.039l0.052,0.039l0.053,0.037l0.053,0.037l0.054,0.036l0.054,0.036l0.055,0.035l0.054,0.034l0.056,0.033l0.055,0.033l0.056,0.032l0.057,0.031l0.057,0.03l0.057,0.03l0.058,0.028l0.057,0.028l0.059,0.028l0.058,0.026l0.059,0.026l0.06,0.025l0.059,0.024l0.06,0.023l0.061,0.023l0.06,0.022l0.061,0.021l0.062,0.02l0.061,0.019l0.062,0.018l0.063,0.018l0.062,0.017l0.063,0.015l0.063,0.015l0.063,0.015l0.064,0.013l0.064,0.012l0.064,0.012l0.064,0.01l0.065,0.01l0.065,0.009l0.065,0.008l0.066,0.007l0.066,0.006l0.065,0.005l0.067,0.004l0.066,0.004l0.067,0.002l0.067,0.002l0.068,0l108.838,0l0.068,0l0.067,-0.002l0.067,-0.002l0.066,-0.004l0.067,-0.004l0.065,-0.005l0.066,-0.006l0.066,-0.007l0.065,-0.008l0.065,-0.009l0.065,-0.01l0.064,-0.01l0.064,-0.012l0.064,-0.012l0.064,-0.013l0.063,-0.015l0.063,-0.015l0.063,-0.015l0.063,-0.017l0.062,-0.018l0.062,-0.018l0.061,-0.019l0.062,-0.02l0.061,-0.021l0.06,-0.022l0.061,-0.023l0.06,-0.023l0.059,-0.024l0.06,-0.025l0.059,-0.026l0.058,-0.026l0.059,-0.028l0.057,-0.028l0.058,-0.028l0.057,-0.03l0.057,-0.03l0.057,-0.031l0.056,-0.032l0.055,-0.033l0.056,-0.033l0.054,-0.034l0.055,-0.035l0.054,-0.036l0.054,-0.036l0.053,-0.037l0.053,-0.037l0.052,-0.039l0.052,-0.038l0.052,-0.04l0.051,-0.041l0.05,-0.041l0.05,-0.041l0.05,-0.043l0.049,-0.043l0.049,-0.043l0.048,-0.045l0.048,-0.044l0.048,-0.046l0.046,-0.046l0.047,-0.047l0.046,-0.047l0.045,-0.048l0.045,-0.049l0.044,-0.049l0.044,-0.05l0.043,-0.051l0.043,-0.051l0.042,-0.051l0.041,-0.052l0.041,-0.053l0.041,-0.053l0.04,-0.054l0.039,-0.054l0.039,-0.055l0.038,-0.055l0.038,-0.056l0.037,-0.057l0.036,-0.057l0.036,-0.057l0.036,-0.058l0.034,-0.059l0.034,-0.059l0.034,-0.059l0.032,-0.06l0.033,-0.06l0.031,-0.061l0.031,-0.061l0.03,-0.062l0.03,-0.062l0.029,-0.063l0.028,-0.063l0.028,-0.063l0.027,-0.064l0.026,-0.065l0.026,-0.065l0.025,-0.065l0.024,-0.065l0.024,-0.066l0.022,-0.067l0.023,-0.067l0.021,-0.067l0.021,-0.067l0.02,-0.068l0.019,-0.068l0.019,-0.069l0.018,-0.069l0.017,-0.069l0.016,-0.07l0.016,-0.07l0.014,-0.07l0.015,-0.071l0.013,-0.071l0.012,-0.071l0.012,-0.072l0.011,-0.072l0.011,-0.072l0.009,-0.072l0.009,-0.073l0.007,-0.073l0.008,-0.074l0.006,-0.073l0.005,-0.074l0.005,-0.074l0.004,-0.075l0.003,-0.074l0.002,-0.075l0.001,-0.076l0,-0.076l0,-63.444l0,-0.076l-0.001,-0.076l-0.002,-0.075l-0.003,-0.074l-0.004,-0.075l-0.005,-0.074l-0.005,-0.074l-0.006,-0.073l-0.008,-0.074l-0.007,-0.073l-0.009,-0.073l-0.009,-0.072l-0.011,-0.072l-0.011,-0.072l-0.012,-0.072l-0.012,-0.071l-0.013,-0.071l-0.015,-0.071l-0.014,-0.07l-0.016,-0.07l-0.016,-0.07l-0.017,-0.069l-0.018,-0.069l-0.019,-0.069l-0.019,-0.068l-0.02,-0.068l-0.021,-0.067l-0.021,-0.067l-0.023,-0.067l-0.022,-0.067l-0.024,-0.066l-0.024,-0.065l-0.025,-0.065l-0.026,-0.065l-0.026,-0.065l-0.027,-0.064l-0.028,-0.063l-0.028,-0.063l-0.029,-0.063l-0.03,-0.062l-0.03,-0.062l-0.031,-0.061l-0.031,-0.061l-0.033,-0.06l-0.032,-0.06l-0.034,-0.059l-0.034,-0.059l-0.034,-0.059l-0.036,-0.058l-0.036,-0.057l-0.036,-0.057l-0.037,-0.057l-0.038,-0.056l-0.038,-0.055l-0.039,-0.055l-0.039,-0.054l-0.04,-0.054l-0.041,-0.053l-0.041,-0.053l-0.041,-0.052l-0.042,-0.051l-0.043,-0.051l-0.043,-0.051l-0.044,-0.05l-0.044,-0.049l-0.045,-0.049l-0.045,-0.048l-0.046,-0.047l-0.047,-0.047l-0.046,-0.046l-0.048,-0.046l-0.048,-0.044l-0.048,-0.045l-0.049,-0.043l-0.049,-0.043l-0.05,-0.043l-0.05,-0.041l-0.05,-0.041l-0.051,-0.041l-0.052,-0.039l-0.052,-0.039l-0.052,-0.039l-0.053,-0.037l-0.053,-0.037l-0.054,-0.036l-0.054,-0.036l-0.055,-0.035l-0.054,-0.034l-0.056,-0.033l-0.055,-0.033l-0.056,-0.032l-0.057,-0.031l-0.057,-0.03l-0.057,-0.03l-0.058,-0.028l-0.057,-0.028l-0.059,-0.028l-0.058,-0.026l-0.059,-0.026l-0.06,-0.025l-0.059,-0.024l-0.06,-0.023l-0.061,-0.023l-0.06,-0.022l-0.061,-0.021l-0.062,-0.02l-0.061,-0.019l-0.062,-0.018l-0.063,-0.018l-0.062,-0.017l-0.063,-0.015l-0.063,-0.015l-0.063,-0.015l-0.064,-0.013l-0.064,-0.012l-0.064,-0.012l-0.064,-0.01l-0.065,-0.01l-0.065,-0.009l-0.065,-0.008l-0.066,-0.007l-0.066,-0.006l-0.065,-0.005l-0.067,-0.004l-0.066,-0.004l-0.067,-0.002l-0.067,-0.002l-0.068,0l-108.838,0Z" style="fill:rgb(61,68,74);"/>
                </g>
                <path d="M232.5,76l135,0" style="fill:none;stroke:rgb(49,57,62);stroke-width:0.82px;"/>
                <g transform="matrix(1,0,0,1,-8.88178e-16,-18)">
                    <path d="M232.5,76l135,0" style="fill:none;stroke:rgb(49,57,62);stroke-width:0.16px;"/>
                </g>
                <g transform="matrix(1,0,0,1,-8.88178e-16,19)">
                    <path d="M232.5,76l135,0" style="fill:none;stroke:rgb(49,57,62);stroke-width:0.16px;"/>
                </g>
                <g transform="matrix(3.44715e-17,0.562963,-1,6.12323e-17,376,-92.8889)">
                    <path d="M232.5,76l135,0" style="fill:none;stroke:rgb(49,57,62);stroke-width:1.01px;"/>
                </g>
                <g transform="matrix(3.44715e-17,0.562963,-1,6.12323e-17,393,-92.8889)">
                    <path d="M232.371,75.97l0.03,-0.026l0.045,-0.017l0.054,-0.006l135,0l0.054,0.006l0.045,0.017l0.03,0.026l0.011,0.03l-0.011,0.03l-0.03,0.026l-0.045,0.017l-0.054,0.006l-135,0l-0.054,-0.006l-0.045,-0.017l-0.03,-0.026l-0.011,-0.03l0.011,-0.03Z" style="fill:rgb(49,57,62);"/>
                </g>
                <g transform="matrix(3.44715e-17,0.562963,-1,6.12323e-17,360,-92.8889)">
                    <path d="M232.371,75.97l0.03,-0.026l0.045,-0.017l0.054,-0.006l135,0l0.054,0.006l0.045,0.017l0.03,0.026l0.011,0.03l-0.011,0.03l-0.03,0.026l-0.045,0.017l-0.054,0.006l-135,0l-0.054,-0.006l-0.045,-0.017l-0.03,-0.026l-0.011,-0.03l0.011,-0.03Z" style="fill:rgb(49,57,62);"/>
                </g>
                <g transform="matrix(3.44715e-17,0.562963,-1,6.12323e-17,326,-92.8889)">
                    <path d="M232.371,75.97l0.03,-0.026l0.045,-0.017l0.054,-0.006l135,0l0.054,0.006l0.045,0.017l0.03,0.026l0.011,0.03l-0.011,0.03l-0.03,0.026l-0.045,0.017l-0.054,0.006l-135,0l-0.054,-0.006l-0.045,-0.017l-0.03,-0.026l-0.011,-0.03l0.011,-0.03Z" style="fill:rgb(49,57,62);"/>
                </g>
                <g transform="matrix(3.44715e-17,0.562963,-1,6.12323e-17,427,-92.8889)">
                    <path d="M232.371,75.97l0.03,-0.026l0.045,-0.017l0.054,-0.006l135,0l0.054,0.006l0.045,0.017l0.03,0.026l0.011,0.03l-0.011,0.03l-0.03,0.026l-0.045,0.017l-0.054,0.006l-135,0l-0.054,-0.006l-0.045,-0.017l-0.03,-0.026l-0.011,-0.03l0.011,-0.03Z" style="fill:rgb(49,57,62);"/>
                </g>
                <g transform="matrix(3.44715e-17,0.562963,-1,6.12323e-17,410,-92.8889)">
                    <path d="M232.5,76l135,0" style="fill:none;stroke:rgb(49,57,62);stroke-width:1.01px;"/>
                </g>
                <g transform="matrix(3.44715e-17,0.562963,-1,6.12323e-17,343,-92.8889)">
                    <path d="M232.5,76l135,0" style="fill:none;stroke:rgb(49,57,62);stroke-width:1.01px;"/>
                </g>
                <path d="M345,285c4.539,-8.151 13.618,-24.453 15,-38c1.412,-13.833 -2.78,-32.333 -6.53,-45c-3.3,-11.146 -13.308,-22.667 -15.97,-31c-1.927,-6.033 -0.642,-14.678 0,-19" style="fill:none;stroke:rgb(250,111,123);stroke-width:3.04px;"/>
                <g transform="matrix(1,0,0,1,-5.68434e-14,-0.390802)">
                    <g transform="matrix(0.992904,-0.118916,0.165363,1.38072,-1.27846,21.2951)">
                        <path d="M288.992,25.473l2.751,0.237l-0.297,1.785l-2.751,-0.237l-0.543,3.257l0.012,0.41l-3.286,0l0.042,-0.658l1.17,-7.021l3.227,0.278l-0.325,1.949Z" style="fill:rgb(235,235,235);"/>
                    </g>
                    <g transform="matrix(0.992904,-0.118916,0.165363,1.38072,-1.27846,21.2951)">
                        <path d="M292.555,30.925c-0.094,-0.417 -0.094,-0.832 -0.021,-1.27c0.137,-0.823 0.499,-1.526 1.086,-2.109c0.586,-0.583 1.332,-1.007 2.236,-1.271c0.904,-0.264 1.881,-0.351 2.929,-0.261c1.42,0.123 2.476,0.54 3.169,1.254l0.141,-0.848l3.227,0.278l-0.704,4.227l-3.324,0l0.197,-0.498c0.112,-0.674 -0.067,-1.236 -0.538,-1.684c-0.471,-0.448 -1.113,-0.707 -1.927,-0.777c-0.827,-0.071 -1.543,0.071 -2.148,0.426c-0.605,0.356 -0.963,0.871 -1.076,1.545c-0.059,0.358 -0.037,0.685 0.09,0.988l-3.337,0Z" style="fill:rgb(235,235,235);"/>
                    </g>
                    <g transform="matrix(0.992904,-0.118916,0.165363,1.38072,-1.27846,21.2951)">
                        <path d="M310.913,30.925l-3.273,0l0.661,-3.97l3.227,0.277l-0.615,3.693Z" style="fill:rgb(235,235,235);"/>
                    </g>
                    <g transform="matrix(0.992904,-0.118916,0.165363,1.38072,-1.27846,21.2951)">
                        <path d="M310.1,25.978c-0.593,-0.051 -1.055,-0.217 -1.386,-0.497c-0.331,-0.28 -0.466,-0.603 -0.405,-0.97c0.061,-0.367 0.299,-0.658 0.712,-0.874c0.414,-0.216 0.917,-0.299 1.51,-0.247c0.593,0.051 1.056,0.211 1.389,0.481c0.332,0.27 0.469,0.584 0.41,0.941c-0.065,0.387 -0.304,0.69 -0.719,0.911c-0.414,0.221 -0.918,0.306 -1.511,0.255Z" style="fill:rgb(235,235,235);"/>
                    </g>
                    <g transform="matrix(0.992904,-0.118916,0.165363,1.38072,-1.27846,21.2951)">
                        <path d="M317.229,30.925l-3.274,0l1.078,-6.469l3.226,0.278l-1.03,6.191Z" style="fill:rgb(235,235,235);"/>
                    </g>
                    <g transform="matrix(0.992904,-0.118916,0.165363,1.38072,-1.27846,21.2951)">
                        <path d="M320.469,30.925c0.192,-0.35 0.444,-0.666 0.758,-0.956c0.628,-0.58 1.437,-1.005 2.427,-1.277c0.989,-0.272 2.07,-0.358 3.242,-0.257c1.172,0.101 2.191,0.368 3.056,0.799c0.866,0.432 1.508,0.983 1.928,1.653l0.016,0.038l-3.682,0c-0.406,-0.344 -0.96,-0.527 -1.635,-0.586c-0.827,-0.071 -1.543,0.071 -2.148,0.427l-0.176,0.159l-3.786,0Z" style="fill:rgb(235,235,235);"/>
                    </g>
                    <g transform="matrix(0.992904,-0.118916,0.165363,1.38072,-1.27846,21.2951)">
                        <path d="M341.862,30.925l-7.008,0l0.276,-1.66l3.082,0.266l-0.176,1.056c0.451,-0.354 1.02,-0.601 1.708,-0.743c0.688,-0.142 1.46,-0.176 2.315,-0.103l-0.197,1.184Z" style="fill:rgb(235,235,235);"/>
                    </g>
                </g>
                <g transform="matrix(0.67493,0,0,0.67493,150.335,80.7632)">
                    <g transform="matrix(4.17387e-17,0.681645,-0.5,3.06162e-17,418.286,-29.8306)">
                        <path d="M330,190.786c0,-0.434 -0.258,-0.786 -0.577,-0.786l-13.846,0c-0.319,0 -0.577,0.352 -0.577,0.786l0,1.572c0,0.434 0.258,0.786 0.577,0.786l13.846,0c0.319,0 0.577,-0.352 0.577,-0.786l0,-1.572Z" style="fill:rgb(235,235,235);"/>
                    </g>
                    <g transform="matrix(-0.681645,-8.34775e-17,6.12323e-17,-0.5,542.331,285.786)">
                        <path d="M330,190.786c0,-0.434 -0.258,-0.786 -0.577,-0.786l-13.846,0c-0.319,0 -0.577,0.352 -0.577,0.786l0,1.572c0,0.434 0.258,0.786 0.577,0.786l13.846,0c0.319,0 0.577,-0.352 0.577,-0.786l0,-1.572Z" style="fill:rgb(235,235,235);"/>
                    </g>
                </g>
                <g transform="matrix(0.67493,0,0,0.67493,44.835,81.2938)">
                    <g transform="matrix(4.17387e-17,0.681645,-0.5,3.06162e-17,418.286,-29.8306)">
                        <path d="M330,190.786c0,-0.434 -0.258,-0.786 -0.577,-0.786l-13.846,0c-0.319,0 -0.577,0.352 -0.577,0.786l0,1.572c0,0.434 0.258,0.786 0.577,0.786l13.846,0c0.319,0 0.577,-0.352 0.577,-0.786l0,-1.572Z" style="fill:rgb(235,235,235);"/>
                    </g>
                    <g transform="matrix(-0.681645,-8.34775e-17,6.12323e-17,-0.5,542.331,285.786)">
                        <path d="M330,190.786c0,-0.434 -0.258,-0.786 -0.577,-0.786l-13.846,0c-0.319,0 -0.577,0.352 -0.577,0.786l0,1.572c0,0.434 0.258,0.786 0.577,0.786l13.846,0c0.319,0 0.577,-0.352 0.577,-0.786l0,-1.572Z" style="fill:rgb(235,235,235);"/>
                    </g>
                </g>
                <g transform="matrix(-0.460063,-5.63415e-17,4.13276e-17,-0.337465,485.87,273.649)">
                    <path d="M330,190.786c0,-0.434 -0.258,-0.786 -0.577,-0.786l-13.846,0c-0.319,0 -0.577,0.352 -0.577,0.786l0,1.572c0,0.434 0.258,0.786 0.577,0.786l13.846,0c0.319,0 0.577,-0.352 0.577,-0.786l0,-1.572Z" style="fill:rgb(235,235,235);"/>
                </g>
                <g transform="matrix(-0.460063,-5.63415e-17,4.13276e-17,-0.337465,380.37,274.18)">
                    <path d="M330,190.786c0,-0.434 -0.258,-0.786 -0.577,-0.786l-13.846,0c-0.319,0 -0.577,0.352 -0.577,0.786l0,1.572c0,0.434 0.258,0.786 0.577,0.786l13.846,0c0.319,0 0.577,-0.352 0.577,-0.786l0,-1.572Z" style="fill:rgb(235,235,235);"/>
                </g>
                <g transform="matrix(4.64019e-17,-0.389609,0.389609,1.86719e-16,254.146,422.51)">
                    <g transform="matrix(1,0,0,1,0.198241,0.63166)">
                        <path d="M609.538,134.333c2.085,0.578 10.558,1.956 11.876,0.946c1.317,-1.01 -4.016,-5.061 -3.97,-7.008c0.047,-1.948 2.815,-3.133 4.247,-4.676c1.557,-1.678 3.988,-3.539 5.098,-5.393c1.016,-1.698 1.668,-3.827 1.561,-5.728c-0.108,-1.9 -0.705,-4.31 -2.207,-5.675c-1.524,-1.383 -4.501,-2.2 -6.936,-2.627c-2.697,-0.473 -6.202,-0.69 -9.248,-0.21c-2.994,0.471 -7.79,0.915 -12.664,2.033c-4.217,0.968 -14.184,4.002 -17.28,4.871c-5.391,1.514 -7.923,3.179 -10.096,4.34c-1.16,0.62 -2.079,1.636 -2.942,2.628c-1.542,1.769 -5.093,6.346 -6.306,7.987c-0.415,0.562 -1.599,1.592 -0.97,1.858c0.63,0.267 3.294,0.377 4.746,-0.258c1.668,-0.73 3.679,-3.357 5.262,-4.122c1.278,-0.619 3.095,-0.648 4.234,-0.473c0.992,0.153 1.783,0.938 2.598,1.525c1.028,0.739 2.221,2.174 3.567,2.913c1.786,0.981 4.768,2.335 7.151,2.971c2.318,0.617 4.852,0.683 7.146,0.84c2.202,0.152 4.554,0.07 6.621,0.105c1.927,0.033 4.466,0 5.78,0.105c0.72,0.058 1.647,0.018 2.102,0.526c0.455,0.508 -0.205,2.29 0.63,2.522Zm-27.056,-10.542c-0.976,-1.096 -2.105,-3.065 -2.36,-4.443c-0.237,-1.283 0.273,-2.856 0.832,-3.826c0.535,-0.929 1.573,-1.497 2.522,-1.997c0.963,-0.508 2.124,-0.918 3.258,-1.051c1.348,-0.158 3.222,0.085 4.834,0.105c1.885,0.024 4.568,0.038 6.478,0.038c1.659,0 3.327,0.037 4.977,-0.038c1.644,-0.074 3.361,-0.236 4.92,-0.411c1.484,-0.167 3.248,-0.399 4.433,-0.64c0.912,-0.185 1.751,-0.687 2.674,-0.802c1.261,-0.158 3.552,-0.54 4.893,-0.144c1.29,0.382 2.574,1.402 3.152,2.523c0.578,1.121 0.617,2.918 0.316,4.203c-0.302,1.285 -1.118,2.583 -2.125,3.506c-1.09,0.999 -2.869,1.803 -4.414,2.485c-1.678,0.74 -3.732,1.431 -5.656,1.958c-2.115,0.58 -4.652,1.225 -7.032,1.52c-2.704,0.334 -6.886,0.445 -9.192,0.487c-1.551,0.028 -3.143,-0.011 -4.646,-0.234c-1.486,-0.221 -3.06,-0.563 -4.371,-1.103c-1.262,-0.52 -2.586,-1.116 -3.493,-2.136Z" style="fill:rgb(254,113,125);"/>
                    </g>
                    <g id="Curve" transform="matrix(0.997434,0,0,1,1.3234,0.63166)">
                        <path d="M438.444,120.651c-0.214,1.275 1.647,2.583 3.004,3.115c2.216,0.868 3.694,1.218 5.514,1.534c3.665,0.638 10.798,1.539 16.393,1.987c7.866,0.631 20.322,1.363 30.5,1.582c10.507,0.225 26.798,-0.101 33.014,-0.145c1.585,-0.011 2.996,-0.058 4.581,-0.096c0,0 0.654,-1.691 0.213,-2.024c-0.441,-0.334 -1.905,0.001 -2.857,0.026c-0.983,0.026 -2.025,0.101 -3.038,0.129c-1.553,0.043 -4.187,0.078 -6.281,0.129c-2.558,0.063 -6.044,0.222 -9.068,0.246c-3.328,0.027 -7.832,-0.044 -10.899,-0.084c-2.502,-0.033 -5.005,-0.033 -7.504,-0.156c-4.035,-0.198 -12.709,-0.79 -16.707,-1.031c-2.425,-0.146 -4.853,-0.26 -7.277,-0.416c-2.714,-0.176 -6.099,-0.419 -9.004,-0.636c-2.809,-0.21 -5.619,-0.413 -8.424,-0.666c-8.639,-0.78 -12.16,-3.494 -12.16,-3.494Z" style="fill:rgb(99,99,99);"/>
                    </g>
                    <g transform="matrix(1,0,0,1,0.198241,0.63166)">
                        <path d="M538.311,107.615c-0.786,-0.362 -1.212,-0.626 -2.004,-0.836c-0.759,-0.201 -1.55,-0.285 -2.335,-0.315c-2.298,-0.087 -7.636,-0.21 -11.455,-0.21c-5.675,0 -15.064,0.037 -22.594,0.21c-8.39,0.193 -21.596,0.666 -27.744,0.946c-3.055,0.139 -6.288,0.385 -9.143,0.736c-2.681,0.328 -5.43,0.648 -7.987,1.366c-2.543,0.714 -5.29,1.891 -7.357,2.942c-1.801,0.916 -3.502,2.057 -5.044,3.363c-1.613,1.366 -2.109,2.077 -3.095,3.434c0,0 -1.053,1.429 -0.905,1.621c0.147,0.192 1.262,-0.307 1.79,-0.468c0.467,-0.142 0.905,-0.376 1.378,-0.496c0.776,-0.197 2.18,-0.486 3.278,-0.689c2.287,-0.422 6.945,-1.327 10.441,-1.845c3.687,-0.547 7.779,-1.03 11.681,-1.433c4.343,-0.448 9.584,-0.87 14.381,-1.256c5.443,-0.438 12.182,-0.961 18.279,-1.373c6.309,-0.426 14.196,-0.858 19.575,-1.186c4.232,-0.258 9.65,-0.542 12.696,-0.78c1.866,-0.145 3.728,-0.494 5.577,-0.647c1.834,-0.151 4.025,-0.199 5.515,-0.266c1.143,-0.051 3.883,0.133 3.428,-0.135c-0.454,-0.268 -4.762,-1.026 -6.155,-1.473c-0.797,-0.256 -1.097,-0.702 -2.201,-1.21Z" style="fill:rgb(206,206,206);"/>
                    </g>
                    <g transform="matrix(1,0,0,1,0.198241,0.63166)">
                        <path d="M543.875,110.817c0.373,0 1.119,-0.043 1.119,-0.043c2.759,-0.191 4.752,-0.375 7.443,-0.322c2.214,0.044 4.789,0.142 6.636,-0.305c1.633,-0.395 2.993,-1.529 4.444,-2.375c2.196,-1.279 6.26,-3.875 8.732,-5.301c1.995,-1.152 4.483,-2.295 6.095,-3.258c1.251,-0.748 2.697,-1.594 3.573,-2.522c0.796,-0.844 1.407,-1.921 1.681,-3.048c0.308,-1.261 -0.181,-3.052 0.162,-4.52c0.363,-1.551 1.096,-3.316 2.012,-4.782c0.967,-1.548 2.368,-3.258 3.789,-4.504c1.4,-1.228 2.983,-2.332 4.733,-2.971c2.052,-0.749 5.228,-1.572 7.582,-1.528c2.789,0.052 4.838,0.243 6.825,0.626c1.756,0.338 3.659,0.985 5.098,1.672c1.293,0.618 2.604,1.359 3.534,2.45c1.079,1.267 2.439,3.238 2.942,5.15c0.508,1.93 0.347,4.594 0.105,6.43c-0.211,1.601 -0.716,3.221 -1.557,4.586c-0.841,1.366 -2.073,2.723 -3.487,3.606c-1.414,0.884 -3.445,1.37 -4.998,1.696c-1.411,0.296 -3.005,0.176 -4.317,0.258c-1.185,0.074 -2.83,-0.016 -3.554,0.234c-0.471,0.163 -0.596,0.808 -0.793,1.265c-0.213,0.495 0.033,1.424 -0.486,1.706c-0.779,0.423 -3.145,1.046 -4.185,0.832c-0.963,-0.199 -1.42,-1.586 -2.055,-2.117c-0.525,-0.44 -1.228,-1.004 -1.753,-1.074c-0.511,-0.068 -0.988,0.344 -1.4,0.653c-0.702,0.528 -1.784,1.796 -2.818,2.514c-1.162,0.806 -2.811,1.684 -4.152,2.327c-1.256,0.602 -2.581,1.053 -3.891,1.528c-1.38,0.5 -2.932,0.964 -4.39,1.471c-1.466,0.511 -3.06,0.802 -4.408,1.591c-1.379,0.806 -2.883,2.332 -3.863,3.247c-0.736,0.687 -1.373,1.475 -2.021,2.245c-0.761,0.904 -1.725,2.154 -2.546,3.177c-0.794,0.988 -1.551,2.007 -2.385,2.962c-0.885,1.014 -2.311,2.537 -2.925,3.123c-0.207,0.197 -0.474,0.385 -0.759,0.396c-4.541,0.185 -14.205,0.497 -19.412,0.621c-0.827,0.038 -3.121,0.048 -4.129,0.021c-0.641,-0.017 -1.614,0.267 -1.915,-0.183c-0.302,-0.45 0.083,-1.678 0.107,-2.518c0.063,-2.193 0.126,-8.34 0.269,-10.643c0.067,-1.074 0.128,-2.482 0.592,-3.174c0.447,-0.666 1.411,-0.816 2.195,-0.98c0.935,-0.195 2.402,-0.15 3.412,-0.193c0.882,-0.038 1.794,-0.061 2.647,-0.065c0.824,-0.004 1.874,0.04 2.472,0.039Zm43.242,-18.048c-0.981,-4.357 0.014,-6.837 1.85,-9.163c1.835,-2.326 5.787,-4.414 9.164,-4.793c3.377,-0.378 8.407,1.051 11.097,2.523c2.362,1.291 5.09,4.163 5.045,6.305c-0.084,3.965 -1.222,4.874 -3.027,6.39c-2.102,1.765 -6.347,3.517 -9.584,4.203c-3.208,0.681 -7.413,0.827 -9.837,-0.084c-2.231,-0.838 -4.184,-3.055 -4.708,-5.381Z" style="fill:rgb(54,192,173);"/>
                    </g>
                    <g transform="matrix(1.44444,0,0,1.5914,-241.925,-70.6325)">
                        <ellipse cx="544.323" cy="119.535" rx="3.329" ry="3.128" style="fill:rgb(193,193,193);"/>
                    </g>
                    <g transform="matrix(0.993738,0,0,0.957685,2.94717,6.01135)">
                        <path d="M439.157,120.86c3.614,-1.817 12.387,-2.976 18.679,-3.917c6.854,-1.026 15.075,-1.724 22.448,-2.236c5.775,-0.401 12.182,-1.025 17.312,-1.394c4.486,-0.322 9.242,-0.573 13.468,-0.817c3.962,-0.23 8.764,-0.474 11.888,-0.649c2.284,-0.127 5.244,-0.374 6.852,-0.398c0.936,-0.014 2.747,-0.606 2.797,0.253c0.078,1.314 -0.052,2.701 -0.171,4.872c-0.127,2.311 -0.095,7.296 -0.163,8.955c-0.014,0.343 0.089,0.908 -0.241,0.999c-0.741,0.206 -2.802,0.192 -4.205,0.234c-2.464,0.074 -7.052,0.158 -10.578,0.208c-4.287,0.06 -10.206,0.204 -15.144,0.153c-4.831,-0.05 -9.66,-0.226 -14.485,-0.457c-5.597,-0.27 -12.738,-0.704 -19.101,-1.157c-6.411,-0.457 -14.95,-1.063 -19.368,-1.585c-2.417,-0.286 -5.472,-1.036 -7.137,-1.547c-1.029,-0.316 -3.813,-1.034 -2.851,-1.517Z" style="fill:rgb(235,235,235);"/>
                    </g>
                    <g transform="matrix(0.757011,-0.653402,0.653402,0.757011,54.1623,384.749)">
                        <g transform="matrix(0.84,0,0,1.16246,87.4217,-18.8295)">
                            <path d="M544.858,116.555c0,-0.171 -0.193,-0.311 -0.43,-0.311l-0.861,0c-0.238,0 -0.43,0.14 -0.43,0.311l0,4.974c0,0.172 0.192,0.311 0.43,0.311l0.861,0c0.237,0 0.43,-0.139 0.43,-0.311l0,-4.974Z" style="fill:rgb(34,37,40);"/>
                        </g>
                        <g transform="matrix(5.14352e-17,0.84,-1.16246,7.11802e-17,682.762,-337.405)">
                            <path d="M544.858,116.555c0,-0.171 -0.193,-0.311 -0.43,-0.311l-0.861,0c-0.238,0 -0.43,0.14 -0.43,0.311l0,4.974c0,0.172 0.192,0.311 0.43,0.311l0.861,0c0.237,0 0.43,-0.139 0.43,-0.311l0,-4.974Z" style="fill:rgb(34,37,40);"/>
                        </g>
                    </g>
                </g>
                <g transform="matrix(8.33333,1.97215e-31,1.97215e-31,8.33333,350.238,186.465)">
                    <path d="M0.331,0.006c-0.054,0 -0.102,-0.014 -0.145,-0.043c-0.042,-0.029 -0.075,-0.07 -0.099,-0.124c-0.023,-0.053 -0.035,-0.116 -0.035,-0.189c0,-0.073 0.012,-0.136 0.035,-0.19c0.024,-0.053 0.057,-0.094 0.099,-0.123c0.043,-0.029 0.091,-0.043 0.145,-0.043c0.054,0 0.102,0.014 0.144,0.043c0.043,0.029 0.076,0.07 0.1,0.124c0.024,0.053 0.036,0.116 0.036,0.189c0,0.073 -0.012,0.136 -0.036,0.19c-0.024,0.053 -0.057,0.094 -0.1,0.123c-0.042,0.029 -0.09,0.043 -0.144,0.043Zm0,-0.066c0.041,0 0.076,-0.011 0.107,-0.034c0.031,-0.023 0.056,-0.056 0.073,-0.099c0.017,-0.043 0.026,-0.096 0.026,-0.157c0,-0.061 -0.009,-0.114 -0.026,-0.157c-0.017,-0.043 -0.042,-0.076 -0.073,-0.099c-0.031,-0.023 -0.066,-0.034 -0.107,-0.034c-0.041,0 -0.077,0.011 -0.108,0.034c-0.031,0.023 -0.055,0.056 -0.072,0.099c-0.017,0.043 -0.026,0.096 -0.026,0.157c0,0.061 0.009,0.114 0.026,0.157c0.017,0.043 0.041,0.076 0.072,0.099c0.031,0.023 0.067,0.034 0.108,0.034Z" style="fill:rgb(235,235,235);fill-rule:nonzero;"/>
                </g>
                <g transform="matrix(8.33333,1.97215e-31,1.97215e-31,8.33333,244.238,186.465)">
                    <path d="M0.331,0.006c-0.054,0 -0.102,-0.014 -0.145,-0.043c-0.042,-0.029 -0.075,-0.07 -0.099,-0.124c-0.023,-0.053 -0.035,-0.116 -0.035,-0.189c0,-0.073 0.012,-0.136 0.035,-0.19c0.024,-0.053 0.057,-0.094 0.099,-0.123c0.043,-0.029 0.091,-0.043 0.145,-0.043c0.054,0 0.102,0.014 0.144,0.043c0.043,0.029 0.076,0.07 0.1,0.124c0.024,0.053 0.036,0.116 0.036,0.189c0,0.073 -0.012,0.136 -0.036,0.19c-0.024,0.053 -0.057,0.094 -0.1,0.123c-0.042,0.029 -0.09,0.043 -0.144,0.043Zm0,-0.066c0.041,0 0.076,-0.011 0.107,-0.034c0.031,-0.023 0.056,-0.056 0.073,-0.099c0.017,-0.043 0.026,-0.096 0.026,-0.157c0,-0.061 -0.009,-0.114 -0.026,-0.157c-0.017,-0.043 -0.042,-0.076 -0.073,-0.099c-0.031,-0.023 -0.066,-0.034 -0.107,-0.034c-0.041,0 -0.077,0.011 -0.108,0.034c-0.031,0.023 -0.055,0.056 -0.072,0.099c-0.017,0.043 -0.026,0.096 -0.026,0.157c0,0.061 0.009,0.114 0.026,0.157c0.017,0.043 0.041,0.076 0.072,0.099c0.031,0.023 0.067,0.034 0.108,0.034Z" style="fill:rgb(235,235,235);fill-rule:nonzero;"/>
                </g>
            </g>
        </g>
    </g>
</svg>
