<?xml version="1.0" encoding="UTF-8" standalone="no"?>
<!DOCTYPE svg PUBLIC "-//W3C//DTD SVG 1.1//EN" "http://www.w3.org/Graphics/SVG/1.1/DTD/svg11.dtd">
<svg width="24px" height="24px" version="1.1" xmlns="http://www.w3.org/2000/svg" xmlns:xlink="http://www.w3.org/1999/xlink" xml:space="preserve" xmlns:serif="http://www.serif.com/" style="fill-rule:evenodd;clip-rule:evenodd;stroke-linejoin:round;stroke-miterlimit:2;">
    <g transform="matrix(1,0,0,1,-341,-190)">
        <g transform="matrix(0.994047,0,0,1,5.75872,0)">
            <g id="trimmer" transform="matrix(0.928605,0,0,0.923077,105.562,34.0171)">
                <g id="Ellipse" transform="matrix(0.988273,0,0,1.01734,-41.6161,-7.13604)">
                    <ellipse cx="307.725" cy="185.894" rx="13.154" ry="12.778" style="fill:rgb(19,22,26);"/>
                    <path d="M307.895,173.117l0.169,0.003l0.169,0.005l0.168,0.007l0.168,0.01l0.167,0.011l0.167,0.013l0.166,0.016l0.165,0.017l0.165,0.019l0.164,0.022l0.164,0.023l0.163,0.025l0.162,0.027l0.161,0.029l0.161,0.031l0.16,0.033l0.16,0.035l0.159,0.037l0.158,0.038l0.157,0.041l0.156,0.042l0.156,0.044l0.155,0.046l0.154,0.047l0.153,0.05l0.152,0.051l0.152,0.053l0.15,0.054l0.15,0.057l0.149,0.058l0.148,0.06l0.147,0.061l0.146,0.063l0.145,0.065l0.144,0.067l0.144,0.068l0.142,0.069l0.141,0.072l0.141,0.073l0.139,0.074l0.138,0.077l0.137,0.077l0.136,0.08l0.136,0.081l0.134,0.082l0.132,0.084l0.132,0.085l0.131,0.087l0.129,0.089l0.129,0.089l0.127,0.092l0.126,0.092l0.125,0.095l0.124,0.095l0.122,0.097l0.121,0.099l0.12,0.099l0.119,0.101l0.117,0.103l0.117,0.104l0.114,0.105l0.114,0.106l0.112,0.108l0.111,0.109l0.11,0.111l0.108,0.111l0.107,0.113l0.106,0.114l0.104,0.115l0.102,0.117l0.102,0.118l0.099,0.119l0.099,0.12l0.097,0.121l0.095,0.123l0.094,0.123l0.093,0.125l0.091,0.126l0.089,0.127l0.088,0.128l0.086,0.129l0.085,0.13l0.083,0.131l0.082,0.132l0.08,0.134l0.079,0.134l0.076,0.135l0.075,0.136l0.074,0.138l0.072,0.138l0.07,0.139l0.068,0.14l0.067,0.141l0.065,0.142l0.064,0.143l0.061,0.144l0.06,0.144l0.058,0.146l0.056,0.146l0.055,0.147l0.052,0.148l0.051,0.149l0.049,0.15l0.047,0.15l0.046,0.151l0.043,0.152l0.042,0.153l0.039,0.154l0.038,0.154l0.036,0.155l0.033,0.155l0.032,0.156l0.03,0.157l0.028,0.158l0.026,0.158l0.024,0.159l0.022,0.16l0.02,0.16l0.018,0.16l0.016,0.162l0.014,0.162l0.011,0.162l0.01,0.163l0.007,0.163l0.006,0.164l0.003,0.165l0.001,0.165l-0.001,0.165l-0.003,0.165l-0.006,0.164l-0.007,0.163l-0.01,0.163l-0.011,0.163l-0.014,0.162l-0.016,0.161l-0.018,0.161l-0.02,0.16l-0.022,0.159l-0.024,0.159l-0.026,0.158l-0.028,0.158l-0.03,0.157l-0.032,0.156l-0.033,0.156l-0.036,0.154l-0.038,0.155l-0.039,0.153l-0.042,0.153l-0.043,0.152l-0.046,0.151l-0.047,0.15l-0.049,0.15l-0.051,0.149l-0.052,0.148l-0.055,0.147l-0.056,0.146l-0.058,0.146l-0.06,0.144l-0.061,0.144l-0.064,0.143l-0.065,0.142l-0.067,0.141l-0.068,0.14l-0.07,0.139l-0.072,0.138l-0.074,0.138l-0.075,0.136l-0.076,0.135l-0.079,0.135l-0.08,0.133l-0.082,0.132l-0.083,0.131l-0.085,0.13l-0.086,0.13l-0.088,0.128l-0.089,0.126l-0.091,0.126l-0.093,0.125l-0.094,0.124l-0.095,0.122l-0.097,0.121l-0.099,0.12l-0.099,0.119l-0.102,0.118l-0.102,0.117l-0.104,0.115l-0.106,0.114l-0.107,0.113l-0.108,0.112l-0.11,0.11l-0.111,0.109l-0.112,0.108l-0.114,0.106l-0.114,0.105l-0.117,0.104l-0.117,0.103l-0.119,0.101l-0.12,0.1l-0.121,0.098l-0.122,0.097l-0.124,0.096l-0.125,0.094l-0.126,0.092l-0.127,0.092l-0.129,0.09l-0.129,0.088l-0.131,0.087l-0.132,0.085l-0.132,0.084l-0.134,0.083l-0.136,0.08l-0.136,0.08l-0.137,0.077l-0.138,0.077l-0.139,0.074l-0.141,0.073l-0.141,0.072l-0.142,0.069l-0.144,0.069l-0.144,0.066l-0.145,0.065l-0.146,0.063l-0.147,0.062l-0.148,0.059l-0.149,0.059l-0.15,0.056l-0.15,0.055l-0.152,0.052l-0.152,0.052l-0.153,0.049l-0.154,0.048l-0.155,0.045l-0.156,0.044l-0.156,0.043l-0.157,0.04l-0.158,0.038l-0.159,0.037l-0.16,0.035l-0.16,0.033l-0.161,0.031l-0.161,0.029l-0.162,0.027l-0.163,0.025l-0.164,0.023l-0.164,0.022l-0.165,0.019l-0.165,0.017l-0.166,0.016l-0.167,0.013l-0.167,0.012l-0.168,0.009l-0.168,0.007l-0.169,0.005l-0.169,0.003l-0.17,0.001l-0.17,-0.001l-0.17,-0.003l-0.168,-0.005l-0.169,-0.007l-0.168,-0.009l-0.167,-0.012l-0.166,-0.013l-0.166,-0.016l-0.166,-0.017l-0.165,-0.019l-0.164,-0.022l-0.163,-0.023l-0.163,-0.025l-0.163,-0.027l-0.161,-0.029l-0.161,-0.031l-0.16,-0.033l-0.16,-0.035l-0.158,-0.037l-0.158,-0.038l-0.157,-0.04l-0.157,-0.043l-0.155,-0.044l-0.155,-0.045l-0.154,-0.048l-0.153,-0.049l-0.153,-0.052l-0.151,-0.052l-0.151,-0.055l-0.15,-0.056l-0.149,-0.059l-0.147,-0.059l-0.148,-0.062l-0.146,-0.063l-0.145,-0.065l-0.144,-0.066l-0.143,-0.069l-0.143,-0.069l-0.141,-0.072l-0.14,-0.073l-0.14,-0.074l-0.138,-0.077l-0.137,-0.077l-0.136,-0.08l-0.135,-0.08l-0.134,-0.083l-0.133,-0.084l-0.132,-0.085l-0.131,-0.087l-0.129,-0.088l-0.128,-0.09l-0.128,-0.092l-0.126,-0.092l-0.125,-0.094l-0.123,-0.096l-0.123,-0.097l-0.121,-0.098l-0.12,-0.1l-0.119,-0.101l-0.117,-0.103l-0.116,-0.104l-0.115,-0.105l-0.114,-0.106l-0.112,-0.108l-0.111,-0.109l-0.11,-0.11l-0.108,-0.112l-0.107,-0.113l-0.105,-0.114l-0.104,-0.115l-0.103,-0.117l-0.101,-0.118l-0.1,-0.119l-0.098,-0.12l-0.097,-0.121l-0.096,-0.122l-0.094,-0.124l-0.092,-0.125l-0.091,-0.126l-0.09,-0.126l-0.088,-0.128l-0.086,-0.13l-0.085,-0.13l-0.083,-0.131l-0.082,-0.132l-0.08,-0.133l-0.078,-0.135l-0.077,-0.135l-0.075,-0.136l-0.074,-0.138l-0.071,-0.138l-0.071,-0.139l-0.068,-0.14l-0.067,-0.141l-0.065,-0.142l-0.063,-0.143l-0.062,-0.144l-0.06,-0.144l-0.058,-0.146l-0.056,-0.146l-0.054,-0.147l-0.053,-0.148l-0.051,-0.149l-0.049,-0.15l-0.047,-0.15l-0.045,-0.151l-0.044,-0.152l-0.041,-0.153l-0.04,-0.153l-0.037,-0.155l-0.036,-0.154l-0.034,-0.156l-0.032,-0.156l-0.03,-0.157l-0.028,-0.158l-0.026,-0.158l-0.024,-0.159l-0.022,-0.159l-0.02,-0.16l-0.018,-0.161l-0.015,-0.161l-0.014,-0.162l-0.012,-0.163l-0.009,-0.163l-0.008,-0.163l-0.005,-0.164l-0.003,-0.165l-0.002,-0.165l0.002,-0.165l0.003,-0.165l0.005,-0.164l0.008,-0.163l0.009,-0.163l0.012,-0.162l0.014,-0.162l0.015,-0.162l0.018,-0.16l0.02,-0.16l0.022,-0.16l0.024,-0.159l0.026,-0.158l0.028,-0.158l0.03,-0.157l0.032,-0.156l0.034,-0.155l0.036,-0.155l0.037,-0.154l0.04,-0.154l0.041,-0.153l0.044,-0.152l0.045,-0.151l0.047,-0.15l0.049,-0.15l0.051,-0.149l0.053,-0.148l0.054,-0.147l0.056,-0.146l0.058,-0.146l0.06,-0.144l0.062,-0.144l0.063,-0.143l0.065,-0.142l0.067,-0.141l0.068,-0.14l0.071,-0.139l0.071,-0.138l0.074,-0.138l0.075,-0.136l0.077,-0.135l0.078,-0.134l0.08,-0.134l0.082,-0.132l0.083,-0.131l0.085,-0.13l0.086,-0.129l0.088,-0.128l0.09,-0.127l0.091,-0.126l0.092,-0.125l0.094,-0.123l0.096,-0.123l0.097,-0.121l0.098,-0.12l0.1,-0.119l0.101,-0.118l0.103,-0.117l0.104,-0.115l0.105,-0.114l0.107,-0.113l0.108,-0.111l0.11,-0.111l0.111,-0.109l0.112,-0.108l0.114,-0.106l0.115,-0.105l0.116,-0.104l0.117,-0.103l0.119,-0.101l0.12,-0.099l0.121,-0.099l0.123,-0.097l0.123,-0.095l0.125,-0.095l0.126,-0.092l0.128,-0.092l0.128,-0.089l0.129,-0.089l0.131,-0.087l0.132,-0.085l0.133,-0.084l0.134,-0.082l0.135,-0.081l0.136,-0.08l0.137,-0.077l0.138,-0.077l0.14,-0.074l0.14,-0.073l0.141,-0.072l0.143,-0.069l0.143,-0.068l0.144,-0.067l0.145,-0.065l0.146,-0.063l0.148,-0.061l0.147,-0.06l0.149,-0.058l0.15,-0.057l0.151,-0.054l0.151,-0.053l0.153,-0.051l0.153,-0.05l0.154,-0.047l0.155,-0.046l0.155,-0.044l0.157,-0.042l0.157,-0.041l0.158,-0.038l0.158,-0.037l0.16,-0.035l0.16,-0.033l0.161,-0.031l0.161,-0.029l0.163,-0.027l0.163,-0.025l0.163,-0.023l0.164,-0.022l0.165,-0.019l0.166,-0.017l0.166,-0.016l0.166,-0.013l0.167,-0.011l0.168,-0.01l0.169,-0.007l0.168,-0.005l0.17,-0.003l0.17,-0.001l0.17,0.001Zm-0.329,0.844l-0.159,0.003l-0.157,0.005l-0.158,0.007l-0.157,0.009l-0.156,0.01l-0.155,0.013l-0.155,0.014l-0.155,0.016l-0.154,0.018l-0.153,0.02l-0.153,0.022l-0.152,0.024l-0.151,0.025l-0.151,0.027l-0.15,0.029l-0.15,0.031l-0.149,0.032l-0.148,0.034l-0.147,0.036l-0.147,0.038l-0.146,0.039l-0.145,0.041l-0.145,0.043l-0.143,0.045l-0.143,0.046l-0.143,0.047l-0.141,0.05l-0.141,0.051l-0.139,0.052l-0.139,0.055l-0.139,0.055l-0.137,0.058l-0.136,0.059l-0.136,0.06l-0.134,0.062l-0.134,0.064l-0.133,0.065l-0.132,0.067l-0.131,0.068l-0.13,0.07l-0.129,0.071l-0.128,0.073l-0.127,0.074l-0.127,0.075l-0.125,0.077l-0.124,0.078l-0.123,0.08l-0.122,0.081l-0.121,0.083l-0.12,0.084l-0.119,0.085l-0.117,0.087l-0.117,0.088l-0.116,0.089l-0.114,0.091l-0.113,0.092l-0.112,0.093l-0.111,0.094l-0.11,0.096l-0.109,0.097l-0.107,0.098l-0.106,0.1l-0.105,0.1l-0.104,0.102l-0.102,0.103l-0.101,0.105l-0.1,0.105l-0.099,0.107l-0.097,0.108l-0.096,0.109l-0.095,0.11l-0.093,0.111l-0.092,0.112l-0.09,0.113l-0.09,0.115l-0.087,0.115l-0.087,0.116l-0.085,0.118l-0.083,0.119l-0.082,0.119l-0.081,0.121l-0.079,0.121l-0.078,0.123l-0.076,0.123l-0.075,0.125l-0.073,0.125l-0.072,0.127l-0.07,0.127l-0.069,0.128l-0.067,0.129l-0.065,0.13l-0.064,0.131l-0.063,0.132l-0.06,0.132l-0.059,0.133l-0.058,0.135l-0.056,0.134l-0.054,0.136l-0.052,0.137l-0.051,0.137l-0.049,0.138l-0.048,0.139l-0.045,0.14l-0.044,0.14l-0.043,0.142l-0.04,0.141l-0.039,0.143l-0.037,0.143l-0.035,0.144l-0.034,0.145l-0.031,0.145l-0.03,0.145l-0.028,0.147l-0.026,0.147l-0.024,0.148l-0.023,0.148l-0.02,0.149l-0.019,0.15l-0.016,0.15l-0.015,0.151l-0.013,0.151l-0.011,0.151l-0.009,0.153l-0.007,0.153l-0.005,0.153l-0.003,0.154l-0.001,0.154l0.001,0.154l0.003,0.154l0.005,0.154l0.007,0.152l0.009,0.153l0.011,0.151l0.013,0.152l0.015,0.15l0.016,0.151l0.019,0.149l0.02,0.149l0.023,0.148l0.024,0.148l0.026,0.147l0.028,0.147l0.03,0.145l0.031,0.146l0.034,0.144l0.035,0.144l0.037,0.143l0.039,0.143l0.04,0.142l0.043,0.141l0.044,0.14l0.045,0.14l0.048,0.139l0.049,0.138l0.051,0.137l0.052,0.137l0.054,0.136l0.056,0.135l0.058,0.134l0.059,0.133l0.06,0.133l0.063,0.131l0.064,0.131l0.065,0.13l0.067,0.129l0.069,0.128l0.07,0.127l0.072,0.127l0.073,0.125l0.075,0.125l0.076,0.123l0.078,0.123l0.079,0.121l0.081,0.121l0.082,0.12l0.083,0.118l0.085,0.118l0.087,0.116l0.087,0.116l0.09,0.114l0.09,0.113l0.092,0.112l0.093,0.112l0.095,0.11l0.096,0.109l0.097,0.107l0.099,0.107l0.1,0.105l0.101,0.105l0.102,0.103l0.104,0.102l0.105,0.1l0.106,0.1l0.107,0.098l0.109,0.097l0.11,0.096l0.111,0.094l0.112,0.094l0.113,0.092l0.114,0.09l0.116,0.089l0.117,0.088l0.117,0.087l0.119,0.085l0.12,0.084l0.121,0.083l0.122,0.081l0.123,0.08l0.124,0.078l0.125,0.077l0.127,0.076l0.127,0.074l0.128,0.072l0.129,0.071l0.13,0.07l0.131,0.068l0.132,0.067l0.133,0.065l0.134,0.064l0.134,0.062l0.136,0.06l0.136,0.059l0.137,0.058l0.139,0.056l0.139,0.054l0.139,0.052l0.141,0.051l0.141,0.05l0.143,0.048l0.143,0.046l0.143,0.044l0.145,0.043l0.145,0.041l0.146,0.039l0.147,0.038l0.147,0.036l0.148,0.034l0.149,0.032l0.15,0.031l0.15,0.029l0.151,0.027l0.151,0.026l0.152,0.023l0.153,0.022l0.153,0.02l0.154,0.018l0.154,0.016l0.156,0.014l0.155,0.013l0.156,0.011l0.157,0.008l0.158,0.007l0.157,0.005l0.159,0.003l0.159,0.001l0.159,-0.001l0.158,-0.003l0.158,-0.005l0.157,-0.007l0.157,-0.008l0.156,-0.011l0.156,-0.013l0.155,-0.014l0.154,-0.016l0.154,-0.018l0.154,-0.02l0.152,-0.022l0.152,-0.023l0.152,-0.026l0.151,-0.027l0.15,-0.029l0.149,-0.031l0.149,-0.032l0.148,-0.034l0.148,-0.036l0.146,-0.038l0.146,-0.039l0.146,-0.041l0.144,-0.043l0.144,-0.044l0.143,-0.046l0.142,-0.048l0.141,-0.05l0.141,-0.051l0.14,-0.052l0.139,-0.054l0.138,-0.056l0.137,-0.058l0.137,-0.059l0.135,-0.06l0.135,-0.062l0.134,-0.064l0.132,-0.065l0.132,-0.067l0.131,-0.068l0.13,-0.07l0.13,-0.071l0.128,-0.072l0.127,-0.074l0.126,-0.076l0.125,-0.077l0.124,-0.078l0.123,-0.08l0.122,-0.081l0.121,-0.083l0.12,-0.084l0.119,-0.085l0.118,-0.087l0.116,-0.088l0.116,-0.089l0.114,-0.091l0.114,-0.091l0.112,-0.094l0.111,-0.094l0.109,-0.096l0.109,-0.097l0.107,-0.098l0.107,-0.1l0.104,-0.1l0.104,-0.102l0.103,-0.103l0.101,-0.105l0.1,-0.105l0.098,-0.107l0.097,-0.107l0.096,-0.109l0.095,-0.11l0.093,-0.111l0.092,-0.113l0.091,-0.113l0.089,-0.114l0.088,-0.116l0.086,-0.116l0.085,-0.118l0.084,-0.118l0.082,-0.12l0.08,-0.121l0.08,-0.121l0.077,-0.123l0.077,-0.123l0.074,-0.125l0.074,-0.125l0.071,-0.126l0.07,-0.128l0.069,-0.128l0.067,-0.129l0.066,-0.13l0.064,-0.131l0.062,-0.131l0.061,-0.133l0.059,-0.133l0.057,-0.134l0.056,-0.135l0.054,-0.136l0.053,-0.137l0.05,-0.137l0.05,-0.138l0.047,-0.139l0.046,-0.14l0.044,-0.14l0.042,-0.141l0.041,-0.142l0.038,-0.143l0.037,-0.143l0.036,-0.144l0.033,-0.144l0.032,-0.145l0.029,-0.146l0.028,-0.147l0.026,-0.147l0.025,-0.148l0.022,-0.148l0.021,-0.149l0.018,-0.15l0.017,-0.15l0.015,-0.15l0.013,-0.152l0.01,-0.151l0.009,-0.152l0.007,-0.153l0.005,-0.154l0.003,-0.154l0.001,-0.154l-0.001,-0.154l-0.003,-0.154l-0.005,-0.153l-0.007,-0.153l-0.009,-0.153l-0.01,-0.151l-0.013,-0.151l-0.015,-0.151l-0.017,-0.15l-0.018,-0.15l-0.021,-0.149l-0.022,-0.148l-0.025,-0.148l-0.026,-0.147l-0.028,-0.146l-0.029,-0.146l-0.032,-0.146l-0.033,-0.144l-0.036,-0.144l-0.037,-0.143l-0.038,-0.143l-0.041,-0.142l-0.042,-0.141l-0.044,-0.14l-0.046,-0.14l-0.047,-0.138l-0.049,-0.139l-0.051,-0.137l-0.053,-0.137l-0.054,-0.135l-0.056,-0.135l-0.057,-0.135l-0.059,-0.133l-0.061,-0.132l-0.062,-0.132l-0.064,-0.131l-0.066,-0.13l-0.067,-0.129l-0.069,-0.128l-0.07,-0.127l-0.071,-0.127l-0.074,-0.125l-0.074,-0.125l-0.077,-0.123l-0.077,-0.123l-0.08,-0.121l-0.08,-0.121l-0.082,-0.119l-0.084,-0.119l-0.085,-0.117l-0.086,-0.117l-0.088,-0.115l-0.089,-0.115l-0.091,-0.113l-0.092,-0.112l-0.093,-0.111l-0.095,-0.11l-0.096,-0.109l-0.097,-0.108l-0.098,-0.107l-0.1,-0.105l-0.101,-0.105l-0.103,-0.103l-0.104,-0.102l-0.105,-0.1l-0.106,-0.1l-0.107,-0.098l-0.109,-0.097l-0.109,-0.096l-0.111,-0.094l-0.112,-0.093l-0.114,-0.092l-0.114,-0.091l-0.116,-0.089l-0.116,-0.088l-0.118,-0.087l-0.119,-0.085l-0.12,-0.084l-0.121,-0.083l-0.122,-0.081l-0.123,-0.08l-0.124,-0.078l-0.125,-0.077l-0.126,-0.075l-0.127,-0.075l-0.128,-0.072l-0.13,-0.071l-0.13,-0.07l-0.131,-0.068l-0.132,-0.067l-0.132,-0.065l-0.134,-0.064l-0.135,-0.062l-0.135,-0.06l-0.137,-0.059l-0.137,-0.058l-0.138,-0.055l-0.139,-0.055l-0.14,-0.052l-0.141,-0.051l-0.141,-0.05l-0.142,-0.047l-0.143,-0.046l-0.144,-0.045l-0.144,-0.043l-0.146,-0.041l-0.146,-0.039l-0.146,-0.038l-0.148,-0.036l-0.148,-0.034l-0.149,-0.032l-0.149,-0.031l-0.15,-0.029l-0.151,-0.027l-0.152,-0.025l-0.152,-0.024l-0.152,-0.022l-0.154,-0.02l-0.154,-0.018l-0.154,-0.016l-0.155,-0.014l-0.156,-0.013l-0.156,-0.01l-0.157,-0.009l-0.157,-0.007l-0.158,-0.005l-0.158,-0.003l-0.159,-0.001l-0.159,0.001Z" style="fill:rgb(29,29,29);"/>
                </g>
                <g id="Rounded-Rectangle" serif:id="Rounded Rectangle" transform="matrix(1,0,0,1.04514,-1.05048,-9.50852)">
                    <path d="M264.601,171.786c0,-0.554 -0.471,-1.005 -1.051,-1.005c-0.579,0 -1.05,0.451 -1.05,1.005l0,11.434l2.101,0l0,-11.434Z" style="fill:rgb(235,235,235);"/>
                </g>
            </g>
        </g>
    </g>
</svg>
